G04 DesignSpark PCB Gerber Version 11.0 Build 5877*
%FSLAX33Y33*%
%MOIN*%
%ADD11C,0.00500*%
%ADD10C,0.10000*%
X0Y0D02*
D02*
D10*
X321Y508D03*
X324Y668D03*
Y917D03*
Y1132D03*
Y1342D03*
Y1536D03*
Y1709D03*
X350Y2024D03*
X358Y1886D03*
X366Y1967D03*
X377Y411D03*
X405Y486D03*
X427Y1784D03*
X441Y220D03*
X466Y1637D03*
X468Y1941D03*
X477Y733D03*
X487Y468D03*
Y568D03*
Y668D03*
X519Y1489D03*
X522Y868D03*
Y947D03*
Y1026D03*
Y1105D03*
X535Y299D03*
X598Y2024D03*
X600Y107D03*
X610Y1941D03*
X651Y812D03*
X687Y216D03*
X698Y424D03*
Y524D03*
Y624D03*
Y724D03*
X700Y1724D03*
X710Y862D03*
Y1118D03*
X770Y673D03*
X787Y216D03*
X833Y524D03*
X862Y194D03*
X865Y677D03*
X869Y1764D03*
X870Y1909D03*
Y2028D03*
X888Y862D03*
Y1118D03*
X927Y128D03*
X966Y783D03*
X999Y1831D03*
X1018Y1166D03*
X1049Y427D03*
X1073Y784D03*
X1090Y938D03*
X1094Y1902D03*
Y2035D03*
X1119Y1327D03*
X1133Y1134D03*
X1144Y189D03*
X1161Y1781D03*
X1189Y230D03*
X1191Y356D03*
X1196Y945D03*
X1198Y607D03*
Y797D03*
X1259Y2028D03*
X1263Y1209D03*
X1297Y1073D03*
X1299Y1909D03*
X1323Y525D03*
X1358Y859D03*
X1360Y1216D03*
Y1217D03*
X1400Y582D03*
X1402Y623D03*
X1419Y1088D03*
X1454Y1777D03*
X1458Y1221D03*
X1467Y322D03*
X1469Y135D03*
X1472Y1909D03*
Y2028D03*
X1484Y969D03*
X1485Y623D03*
X1523Y530D03*
X1546Y1205D03*
X1560Y622D03*
X1613Y1918D03*
X1616Y1677D03*
X1636Y1139D03*
X1637Y699D03*
X1640Y322D03*
X1659Y428D03*
X1674Y1785D03*
X1680Y1612D03*
X1688Y2048D03*
X1696Y1192D03*
Y1264D03*
X1749Y1554D03*
X1753Y1048D03*
X1794Y671D03*
X1806Y135D03*
X1813Y1376D03*
X1826Y1876D03*
X1828Y227D03*
X1913Y1376D03*
X1933Y184D03*
Y284D03*
X1957Y1724D03*
X1961Y527D03*
X1962Y771D03*
Y867D03*
X1966Y2050D03*
X2005Y1948D03*
X2013Y1376D03*
X2062Y1827D03*
X2065Y922D03*
X2119Y1171D03*
X2152Y2048D03*
X2156Y248D03*
X2167Y1767D03*
X2194Y1944D03*
X2203Y482D03*
X2207Y767D03*
X2233Y1062D03*
Y1162D03*
Y1262D03*
Y1362D03*
Y1462D03*
Y1562D03*
Y1662D03*
Y1762D03*
X2239Y1826D03*
X2328Y103D03*
X2330Y653D03*
X2336Y2051D03*
X2337Y400D03*
X2338Y1944D03*
X2339Y897D03*
Y1133D03*
X2340Y1370D03*
X2341Y1562D03*
X2342Y1772D03*
D02*
D11*
X421Y567D02*
Y605D01*
Y586D02*
X453D01*
Y567D02*
Y605D01*
X424Y728D02*
Y765D01*
Y746D02*
X455D01*
Y728D02*
Y765D01*
X424Y977D02*
Y1014D01*
Y995D02*
X455D01*
Y977D02*
Y1014D01*
X424Y1191D02*
Y1229D01*
Y1210D02*
X455D01*
Y1191D02*
Y1229D01*
X424Y1401D02*
Y1438D01*
Y1420D02*
X455D01*
Y1401D02*
Y1438D01*
X424Y1596D02*
Y1633D01*
Y1615D02*
X455D01*
Y1596D02*
Y1633D01*
X424Y1768D02*
Y1806D01*
Y1787D02*
X455D01*
Y1768D02*
Y1806D01*
X450Y2083D02*
Y2120D01*
Y2102D02*
X481D01*
Y2083D02*
Y2120D01*
X458Y1945D02*
Y1983D01*
Y1964D02*
X489D01*
Y1945D02*
Y1983D01*
X466Y2027D02*
Y2064D01*
Y2046D02*
X497D01*
Y2027D02*
Y2064D01*
X499Y486D02*
X509D01*
Y483D01*
X506Y477D01*
X502Y474D01*
X496Y471D01*
X490D01*
X484Y474D01*
X481Y477D01*
X477Y483D01*
Y496D01*
X481Y502D01*
X484Y505D01*
X490Y508D01*
X496D01*
X502Y505D01*
X506Y502D01*
X509Y496D01*
X527Y561D02*
X536D01*
Y558D01*
X533Y552D01*
X530Y549D01*
X524Y546D01*
X517D01*
X511Y549D01*
X508Y552D01*
X505Y558D01*
Y571D01*
X508Y577D01*
X511Y580D01*
X517Y583D01*
X524D01*
X530Y580D01*
X533Y577D01*
X536Y571D01*
X549Y1859D02*
X558D01*
Y1856D01*
X555Y1850D01*
X552Y1846D01*
X546Y1843D01*
X539D01*
X533Y1846D01*
X530Y1850D01*
X527Y1856D01*
Y1868D01*
X530Y1875D01*
X533Y1878D01*
X539Y1881D01*
X546D01*
X552Y1878D01*
X555Y1875D01*
X558Y1868D01*
X541Y280D02*
X557Y317D01*
X573Y280D01*
X548Y295D02*
X566D01*
X587Y1712D02*
X597D01*
Y1708D01*
X594Y1702D01*
X591Y1699D01*
X584Y1696D01*
X578D01*
X572Y1699D01*
X569Y1702D01*
X566Y1708D01*
Y1721D01*
X569Y1727D01*
X572Y1730D01*
X578Y1733D01*
X584D01*
X591Y1730D01*
X594Y1727D01*
X597Y1721D01*
X568Y2000D02*
Y2038D01*
Y2019D02*
X599D01*
Y2000D02*
Y2038D01*
X577Y793D02*
Y830D01*
Y811D02*
X608D01*
Y793D02*
Y830D01*
X587Y527D02*
Y565D01*
X618D01*
X612Y546D02*
X587D01*
Y627D02*
Y665D01*
X618D01*
X612Y646D02*
X587D01*
Y727D02*
Y765D01*
X618D01*
X612Y746D02*
X587D01*
X619Y1549D02*
Y1586D01*
Y1568D02*
X650D01*
Y1549D02*
Y1586D01*
X622Y928D02*
Y965D01*
X653D01*
X647Y947D02*
X622D01*
Y1007D02*
Y1044D01*
X653D01*
X647Y1025D02*
X622D01*
Y1085D02*
Y1123D01*
X653D01*
X647Y1104D02*
X622D01*
Y1164D02*
Y1202D01*
X653D01*
X647Y1183D02*
X622D01*
X635Y359D02*
Y396D01*
Y377D02*
X666D01*
Y359D02*
Y396D01*
X698Y2083D02*
Y2120D01*
Y2102D02*
X729D01*
Y2083D02*
Y2120D01*
X700Y167D02*
Y204D01*
Y185D02*
X731D01*
Y167D02*
Y204D01*
X710Y2000D02*
Y2038D01*
Y2019D02*
X741D01*
Y2000D02*
Y2038D01*
X751Y871D02*
Y909D01*
Y890D02*
X783D01*
Y871D02*
Y909D01*
X818Y282D02*
X815Y279D01*
X809Y276D01*
X799D01*
X793Y279D01*
X790Y282D01*
X787Y288D01*
Y301D01*
X790Y307D01*
X793Y310D01*
X799Y313D01*
X809D01*
X815Y310D01*
X818Y307D01*
X798Y483D02*
Y521D01*
X829D01*
X823Y502D02*
X798D01*
Y583D02*
Y621D01*
X829D01*
X823Y602D02*
X798D01*
Y683D02*
Y721D01*
X829D01*
X823Y702D02*
X798D01*
Y783D02*
Y821D01*
X829D01*
X823Y802D02*
X798D01*
X800Y1783D02*
Y1821D01*
Y1802D02*
X831D01*
Y1783D02*
Y1821D01*
X810Y922D02*
Y959D01*
X841D01*
X835Y940D02*
X810D01*
Y1178D02*
Y1215D01*
X841D01*
X835Y1196D02*
X810D01*
X892Y748D02*
X901D01*
Y745D01*
X898Y739D01*
X895Y736D01*
X889Y733D01*
X883D01*
X876Y736D01*
X873Y739D01*
X870Y745D01*
Y758D01*
X873Y764D01*
X876Y767D01*
X883Y770D01*
X889D01*
X895Y767D01*
X898Y764D01*
X901Y758D01*
X918Y282D02*
X915Y279D01*
X909Y276D01*
X899D01*
X893Y279D01*
X890Y282D01*
X887Y288D01*
Y301D01*
X890Y307D01*
X893Y310D01*
X899Y313D01*
X909D01*
X915Y310D01*
X918Y307D01*
X933Y583D02*
Y621D01*
Y602D02*
X964D01*
Y583D02*
Y621D01*
X962Y253D02*
Y291D01*
Y272D02*
X994D01*
Y253D02*
Y291D01*
X987Y752D02*
X996D01*
Y749D01*
X993Y742D01*
X990Y739D01*
X984Y736D01*
X977D01*
X971Y739D01*
X968Y742D01*
X965Y749D01*
Y761D01*
X968Y767D01*
X971Y770D01*
X977Y774D01*
X984D01*
X990Y770D01*
X993Y767D01*
X996Y761D01*
X969Y1823D02*
Y1861D01*
Y1842D02*
X1000D01*
Y1823D02*
Y1861D01*
X970Y1969D02*
Y2006D01*
Y1988D02*
X1001D01*
Y1969D02*
Y2006D01*
X970Y2087D02*
Y2124D01*
Y2106D02*
X1001D01*
Y2087D02*
Y2124D01*
X988Y922D02*
Y959D01*
X1019D01*
X1013Y940D02*
X988D01*
Y1178D02*
Y1215D01*
X1019D01*
X1013Y1196D02*
X988D01*
X1027Y187D02*
Y225D01*
Y206D02*
X1058D01*
Y187D02*
Y225D01*
X1088Y858D02*
X1097D01*
Y855D01*
X1094Y849D01*
X1091Y846D01*
X1085Y842D01*
X1078D01*
X1072Y846D01*
X1069Y849D01*
X1066Y855D01*
Y867D01*
X1069Y874D01*
X1072Y877D01*
X1078Y880D01*
X1085D01*
X1091Y877D01*
X1094Y874D01*
X1097Y867D01*
X1099Y1890D02*
Y1928D01*
Y1909D02*
X1131D01*
Y1890D02*
Y1928D01*
X1118Y1226D02*
Y1263D01*
Y1244D02*
X1150D01*
Y1226D02*
Y1263D01*
X1149Y487D02*
Y524D01*
Y505D02*
X1180D01*
Y487D02*
Y524D01*
X1195Y859D02*
X1205D01*
Y856D01*
X1201Y850D01*
X1198Y847D01*
X1192Y844D01*
X1186D01*
X1180Y847D01*
X1176Y850D01*
X1173Y856D01*
Y869D01*
X1176Y875D01*
X1180Y878D01*
X1186Y881D01*
X1192D01*
X1198Y878D01*
X1201Y875D01*
X1205Y869D01*
X1190Y997D02*
Y1035D01*
Y1016D02*
X1221D01*
Y997D02*
Y1035D01*
X1216Y1977D02*
X1225D01*
Y1973D01*
X1222Y1967D01*
X1219Y1964D01*
X1213Y1961D01*
X1206D01*
X1200Y1964D01*
X1197Y1967D01*
X1194Y1973D01*
Y1986D01*
X1197Y1992D01*
X1200Y1995D01*
X1206Y1998D01*
X1213D01*
X1219Y1995D01*
X1222Y1992D01*
X1225Y1986D01*
X1194Y2095D02*
Y2132D01*
Y2114D02*
X1225D01*
Y2095D02*
Y2132D01*
X1241Y1402D02*
X1251D01*
Y1399D01*
X1248Y1392D01*
X1244Y1389D01*
X1238Y1386D01*
X1232D01*
X1226Y1389D01*
X1223Y1392D01*
X1219Y1399D01*
Y1411D01*
X1223Y1417D01*
X1226Y1421D01*
X1232Y1424D01*
X1238D01*
X1244Y1421D01*
X1248Y1417D01*
X1251Y1411D01*
X1233Y1193D02*
Y1231D01*
Y1212D02*
X1264D01*
Y1193D02*
Y1231D01*
X1244Y248D02*
Y286D01*
Y267D02*
X1275D01*
Y248D02*
Y286D01*
X1261Y1840D02*
Y1878D01*
Y1859D02*
X1292D01*
Y1840D02*
Y1878D01*
X1311Y305D02*
X1321D01*
Y302D01*
X1318Y296D01*
X1314Y293D01*
X1308Y290D01*
X1302D01*
X1296Y293D01*
X1293Y296D01*
X1289Y302D01*
Y315D01*
X1293Y321D01*
X1296Y324D01*
X1302Y327D01*
X1308D01*
X1314Y324D01*
X1318Y321D01*
X1321Y315D01*
X1313Y431D02*
X1322D01*
Y428D01*
X1319Y422D01*
X1316Y419D01*
X1309Y416D01*
X1303D01*
X1297Y419D01*
X1294Y422D01*
X1291Y428D01*
Y441D01*
X1294Y447D01*
X1297Y450D01*
X1303Y453D01*
X1309D01*
X1316Y450D01*
X1319Y447D01*
X1322Y441D01*
X1296Y1004D02*
Y1042D01*
Y1023D02*
X1328D01*
Y1004D02*
Y1042D01*
X1320Y682D02*
X1329D01*
Y679D01*
X1326Y673D01*
X1323Y670D01*
X1317Y666D01*
X1311D01*
X1304Y670D01*
X1301Y673D01*
X1298Y679D01*
Y691D01*
X1301Y698D01*
X1304Y701D01*
X1311Y704D01*
X1317D01*
X1323Y701D01*
X1326Y698D01*
X1329Y691D01*
X1320Y872D02*
X1329D01*
Y869D01*
X1326Y862D01*
X1323Y859D01*
X1317Y856D01*
X1311D01*
X1304Y859D01*
X1301Y862D01*
X1298Y869D01*
Y881D01*
X1301Y887D01*
X1304Y891D01*
X1311Y894D01*
X1317D01*
X1323Y891D01*
X1326Y887D01*
X1329Y881D01*
X1359Y2087D02*
Y2124D01*
Y2106D02*
X1391D01*
Y2087D02*
Y2124D01*
X1363Y1268D02*
Y1306D01*
Y1287D02*
X1394D01*
Y1268D02*
Y1306D01*
X1419Y1148D02*
X1429D01*
Y1145D01*
X1426Y1138D01*
X1422Y1135D01*
X1416Y1132D01*
X1410D01*
X1404Y1135D01*
X1401Y1138D01*
X1397Y1145D01*
Y1157D01*
X1401Y1163D01*
X1404Y1167D01*
X1410Y1170D01*
X1416D01*
X1422Y1167D01*
X1426Y1163D01*
X1429Y1157D01*
X1399Y1969D02*
Y2006D01*
Y1988D02*
X1430D01*
Y1969D02*
Y2006D01*
X1445Y600D02*
X1454D01*
Y597D01*
X1451Y590D01*
X1448Y587D01*
X1442Y584D01*
X1435D01*
X1429Y587D01*
X1426Y590D01*
X1423Y597D01*
Y609D01*
X1426Y615D01*
X1429Y618D01*
X1435Y622D01*
X1442D01*
X1448Y618D01*
X1451Y615D01*
X1454Y609D01*
X1480Y934D02*
X1489D01*
Y931D01*
X1486Y925D01*
X1483Y922D01*
X1477Y918D01*
X1470D01*
X1464Y922D01*
X1461Y925D01*
X1458Y931D01*
Y943D01*
X1461Y950D01*
X1464Y953D01*
X1470Y956D01*
X1477D01*
X1483Y953D01*
X1486Y950D01*
X1489Y943D01*
X1460Y1275D02*
Y1312D01*
Y1294D02*
X1491D01*
Y1275D02*
Y1312D01*
X1460Y1276D02*
Y1313D01*
Y1295D02*
X1491D01*
Y1276D02*
Y1313D01*
X1500Y642D02*
Y679D01*
Y660D02*
X1532D01*
Y642D02*
Y679D01*
X1502Y683D02*
Y720D01*
Y701D02*
X1533D01*
Y683D02*
Y720D01*
X1519Y1147D02*
Y1184D01*
Y1166D02*
X1550D01*
Y1147D02*
Y1184D01*
X1554Y1836D02*
Y1873D01*
Y1855D02*
X1585D01*
Y1836D02*
Y1873D01*
X1580Y1296D02*
X1589D01*
Y1293D01*
X1586Y1287D01*
X1583Y1284D01*
X1576Y1281D01*
X1570D01*
X1564Y1284D01*
X1561Y1287D01*
X1558Y1293D01*
Y1306D01*
X1561Y1312D01*
X1564Y1315D01*
X1570Y1318D01*
X1576D01*
X1583Y1315D01*
X1586Y1312D01*
X1589Y1306D01*
X1577Y382D02*
X1589D01*
X1583D02*
Y419D01*
X1577D02*
X1589D01*
X1569Y194D02*
Y232D01*
Y213D02*
X1600D01*
Y194D02*
Y232D01*
X1572Y1969D02*
Y2006D01*
Y1988D02*
X1603D01*
Y1969D02*
Y2006D01*
X1572Y2087D02*
Y2124D01*
Y2106D02*
X1603D01*
Y2087D02*
Y2124D01*
X1584Y1028D02*
Y1065D01*
Y1047D02*
X1615D01*
Y1028D02*
Y1065D01*
X1585Y683D02*
Y720D01*
Y701D02*
X1616D01*
Y683D02*
Y720D01*
X1644Y605D02*
X1654D01*
Y602D01*
X1651Y595D01*
X1648Y592D01*
X1641Y589D01*
X1635D01*
X1629Y592D01*
X1626Y595D01*
X1623Y602D01*
Y614D01*
X1626Y620D01*
X1629Y623D01*
X1635Y627D01*
X1641D01*
X1648Y623D01*
X1651Y620D01*
X1654Y614D01*
X1646Y1264D02*
Y1302D01*
Y1283D02*
X1678D01*
Y1264D02*
Y1302D01*
X1660Y681D02*
Y719D01*
Y700D02*
X1691D01*
Y681D02*
Y719D01*
X1713Y1977D02*
Y2014D01*
Y1996D02*
X1744D01*
Y1977D02*
Y2014D01*
X1738Y1752D02*
X1748D01*
Y1749D01*
X1745Y1743D01*
X1741Y1740D01*
X1735Y1736D01*
X1729D01*
X1723Y1740D01*
X1720Y1743D01*
X1716Y1749D01*
Y1761D01*
X1720Y1768D01*
X1723Y1771D01*
X1729Y1774D01*
X1735D01*
X1741Y1771D01*
X1745Y1768D01*
X1748Y1761D01*
X1736Y1198D02*
Y1236D01*
Y1217D02*
X1767D01*
Y1198D02*
Y1236D01*
X1737Y758D02*
Y796D01*
Y777D02*
X1768D01*
Y758D02*
Y796D01*
X1750Y382D02*
X1762D01*
X1756D02*
Y419D01*
X1750D02*
X1762D01*
X1759Y488D02*
Y525D01*
Y506D02*
X1790D01*
Y488D02*
Y525D01*
X1774Y1845D02*
Y1882D01*
Y1863D02*
X1805D01*
Y1845D02*
Y1882D01*
X1780Y1671D02*
Y1709D01*
Y1690D02*
X1811D01*
Y1671D02*
Y1709D01*
X1788Y2108D02*
Y2145D01*
Y2126D02*
X1820D01*
Y2108D02*
Y2145D01*
X1796Y1252D02*
Y1289D01*
Y1271D02*
X1827D01*
Y1252D02*
Y1289D01*
X1796Y1323D02*
Y1361D01*
Y1342D02*
X1827D01*
Y1323D02*
Y1361D01*
X1849Y1614D02*
Y1651D01*
Y1632D02*
X1881D01*
Y1614D02*
Y1651D01*
X1875Y1123D02*
X1885D01*
Y1120D01*
X1882Y1113D01*
X1878Y1110D01*
X1872Y1107D01*
X1866D01*
X1860Y1110D01*
X1857Y1113D01*
X1853Y1120D01*
Y1132D01*
X1857Y1138D01*
X1860Y1141D01*
X1866Y1145D01*
X1872D01*
X1878Y1141D01*
X1882Y1138D01*
X1885Y1132D01*
X1894Y731D02*
Y768D01*
Y749D02*
X1925D01*
Y731D02*
Y768D01*
X1906Y194D02*
Y232D01*
Y213D02*
X1937D01*
Y194D02*
Y232D01*
X1913Y1435D02*
Y1473D01*
X1944D01*
X1938Y1454D02*
X1913D01*
X1926Y1935D02*
X1942Y1973D01*
X1957Y1935D01*
X1932Y1951D02*
X1951D01*
X1950Y302D02*
X1959D01*
Y299D01*
X1956Y293D01*
X1953Y290D01*
X1947Y287D01*
X1941D01*
X1934Y290D01*
X1931Y293D01*
X1928Y299D01*
Y312D01*
X1931Y318D01*
X1934Y321D01*
X1941Y324D01*
X1947D01*
X1953Y321D01*
X1956Y318D01*
X1959Y312D01*
X2013Y1435D02*
Y1473D01*
X2044D01*
X2038Y1454D02*
X2013D01*
X2065Y250D02*
X2062Y247D01*
X2055Y244D01*
X2046D01*
X2040Y247D01*
X2037Y250D01*
X2033Y256D01*
Y269D01*
X2037Y275D01*
X2040Y278D01*
X2046Y281D01*
X2055D01*
X2062Y278D01*
X2065Y275D01*
Y350D02*
X2062Y347D01*
X2055Y344D01*
X2046D01*
X2040Y347D01*
X2037Y350D01*
X2033Y356D01*
Y369D01*
X2037Y375D01*
X2040Y378D01*
X2046Y381D01*
X2055D01*
X2062Y378D01*
X2065Y375D01*
X2057Y1783D02*
Y1821D01*
Y1802D02*
X2088D01*
Y1783D02*
Y1821D01*
X2061Y586D02*
Y623D01*
Y605D02*
X2092D01*
Y586D02*
Y623D01*
X2062Y830D02*
Y867D01*
Y849D02*
X2093D01*
Y830D02*
Y867D01*
X2062Y927D02*
Y964D01*
Y945D02*
X2093D01*
Y927D02*
Y964D01*
X2066Y2110D02*
Y2147D01*
Y2128D02*
X2097D01*
Y2110D02*
Y2147D01*
X2105Y2007D02*
Y2045D01*
Y2026D02*
X2137D01*
Y2007D02*
Y2045D01*
X2113Y1435D02*
Y1473D01*
X2144D01*
X2138Y1454D02*
X2113D01*
X2162Y1886D02*
Y1924D01*
Y1905D02*
X2194D01*
Y1886D02*
Y1924D01*
X2187Y997D02*
X2197D01*
Y993D01*
X2194Y987D01*
X2190Y984D01*
X2184Y981D01*
X2178D01*
X2172Y984D01*
X2169Y987D01*
X2165Y993D01*
Y1006D01*
X2169Y1012D01*
X2172Y1015D01*
X2178Y1018D01*
X2184D01*
X2190Y1015D01*
X2194Y1012D01*
X2197Y1006D01*
X2219Y1231D02*
Y1268D01*
Y1249D02*
X2250D01*
Y1231D02*
Y1268D01*
X2252Y2108D02*
Y2145D01*
Y2126D02*
X2283D01*
Y2108D02*
Y2145D01*
X2256Y307D02*
X2272Y345D01*
X2287Y307D01*
X2262Y323D02*
X2281D01*
X2267Y1826D02*
Y1864D01*
Y1845D02*
X2298D01*
Y1826D02*
Y1864D01*
X2294Y2003D02*
Y2041D01*
Y2022D02*
X2326D01*
Y2003D02*
Y2041D01*
X2303Y542D02*
Y579D01*
Y560D02*
X2334D01*
Y542D02*
Y579D01*
X2307Y826D02*
Y864D01*
Y845D02*
X2338D01*
Y826D02*
Y864D01*
X2333Y1127D02*
X2336Y1124D01*
X2342Y1121D01*
X2348Y1124D01*
X2351Y1127D01*
Y1158D01*
X2358D01*
X2351D02*
X2339D01*
X2333Y1227D02*
X2336Y1224D01*
X2342Y1221D01*
X2348Y1224D01*
X2351Y1227D01*
Y1258D01*
X2358D01*
X2351D02*
X2339D01*
X2333Y1327D02*
X2336Y1324D01*
X2342Y1321D01*
X2348Y1324D01*
X2351Y1327D01*
Y1358D01*
X2358D01*
X2351D02*
X2339D01*
X2333Y1427D02*
X2336Y1424D01*
X2342Y1421D01*
X2348Y1424D01*
X2351Y1427D01*
Y1458D01*
X2358D01*
X2351D02*
X2339D01*
X2333Y1527D02*
X2336Y1524D01*
X2342Y1521D01*
X2348Y1524D01*
X2351Y1527D01*
Y1558D01*
X2358D01*
X2351D02*
X2339D01*
X2333Y1627D02*
X2336Y1624D01*
X2342Y1621D01*
X2348Y1624D01*
X2351Y1627D01*
Y1658D01*
X2358D01*
X2351D02*
X2339D01*
X2333Y1727D02*
X2336Y1724D01*
X2342Y1721D01*
X2348Y1724D01*
X2351Y1727D01*
Y1758D01*
X2358D01*
X2351D02*
X2339D01*
X2333Y1827D02*
X2336Y1824D01*
X2342Y1821D01*
X2348Y1824D01*
X2351Y1827D01*
Y1858D01*
X2358D01*
X2351D02*
X2339D01*
X2361Y1901D02*
X2370D01*
Y1898D01*
X2367Y1891D01*
X2364Y1888D01*
X2358Y1885D01*
X2351D01*
X2345Y1888D01*
X2342Y1891D01*
X2339Y1898D01*
Y1910D01*
X2342Y1916D01*
X2345Y1920D01*
X2351Y1923D01*
X2358D01*
X2364Y1920D01*
X2367Y1916D01*
X2370Y1910D01*
X2428Y163D02*
Y200D01*
Y181D02*
X2459D01*
Y163D02*
Y200D01*
X2430Y712D02*
Y749D01*
Y731D02*
X2461D01*
Y712D02*
Y749D01*
X2436Y2111D02*
Y2148D01*
Y2129D02*
X2467D01*
Y2111D02*
Y2148D01*
X2437Y459D02*
Y496D01*
Y478D02*
X2468D01*
Y459D02*
Y496D01*
X2438Y2003D02*
Y2041D01*
Y2022D02*
X2469D01*
Y2003D02*
Y2041D01*
X2439Y956D02*
Y994D01*
Y975D02*
X2470D01*
Y956D02*
Y994D01*
X2439Y1192D02*
Y1230D01*
Y1211D02*
X2470D01*
Y1192D02*
Y1230D01*
X2440Y1429D02*
Y1467D01*
Y1448D02*
X2471D01*
Y1429D02*
Y1467D01*
X2441Y1621D02*
Y1659D01*
Y1640D02*
X2472D01*
Y1621D02*
Y1659D01*
X2442Y1831D02*
Y1869D01*
Y1850D02*
X2473D01*
Y1831D02*
Y1869D01*
X0Y0D02*
M02*
