G04 DesignSpark PCB Gerber Version 11.0 Build 5877*
%FSLAX33Y33*%
%MOIN*%
%ADD18O,0.06600X0.12600*%
%ADD72O,0.07687X0.14773*%
%ADD22O,0.05400X0.02400*%
%ADD19O,0.12600X0.06600*%
%ADD92O,0.14773X0.07687*%
%ADD12R,0.02175X0.06899*%
%ADD75R,0.02175X0.09700*%
%ADD78R,0.02600X0.03650*%
%ADD20R,0.03600X0.07600*%
%ADD24R,0.04000X0.06000*%
%ADD73R,0.05300X0.09300*%
%ADD91R,0.06100X0.06600*%
%ADD83R,0.06600X0.10600*%
%ADD84R,0.06600X0.10640*%
%ADD71R,0.06900X0.07690*%
%ADD26R,0.06900X0.10400*%
%ADD23R,0.07600X0.09600*%
%ADD28R,0.08474X0.13198*%
%ADD77R,0.08500X0.10400*%
%ADD15R,0.03750X0.03750*%
%ADD13R,0.06899X0.02175*%
%ADD25R,0.04000X0.02200*%
%ADD21R,0.05400X0.02400*%
%ADD79R,0.02800X0.02600*%
%ADD80R,0.03400X0.02600*%
%ADD17R,0.08474X0.03356*%
%ADD88R,0.04700X0.04500*%
%ADD29R,0.08474X0.04537*%
%ADD89R,0.09300X0.04700*%
%ADD93R,0.05303X0.04800*%
%ADD90R,0.06600X0.06100*%
%ADD85R,0.10600X0.06600*%
%ADD86R,0.10640X0.06600*%
%ADD87R,0.12600X0.06600*%
%ADD27R,0.09600X0.07600*%
%ADD14R,0.06899X0.06899*%
%ADD82R,0.08474X0.08474*%
%ADD16C,0.00100*%
%ADD10C,0.02962*%
%ADD76C,0.04143*%
%ADD70C,0.08000*%
%ADD81C,0.08600*%
%ADD11C,0.28159*%
%ADD74R,0.14800X0.09300*%
X0Y0D02*
D02*
D10*
X321Y508D03*
X324Y668D03*
Y917D03*
Y1132D03*
Y1342D03*
Y1536D03*
Y1709D03*
X350Y2024D03*
X358Y1886D03*
X366Y1967D03*
X377Y411D03*
X405Y486D03*
X427Y1784D03*
X466Y1637D03*
X468Y1941D03*
X477Y733D03*
X519Y1489D03*
X535Y299D03*
X598Y2024D03*
X600Y107D03*
X610Y1941D03*
X651Y812D03*
X700Y1724D03*
X770Y673D03*
X833Y524D03*
X862Y194D03*
X865Y677D03*
X869Y1764D03*
X870Y1909D03*
Y2028D03*
X927Y128D03*
X966Y783D03*
X999Y1831D03*
X1018Y1166D03*
X1049Y427D03*
X1073Y784D03*
X1090Y938D03*
X1094Y1902D03*
Y2035D03*
X1119Y1327D03*
X1133Y1134D03*
X1144Y189D03*
X1161Y1781D03*
X1189Y230D03*
X1191Y356D03*
X1196Y945D03*
X1198Y607D03*
Y797D03*
X1259Y2028D03*
X1263Y1209D03*
X1297Y1073D03*
X1299Y1909D03*
X1323Y525D03*
X1358Y859D03*
X1360Y1216D03*
Y1217D03*
X1400Y582D03*
X1402Y623D03*
X1419Y1088D03*
X1454Y1777D03*
X1458Y1221D03*
X1469Y135D03*
X1472Y1909D03*
Y2028D03*
X1484Y969D03*
X1485Y623D03*
X1523Y530D03*
X1546Y1205D03*
X1560Y622D03*
X1613Y1918D03*
X1616Y1677D03*
X1636Y1139D03*
X1637Y699D03*
X1659Y428D03*
X1674Y1785D03*
X1680Y1612D03*
X1688Y2048D03*
X1696Y1192D03*
Y1264D03*
X1749Y1554D03*
X1753Y1048D03*
X1794Y671D03*
X1806Y135D03*
X1828Y227D03*
X1957Y1724D03*
X1961Y527D03*
X1962Y771D03*
Y867D03*
X1966Y2050D03*
X2005Y1948D03*
X2062Y1827D03*
X2065Y922D03*
X2119Y1171D03*
X2152Y2048D03*
X2167Y1767D03*
X2194Y1944D03*
X2203Y482D03*
X2207Y767D03*
X2239Y1826D03*
X2328Y103D03*
X2330Y653D03*
X2336Y2051D03*
X2337Y400D03*
X2338Y1944D03*
X2339Y897D03*
Y1133D03*
X2340Y1370D03*
X2341Y1562D03*
X2342Y1772D03*
D02*
D11*
X441Y220D03*
X1826Y1876D03*
X2156Y248D03*
D02*
D12*
X1234Y1137D03*
Y1611D03*
X1266Y1137D03*
Y1611D03*
X1297Y1137D03*
Y1611D03*
X1329Y1137D03*
Y1611D03*
X1360Y1137D03*
Y1611D03*
X1392Y1137D03*
Y1611D03*
X1423Y1137D03*
Y1611D03*
X1455Y1137D03*
Y1611D03*
X1486Y1137D03*
Y1611D03*
X1518Y1137D03*
Y1611D03*
X1549Y1137D03*
Y1611D03*
X1581Y1137D03*
Y1611D03*
D02*
D13*
X1186Y1201D03*
Y1232D03*
Y1264D03*
Y1295D03*
Y1327D03*
Y1358D03*
Y1390D03*
Y1421D03*
Y1453D03*
Y1484D03*
Y1516D03*
Y1547D03*
X1627Y1201D03*
Y1232D03*
Y1264D03*
Y1295D03*
Y1327D03*
Y1358D03*
Y1390D03*
Y1421D03*
Y1453D03*
Y1484D03*
Y1516D03*
Y1547D03*
D02*
D14*
X1309Y1374D03*
Y1472D03*
X1408Y1276D03*
Y1374D03*
Y1472D03*
X1506Y1276D03*
Y1374D03*
Y1472D03*
D02*
D15*
X1309Y1276D03*
D02*
D16*
X1274Y1311D02*
X1345D01*
Y1240D01*
X1294D01*
X1274Y1260D01*
Y1311D01*
G36*
X1274Y1311D02*
X1345D01*
Y1240D01*
X1294D01*
X1274Y1260D01*
Y1311D01*
G37*
D02*
D17*
X936Y329D03*
Y378D03*
Y427D03*
Y476D03*
Y526D03*
Y575D03*
Y624D03*
X1118Y329D03*
Y378D03*
Y427D03*
Y476D03*
Y526D03*
Y575D03*
Y624D03*
D02*
D18*
X1813Y1376D03*
X1913D03*
X2013D03*
D02*
D19*
X487Y468D03*
Y568D03*
Y668D03*
X522Y868D03*
Y947D03*
Y1026D03*
X698Y424D03*
Y524D03*
Y624D03*
Y724D03*
D02*
D70*
X710Y862D03*
Y1118D03*
X888Y862D03*
Y1118D03*
D02*
D71*
X1252Y1001D03*
X1344Y1712D03*
X1363Y1001D03*
X1454Y1712D03*
D02*
D20*
X2002Y1509D03*
Y1809D03*
X2052Y1509D03*
Y1809D03*
D02*
D21*
X1413Y896D03*
D02*
D22*
Y822D03*
Y859D03*
X1516Y822D03*
X1517Y897D03*
D02*
D23*
X1279Y731D03*
Y881D03*
X2003Y951D03*
Y1101D03*
D02*
D24*
X515Y1271D03*
Y1407D03*
X571Y1271D03*
Y1407D03*
D02*
D25*
X516Y1596D03*
Y1637D03*
Y1676D03*
X651Y1597D03*
Y1637D03*
Y1676D03*
D02*
D26*
X583Y1637D03*
D02*
D27*
X708Y1363D03*
X708Y1462D03*
X709Y1264D03*
X770Y1599D03*
Y1712D03*
X858Y1363D03*
X858Y1462D03*
X859Y1264D03*
X920Y1599D03*
Y1712D03*
X1644Y920D03*
X1705Y1668D03*
X1794Y920D03*
X1838Y442D03*
X1855Y1668D03*
X1988Y442D03*
D02*
D28*
X2138Y891D03*
X2140Y463D03*
D02*
D29*
X1808Y1051D03*
Y1126D03*
X1908Y1088D03*
D02*
D72*
X687Y216D03*
X787D03*
D02*
D73*
X1638Y816D03*
X1728D03*
X1818D03*
D02*
D74*
X1729Y568D03*
D02*
D75*
X1491Y425D03*
X1522D03*
X1554D03*
X1585D03*
X1617D03*
D02*
D76*
X1467Y322D03*
X1640D03*
D02*
D77*
X1379Y204D03*
Y421D03*
X1729Y204D03*
Y421D03*
D02*
D78*
X1485Y571D03*
Y671D03*
X1523Y571D03*
Y671D03*
X1560Y571D03*
Y671D03*
D02*
D79*
X2078Y1122D03*
X2118D03*
D02*
D80*
X2098Y983D03*
D02*
D81*
X2233Y1762D03*
D02*
D82*
Y1062D03*
Y1162D03*
Y1262D03*
Y1362D03*
Y1462D03*
Y1562D03*
Y1662D03*
D02*
D83*
X1273Y395D03*
D02*
D84*
Y215D03*
D02*
D85*
X518Y1812D03*
X1678Y1048D03*
D02*
D86*
X698Y1812D03*
X1498Y1048D03*
D02*
D87*
X522Y1105D03*
D02*
D88*
X1298Y1839D03*
D02*
D89*
X1238Y1781D03*
Y1897D03*
D02*
D90*
X1458Y1839D03*
X1548D03*
X1549Y1874D03*
Y2050D03*
X1639Y1874D03*
Y2050D03*
D02*
D91*
X1548Y1917D03*
Y2007D03*
X1553Y1729D03*
Y1819D03*
D02*
D92*
X1933Y184D03*
Y284D03*
D02*
D93*
X1367Y672D03*
Y747D03*
X0Y0D02*
M02*
