G04 DesignSpark PCB Gerber Version 11.0 Build 5877*
%FSLAX33Y33*%
%MOIN*%
%ADD139C,0.00500*%
%ADD150C,0.01000*%
%ADD151C,0.02000*%
X0Y0D02*
D02*
D139*
X1230Y1485D02*
X1255D01*
X1233Y1507D01*
X1230Y1513D01*
X1233Y1519D01*
X1240Y1522D01*
X1249D01*
X1255Y1519D01*
X1205Y1494D02*
X1202Y1500D01*
X1196Y1504D01*
X1190D01*
X1183Y1500D01*
X1180Y1494D01*
X1183Y1488D01*
X1190Y1485D01*
X1196D01*
X1202Y1488D01*
X1205Y1494D01*
Y1504D01*
X1202Y1513D01*
X1196Y1519D01*
X1190Y1522D01*
X1155Y1485D02*
X1124Y1522D01*
X1102Y1488D02*
X1096Y1485D01*
X1090D01*
X1083Y1488D01*
X1080Y1494D01*
Y1513D01*
X1083Y1519D01*
X1090Y1522D01*
X1096D01*
X1102Y1519D01*
X1105Y1513D01*
Y1494D01*
X1102Y1488D01*
X1083Y1519D01*
X1055Y1488D02*
X1049Y1485D01*
X1040D01*
X1033Y1488D01*
X1030Y1494D01*
Y1497D01*
X1033Y1504D01*
X1040Y1507D01*
X1055D01*
Y1522D01*
X1030D01*
X1005Y1485D02*
X974Y1522D01*
X930Y1485D02*
X955D01*
X933Y1507D01*
X930Y1513D01*
X933Y1519D01*
X940Y1522D01*
X949D01*
X955Y1519D01*
X902Y1488D02*
X896Y1485D01*
X890D01*
X883Y1488D01*
X880Y1494D01*
Y1513D01*
X883Y1519D01*
X890Y1522D01*
X896D01*
X902Y1519D01*
X905Y1513D01*
Y1494D01*
X902Y1488D01*
X883Y1519D01*
X830Y1485D02*
X855D01*
X833Y1507D01*
X830Y1513D01*
X833Y1519D01*
X840Y1522D01*
X849D01*
X855Y1519D01*
X802Y1488D02*
X796Y1485D01*
X790D01*
X783Y1488D01*
X780Y1494D01*
X783Y1500D01*
X790Y1504D01*
X796D01*
X790D02*
X783Y1507D01*
X780Y1513D01*
X783Y1519D01*
X790Y1522D01*
X796D01*
X802Y1519D01*
X705Y1491D02*
X702Y1488D01*
X696Y1485D01*
X690Y1488D01*
X687Y1491D01*
Y1522D01*
X680D01*
X687D02*
X699D01*
X655D02*
Y1485D01*
X624D01*
X605Y1494D02*
X602Y1488D01*
X596Y1485D01*
X583D01*
X577Y1488D01*
X574Y1494D01*
X577Y1500D01*
X583Y1504D01*
X596D01*
X602Y1507D01*
X605Y1513D01*
X602Y1519D01*
X596Y1522D01*
X583D01*
X577Y1519D01*
X574Y1513D01*
X1708Y1435D02*
X1693D01*
X1701Y1441D02*
Y1413D01*
X1697Y1410D01*
X1694D01*
X1691Y1413D01*
X1638D02*
X1641Y1410D01*
X1647D01*
X1654D01*
X1660Y1413D01*
X1663Y1419D01*
Y1429D01*
X1660Y1432D01*
X1654Y1435D01*
X1647D01*
X1641Y1432D01*
X1638Y1429D01*
Y1426D01*
X1641Y1422D01*
X1647Y1419D01*
X1654D01*
X1660Y1422D01*
X1663Y1426D01*
X1613Y1413D02*
X1607Y1410D01*
X1594D01*
X1588Y1413D01*
Y1419D01*
X1594Y1422D01*
X1607D01*
X1613Y1426D01*
Y1432D01*
X1607Y1435D01*
X1594D01*
X1588Y1432D01*
X1558Y1435D02*
X1543D01*
X1551Y1441D02*
Y1413D01*
X1547Y1410D01*
X1544D01*
X1541Y1413D01*
X1513Y1410D02*
X1482D01*
X1432Y1416D02*
X1435Y1413D01*
X1441Y1410D01*
X1451D01*
X1457Y1413D01*
X1460Y1416D01*
X1463Y1422D01*
Y1435D01*
X1460Y1441D01*
X1457Y1444D01*
X1451Y1447D01*
X1441D01*
X1435Y1444D01*
X1432Y1441D01*
X1413Y1410D02*
Y1447D01*
X1397Y1429D01*
X1382Y1447D01*
Y1410D01*
X1363Y1447D02*
X1360Y1410D01*
X1347Y1429D01*
X1335Y1410D01*
X1332Y1447D01*
X1313Y1410D02*
X1282Y1447D01*
X1313D02*
X1282Y1410D01*
X1257D02*
X1244D01*
X1251D02*
Y1447D01*
X1257Y1441D01*
X1213Y1447D02*
X1182D01*
X1213Y1410D01*
X1182D01*
X1163Y1447D02*
X1132D01*
X1163Y1410D01*
X1132D01*
X1113D02*
X1097Y1447D01*
X1082Y1410D01*
X1107Y1426D02*
X1088D01*
X1041Y1429D02*
X1035Y1426D01*
X1032Y1419D01*
X1035Y1413D01*
X1041Y1410D01*
X1063D01*
Y1447D01*
X1041D01*
X1035Y1444D01*
X1032Y1438D01*
X1035Y1432D01*
X1041Y1429D01*
X1063D01*
X1013Y1447D02*
X982D01*
X1013Y1410D01*
X982D01*
X963Y1422D02*
X938D01*
X910Y1413D02*
X904Y1410D01*
X897D01*
X891Y1413D01*
X888Y1419D01*
Y1438D01*
X891Y1444D01*
X897Y1447D01*
X904D01*
X910Y1444D01*
X913Y1438D01*
Y1419D01*
X910Y1413D01*
X891Y1444D01*
X854Y1410D02*
X847Y1413D01*
X841Y1419D01*
X838Y1429D01*
Y1438D01*
X841Y1444D01*
X847Y1447D01*
X854D01*
X860Y1444D01*
X863Y1438D01*
X860Y1432D01*
X854Y1429D01*
X847D01*
X841Y1432D01*
X838Y1438D01*
X807Y1410D02*
X794D01*
X801D02*
Y1447D01*
X807Y1441D01*
X760Y1410D02*
X757Y1413D01*
X760Y1416D01*
X763Y1413D01*
X760Y1410D01*
X713Y1435D02*
Y1401D01*
Y1419D02*
X710Y1413D01*
X704Y1410D01*
X697D01*
X691Y1413D01*
X688Y1419D01*
Y1426D01*
X691Y1432D01*
X697Y1435D01*
X704D01*
X710Y1432D01*
X713Y1426D01*
Y1419D01*
X638Y1432D02*
X644Y1435D01*
X654D01*
X660Y1432D01*
X663Y1426D01*
Y1419D01*
X660Y1413D01*
X654Y1410D01*
X644D01*
X638Y1413D01*
X613Y1419D02*
X610Y1413D01*
X604Y1410D01*
X597D01*
X591Y1413D01*
X588Y1419D01*
Y1426D01*
X591Y1432D01*
X597Y1435D01*
X604D01*
X610Y1432D01*
X613Y1426D01*
Y1410D02*
Y1447D01*
D02*
D150*
X1494Y499D02*
G75*
G03*
X1486I-4J0D01*
G01*
G75*
G03*
X1494I4J0D01*
G01*
D02*
D151*
X1298Y1958D02*
G75*
G03*
Y1988I0J15D01*
G01*
G75*
G03*
Y1958I0J-15D01*
G01*
X0Y0D02*
M02*
