G04 DesignSpark PCB Gerber Version 11.0 Build 5877*
%FSLAX33Y33*%
%MOIN*%
%ADD86C,0.00100*%
%ADD84C,0.00197*%
%ADD88C,0.00300*%
%ADD89C,0.00400*%
%ADD21C,0.00500*%
%ADD85C,0.00600*%
%ADD10C,0.00787*%
%ADD87C,0.00800*%
%ADD74C,0.01000*%
%ADD90C,0.01200*%
%ADD75C,0.02000*%
X0Y0D02*
D02*
D10*
X458Y1852D02*
X758D01*
Y1772D01*
X458D01*
Y1852D01*
X1129Y285D02*
G75*
G03*
Y294I0J5D01*
G01*
G75*
G03*
Y285I0J-5D01*
G01*
G75*
G03*
Y294I0J5D01*
G01*
G75*
G03*
Y285I0J-5D01*
G01*
X1137Y998D02*
G75*
G03*
X1180Y1031I21J16D01*
G01*
G75*
G03*
X1137Y998I-21J-16D01*
G01*
G36*
X1137Y998D02*
G75*
G03*
X1180Y1031I21J16D01*
G01*
G75*
G03*
X1137Y998I-21J-16D01*
G01*
G37*
X1175Y1124D02*
Y1624D01*
X1640D01*
Y1124D01*
X1175D01*
X1313Y455D02*
Y155D01*
X1233D01*
Y455D01*
X1313D01*
X1738Y1008D02*
X1438D01*
Y1088D01*
X1738D01*
Y1008D01*
D02*
D21*
X337Y1215D02*
X340Y1208D01*
X346Y1205D01*
X359D01*
X365Y1208D01*
X368Y1215D01*
X365Y1221D01*
X359Y1224D01*
X346D01*
X340Y1227D01*
X337Y1233D01*
X340Y1240D01*
X346Y1243D01*
X359D01*
X365Y1240D01*
X368Y1233D01*
X387Y1243D02*
X403Y1205D01*
X418Y1243D01*
X440Y1208D02*
X446Y1205D01*
X453D01*
X459Y1208D01*
X462Y1215D01*
X459Y1221D01*
X453Y1224D01*
X446D01*
X453D02*
X459Y1227D01*
X462Y1233D01*
X459Y1240D01*
X453Y1243D01*
X446D01*
X440Y1240D01*
X392Y924D02*
Y1057D01*
X203D01*
Y924D01*
X392D01*
X385Y532D02*
X391Y536D01*
X395Y542D01*
Y554D01*
X391Y561D01*
X385Y564D01*
X379Y561D01*
X376Y554D01*
Y542D01*
X373Y536D01*
X366Y532D01*
X360Y536D01*
X357Y542D01*
Y554D01*
X360Y561D01*
X366Y564D01*
X357Y582D02*
X395Y598D01*
X357Y614D01*
X391Y632D02*
X395Y639D01*
Y648D01*
X391Y654D01*
X385Y657D01*
X382D01*
X376Y654D01*
X373Y648D01*
Y632D01*
X357D01*
Y657D01*
X502Y374D02*
Y387D01*
Y380D02*
X465D01*
X471Y374D01*
X518Y778D02*
Y1195D01*
X203D01*
Y778D01*
X518D01*
X532Y797D02*
X494D01*
X519Y782D01*
Y807D01*
X536Y1162D02*
Y1175D01*
Y1168D02*
X498D01*
X505Y1162D01*
X591Y1867D02*
X588Y1864D01*
X581Y1861D01*
X572D01*
X566Y1864D01*
X563Y1867D01*
X559Y1873D01*
Y1886D01*
X563Y1892D01*
X566Y1895D01*
X572Y1898D01*
X581D01*
X588Y1895D01*
X591Y1892D01*
X609Y1864D02*
X616Y1861D01*
X625D01*
X631Y1864D01*
X634Y1870D01*
Y1873D01*
X631Y1880D01*
X625Y1883D01*
X609D01*
Y1898D01*
X634D01*
X585Y778D02*
Y805D01*
X518D01*
Y778D01*
X585D01*
Y1168D02*
Y1195D01*
X518D01*
Y1168D01*
X585D01*
X611Y1364D02*
X568Y1408D01*
X605Y529D02*
X611Y532D01*
X614Y538D01*
Y550D01*
X611Y557D01*
X605Y560D01*
X598Y557D01*
X595Y550D01*
Y538D01*
X592Y532D01*
X586Y529D01*
X580Y532D01*
X577Y538D01*
Y550D01*
X580Y557D01*
X586Y560D01*
X577Y579D02*
X614Y594D01*
X577Y610D01*
X614Y635D02*
Y647D01*
Y641D02*
X577D01*
X583Y635D01*
X713Y335D02*
Y348D01*
Y342D02*
X676D01*
X682Y335D01*
X713Y800D02*
X676D01*
X701Y784D01*
Y809D01*
X928Y1002D02*
X931Y996D01*
X937Y993D01*
X949D01*
X956Y996D01*
X959Y1002D01*
X956Y1008D01*
X949Y1011D01*
X937D01*
X931Y1015D01*
X928Y1021D01*
X931Y1027D01*
X937Y1030D01*
X949D01*
X956Y1027D01*
X959Y1021D01*
X978Y1030D02*
X981Y993D01*
X993Y1011D01*
X1006Y993D01*
X1009Y1030D01*
X1053Y993D02*
X1028D01*
X1049Y1015D01*
X1053Y1021D01*
X1049Y1027D01*
X1043Y1030D01*
X1034D01*
X1028Y1027D01*
X1106Y763D02*
Y171D01*
X1074Y140D01*
X948D01*
Y763D01*
X1106D01*
X1096Y1228D02*
X1124D01*
X1131Y1231D01*
X1134Y1238D01*
Y1250D01*
X1131Y1256D01*
X1124Y1260D01*
X1096D01*
X1134Y1285D02*
Y1297D01*
Y1291D02*
X1096D01*
X1103Y1285D01*
X1175Y1571D02*
Y1624D01*
X1211D01*
X1208Y686D02*
X1205Y683D01*
X1202Y676D01*
X1205Y670D01*
X1208Y667D01*
X1240D01*
Y661D01*
Y667D02*
Y679D01*
X1202Y611D02*
Y636D01*
X1224Y614D01*
X1230Y611D01*
X1237Y614D01*
X1240Y620D01*
Y629D01*
X1237Y636D01*
X1211Y1124D02*
X1175D01*
Y1177D01*
X1269Y472D02*
X1266Y469D01*
X1259Y466D01*
X1250D01*
X1244Y469D01*
X1241Y472D01*
X1238Y479D01*
Y491D01*
X1241Y497D01*
X1244Y500D01*
X1250Y504D01*
X1259D01*
X1266Y500D01*
X1269Y497D01*
X1291Y469D02*
X1297Y466D01*
X1303D01*
X1309Y469D01*
X1313Y475D01*
X1309Y482D01*
X1303Y485D01*
X1297D01*
X1303D02*
X1309Y488D01*
X1313Y494D01*
X1309Y500D01*
X1303Y504D01*
X1297D01*
X1291Y500D01*
X1353Y1061D02*
X1349Y1058D01*
X1343Y1055D01*
X1334D01*
X1328Y1058D01*
X1324Y1061D01*
X1321Y1067D01*
Y1080D01*
X1324Y1086D01*
X1328Y1089D01*
X1334Y1092D01*
X1343D01*
X1349Y1089D01*
X1353Y1086D01*
X1396Y1055D02*
X1371D01*
X1393Y1077D01*
X1396Y1083D01*
X1393Y1089D01*
X1387Y1092D01*
X1378D01*
X1371Y1089D01*
X1371Y1770D02*
X1368Y1766D01*
X1362Y1763D01*
X1352D01*
X1346Y1766D01*
X1343Y1770D01*
X1340Y1776D01*
Y1788D01*
X1343Y1795D01*
X1346Y1798D01*
X1352Y1801D01*
X1362D01*
X1368Y1798D01*
X1371Y1795D01*
X1396Y1763D02*
X1409D01*
X1402D02*
Y1801D01*
X1396Y1795D01*
X1408Y1888D02*
X1405Y1885D01*
X1398Y1881D01*
X1389D01*
X1383Y1885D01*
X1380Y1888D01*
X1376Y1894D01*
Y1906D01*
X1380Y1913D01*
X1383Y1916D01*
X1389Y1919D01*
X1398D01*
X1405Y1916D01*
X1408Y1913D01*
X1426Y1891D02*
X1430Y1897D01*
X1436Y1900D01*
X1442D01*
X1448Y1897D01*
X1451Y1891D01*
X1448Y1885D01*
X1442Y1881D01*
X1436D01*
X1430Y1885D01*
X1426Y1891D01*
Y1900D01*
X1430Y1910D01*
X1436Y1916D01*
X1442Y1919D01*
X1379Y717D02*
X1354D01*
X1367Y704D01*
X1379Y717D01*
X1385Y704D02*
X1348D01*
X1514Y1839D02*
X1674D01*
Y1909D01*
X1514D01*
Y1839D01*
Y2015D02*
X1674D01*
Y2085D01*
X1514D01*
Y2015D01*
X1550Y968D02*
X1547Y965D01*
X1541Y962D01*
X1532D01*
X1525Y965D01*
X1522Y968D01*
X1519Y975D01*
Y987D01*
X1522Y993D01*
X1525Y997D01*
X1532Y1000D01*
X1541D01*
X1547Y997D01*
X1550Y993D01*
X1585Y962D02*
Y1000D01*
X1569Y975D01*
X1594D01*
X1583Y1882D02*
Y2042D01*
X1513D01*
Y1882D01*
X1583D01*
X1583Y1874D02*
X1423D01*
Y1804D01*
X1583D01*
Y1874D01*
X1588Y1694D02*
Y1854D01*
X1518D01*
Y1694D01*
X1588D01*
X1625Y1800D02*
X1622Y1797D01*
X1616Y1794D01*
X1606D01*
X1600Y1797D01*
X1597Y1800D01*
X1594Y1806D01*
Y1819D01*
X1597Y1825D01*
X1600Y1828D01*
X1606Y1831D01*
X1616D01*
X1622Y1828D01*
X1625Y1825D01*
X1653Y1813D02*
X1660D01*
X1666Y1816D01*
X1669Y1822D01*
X1666Y1828D01*
X1660Y1831D01*
X1653D01*
X1647Y1828D01*
X1644Y1822D01*
X1647Y1816D01*
X1653Y1813D01*
X1647Y1809D01*
X1644Y1803D01*
X1647Y1797D01*
X1653Y1794D01*
X1660D01*
X1666Y1797D01*
X1669Y1803D01*
X1666Y1809D01*
X1660Y1813D01*
X1628Y1957D02*
X1625Y1953D01*
X1619Y1950D01*
X1609D01*
X1603Y1953D01*
X1600Y1957D01*
X1597Y1963D01*
Y1975D01*
X1600Y1982D01*
X1603Y1985D01*
X1609Y1988D01*
X1619D01*
X1625Y1985D01*
X1628Y1982D01*
X1647Y1950D02*
X1672Y1988D01*
X1647D01*
X1632Y1727D02*
X1629Y1724D01*
X1623Y1721D01*
X1613D01*
X1607Y1724D01*
X1604Y1727D01*
X1601Y1733D01*
Y1746D01*
X1604Y1752D01*
X1607Y1755D01*
X1613Y1758D01*
X1623D01*
X1629Y1755D01*
X1632Y1752D01*
X1657Y1721D02*
X1670D01*
X1663D02*
Y1758D01*
X1657Y1752D01*
X1704Y1724D02*
X1710Y1721D01*
X1716D01*
X1723Y1724D01*
X1726Y1730D01*
Y1749D01*
X1723Y1755D01*
X1716Y1758D01*
X1710D01*
X1704Y1755D01*
X1701Y1749D01*
Y1730D01*
X1704Y1724D01*
X1723Y1755D01*
X1605Y1124D02*
X1640D01*
Y1177D01*
Y1571D02*
Y1624D01*
X1605D01*
X1725Y2038D02*
X1721Y2035D01*
X1715Y2032D01*
X1706D01*
X1700Y2035D01*
X1696Y2038D01*
X1693Y2045D01*
Y2057D01*
X1696Y2063D01*
X1700Y2066D01*
X1706Y2070D01*
X1715D01*
X1721Y2066D01*
X1725Y2063D01*
X1753Y2032D02*
X1759Y2035D01*
X1765Y2041D01*
X1768Y2051D01*
Y2060D01*
X1765Y2066D01*
X1759Y2070D01*
X1753D01*
X1746Y2066D01*
X1743Y2060D01*
X1746Y2054D01*
X1753Y2051D01*
X1759D01*
X1765Y2054D01*
X1768Y2060D01*
X1719Y1360D02*
X1732D01*
X1726D02*
Y1398D01*
X1719Y1392D01*
X1763Y1280D02*
X1766Y1273D01*
X1773Y1270D01*
X1785D01*
X1791Y1273D01*
X1794Y1280D01*
X1791Y1286D01*
X1785Y1289D01*
X1773D01*
X1766Y1292D01*
X1763Y1298D01*
X1766Y1305D01*
X1773Y1308D01*
X1785D01*
X1791Y1305D01*
X1794Y1298D01*
X1813Y1308D02*
X1829Y1270D01*
X1844Y1308D01*
X1879Y1270D02*
Y1308D01*
X1863Y1283D01*
X1888D01*
X1852Y624D02*
Y760D01*
X1606D01*
Y624D01*
X1852D01*
X1911Y818D02*
X1874Y802D01*
X1911Y787D01*
X1874Y768D02*
X1899D01*
X1890D02*
X1896Y765D01*
X1899Y759D01*
Y752D01*
X1896Y746D01*
X1877Y693D02*
X1874Y696D01*
Y702D01*
Y709D01*
X1877Y715D01*
X1883Y718D01*
X1893D01*
X1896Y715D01*
X1899Y709D01*
Y702D01*
X1896Y696D01*
X1893Y693D01*
X1890D01*
X1886Y696D01*
X1883Y702D01*
Y709D01*
X1886Y715D01*
X1890Y718D01*
Y643D02*
X1896Y646D01*
X1899Y652D01*
Y659D01*
X1896Y665D01*
X1890Y668D01*
X1886D01*
X1880Y665D01*
X1877Y659D01*
Y652D01*
X1880Y646D01*
X1886Y643D01*
X1899D02*
X1874D01*
X1868Y646D01*
X1865Y652D01*
Y662D01*
X1868Y668D01*
X1874Y612D02*
Y599D01*
Y605D02*
X1911D01*
X1905Y612D01*
X2059Y685D02*
X2065Y681D01*
X2068Y675D01*
X2065Y669D01*
X2059Y666D01*
X2037D01*
Y703D01*
X2059D01*
X2065Y700D01*
X2068Y694D01*
X2065Y688D01*
X2059Y685D01*
X2037D01*
X2087Y703D02*
Y675D01*
X2090Y669D01*
X2096Y666D01*
X2109D01*
X2115Y669D01*
X2118Y675D01*
Y703D01*
X2137D02*
X2168D01*
X2137Y666D01*
X2168D01*
X2193D02*
X2206D01*
X2199D02*
Y703D01*
X2193Y697D01*
X2168Y1884D02*
X2165Y1881D01*
X2159Y1877D01*
X2150D01*
X2143Y1881D01*
X2140Y1884D01*
X2137Y1890D01*
Y1902D01*
X2140Y1909D01*
X2143Y1912D01*
X2150Y1915D01*
X2159D01*
X2165Y1912D01*
X2168Y1909D01*
X2187Y1890D02*
Y1902D01*
X2190Y1909D01*
X2193Y1912D01*
X2200Y1915D01*
X2206D01*
X2212Y1912D01*
X2215Y1909D01*
X2218Y1902D01*
Y1890D01*
X2215Y1884D01*
X2212Y1881D01*
X2206Y1877D01*
X2200D01*
X2193Y1881D01*
X2190Y1884D01*
X2187Y1890D01*
X2237Y1877D02*
Y1915D01*
X2268Y1877D01*
Y1915D01*
X2287Y1877D02*
Y1915D01*
X2318Y1877D01*
Y1915D01*
X2343Y1877D02*
X2356D01*
X2350D02*
Y1915D01*
X2343Y1909D01*
D02*
D74*
X632Y274D02*
Y159D01*
X842D01*
Y274D01*
X632D01*
X1494Y499D02*
G75*
G03*
X1486I-4J0D01*
G01*
G75*
G03*
X1494I4J0D01*
G01*
X1876Y129D02*
X1991D01*
Y339D01*
X1876D01*
Y129D01*
X2183Y1812D02*
Y987D01*
X2283D01*
Y1812D01*
X2183D01*
D02*
D75*
X1298Y1958D02*
G75*
G03*
Y1988I0J15D01*
G01*
G75*
G03*
Y1958I0J-15D01*
G01*
X1373Y1824D02*
G75*
G03*
Y1854I0J15D01*
G01*
G75*
G03*
Y1824I0J-15D01*
G01*
D02*
D84*
X1166Y1114D02*
X1650D01*
Y1634D01*
X1166D01*
Y1114D01*
X1167Y761D02*
Y135D01*
X887D01*
Y761D01*
X1167D01*
D02*
D85*
X469Y1676D02*
G75*
G03*
X461I-4J0D01*
G01*
G75*
G03*
X469I4J0D01*
G01*
X475Y1417D02*
Y1261D01*
X506Y854D02*
X536Y884D01*
X506D02*
X536Y854D01*
Y884D01*
X506D01*
Y854D01*
X536D01*
X506Y1089D02*
X536Y1119D01*
X506D01*
Y1089D01*
X536D01*
X506Y1119D01*
X507Y963D02*
X537Y933D01*
X507Y1014D02*
X537Y1044D01*
X507D01*
Y1014D01*
X537D01*
X507Y1044D01*
X512Y618D02*
X537Y643D01*
Y693D01*
X512Y718D01*
X462D01*
X437Y693D01*
Y643D01*
X462Y618D01*
X437Y593D01*
Y543D01*
X462Y518D01*
X437Y493D01*
Y443D01*
X462Y418D01*
X512D01*
X537Y443D01*
Y493D01*
X512Y518D01*
X537Y543D01*
Y593D01*
X512Y618D01*
X517Y1571D02*
X648D01*
X537Y963D02*
X507Y933D01*
X537D01*
Y963D01*
X507D01*
Y933D01*
X537Y1014D02*
Y1044D01*
Y1089D02*
Y1119D01*
X543Y1464D02*
G75*
G03*
Y1470I0J3D01*
G01*
G75*
G03*
Y1464I0J-3D01*
G01*
X611Y1261D02*
Y1417D01*
X636Y260D02*
X837D01*
X648Y1702D02*
X517D01*
X662Y196D02*
X707Y241D01*
X722Y216D02*
G75*
G03*
X652I-35J0D01*
G01*
G75*
G03*
X722I35J0D01*
G01*
X723Y674D02*
X748Y699D01*
Y749D01*
X723Y774D01*
X673D01*
X648Y749D01*
Y699D01*
X673Y674D01*
X648Y649D01*
Y599D01*
X673Y574D01*
X648Y549D01*
Y499D01*
X673Y474D01*
X648Y449D01*
Y399D01*
X673Y374D01*
X723D01*
X748Y399D01*
Y449D01*
X723Y474D01*
X748Y499D01*
Y549D01*
X723Y574D01*
X748Y599D01*
Y649D01*
X723Y674D01*
X745Y1331D02*
X821D01*
X745Y1395D02*
X821D01*
X745Y1430D02*
X821D01*
X745Y1494D02*
X821D01*
X757Y206D02*
X817Y221D01*
X821Y1232D02*
X746D01*
X821Y1296D02*
X746D01*
X822Y216D02*
G75*
G03*
X752I-35J0D01*
G01*
G75*
G03*
X822I35J0D01*
G01*
X883Y1567D02*
X807D01*
X883Y1631D02*
X807D01*
X883Y1680D02*
X807D01*
X883Y1744D02*
X807D01*
X1181Y1903D02*
X1172D01*
Y1775D01*
X1181D01*
X1247Y843D02*
Y768D01*
X1294Y1775D02*
X1304D01*
Y1806D01*
Y1872D02*
Y1903D01*
X1294D01*
X1311Y843D02*
Y768D01*
X1338Y722D02*
Y698D01*
X1367Y785D02*
G75*
G03*
Y791I0J3D01*
G01*
G75*
G03*
Y785I0J-3D01*
G01*
X1397Y698D02*
Y722D01*
X1397Y85D02*
X1710D01*
X1427Y797D02*
X1501D01*
X1458Y660D02*
Y581D01*
X1501Y844D02*
Y874D01*
Y921D02*
X1427D01*
X1588Y581D02*
Y660D01*
X1756Y888D02*
X1681D01*
X1756Y952D02*
X1681D01*
X1817Y1636D02*
X1742D01*
X1817Y1700D02*
X1742D01*
X1884Y1144D02*
Y1032D01*
X1832D01*
Y1144D01*
X1884D01*
X1890Y133D02*
Y335D01*
X1933Y219D02*
G75*
G03*
Y149I0J-35D01*
G01*
G75*
G03*
Y219I0J35D01*
G01*
Y319D02*
G75*
G03*
Y249I0J-35D01*
G01*
G75*
G03*
Y319I0J35D01*
G01*
X1943Y254D02*
X1928Y314D01*
X1950Y410D02*
X1875D01*
X1950Y474D02*
X1875D01*
X1953Y159D02*
X1908Y204D01*
X1963Y1351D02*
X1988Y1326D01*
X2038D01*
X2063Y1351D01*
Y1401D01*
X2038Y1426D01*
X1988D01*
X1963Y1401D01*
X1938Y1426D01*
X1888D01*
X1863Y1401D01*
X1838Y1426D01*
X1788D01*
X1763Y1401D01*
Y1351D01*
X1788Y1326D01*
X1838D01*
X1863Y1351D01*
X1888Y1326D01*
X1938D01*
X1963Y1351D01*
X1971Y1064D02*
Y988D01*
X1981Y1532D02*
X1950D01*
Y1786D01*
X1981D01*
X2035Y1064D02*
Y988D01*
X2050Y1139D02*
Y966D01*
X2073D01*
X2073Y1786D02*
X2104D01*
Y1532D01*
X2073D01*
X2098Y1175D02*
G75*
G03*
Y1181I0J3D01*
G01*
G75*
G03*
Y1175I0J-3D01*
G01*
X2123Y966D02*
X2145D01*
Y1139D01*
D02*
D86*
X480Y1412D02*
Y1266D01*
X606D01*
Y1412D01*
X480D01*
X497Y458D02*
Y478D01*
X477D01*
Y458D01*
X497D01*
G36*
X497Y458D02*
Y478D01*
X477D01*
Y458D01*
X497D01*
G37*
Y558D02*
Y578D01*
X477D01*
Y558D01*
X497D01*
G36*
X497Y558D02*
Y578D01*
X477D01*
Y558D01*
X497D01*
G37*
Y658D02*
Y678D01*
X477D01*
Y658D01*
X497D01*
G36*
X497Y658D02*
Y678D01*
X477D01*
Y658D01*
X497D01*
G37*
X522Y1576D02*
X643D01*
Y1697D01*
X522D01*
Y1576D01*
X527Y1380D02*
X559D01*
Y1412D01*
X527D01*
Y1380D01*
X543Y1676D02*
G75*
G03*
X537I-3J0D01*
G01*
G75*
G03*
X543I3J0D01*
G01*
X559Y1298D02*
X527D01*
Y1266D01*
X559D01*
Y1298D01*
X571Y1697D02*
G75*
G03*
X595I12J0D01*
G01*
X571Y1399D02*
G75*
G03*
Y1405I0J3D01*
G01*
G75*
G03*
Y1399I0J-3D01*
G01*
X659Y1302D02*
X909D01*
Y1225D01*
X659D01*
Y1302D01*
X708Y414D02*
Y434D01*
X688D01*
Y414D01*
X708D01*
G36*
X708Y414D02*
Y434D01*
X688D01*
Y414D01*
X708D01*
G37*
Y514D02*
Y534D01*
X688D01*
Y514D01*
X708D01*
G36*
X708Y514D02*
Y534D01*
X688D01*
Y514D01*
X708D01*
G37*
Y614D02*
Y634D01*
X688D01*
Y614D01*
X708D01*
G36*
X708Y614D02*
Y634D01*
X688D01*
Y614D01*
X708D01*
G37*
Y714D02*
Y734D01*
X688D01*
Y714D01*
X708D01*
G36*
X708Y714D02*
Y734D01*
X688D01*
Y714D01*
X708D01*
G37*
X717Y1229D02*
X746D01*
Y1298D01*
X717D01*
Y1229D01*
G36*
X717Y1229D02*
X746D01*
Y1298D01*
X717D01*
Y1229D01*
G37*
X720Y1638D02*
X970D01*
Y1560D01*
X720D01*
Y1638D01*
Y1750D02*
X970D01*
Y1673D01*
X720D01*
Y1750D01*
X745Y1398D02*
X716D01*
Y1329D01*
X745D01*
Y1398D01*
G36*
X745Y1398D02*
X716D01*
Y1329D01*
X745D01*
Y1398D01*
G37*
X745Y1496D02*
X716D01*
Y1427D01*
X745D01*
Y1496D01*
G36*
X745Y1496D02*
X716D01*
Y1427D01*
X745D01*
Y1496D01*
G37*
X779Y1565D02*
X808D01*
Y1634D01*
X779D01*
Y1565D01*
G36*
X779Y1565D02*
X808D01*
Y1634D01*
X779D01*
Y1565D01*
G37*
Y1677D02*
X808D01*
Y1746D01*
X779D01*
Y1677D01*
G36*
X779Y1677D02*
X808D01*
Y1746D01*
X779D01*
Y1677D01*
G37*
X821Y1229D02*
X850D01*
Y1298D01*
X821D01*
Y1229D01*
G36*
X821Y1229D02*
X850D01*
Y1298D01*
X821D01*
Y1229D01*
G37*
X849Y1398D02*
X820D01*
Y1329D01*
X849D01*
Y1398D01*
G36*
X849Y1398D02*
X820D01*
Y1329D01*
X849D01*
Y1398D01*
G37*
X849Y1496D02*
X820D01*
Y1427D01*
X849D01*
Y1496D01*
G36*
X849Y1496D02*
X820D01*
Y1427D01*
X849D01*
Y1496D01*
G37*
X883Y1565D02*
X912D01*
Y1634D01*
X883D01*
Y1565D01*
G36*
X883Y1565D02*
X912D01*
Y1634D01*
X883D01*
Y1565D01*
G37*
Y1677D02*
X912D01*
Y1746D01*
X883D01*
Y1677D01*
G36*
X883Y1677D02*
X912D01*
Y1746D01*
X883D01*
Y1677D01*
G37*
X908Y1325D02*
X658D01*
Y1402D01*
X908D01*
Y1325D01*
X908Y1423D02*
X658D01*
Y1500D01*
X908D01*
Y1423D01*
X1177Y1898D02*
Y1780D01*
X1299D01*
Y1898D01*
X1177D01*
X1241Y681D02*
Y931D01*
X1318D01*
Y681D01*
X1241D01*
X1314Y739D02*
Y768D01*
X1245D01*
Y739D01*
X1314D01*
G36*
X1314Y739D02*
Y768D01*
X1245D01*
Y739D01*
X1314D01*
G37*
Y843D02*
Y872D01*
X1245D01*
Y843D01*
X1314D01*
G36*
X1314Y843D02*
Y872D01*
X1245D01*
Y843D01*
X1314D01*
G37*
X1343Y733D02*
X1392D01*
Y749D01*
X1343D01*
Y733D01*
Y749D02*
Y670D01*
X1392D01*
Y749D01*
X1343D01*
X1367Y736D02*
G75*
G03*
Y742I0J3D01*
G01*
G75*
G03*
Y736I0J-3D01*
G01*
X1392Y686D02*
X1343D01*
Y670D01*
X1392D01*
Y686D01*
X1402Y90D02*
X1705D01*
Y423D01*
X1402D01*
Y90D01*
X1432Y802D02*
X1496D01*
Y916D01*
X1432D01*
Y802D01*
X1442Y896D02*
X1452Y916D02*
G75*
G03*
X1476I12J0D01*
G01*
X1463Y609D02*
G75*
G03*
Y633I0J12D01*
G01*
X1475Y655D02*
X1495D01*
Y680D01*
X1475D01*
Y655D01*
X1495Y586D02*
X1475D01*
Y562D01*
X1495D01*
Y586D01*
X1513Y655D02*
X1533D01*
Y680D01*
X1513D01*
Y655D01*
X1533Y586D02*
X1513D01*
Y562D01*
X1533D01*
Y586D01*
X1550Y655D02*
X1570D01*
Y680D01*
X1550D01*
Y655D01*
X1570Y586D02*
X1550D01*
Y562D01*
X1570D01*
Y586D01*
X1583D02*
Y655D01*
X1463D01*
Y586D01*
X1583D01*
X1594Y959D02*
X1844D01*
Y882D01*
X1594D01*
Y959D01*
X1652Y886D02*
X1681D01*
Y955D01*
X1652D01*
Y886D01*
G36*
X1652Y886D02*
X1681D01*
Y955D01*
X1652D01*
Y886D01*
G37*
X1655Y1707D02*
X1905D01*
Y1629D01*
X1655D01*
Y1707D01*
X1713Y1633D02*
X1742D01*
Y1702D01*
X1713D01*
Y1633D01*
G36*
X1713Y1633D02*
X1742D01*
Y1702D01*
X1713D01*
Y1633D01*
G37*
X1756Y886D02*
X1785D01*
Y955D01*
X1756D01*
Y886D01*
G36*
X1756Y886D02*
X1785D01*
Y955D01*
X1756D01*
Y886D01*
G37*
X1788Y481D02*
X2038D01*
Y403D01*
X1788D01*
Y481D01*
X1803Y1366D02*
X1823D01*
Y1386D01*
X1803D01*
Y1366D01*
G36*
X1803Y1366D02*
X1823D01*
Y1386D01*
X1803D01*
Y1366D01*
G37*
X1807Y1060D02*
Y1042D01*
X1830D01*
Y1060D01*
X1807D01*
G36*
X1807Y1060D02*
Y1042D01*
X1830D01*
Y1060D01*
X1807D01*
G37*
Y1134D02*
Y1116D01*
X1830D01*
Y1134D01*
X1807D01*
G36*
X1807Y1134D02*
Y1116D01*
X1830D01*
Y1134D01*
X1807D01*
G37*
X1817Y1633D02*
X1846D01*
Y1702D01*
X1817D01*
Y1633D01*
G36*
X1817Y1633D02*
X1846D01*
Y1702D01*
X1817D01*
Y1633D01*
G37*
X1846Y407D02*
X1875D01*
Y476D01*
X1846D01*
Y407D01*
G36*
X1846Y407D02*
X1875D01*
Y476D01*
X1846D01*
Y407D01*
G37*
X1886Y1097D02*
Y1079D01*
X1909D01*
Y1097D01*
X1886D01*
G36*
X1886Y1097D02*
Y1079D01*
X1909D01*
Y1097D01*
X1886D01*
G37*
X1903Y1366D02*
X1923D01*
Y1386D01*
X1903D01*
Y1366D01*
G36*
X1903Y1366D02*
X1923D01*
Y1386D01*
X1903D01*
Y1366D01*
G37*
X1950Y407D02*
X1979D01*
Y476D01*
X1950D01*
Y407D01*
G36*
X1950Y407D02*
X1979D01*
Y476D01*
X1950D01*
Y407D01*
G37*
X1955Y1781D02*
Y1537D01*
X2099D01*
Y1781D01*
X1955D01*
X1964Y901D02*
Y1151D01*
X2042D01*
Y901D01*
X1964D01*
X1995Y1781D02*
X2009D01*
Y1819D01*
X1995D01*
Y1781D01*
X2003Y1366D02*
X2023D01*
Y1386D01*
X2003D01*
Y1366D01*
G36*
X2003Y1366D02*
X2023D01*
Y1386D01*
X2003D01*
Y1366D01*
G37*
X2009Y1537D02*
X1995D01*
Y1499D01*
X2009D01*
Y1537D01*
X2010Y1659D02*
Y1634D01*
X1994D01*
Y1659D01*
X2010D01*
G36*
X2010Y1659D02*
Y1634D01*
X1994D01*
Y1659D01*
X2010D01*
G37*
Y1684D02*
Y1634D01*
X1994D01*
Y1684D01*
X2010D01*
X2038Y960D02*
Y989D01*
X1969D01*
Y960D01*
X2038D01*
G36*
X2038Y960D02*
Y989D01*
X1969D01*
Y960D01*
X2038D01*
G37*
Y1064D02*
Y1093D01*
X1969D01*
Y1064D01*
X2038D01*
G36*
X2038Y1064D02*
Y1093D01*
X1969D01*
Y1064D01*
X2038D01*
G37*
X2045Y1781D02*
X2059D01*
Y1819D01*
X2045D01*
Y1781D01*
X2055Y1134D02*
Y971D01*
X2140D01*
Y1134D01*
X2055D01*
X2059Y1537D02*
X2045D01*
Y1499D01*
X2059D01*
Y1537D01*
X2060Y1659D02*
Y1634D01*
X2044D01*
Y1659D01*
X2060D01*
G36*
X2060Y1659D02*
Y1634D01*
X2044D01*
Y1659D01*
X2060D01*
G37*
Y1684D02*
Y1634D01*
X2044D01*
Y1684D01*
X2060D01*
X2098Y1050D02*
G75*
G03*
Y1056I0J3D01*
G01*
G75*
G03*
Y1050I0J-3D01*
G01*
X2099Y1671D02*
G75*
G03*
Y1647I0J-12D01*
G01*
D02*
D87*
X679Y1075D02*
Y905D01*
X709Y1090D02*
Y890D01*
X750Y990D02*
X712D01*
X759Y870D02*
X699D01*
X679Y890D01*
Y905D01*
X759Y1110D02*
X699D01*
X679Y1090D01*
Y1075D01*
X779Y990D02*
X749D01*
X799Y920D02*
G75*
G03*
Y1060I0J70D01*
G01*
G75*
G03*
Y920I0J-70D01*
G01*
X838Y870D02*
X759D01*
X839D02*
X899D01*
X919Y890D01*
Y905D01*
X839Y1110D02*
X899D01*
X919Y1090D01*
Y1075D01*
X839Y1110D02*
X759D01*
X849Y990D02*
X874D01*
X849D02*
X819D01*
X784Y975D01*
X874Y1090D02*
Y890D01*
X919Y905D02*
Y1075D01*
X1308Y1669D02*
Y1754D01*
X1491D01*
Y1669D01*
X1308D01*
X1399Y1043D02*
Y958D01*
X1216D01*
Y1043D01*
X1399D01*
D02*
D88*
X413Y1268D02*
X451D01*
Y1299D01*
Y1318D02*
X413D01*
Y1349D01*
X432Y1343D02*
Y1318D01*
X451D02*
Y1349D01*
Y1368D02*
X413D01*
Y1386D01*
X416Y1393D01*
X419Y1396D01*
X426Y1399D01*
X438D01*
X444Y1396D01*
X448Y1393D01*
X451Y1386D01*
Y1368D01*
Y1443D02*
Y1418D01*
X429Y1440D01*
X423Y1443D01*
X416Y1440D01*
X413Y1433D01*
Y1424D01*
X416Y1418D01*
X554Y1755D02*
Y1726D01*
X557Y1720D01*
X563Y1717D01*
X575D01*
X582Y1720D01*
X585Y1726D01*
Y1755D01*
X619Y1717D02*
Y1755D01*
X604Y1730D01*
X629D01*
X1175Y1949D02*
X1178Y1946D01*
X1184Y1942D01*
X1190Y1946D01*
X1193Y1949D01*
Y1980D01*
X1200D01*
X1193D02*
X1181D01*
X1228Y1946D02*
X1234Y1942D01*
X1240D01*
X1247Y1946D01*
X1250Y1952D01*
X1247Y1958D01*
X1240Y1961D01*
X1234D01*
X1240D02*
X1247Y1964D01*
X1250Y1971D01*
X1247Y1977D01*
X1240Y1980D01*
X1234D01*
X1228Y1977D01*
X1410Y777D02*
Y740D01*
X1441D01*
X1460D02*
Y777D01*
X1491D01*
X1485Y758D02*
X1460D01*
Y740D02*
X1491D01*
X1510D02*
Y777D01*
X1529D01*
X1535Y774D01*
X1538Y771D01*
X1541Y765D01*
Y752D01*
X1538Y746D01*
X1535Y743D01*
X1529Y740D01*
X1510D01*
X1566D02*
X1579D01*
X1572D02*
Y777D01*
X1566Y771D01*
X1426Y964D02*
Y936D01*
X1429Y930D01*
X1435Y927D01*
X1447D01*
X1454Y930D01*
X1457Y936D01*
Y964D01*
X1501Y927D02*
X1476D01*
X1497Y949D01*
X1501Y955D01*
X1497Y961D01*
X1491Y964D01*
X1482D01*
X1476Y961D01*
X1448Y536D02*
Y561D01*
X1461Y542D02*
X1436Y555D01*
Y542D02*
X1461Y555D01*
X1496Y368D02*
G75*
G03*
X1486I-5J0D01*
G01*
G75*
G03*
X1496I5J0D01*
G01*
X1494Y576D02*
Y601D01*
X1506Y583D02*
X1481Y595D01*
Y583D02*
X1506Y595D01*
X1518Y318D02*
X1521Y315D01*
X1528Y312D01*
X1534Y315D01*
X1537Y318D01*
Y349D01*
X1543D01*
X1537D02*
X1524D01*
X1574Y312D02*
X1587D01*
X1581D02*
Y349D01*
X1574Y343D01*
X1595Y532D02*
X1623D01*
X1630Y536D01*
X1633Y542D01*
Y554D01*
X1630Y561D01*
X1623Y564D01*
X1595D01*
X1630Y582D02*
X1633Y589D01*
Y598D01*
X1630Y604D01*
X1623Y607D01*
X1620D01*
X1614Y604D01*
X1611Y598D01*
Y582D01*
X1595D01*
Y607D01*
X1990Y1876D02*
X1993Y1870D01*
X1999Y1867D01*
X2011D01*
X2018Y1870D01*
X2021Y1876D01*
X2018Y1882D01*
X2011Y1885D01*
X1999D01*
X1993Y1889D01*
X1990Y1895D01*
X1993Y1901D01*
X1999Y1904D01*
X2011D01*
X2018Y1901D01*
X2021Y1895D01*
X2040Y1904D02*
X2043Y1867D01*
X2055Y1885D01*
X2068Y1867D01*
X2071Y1904D01*
X2096Y1867D02*
X2108D01*
X2102D02*
Y1904D01*
X2096Y1898D01*
X2052Y1796D02*
Y1771D01*
X2039Y1790D02*
X2064Y1777D01*
Y1790D02*
X2039Y1777D01*
X2077Y1843D02*
Y1818D01*
X2064Y1837D02*
X2089Y1824D01*
Y1837D02*
X2064Y1824D01*
X2082Y1234D02*
Y1206D01*
X2085Y1200D01*
X2091Y1196D01*
X2104D01*
X2110Y1200D01*
X2113Y1206D01*
Y1234D01*
X2132Y1196D02*
X2157Y1234D01*
X2132D01*
X2131Y1587D02*
X2143D01*
X2150Y1584D01*
X2153Y1581D01*
X2156Y1575D01*
Y1568D01*
X2153Y1562D01*
X2150Y1559D01*
X2143Y1556D01*
X2131D01*
X2125Y1559D01*
X2121Y1562D01*
X2118Y1568D01*
Y1575D01*
X2121Y1581D01*
X2125Y1584D01*
X2131Y1587D01*
X2118Y1537D02*
X2156D01*
X2118Y1506D01*
X2156D01*
X2131Y1587D02*
X2143D01*
X2150Y1584D01*
X2153Y1581D01*
X2156Y1575D01*
Y1568D01*
X2153Y1562D01*
X2150Y1559D01*
X2143Y1556D01*
X2131D01*
X2125Y1559D01*
X2121Y1562D01*
X2118Y1568D01*
Y1575D01*
X2121Y1581D01*
X2125Y1584D01*
X2131Y1587D01*
X2118Y1537D02*
X2156D01*
X2118Y1506D01*
X2156D01*
X2131Y1856D02*
X2143D01*
X2150Y1853D01*
X2153Y1850D01*
X2156Y1844D01*
Y1837D01*
X2153Y1831D01*
X2150Y1828D01*
X2143Y1825D01*
X2131D01*
X2125Y1828D01*
X2121Y1831D01*
X2118Y1837D01*
Y1844D01*
X2121Y1850D01*
X2125Y1853D01*
X2131Y1856D01*
X2118Y1806D02*
X2156D01*
Y1775D01*
X2137Y1781D02*
Y1806D01*
X2118Y1756D02*
X2156D01*
Y1725D01*
X2137Y1731D02*
Y1756D01*
X2131Y1856D02*
X2143D01*
X2150Y1853D01*
X2153Y1850D01*
X2156Y1844D01*
Y1837D01*
X2153Y1831D01*
X2150Y1828D01*
X2143Y1825D01*
X2131D01*
X2125Y1828D01*
X2121Y1831D01*
X2118Y1837D01*
Y1844D01*
X2121Y1850D01*
X2125Y1853D01*
X2131Y1856D01*
X2118Y1806D02*
X2156D01*
Y1775D01*
X2137Y1781D02*
Y1806D01*
X2118Y1756D02*
X2156D01*
Y1725D01*
X2137Y1731D02*
Y1756D01*
D02*
D89*
X723Y314D02*
X754Y352D01*
X723D02*
X754Y314D01*
X779D02*
X792D01*
X785D02*
Y352D01*
X779Y346D01*
X770Y1760D02*
Y1798D01*
X792D01*
X798Y1795D01*
X801Y1788D01*
X798Y1782D01*
X792Y1779D01*
X770D01*
X792D02*
X801Y1760D01*
X829Y1779D02*
X836D01*
X842Y1782D01*
X845Y1788D01*
X842Y1795D01*
X836Y1798D01*
X829D01*
X823Y1795D01*
X820Y1788D01*
X823Y1782D01*
X829Y1779D01*
X823Y1776D01*
X820Y1770D01*
X823Y1763D01*
X829Y1760D01*
X836D01*
X842Y1763D01*
X845Y1770D01*
X842Y1776D01*
X836Y1779D01*
X795Y1508D02*
Y1546D01*
X817D01*
X823Y1543D01*
X826Y1537D01*
X823Y1530D01*
X817Y1527D01*
X795D01*
X817D02*
X826Y1508D01*
X845D02*
X870Y1546D01*
X845D01*
X919Y1343D02*
Y1381D01*
X941D01*
X947Y1377D01*
X950Y1371D01*
X947Y1365D01*
X941Y1362D01*
X919D01*
X941D02*
X950Y1343D01*
X972Y1346D02*
X978Y1343D01*
X984D01*
X991Y1346D01*
X994Y1352D01*
X991Y1359D01*
X984Y1362D01*
X978D01*
X984D02*
X991Y1365D01*
X994Y1371D01*
X991Y1377D01*
X984Y1381D01*
X978D01*
X972Y1377D01*
X919Y1440D02*
Y1478D01*
X941D01*
X947Y1475D01*
X950Y1469D01*
X947Y1462D01*
X941Y1459D01*
X919D01*
X941D02*
X950Y1440D01*
X994D02*
X969D01*
X991Y1462D01*
X994Y1469D01*
X991Y1475D01*
X984Y1478D01*
X975D01*
X969Y1475D01*
X922Y1242D02*
Y1279D01*
X944D01*
X950Y1276D01*
X953Y1270D01*
X950Y1264D01*
X944Y1260D01*
X922D01*
X944D02*
X953Y1242D01*
X987D02*
Y1279D01*
X972Y1254D01*
X997D01*
X1161Y863D02*
Y900D01*
X1183D01*
X1189Y897D01*
X1192Y891D01*
X1189Y885D01*
X1183Y881D01*
X1161D01*
X1183D02*
X1192Y863D01*
X1217D02*
X1230D01*
X1223D02*
Y900D01*
X1217Y894D01*
X1730Y1577D02*
Y1615D01*
X1752D01*
X1758Y1612D01*
X1761Y1605D01*
X1758Y1599D01*
X1752Y1596D01*
X1730D01*
X1752D02*
X1761Y1577D01*
X1780Y1587D02*
X1783Y1593D01*
X1789Y1596D01*
X1795D01*
X1802Y1593D01*
X1805Y1587D01*
X1802Y1580D01*
X1795Y1577D01*
X1789D01*
X1783Y1580D01*
X1780Y1587D01*
Y1596D01*
X1783Y1605D01*
X1789Y1612D01*
X1795Y1615D01*
X1784Y1169D02*
Y1181D01*
X1787Y1187D01*
X1790Y1190D01*
X1796Y1194D01*
X1803D01*
X1809Y1190D01*
X1812Y1187D01*
X1815Y1181D01*
Y1169D01*
X1812Y1162D01*
X1809Y1159D01*
X1803Y1156D01*
X1796D01*
X1790Y1159D01*
X1787Y1162D01*
X1784Y1169D01*
X1806Y1165D02*
X1815Y1156D01*
X1840D02*
X1853D01*
X1846D02*
Y1194D01*
X1840Y1187D01*
X1842Y498D02*
Y535D01*
X1864D01*
X1870Y532D01*
X1873Y526D01*
X1870Y519D01*
X1864Y516D01*
X1842D01*
X1864D02*
X1873Y498D01*
X1901D02*
X1908Y501D01*
X1914Y507D01*
X1917Y516D01*
Y526D01*
X1914Y532D01*
X1908Y535D01*
X1901D01*
X1895Y532D01*
X1892Y526D01*
X1895Y519D01*
X1901Y516D01*
X1908D01*
X1914Y519D01*
X1917Y526D01*
X1858Y906D02*
Y944D01*
X1880D01*
X1886Y940D01*
X1889Y934D01*
X1886Y928D01*
X1880Y925D01*
X1858D01*
X1880D02*
X1889Y906D01*
X1908Y909D02*
X1914Y906D01*
X1923D01*
X1930Y909D01*
X1933Y915D01*
Y919D01*
X1930Y925D01*
X1923Y928D01*
X1908D01*
Y944D01*
X1933D01*
X1887Y350D02*
X1918Y387D01*
X1887D02*
X1918Y350D01*
X1962D02*
X1937D01*
X1959Y372D01*
X1962Y378D01*
X1959Y384D01*
X1953Y387D01*
X1943D01*
X1937Y384D01*
X1915Y1167D02*
Y1204D01*
X1937D01*
X1943Y1201D01*
X1946Y1195D01*
X1943Y1189D01*
X1937Y1186D01*
X1915D01*
X1937D02*
X1946Y1167D01*
X1971D02*
X1984D01*
X1977D02*
Y1204D01*
X1971Y1198D01*
X2018Y1170D02*
X2024Y1167D01*
X2030D01*
X2037Y1170D01*
X2040Y1176D01*
Y1195D01*
X2037Y1201D01*
X2030Y1204D01*
X2024D01*
X2018Y1201D01*
X2015Y1195D01*
Y1176D01*
X2018Y1170D01*
X2037Y1201D01*
D02*
D90*
X2000Y518D02*
G75*
G03*
X2278Y838I139J160D01*
G01*
G75*
G03*
X2000Y518I-139J-160D01*
G01*
X2003Y921D02*
X2070D01*
Y923D01*
X2033Y881D02*
Y961D01*
X2035D01*
X2410Y581D02*
Y776D01*
X2328D01*
Y581D01*
X2410D01*
X0Y0D02*
M02*
