G05
M48
;#@! TF.GenerationSoftware,DesignSpark,DesignSpark PCB,11.0.5875
;#@! TF.CreationDate,2023-05-26T08:18:42--1:00*
;#@! TF.FileFunction,Plated,1,2,PTH
;FILE_FORMAT=3:5
;TYPE=PLATED
INCH,TZ
FMAT,2
T1C000.01181
T2C000.01378
T3C000.03543
T4C000.03937
T5C000.04000
T6C000.04724
T7C000.13780
%
T001
X0.37738Y0.41142
X0.40494Y0.48622
X0.42683Y1.78400
X0.46552Y1.63652
X0.77004Y0.67325
X0.86489Y0.67665
X0.96598Y0.78307
X1.07331Y0.78432
X1.09392Y1.90157
X1.11949Y1.32677
X1.18938Y0.23031
X1.19063Y0.35625
X1.19811Y0.60710
X1.19811Y0.79680
X1.29746Y1.07283
X1.32292Y0.52473
X1.35786Y0.85902
X1.45770Y1.22146
X1.52260Y0.52972
X1.61640Y1.67700
X1.75349Y1.04766
X1.82817Y0.22746
X2.06550Y0.92161
X2.23897Y1.82579
T002
X0.32128Y0.50787
X0.32423Y0.66831
X0.32423Y0.91732
X0.32423Y1.13189
X0.32423Y1.34154
X0.32423Y1.53642
X0.32423Y1.70866
X0.34982Y2.02362
X0.35770Y1.88583
X0.36557Y1.96746
X0.46793Y1.94094
X0.47675Y0.73327
X0.51919Y1.48946
X0.53486Y0.29921
X0.59785Y2.02362
X0.59982Y0.10728
X0.60967Y1.94094
X0.65148Y0.81178
X0.70022Y1.72402
X0.83270Y0.52402
X0.86239Y0.19400
X0.86863Y1.76403
X0.86951Y1.90945
X0.86951Y2.02756
X0.92659Y0.12795
X0.99943Y1.83071
X1.01840Y1.16622
X1.04864Y0.42717
X1.08954Y0.93783
X1.09392Y2.03543
X1.13270Y1.13402
X1.14411Y0.18898
X1.16067Y1.78094
X1.19628Y0.94488
X1.25927Y2.02756
X1.26270Y1.20902
X1.29864Y1.90945
X1.35967Y1.21555
X1.35967Y1.21654
X1.40030Y0.58214
X1.40154Y0.62333
X1.41872Y1.08760
X1.45405Y1.77657
X1.46892Y0.13484
X1.47187Y1.90945
X1.47187Y2.02756
X1.48368Y0.96850
X1.48516Y0.62333
X1.54631Y1.20491
X1.56000Y0.62208
X1.61280Y1.91754
X1.63617Y1.13876
X1.63722Y0.69882
X1.65888Y0.42815
X1.67361Y1.78524
X1.67985Y1.61177
X1.68841Y2.04823
X1.69608Y1.19243
X1.69608Y1.26378
X1.74943Y1.55413
X1.79372Y0.67126
X1.80553Y0.13484
X1.95692Y1.72409
X1.96104Y0.52657
X1.96191Y0.77059
X1.96191Y0.86730
X1.96596Y2.05020
X2.00533Y1.94783
X2.06242Y1.82677
X2.11916Y1.17121
X2.15199Y2.04823
X2.16675Y1.76673
X2.19431Y1.94390
X2.20317Y0.48230
X2.20652Y0.76685
X2.32817Y0.10335
X2.33014Y0.65256
X2.33604Y2.05118
X2.33703Y0.39961
X2.33801Y1.94390
X2.33900Y0.89665
X2.33900Y1.13287
X2.33998Y1.37008
X2.34096Y1.56201
X2.34195Y1.77165
T003
X1.46719Y0.32224
X1.64042Y0.32224
T004
X2.23270Y1.06152
X2.23270Y1.16152
X2.23270Y1.26152
X2.23270Y1.36152
X2.23270Y1.46152
X2.23270Y1.56152
X2.23270Y1.66152
X2.23270Y1.76152
T005
X0.48674Y0.46791
X0.48674Y0.56791
X0.48674Y0.66791
X0.52163Y0.86841
X0.52163Y0.94715
X0.52163Y1.02589
X0.52163Y1.10463
X0.69770Y0.42402
X0.69770Y0.52402
X0.69770Y0.62402
X0.69770Y0.72402
X0.70974Y0.86225
X0.70974Y1.11825
X0.88774Y0.86225
X0.88774Y1.11825
X1.81324Y1.37589
X1.91324Y1.37589
X2.01324Y1.37589
T006
X0.68663Y0.21647
X0.78663Y0.21647
X1.93348Y0.18425
X1.93348Y0.28425
T007
X0.44136Y0.22047
X1.82620Y1.87598
X2.15593Y0.24803
M30
