G05
M48
;#@! TF.GenerationSoftware,DesignSpark,DesignSpark PCB,11.0.5875
;#@! TF.CreationDate,2023-10-16T15:47:48--1:00*
;#@! TF.FileFunction,Plated,1,2,PTH
;FILE_FORMAT=3:5
;TYPE=PLATED
INCH,TZ
FMAT,2
T1C000.02400
T2C000.02500
T3C000.02559
T4C000.03000
T5C000.03150
T6C000.03200
T7C000.03500
T8C000.03900
T9C000.03937
T10C000.04000
T11C000.04700
T12C000.09055
%
T001
X1.11884Y1.47750
X1.11884Y1.81500
X1.49384Y0.92750
X1.49384Y1.22750
X1.60634Y1.10250
X1.60634Y1.57750
X3.50634Y0.88750
X3.50634Y1.50250
T002
X0.90634Y0.44000
X0.90634Y0.64000
X1.58134Y1.69000
X1.58134Y1.89000
X1.63134Y0.77750
X1.63134Y0.97750
T003
X3.04634Y0.88750
X3.04634Y0.98750
X3.04634Y1.08750
X3.04634Y1.18750
X3.04634Y1.28750
X3.04634Y1.38750
X3.34634Y0.88750
X3.34634Y0.98750
X3.34634Y1.08750
X3.34634Y1.18750
X3.34634Y1.28750
X3.34634Y1.38750
T004
X0.69384Y1.47750
X0.69384Y1.72900
X0.71884Y0.37750
X0.71884Y0.67750
X1.05634Y0.56500
X1.55634Y0.56500
X2.18134Y0.22750
X2.18134Y0.51500
T005
X0.88134Y1.26500
X0.90634Y1.11500
X1.06884Y0.67750
X1.06884Y0.77750
X1.06884Y0.87750
X1.36884Y0.67750
X1.36884Y0.77750
X1.36884Y0.87750
X1.36884Y0.97750
X1.38134Y1.26500
X1.40634Y1.11500
X2.96884Y0.61500
X3.46884Y0.61500
T006
X2.85634Y1.61500
X2.95634Y1.61500
X3.05634Y1.61500
X3.15634Y1.61500
X3.25634Y1.61500
X3.35634Y1.61500
X3.45634Y1.61500
X3.55634Y1.61500
T007
X1.79404Y0.55079
X1.79404Y0.65079
X1.79404Y0.75079
X1.79404Y0.85079
X1.79404Y0.95079
X1.79404Y1.05079
X1.79404Y1.15079
X1.79404Y1.25079
X1.79404Y1.35079
X1.79404Y1.45079
X1.79404Y1.55079
X1.79404Y1.65079
X1.79404Y1.75079
X1.79404Y1.85079
X1.79404Y1.95079
X2.39404Y0.55079
X2.39404Y0.65079
X2.39404Y0.75079
X2.39404Y0.85079
X2.39404Y0.95079
X2.39404Y1.05079
X2.39404Y1.15079
X2.39404Y1.25079
X2.39404Y1.35079
X2.39404Y1.45079
X2.39404Y1.55079
X2.39404Y1.65079
X2.39404Y1.75079
X2.39404Y1.85079
X2.39404Y1.95079
T008
X1.06884Y0.97750
T009
X0.69384Y0.95250
X0.69492Y1.05191
X0.69492Y1.15033
X0.69492Y1.24876
T010
X0.77834Y1.55100
X0.77834Y1.72900
X0.77834Y1.90100
X0.77834Y2.07900
X1.03434Y1.55100
X1.03434Y1.72900
X1.03434Y1.90100
X1.03434Y2.07900
X1.20073Y2.11500
X1.27947Y2.11500
X1.31884Y1.49689
X1.31884Y1.57563
X1.31884Y1.65437
X1.31884Y1.73311
X1.35821Y2.11500
X1.43695Y2.11500
T011
X1.13134Y0.35250
X1.33134Y0.35250
X1.53134Y0.35250
T012
X0.82730Y0.80880
X0.82730Y1.39049
M30
