G04 DesignSpark PCB Gerber Version 10.0 Build 5299*
%FSLAX34Y34*%
%MOIN*%
%ADD10C,0.00500*%
%ADD28C,0.10000*%
X0Y0D02*
D02*
D10*
X3885Y8339D02*
Y8714D01*
X4198D01*
X4135Y8526D02*
X3885D01*
Y8339D02*
X4198D01*
X3885Y10899D02*
Y11274D01*
X4198D01*
X4135Y11086D02*
X3885D01*
Y10899D02*
X4198D01*
X4744Y21106D02*
X4806Y21075D01*
X4838Y21013D01*
X4806Y20950D01*
X4744Y20919D01*
X4525D01*
Y21294D01*
X4744D01*
X4806Y21263D01*
X4838Y21200D01*
X4806Y21138D01*
X4744Y21106D01*
X4525D01*
X4744Y24106D02*
X4806Y24075D01*
X4838Y24013D01*
X4806Y23950D01*
X4744Y23919D01*
X4525D01*
Y24294D01*
X4744D01*
X4806Y24263D01*
X4838Y24200D01*
X4806Y24138D01*
X4744Y24106D01*
X4525D01*
X5188Y13331D02*
X5156Y13300D01*
X5094Y13269D01*
X5000D01*
X4938Y13300D01*
X4906Y13331D01*
X4875Y13394D01*
Y13519D01*
X4906Y13581D01*
X4938Y13613D01*
X5000Y13644D01*
X5094D01*
X5156Y13613D01*
X5188Y13581D01*
X5665Y8339D02*
Y8714D01*
X5978D01*
X5915Y8526D02*
X5665D01*
Y8339D02*
X5978D01*
X5665Y10899D02*
Y11274D01*
X5978D01*
X5915Y11086D02*
X5665D01*
Y10899D02*
X5978D01*
X5969Y17019D02*
X6094D01*
X6031D02*
Y17394D01*
X5969D02*
X6094D01*
X5969Y19019D02*
X6094D01*
X6031D02*
Y19394D01*
X5969D02*
X6094D01*
X6325Y4719D02*
X6481Y5094D01*
X6638Y4719D01*
X6388Y4875D02*
X6575D01*
X6594Y14825D02*
X6688D01*
Y14794D01*
X6656Y14731D01*
X6625Y14700D01*
X6563Y14669D01*
X6500D01*
X6438Y14700D01*
X6406Y14731D01*
X6375Y14794D01*
Y14919D01*
X6406Y14981D01*
X6438Y15013D01*
X6500Y15044D01*
X6563D01*
X6625Y15013D01*
X6656Y14981D01*
X6688Y14919D01*
X7138Y6631D02*
X7106Y6600D01*
X7044Y6569D01*
X6950D01*
X6888Y6600D01*
X6856Y6631D01*
X6825Y6694D01*
Y6819D01*
X6856Y6881D01*
X6888Y6913D01*
X6950Y6944D01*
X7044D01*
X7106Y6913D01*
X7138Y6881D01*
Y11631D02*
X7106Y11600D01*
X7044Y11569D01*
X6950D01*
X6888Y11600D01*
X6856Y11631D01*
X6825Y11694D01*
Y11819D01*
X6856Y11881D01*
X6888Y11913D01*
X6950Y11944D01*
X7044D01*
X7106Y11913D01*
X7138Y11881D01*
X7744Y21725D02*
X7838D01*
Y21694D01*
X7806Y21631D01*
X7775Y21600D01*
X7713Y21569D01*
X7650D01*
X7588Y21600D01*
X7556Y21631D01*
X7525Y21694D01*
Y21819D01*
X7556Y21881D01*
X7588Y21913D01*
X7650Y21944D01*
X7713D01*
X7775Y21913D01*
X7806Y21881D01*
X7838Y21819D01*
X7744Y22725D02*
X7838D01*
Y22694D01*
X7806Y22631D01*
X7775Y22600D01*
X7713Y22569D01*
X7650D01*
X7588Y22600D01*
X7556Y22631D01*
X7525Y22694D01*
Y22819D01*
X7556Y22881D01*
X7588Y22913D01*
X7650Y22944D01*
X7713D01*
X7775Y22913D01*
X7806Y22881D01*
X7838Y22819D01*
X7744Y23725D02*
X7838D01*
Y23694D01*
X7806Y23631D01*
X7775Y23600D01*
X7713Y23569D01*
X7650D01*
X7588Y23600D01*
X7556Y23631D01*
X7525Y23694D01*
Y23819D01*
X7556Y23881D01*
X7588Y23913D01*
X7650Y23944D01*
X7713D01*
X7775Y23913D01*
X7806Y23881D01*
X7838Y23819D01*
X7975Y9969D02*
Y10344D01*
X8288D01*
X8225Y10156D02*
X7975D01*
X8594Y14825D02*
X8688D01*
Y14794D01*
X8656Y14731D01*
X8625Y14700D01*
X8563Y14669D01*
X8500D01*
X8438Y14700D01*
X8406Y14731D01*
X8375Y14794D01*
Y14919D01*
X8406Y14981D01*
X8438Y15013D01*
X8500Y15044D01*
X8563D01*
X8625Y15013D01*
X8656Y14981D01*
X8688Y14919D01*
X8975Y9969D02*
Y10344D01*
X9288D01*
X9225Y10156D02*
X8975D01*
X9588Y24781D02*
X9556Y24750D01*
X9494Y24719D01*
X9400D01*
X9338Y24750D01*
X9306Y24781D01*
X9275Y24844D01*
Y24969D01*
X9306Y25031D01*
X9338Y25063D01*
X9400Y25094D01*
X9494D01*
X9556Y25063D01*
X9588Y25031D01*
X9694Y15806D02*
X9756Y15775D01*
X9788Y15713D01*
X9756Y15650D01*
X9694Y15619D01*
X9475D01*
Y15994D01*
X9694D01*
X9756Y15963D01*
X9788Y15900D01*
X9756Y15838D01*
X9694Y15806D01*
X9475D01*
X9694Y18806D02*
X9756Y18775D01*
X9788Y18713D01*
X9756Y18650D01*
X9694Y18619D01*
X9475D01*
Y18994D01*
X9694D01*
X9756Y18963D01*
X9788Y18900D01*
X9756Y18838D01*
X9694Y18806D01*
X9475D01*
X10188Y13331D02*
X10156Y13300D01*
X10094Y13269D01*
X10000D01*
X9938Y13300D01*
X9906Y13331D01*
X9875Y13394D01*
Y13519D01*
X9906Y13581D01*
X9938Y13613D01*
X10000Y13644D01*
X10094D01*
X10156Y13613D01*
X10188Y13581D01*
X10488Y6481D02*
X10456Y6450D01*
X10394Y6419D01*
X10300D01*
X10238Y6450D01*
X10206Y6481D01*
X10175Y6544D01*
Y6669D01*
X10206Y6731D01*
X10238Y6763D01*
X10300Y6794D01*
X10394D01*
X10456Y6763D01*
X10488Y6731D01*
Y11481D02*
X10456Y11450D01*
X10394Y11419D01*
X10300D01*
X10238Y11450D01*
X10206Y11481D01*
X10175Y11544D01*
Y11669D01*
X10206Y11731D01*
X10238Y11763D01*
X10300Y11794D01*
X10394D01*
X10456Y11763D01*
X10488Y11731D01*
X10694Y15806D02*
X10756Y15775D01*
X10788Y15713D01*
X10756Y15650D01*
X10694Y15619D01*
X10475D01*
Y15994D01*
X10694D01*
X10756Y15963D01*
X10788Y15900D01*
X10756Y15838D01*
X10694Y15806D01*
X10475D01*
X10694Y18806D02*
X10756Y18775D01*
X10788Y18713D01*
X10756Y18650D01*
X10694Y18619D01*
X10475D01*
Y18994D01*
X10694D01*
X10756Y18963D01*
X10788Y18900D01*
X10756Y18838D01*
X10694Y18806D01*
X10475D01*
X10625Y20181D02*
X10656Y20150D01*
X10719Y20119D01*
X10781Y20150D01*
X10813Y20181D01*
Y20494D01*
X10875D01*
X10813D02*
X10688D01*
X10938Y22631D02*
X10906Y22600D01*
X10844Y22569D01*
X10750D01*
X10688Y22600D01*
X10656Y22631D01*
X10625Y22694D01*
Y22819D01*
X10656Y22881D01*
X10688Y22913D01*
X10750Y22944D01*
X10844D01*
X10906Y22913D01*
X10938Y22881D01*
X11438Y23381D02*
X11406Y23350D01*
X11344Y23319D01*
X11250D01*
X11188Y23350D01*
X11156Y23381D01*
X11125Y23444D01*
Y23569D01*
X11156Y23631D01*
X11188Y23663D01*
X11250Y23694D01*
X11344D01*
X11406Y23663D01*
X11438Y23631D01*
X11738Y9031D02*
X11706Y9000D01*
X11644Y8969D01*
X11550D01*
X11488Y9000D01*
X11456Y9031D01*
X11425Y9094D01*
Y9219D01*
X11456Y9281D01*
X11488Y9313D01*
X11550Y9344D01*
X11644D01*
X11706Y9313D01*
X11738Y9281D01*
X11788Y3031D02*
X11756Y3000D01*
X11694Y2969D01*
X11600D01*
X11538Y3000D01*
X11506Y3031D01*
X11475Y3094D01*
Y3219D01*
X11506Y3281D01*
X11538Y3313D01*
X11600Y3344D01*
X11694D01*
X11756Y3313D01*
X11788Y3281D01*
Y8031D02*
X11756Y8000D01*
X11694Y7969D01*
X11600D01*
X11538Y8000D01*
X11506Y8031D01*
X11475Y8094D01*
Y8219D01*
X11506Y8281D01*
X11538Y8313D01*
X11600Y8344D01*
X11694D01*
X11756Y8313D01*
X11788Y8281D01*
X11694Y15806D02*
X11756Y15775D01*
X11788Y15713D01*
X11756Y15650D01*
X11694Y15619D01*
X11475D01*
Y15994D01*
X11694D01*
X11756Y15963D01*
X11788Y15900D01*
X11756Y15838D01*
X11694Y15806D01*
X11475D01*
X11788Y18681D02*
X11756Y18650D01*
X11694Y18619D01*
X11600D01*
X11538Y18650D01*
X11506Y18681D01*
X11475Y18744D01*
Y18869D01*
X11506Y18931D01*
X11538Y18963D01*
X11600Y18994D01*
X11694D01*
X11756Y18963D01*
X11788Y18931D01*
X11625Y20181D02*
X11656Y20150D01*
X11719Y20119D01*
X11781Y20150D01*
X11813Y20181D01*
Y20494D01*
X11875D01*
X11813D02*
X11688D01*
X11938Y22631D02*
X11906Y22600D01*
X11844Y22569D01*
X11750D01*
X11688Y22600D01*
X11656Y22631D01*
X11625Y22694D01*
Y22819D01*
X11656Y22881D01*
X11688Y22913D01*
X11750Y22944D01*
X11844D01*
X11906Y22913D01*
X11938Y22881D01*
X12788Y15681D02*
X12756Y15650D01*
X12694Y15619D01*
X12600D01*
X12538Y15650D01*
X12506Y15681D01*
X12475Y15744D01*
Y15869D01*
X12506Y15931D01*
X12538Y15963D01*
X12600Y15994D01*
X12694D01*
X12756Y15963D01*
X12788Y15931D01*
Y18681D02*
X12756Y18650D01*
X12694Y18619D01*
X12600D01*
X12538Y18650D01*
X12506Y18681D01*
X12475Y18744D01*
Y18869D01*
X12506Y18931D01*
X12538Y18963D01*
X12600Y18994D01*
X12694D01*
X12756Y18963D01*
X12788Y18931D01*
X12625Y20181D02*
X12656Y20150D01*
X12719Y20119D01*
X12781Y20150D01*
X12813Y20181D01*
Y20494D01*
X12875D01*
X12813D02*
X12688D01*
X13788Y15681D02*
X13756Y15650D01*
X13694Y15619D01*
X13600D01*
X13538Y15650D01*
X13506Y15681D01*
X13475Y15744D01*
Y15869D01*
X13506Y15931D01*
X13538Y15963D01*
X13600Y15994D01*
X13694D01*
X13756Y15963D01*
X13788Y15931D01*
X13694Y18806D02*
X13756Y18775D01*
X13788Y18713D01*
X13756Y18650D01*
X13694Y18619D01*
X13475D01*
Y18994D01*
X13694D01*
X13756Y18963D01*
X13788Y18900D01*
X13756Y18838D01*
X13694Y18806D01*
X13475D01*
X13875Y5019D02*
Y5394D01*
Y5206D02*
X14188D01*
Y5019D02*
Y5394D01*
X14238Y6631D02*
X14206Y6600D01*
X14144Y6569D01*
X14050D01*
X13988Y6600D01*
X13956Y6631D01*
X13925Y6694D01*
Y6819D01*
X13956Y6881D01*
X13988Y6913D01*
X14050Y6944D01*
X14144D01*
X14206Y6913D01*
X14238Y6881D01*
X14588Y24781D02*
X14556Y24750D01*
X14494Y24719D01*
X14400D01*
X14338Y24750D01*
X14306Y24781D01*
X14275Y24844D01*
Y24969D01*
X14306Y25031D01*
X14338Y25063D01*
X14400Y25094D01*
X14494D01*
X14556Y25063D01*
X14588Y25031D01*
X14738Y7381D02*
X14706Y7350D01*
X14644Y7319D01*
X14550D01*
X14488Y7350D01*
X14456Y7381D01*
X14425Y7444D01*
Y7569D01*
X14456Y7631D01*
X14488Y7663D01*
X14550Y7694D01*
X14644D01*
X14706Y7663D01*
X14738Y7631D01*
X14475Y12019D02*
Y12394D01*
X14663D01*
X14725Y12363D01*
X14756Y12331D01*
X14788Y12269D01*
Y12144D01*
X14756Y12081D01*
X14725Y12050D01*
X14663Y12019D01*
X14475D01*
Y13019D02*
Y13394D01*
X14663D01*
X14725Y13363D01*
X14756Y13331D01*
X14788Y13269D01*
Y13144D01*
X14756Y13081D01*
X14725Y13050D01*
X14663Y13019D01*
X14475D01*
X14694Y15806D02*
X14756Y15775D01*
X14788Y15713D01*
X14756Y15650D01*
X14694Y15619D01*
X14475D01*
Y15994D01*
X14694D01*
X14756Y15963D01*
X14788Y15900D01*
X14756Y15838D01*
X14694Y15806D01*
X14475D01*
X14694Y18806D02*
X14756Y18775D01*
X14788Y18713D01*
X14756Y18650D01*
X14694Y18619D01*
X14475D01*
Y18994D01*
X14694D01*
X14756Y18963D01*
X14788Y18900D01*
X14756Y18838D01*
X14694Y18806D01*
X14475D01*
X14875Y5019D02*
Y5394D01*
Y5206D02*
X15188D01*
Y5019D02*
Y5394D01*
X15238Y6631D02*
X15206Y6600D01*
X15144Y6569D01*
X15050D01*
X14988Y6600D01*
X14956Y6631D01*
X14925Y6694D01*
Y6819D01*
X14956Y6881D01*
X14988Y6913D01*
X15050Y6944D01*
X15144D01*
X15206Y6913D01*
X15238Y6881D01*
X15475Y12019D02*
Y12394D01*
X15663D01*
X15725Y12363D01*
X15756Y12331D01*
X15788Y12269D01*
Y12144D01*
X15756Y12081D01*
X15725Y12050D01*
X15663Y12019D01*
X15475D01*
Y13019D02*
Y13394D01*
X15663D01*
X15725Y13363D01*
X15756Y13331D01*
X15788Y13269D01*
Y13144D01*
X15756Y13081D01*
X15725Y13050D01*
X15663Y13019D01*
X15475D01*
X15694Y15806D02*
X15756Y15775D01*
X15788Y15713D01*
X15756Y15650D01*
X15694Y15619D01*
X15475D01*
Y15994D01*
X15694D01*
X15756Y15963D01*
X15788Y15900D01*
X15756Y15838D01*
X15694Y15806D01*
X15475D01*
X15694Y18806D02*
X15756Y18775D01*
X15788Y18713D01*
X15756Y18650D01*
X15694Y18619D01*
X15475D01*
Y18994D01*
X15694D01*
X15756Y18963D01*
X15788Y18900D01*
X15756Y18838D01*
X15694Y18806D01*
X15475D01*
X16488Y19781D02*
X16456Y19750D01*
X16394Y19719D01*
X16300D01*
X16238Y19750D01*
X16206Y19781D01*
X16175Y19844D01*
Y19969D01*
X16206Y20031D01*
X16238Y20063D01*
X16300Y20094D01*
X16394D01*
X16456Y20063D01*
X16488Y20031D01*
Y24781D02*
X16456Y24750D01*
X16394Y24719D01*
X16300D01*
X16238Y24750D01*
X16206Y24781D01*
X16175Y24844D01*
Y24969D01*
X16206Y25031D01*
X16238Y25063D01*
X16300Y25094D01*
X16394D01*
X16456Y25063D01*
X16488Y25031D01*
X16738Y9031D02*
X16706Y9000D01*
X16644Y8969D01*
X16550D01*
X16488Y9000D01*
X16456Y9031D01*
X16425Y9094D01*
Y9219D01*
X16456Y9281D01*
X16488Y9313D01*
X16550Y9344D01*
X16644D01*
X16706Y9313D01*
X16738Y9281D01*
X16475Y12019D02*
Y12394D01*
X16663D01*
X16725Y12363D01*
X16756Y12331D01*
X16788Y12269D01*
Y12144D01*
X16756Y12081D01*
X16725Y12050D01*
X16663Y12019D01*
X16475D01*
Y13019D02*
Y13394D01*
X16663D01*
X16725Y13363D01*
X16756Y13331D01*
X16788Y13269D01*
Y13144D01*
X16756Y13081D01*
X16725Y13050D01*
X16663Y13019D01*
X16475D01*
X17788Y4731D02*
X17756Y4700D01*
X17694Y4669D01*
X17600D01*
X17538Y4700D01*
X17506Y4731D01*
X17475Y4794D01*
Y4919D01*
X17506Y4981D01*
X17538Y5013D01*
X17600Y5044D01*
X17694D01*
X17756Y5013D01*
X17788Y4981D01*
Y9731D02*
X17756Y9700D01*
X17694Y9669D01*
X17600D01*
X17538Y9700D01*
X17506Y9731D01*
X17475Y9794D01*
Y9919D01*
X17506Y9981D01*
X17538Y10013D01*
X17600Y10044D01*
X17694D01*
X17756Y10013D01*
X17788Y9981D01*
X18375Y22869D02*
X18531Y23244D01*
X18688Y22869D01*
X18438Y23025D02*
X18625D01*
X19336Y4438D02*
Y4813D01*
X19648D01*
X19586Y4625D02*
X19336D01*
Y4438D02*
X19648D01*
X19336Y5225D02*
Y5600D01*
X19648D01*
X19586Y5413D02*
X19336D01*
Y5225D02*
X19648D01*
X19336Y6012D02*
Y6387D01*
X19648D01*
X19586Y6200D02*
X19336D01*
Y6012D02*
X19648D01*
X19336Y6800D02*
Y7175D01*
X19648D01*
X19586Y6987D02*
X19336D01*
Y6800D02*
X19648D01*
D02*
D28*
X2885Y7745D03*
Y10305D03*
X3525Y20325D03*
Y23325D03*
X3875Y12675D03*
X4665Y7745D03*
Y10305D03*
X4875Y16425D03*
Y18425D03*
X5325Y4125D03*
X5375Y14075D03*
X5825Y5975D03*
Y10975D03*
X6525Y20975D03*
Y21975D03*
Y22975D03*
X6975Y9375D03*
X7375Y14075D03*
X7975Y9375D03*
X8275Y24125D03*
X8475Y15025D03*
Y18025D03*
X8875Y12675D03*
X9175Y5825D03*
Y10825D03*
X9475Y15025D03*
Y18025D03*
X9625Y19525D03*
Y21975D03*
X10125Y22725D03*
X10425Y8375D03*
X10475Y2375D03*
Y7375D03*
Y15025D03*
Y18025D03*
X10625Y19525D03*
Y21975D03*
X11475Y15025D03*
Y18025D03*
X11625Y19525D03*
X12475Y15025D03*
Y18025D03*
X12875Y4425D03*
X12925Y5975D03*
X13275Y24125D03*
X13425Y6725D03*
X13475Y11425D03*
Y12425D03*
Y15025D03*
Y18025D03*
X13875Y4425D03*
X13925Y5975D03*
X14475Y11425D03*
Y12425D03*
Y15025D03*
Y18025D03*
X15175Y19125D03*
Y24125D03*
X15425Y8375D03*
X15475Y11425D03*
Y12425D03*
X16475Y4075D03*
Y9075D03*
X17375Y22275D03*
X18336Y3844D03*
Y4631D03*
Y5419D03*
Y6206D03*
X0Y0D02*
M02*
