G04 DesignSpark PCB Gerber Version 10.0 Build 5299*
%FSLAX34Y34*%
%MOIN*%
%AMT89*0 Octagon Pad at angle 0*4,1,8,-0.01468,-0.03543,0.01468,-0.03543,0.03543,-0.01468,0.03543,0.01468,0.01468,0.03543,-0.01468,0.03543,-0.03543,0.01468,-0.03543,-0.01468,-0.01468,-0.03543,0*%
%ADD89T89*%
%ADD88O,0.03543X0.03543*%
%ADD87O,0.03937X0.11024*%
%ADD86O,0.05200X0.10400*%
%ADD27R,0.07874X0.07874*%
%ADD10C,0.00500*%
%ADD11C,0.01000*%
%ADD85C,0.01575*%
%ADD18C,0.02000*%
%ADD84C,0.02362*%
%ADD12C,0.03000*%
%ADD14C,0.04000*%
%ADD71C,0.07000*%
%ADD90C,0.07400*%
%ADD29C,0.07874*%
%ADD26C,0.08000*%
%ADD19C,0.19685*%
%ADD24O,0.12000X0.06000*%
%ADD91O,0.14101X0.07050*%
%ADD23R,0.12000X0.06000*%
X0Y0D02*
D02*
D10*
X2075Y1475D02*
X19925D01*
Y25225D01*
X2075D01*
Y1475D01*
X2519Y7412D02*
Y1919D01*
X10228D01*
G75*
G02*
X10475Y2894I247J456D01*
G01*
G75*
G02*
X10722Y1919I0J-519D01*
G01*
X19481D01*
Y3909D01*
G75*
G02*
X19061Y3603I-846J723D01*
G01*
Y3419D01*
X17755D01*
G75*
G02*
X17627Y3223I-530J206D01*
G01*
X16777Y2373D01*
G75*
G02*
X16375Y2206I-402J402D01*
G01*
X11875D01*
G75*
G02*
X11473Y2373I0J569D01*
G01*
X9226Y4620D01*
G75*
G02*
X9175Y4619I-51J1206D01*
G01*
G75*
G02*
Y7031I0J1206D01*
G01*
G75*
G02*
X9322Y7022I0J-1206D01*
G01*
G75*
G02*
X9276Y7240I1153J353D01*
G01*
X9108Y7408D01*
G75*
G02*
X8956Y7775I367J367D01*
G01*
Y8675D01*
G75*
G02*
X9108Y9042I519J0D01*
G01*
X9758Y9692D01*
G75*
G02*
X10125Y9844I367J-367D01*
G01*
X10756D01*
Y12525D01*
G75*
G02*
X10908Y12892I519J0D01*
G01*
X11704Y13688D01*
G75*
G02*
X11548Y13664I-229J983D01*
G01*
X10744Y12860D01*
Y11575D01*
G75*
G02*
X10592Y11208I-519J0D01*
G01*
X10370Y10987D01*
G75*
G02*
X10381Y10825I-1195J-162D01*
G01*
G75*
G02*
X8494Y9830I-1206J0D01*
G01*
Y8856D01*
X8064D01*
G75*
G02*
X6572Y8238I-1089J519D01*
G01*
X6344Y8010D01*
Y7064D01*
G75*
G02*
X6757Y5210I-519J-1089D01*
G01*
G75*
G02*
X7122Y4125I-1432J-1085D01*
G01*
G75*
G02*
X3528I-1797J0D01*
G01*
G75*
G02*
X4634Y5784I1797J0D01*
G01*
G75*
G02*
X4619Y5975I1191J192D01*
G01*
G75*
G02*
X4775Y6568I1206J0D01*
G01*
G75*
G02*
X4146Y8808I-110J1177D01*
G01*
Y9242D01*
G75*
G02*
Y11368I519J1063D01*
G01*
Y11500D01*
G75*
G02*
X2669Y12675I-271J1175D01*
G01*
G75*
G02*
X5081I1206J0D01*
G01*
G75*
G02*
X5012Y12272I-1206J0D01*
G01*
X5032Y12252D01*
G75*
G02*
X5173Y11990I-367J-367D01*
G01*
G75*
G02*
X5825Y12181I652J-1015D01*
G01*
G75*
G02*
X6191Y12124I0J-1206D01*
G01*
X6208Y12142D01*
G75*
G02*
X6575Y12294I367J-367D01*
G01*
X7731D01*
G75*
G02*
X7703Y12960I1144J381D01*
G01*
G75*
G02*
X6213Y14075I-328J1115D01*
G01*
G75*
G02*
X7403Y15237I1162J0D01*
G01*
Y15285D01*
G75*
G02*
X8400Y16355I1072J0D01*
G01*
X8903Y16858D01*
G75*
G02*
X8474Y17380I572J907D01*
G01*
G75*
G02*
X8090Y17765I1J385D01*
G01*
Y18285D01*
G75*
G02*
X8474Y18670I385J0D01*
G01*
G75*
G02*
X9148Y19306I1001J-385D01*
G01*
G75*
G02*
X9419Y20008I477J219D01*
G01*
Y20731D01*
X10056D01*
Y20961D01*
G75*
G02*
X9562Y21504I569J1014D01*
G01*
G75*
G02*
X9161Y22076I63J471D01*
G01*
G75*
G02*
X9007Y22406I964J649D01*
G01*
X7539D01*
G75*
G02*
X6996Y21912I-1014J569D01*
G01*
G75*
G02*
X6054I-471J63D01*
G01*
G75*
G02*
X5383Y22756I471J1063D01*
G01*
X4552D01*
G75*
G02*
X2519Y22694I-1027J309D01*
G01*
Y20956D01*
G75*
G02*
X4597Y20585I1006J-371D01*
G01*
Y20065D01*
G75*
G02*
X4094Y19156I-1072J0D01*
G01*
Y18635D01*
G75*
G02*
X4523Y18903I429J-210D01*
G01*
X5227D01*
G75*
G02*
X5705Y18425I0J-478D01*
G01*
G75*
G02*
X5227Y17947I-478J0D01*
G01*
X4523D01*
G75*
G02*
X4094Y18215I0J478D01*
G01*
Y17508D01*
G75*
G02*
X4523Y17590I429J-1083D01*
G01*
X5227D01*
G75*
G02*
X6392Y16425I0J-1165D01*
G01*
G75*
G02*
X5227Y15260I-1165J0D01*
G01*
X4523D01*
G75*
G02*
X3361Y16335I0J1165D01*
G01*
X3123Y16573D01*
G75*
G02*
X2956Y16975I402J402D01*
G01*
Y19156D01*
G75*
G02*
X2519Y19694I569J909D01*
G01*
Y10638D01*
G75*
G02*
X3380Y10305I366J-333D01*
G01*
G75*
G02*
X2519Y9972I-495J0D01*
G01*
Y8078D01*
G75*
G02*
X3380Y7745I366J-333D01*
G01*
G75*
G02*
X2519Y7412I-495J0D01*
G01*
X6050Y20975D02*
G75*
G02*
X7000I475J0D01*
G01*
G75*
G02*
X6050I-475J0D01*
G01*
X4900Y14075D02*
G75*
G02*
X5850I475J0D01*
G01*
G75*
G02*
X4900I-475J0D01*
G01*
X2544Y7386D02*
G36*
X2544Y7386D02*
Y1944D01*
X10187D01*
G75*
G02*
X9956Y2375I288J431D01*
G01*
G75*
G02*
X10475Y2894I519J0D01*
G01*
G75*
G02*
X10994Y2375I0J-519D01*
G01*
G75*
G02*
X10763Y1944I-519J0D01*
G01*
X19456D01*
Y3880D01*
G75*
G02*
X19061Y3603I-821J751D01*
G01*
Y3419D01*
X17755D01*
G75*
G02*
X17627Y3223I-531J207D01*
G01*
X16777Y2373D01*
G75*
G02*
X16375Y2206I-402J402D01*
G01*
X11875D01*
G75*
G02*
X11473Y2373I0J569D01*
G01*
X9226Y4620D01*
G75*
G02*
X9175Y4619I-52J1260D01*
G01*
G75*
G02*
X7969Y5825I0J1206D01*
G01*
G75*
G02*
X9175Y7031I1206J0D01*
G01*
G75*
G02*
X9322Y7022I0J-1212D01*
G01*
G75*
G02*
X9276Y7240I1157J353D01*
G01*
X9108Y7408D01*
G75*
G02*
X8956Y7775I367J367D01*
G01*
Y8675D01*
G75*
G02*
X9108Y9042I519J0D01*
G01*
X9758Y9692D01*
G75*
G02*
X10125Y9844I367J-367D01*
G01*
X10756D01*
Y12525D01*
G75*
G02*
X10908Y12892I519J0D01*
G01*
X11704Y13688D01*
G75*
G02*
X11548Y13664I-230J986D01*
G01*
X10744Y12860D01*
Y11575D01*
G75*
G02*
X10592Y11208I-519J0D01*
G01*
X10370Y10987D01*
G75*
G02*
X10381Y10825I-1195J-162D01*
G01*
Y10825D01*
G75*
G02*
X8494Y9830I-1206J0D01*
G01*
Y8856D01*
X8064D01*
G75*
G02*
X6572Y8238I-1089J519D01*
G01*
X6344Y8010D01*
Y7064D01*
G75*
G02*
X7031Y5975I-519J-1089D01*
G01*
G75*
G02*
X6757Y5210I-1206J0D01*
G01*
G75*
G02*
X7122Y4125I-1432J-1085D01*
G01*
G75*
G02*
X3528I-1797J0D01*
G01*
G75*
G02*
X4634Y5784I1797J0D01*
G01*
G75*
G02*
X4619Y5975I1196J192D01*
G01*
G75*
G02*
X4775Y6568I1206J0D01*
G01*
G75*
G02*
X3483Y7745I-110J1177D01*
G01*
G75*
G02*
X4146Y8808I1182J0D01*
G01*
Y9242D01*
G75*
G02*
X3483Y10305I519J1063D01*
G01*
G75*
G02*
X4146Y11368I1182J0D01*
G01*
Y11500D01*
G75*
G02*
X2669Y12675I-271J1175D01*
G01*
G75*
G02*
X5081I1206J0D01*
G01*
G75*
G02*
X5012Y12272I-1207J0D01*
G01*
X5032Y12252D01*
G75*
G02*
X5173Y11990I-367J-367D01*
G01*
G75*
G02*
X5825Y12181I652J-1015D01*
G01*
G75*
G02*
X6191Y12124I0J-1206D01*
G01*
X6208Y12142D01*
G75*
G02*
X6575Y12294I367J-367D01*
G01*
X7731D01*
G75*
G02*
X7669Y12675I1145J381D01*
G01*
G75*
G02*
X7703Y12960I1207J0D01*
G01*
G75*
G02*
X6213Y14075I-328J1115D01*
G01*
X5850D01*
G75*
G02*
X4900I-475J0D01*
G01*
X2544D01*
Y10664D01*
G75*
G02*
X3380Y10305I341J-359D01*
G01*
G75*
G02*
X2544Y9946I-495J0D01*
G01*
Y8104D01*
G75*
G02*
X3380Y7745I341J-359D01*
G01*
G75*
G02*
X2544Y7386I-495J0D01*
G01*
G37*
Y19633D02*
G36*
X2544Y19633D02*
Y14075D01*
X4900D01*
G75*
G02*
X5850I475J0D01*
G01*
X6213D01*
G75*
G02*
X7403Y15237I1162J0D01*
G01*
Y15285D01*
G75*
G02*
X8400Y16355I1072J0D01*
G01*
X8903Y16858D01*
G75*
G02*
X8474Y17380I571J907D01*
G01*
G75*
G02*
X8090Y17765I1J385D01*
G01*
Y18285D01*
G75*
G02*
X8474Y18670I385J0D01*
G01*
G75*
G02*
X9148Y19306I1001J-385D01*
G01*
G75*
G02*
X9100Y19525I477J219D01*
G01*
G75*
G02*
X9419Y20008I525J0D01*
G01*
Y20731D01*
X10056D01*
Y20961D01*
G75*
G02*
X10032Y20975I569J1014D01*
G01*
X7000D01*
G75*
G02*
X6050I-475J0D01*
G01*
X4524D01*
G75*
G02*
X4597Y20585I-999J-390D01*
G01*
Y20065D01*
Y20065D01*
G75*
G02*
X4094Y19156I-1072J0D01*
G01*
Y18635D01*
G75*
G02*
X4523Y18903I429J-210D01*
G01*
X5227D01*
G75*
G02*
X5705Y18425I0J-478D01*
G01*
G75*
G02*
X5227Y17947I-478J0D01*
G01*
X4523D01*
G75*
G02*
X4094Y18215I0J478D01*
G01*
Y17508D01*
G75*
G02*
X4523Y17590I429J-1082D01*
G01*
X5227D01*
G75*
G02*
X6392Y16425I0J-1165D01*
G01*
G75*
G02*
X5227Y15260I-1165J0D01*
G01*
X4523D01*
G75*
G02*
X3361Y16335I0J1165D01*
G01*
X3123Y16573D01*
G75*
G02*
X2956Y16975I402J402D01*
G01*
Y19156D01*
G75*
G02*
X2544Y19633I569J909D01*
G01*
G37*
Y22633D02*
G36*
X2544Y22633D02*
Y21017D01*
G75*
G02*
X4524Y20975I981J-433D01*
G01*
X6050D01*
G75*
G02*
X7000I475J0D01*
G01*
X10032D01*
G75*
G02*
X9562Y21504I593J1000D01*
G01*
G75*
G02*
X9150Y21975I63J471D01*
G01*
G75*
G02*
X9161Y22076I475J0D01*
G01*
G75*
G02*
X9007Y22406I965J650D01*
G01*
X7539D01*
G75*
G02*
X6996Y21912I-1014J569D01*
G01*
G75*
G02*
X6054I-471J63D01*
G01*
G75*
G02*
X5388Y22731I471J1063D01*
G01*
X4544D01*
G75*
G02*
X2544Y22633I-1019J334D01*
G01*
G37*
X2519Y24781D02*
Y23956D01*
G75*
G02*
X4552Y23894I1006J-371D01*
G01*
X5813D01*
G75*
G02*
X7076Y23999I712J-919D01*
G01*
G75*
G02*
X7263Y24781I1200J126D01*
G01*
X2519D01*
G36*
X2519Y24781D02*
Y23956D01*
G75*
G02*
X4552Y23894I1006J-371D01*
G01*
X5813D01*
G75*
G02*
X7076Y23999I712J-919D01*
G01*
G75*
G02*
X7263Y24781I1200J126D01*
G01*
X2519D01*
G37*
X5184Y9242D02*
Y8808D01*
G75*
G02*
X5474Y8607I-519J-1063D01*
G01*
X5838Y8972D01*
G75*
G02*
X5835Y9769I1137J403D01*
G01*
G75*
G02*
X5825Y9769I-10J1206D01*
G01*
G75*
G02*
X5721Y9773I0J1206D01*
G01*
G75*
G02*
X5184Y9242I-1056J532D01*
G01*
G36*
X5184Y9242D02*
Y8808D01*
G75*
G02*
X5474Y8607I-519J-1063D01*
G01*
X5838Y8972D01*
G75*
G02*
X5835Y9769I1137J403D01*
G01*
G75*
G02*
X5825Y9769I-10J1206D01*
G01*
G75*
G02*
X5721Y9773I0J1206D01*
G01*
G75*
G02*
X5184Y9242I-1056J532D01*
G01*
G37*
X6998Y11256D02*
G75*
G02*
X6965Y10581I-1173J-281D01*
G01*
G75*
G02*
X8064Y9894I10J-1206D01*
G01*
X8409D01*
G75*
G02*
X8049Y11256I766J931D01*
G01*
X6998D01*
G36*
X6998Y11256D02*
G75*
G02*
X6965Y10581I-1173J-281D01*
G01*
G75*
G02*
X8064Y9894I10J-1206D01*
G01*
X8409D01*
G75*
G02*
X8049Y11256I766J931D01*
G01*
X6998D01*
G37*
X9287Y24781D02*
G75*
G02*
X9339Y24694I-1012J-657D01*
G01*
X11525D01*
G75*
G02*
X11927Y24527I0J-569D01*
G01*
X12092Y24362D01*
G75*
G02*
X12263Y24781I1183J-237D01*
G01*
X9287D01*
G36*
X9287Y24781D02*
G75*
G02*
X9339Y24694I-1012J-657D01*
G01*
X11525D01*
G75*
G02*
X11927Y24527I0J-569D01*
G01*
X12092Y24362D01*
G75*
G02*
X12263Y24781I1183J-237D01*
G01*
X9287D01*
G37*
X9927Y16273D02*
X9916Y16262D01*
G75*
G02*
X9975Y16234I-442J-978D01*
G01*
G75*
G02*
X10955Y16244I500J-949D01*
G01*
G75*
G02*
X10956Y16245I524J-866D01*
G01*
Y16574D01*
G75*
G02*
Y16575I302J0D01*
G01*
Y16575D01*
G75*
G02*
X11108Y16942I519J0D01*
G01*
X11232Y17066D01*
G75*
G02*
X10975Y17171I243J959D01*
G01*
G75*
G02*
X10279Y17055I-500J854D01*
G01*
G75*
G02*
X10094Y16889I-804J710D01*
G01*
Y16675D01*
G75*
G02*
X9927Y16273I-569J0D01*
G01*
G36*
X9927Y16273D02*
X9916Y16262D01*
G75*
G02*
X9975Y16234I-442J-978D01*
G01*
G75*
G02*
X10955Y16244I500J-949D01*
G01*
G75*
G02*
X10956Y16245I524J-866D01*
G01*
Y16574D01*
G75*
G02*
Y16575I302J0D01*
G01*
Y16575D01*
G75*
G02*
X11108Y16942I519J0D01*
G01*
X11232Y17066D01*
G75*
G02*
X10975Y17171I243J959D01*
G01*
G75*
G02*
X10279Y17055I-500J854D01*
G01*
G75*
G02*
X10094Y16889I-804J710D01*
G01*
Y16675D01*
G75*
G02*
X9927Y16273I-569J0D01*
G01*
G37*
X10328Y6178D02*
G75*
G02*
X10224Y5230I-1153J-353D01*
G01*
X12111Y3344D01*
X12327D01*
G75*
G02*
X12003Y5267I548J1081D01*
G01*
G75*
G02*
X11934Y6582I922J708D01*
G01*
X11710Y6806D01*
X11539D01*
G75*
G02*
X10475Y6169I-1064J569D01*
G01*
G75*
G02*
X10328Y6178I0J1206D01*
G01*
G36*
X10328Y6178D02*
G75*
G02*
X10224Y5230I-1153J-353D01*
G01*
X12111Y3344D01*
X12327D01*
G75*
G02*
X12003Y5267I548J1081D01*
G01*
G75*
G02*
X11934Y6582I922J708D01*
G01*
X11710Y6806D01*
X11539D01*
G75*
G02*
X10475Y6169I-1064J569D01*
G01*
G75*
G02*
X10328Y6178I0J1206D01*
G01*
G37*
X11581Y7856D02*
G75*
G02*
X11586Y7844I-1106J-481D01*
G01*
X11925D01*
G75*
G02*
X12292Y7692I0J-519D01*
G01*
X12524Y7459D01*
G75*
G02*
X13406Y7887I901J-735D01*
G01*
Y8807D01*
G75*
G02*
X13023Y8973I19J568D01*
G01*
X12444Y9552D01*
Y8375D01*
G75*
G02*
X11925Y7856I-519J0D01*
G01*
X11581D01*
G36*
X11581Y7856D02*
G75*
G02*
X11586Y7844I-1106J-481D01*
G01*
X11925D01*
G75*
G02*
X12292Y7692I0J-519D01*
G01*
X12524Y7459D01*
G75*
G02*
X13406Y7887I901J-735D01*
G01*
Y8807D01*
G75*
G02*
X13023Y8973I19J568D01*
G01*
X12444Y9552D01*
Y8375D01*
G75*
G02*
X11925Y7856I-519J0D01*
G01*
X11581D01*
G37*
X12444Y23251D02*
Y21194D01*
X15940D01*
G75*
G02*
X15765Y23073I1435J1081D01*
G01*
G75*
G02*
X14225Y23382I-590J1052D01*
G01*
G75*
G02*
X12444Y23251I-950J743D01*
G01*
G36*
X12444Y23251D02*
Y21194D01*
X15940D01*
G75*
G02*
X15765Y23073I1435J1081D01*
G01*
G75*
G02*
X14225Y23382I-590J1052D01*
G01*
G75*
G02*
X12444Y23251I-950J743D01*
G01*
G37*
X12831Y20056D02*
Y19296D01*
G75*
G02*
X12975Y19234I-356J-1012D01*
G01*
G75*
G02*
X13047Y19268I500J-949D01*
G01*
G75*
G02*
X13108Y19342I428J-293D01*
G01*
X13258Y19492D01*
G75*
G02*
X13626Y19644I367J-367D01*
G01*
X14086D01*
G75*
G02*
X14409Y20056I1089J-519D01*
G01*
X12831D01*
G36*
X12831Y20056D02*
Y19296D01*
G75*
G02*
X12975Y19234I-356J-1012D01*
G01*
G75*
G02*
X13047Y19268I500J-949D01*
G01*
G75*
G02*
X13108Y19342I428J-293D01*
G01*
X13258Y19492D01*
G75*
G02*
X13626Y19644I367J-367D01*
G01*
X14086D01*
G75*
G02*
X14409Y20056I1089J-519D01*
G01*
X12831D01*
G37*
X13971Y3906D02*
G75*
G02*
X13423Y3344I-1096J519D01*
G01*
X14589D01*
X14706Y3461D01*
Y6089D01*
X14504Y6292D01*
G75*
G02*
X14389Y6076I-1079J433D01*
G01*
G75*
G02*
X13988Y5504I-464J-101D01*
G01*
G75*
G02*
X13800Y5209I-1063J471D01*
G01*
G75*
G02*
X13971Y4944I-925J-784D01*
G01*
X14394D01*
Y3906D01*
X13971D01*
G36*
X13971Y3906D02*
G75*
G02*
X13423Y3344I-1096J519D01*
G01*
X14589D01*
X14706Y3461D01*
Y6089D01*
X14504Y6292D01*
G75*
G02*
X14389Y6076I-1079J433D01*
G01*
G75*
G02*
X13988Y5504I-464J-101D01*
G01*
G75*
G02*
X13800Y5209I-1063J471D01*
G01*
G75*
G02*
X13971Y4944I-925J-784D01*
G01*
X14394D01*
Y3906D01*
X13971D01*
G37*
X14994Y13826D02*
Y13556D01*
X15642Y12908D01*
Y12904D01*
X15673D01*
X15954Y12623D01*
Y12592D01*
X15958D01*
X16606Y11944D01*
X16706D01*
Y16206D01*
X15024D01*
G75*
G02*
X15547Y15285I-549J-921D01*
G01*
Y14765D01*
G75*
G02*
X14994Y13826I-1072J0D01*
G01*
G36*
X14994Y13826D02*
Y13556D01*
X15642Y12908D01*
Y12904D01*
X15673D01*
X15954Y12623D01*
Y12592D01*
X15958D01*
X16606Y11944D01*
X16706D01*
Y16206D01*
X15024D01*
G75*
G02*
X15547Y15285I-549J-921D01*
G01*
Y14765D01*
G75*
G02*
X14994Y13826I-1072J0D01*
G01*
G37*
X15217Y7187D02*
X15677Y6727D01*
G75*
G02*
X15844Y6325I-402J-402D01*
G01*
Y5103D01*
G75*
G02*
X15956Y5164I631J-1028D01*
G01*
Y7160D01*
X15865Y7252D01*
G75*
G02*
X15217Y7187I-440J1123D01*
G01*
G36*
X15217Y7187D02*
X15677Y6727D01*
G75*
G02*
X15844Y6325I-402J-402D01*
G01*
Y5103D01*
G75*
G02*
X15956Y5164I631J-1028D01*
G01*
Y7160D01*
X15865Y7252D01*
G75*
G02*
X15217Y7187I-440J1123D01*
G01*
G37*
X15941Y20056D02*
G75*
G02*
X16232Y18544I-766J-931D01*
G01*
X18025D01*
G75*
G02*
X18206Y18511I0J-519D01*
G01*
Y19689D01*
X17839Y20056D01*
X15941D01*
G36*
X15941Y20056D02*
G75*
G02*
X16232Y18544I-766J-931D01*
G01*
X18025D01*
G75*
G02*
X18206Y18511I0J-519D01*
G01*
Y19689D01*
X17839Y20056D01*
X15941D01*
G37*
X16187Y24781D02*
G75*
G02*
X16210Y24744I-1012J-657D01*
G01*
X18475D01*
G75*
G02*
X18842Y24592I0J-519D01*
G01*
X19481Y23952D01*
Y24781D01*
X16187D01*
G36*
X16187Y24781D02*
G75*
G02*
X16210Y24744I-1012J-657D01*
G01*
X18475D01*
G75*
G02*
X18842Y24592I0J-519D01*
G01*
X19481Y23952D01*
Y24781D01*
X16187D01*
G37*
X16695Y7889D02*
X16842Y7742D01*
G75*
G02*
X16994Y7375I-367J-367D01*
G01*
Y6596D01*
G75*
G02*
X18036Y7319I1042J-390D01*
G01*
X18636D01*
G75*
G02*
X18846Y7299I0J-1112D01*
G01*
Y8644D01*
G75*
G02*
X18475Y8506I-371J431D01*
G01*
X17539D01*
G75*
G02*
X16695Y7889I-1064J569D01*
G01*
G36*
X16695Y7889D02*
X16842Y7742D01*
G75*
G02*
X16994Y7375I-367J-367D01*
G01*
Y6596D01*
G75*
G02*
X18036Y7319I1042J-390D01*
G01*
X18636D01*
G75*
G02*
X18846Y7299I0J-1112D01*
G01*
Y8644D01*
G75*
G02*
X18475Y8506I-371J431D01*
G01*
X17539D01*
G75*
G02*
X16695Y7889I-1064J569D01*
G01*
G37*
D02*
D11*
X2885Y7425D02*
Y7225D01*
Y8065D02*
Y8265D01*
Y9985D02*
Y9785D01*
Y10625D02*
Y10825D01*
X3205Y7745D02*
X3405D01*
X3205Y10305D02*
X3405D01*
X4558Y18108D02*
X4390Y17940D01*
X4558Y18742D02*
X4390Y18910D01*
X5075Y14075D02*
X4875D01*
X5192Y18108D02*
X5360Y17940D01*
X5192Y18742D02*
X5360Y18910D01*
X5375Y13775D02*
Y13575D01*
Y14375D02*
Y14575D01*
X5675Y14075D02*
X5875D01*
X6225Y20975D02*
X6025D01*
X6313Y21763D02*
X6171Y21621D01*
X6525Y20675D02*
Y20475D01*
Y21275D02*
Y21475D01*
X6737Y21763D02*
X6879Y21621D01*
X6825Y20975D02*
X7025D01*
X8250Y17800D02*
X8086Y17636D01*
X8250Y18250D02*
X8086Y18414D01*
X8319Y9375D02*
X8519D01*
X9275Y19525D02*
X9075D01*
X9413Y21763D02*
X9271Y21621D01*
X10232Y2132D02*
X10091Y1991D01*
X10232Y2618D02*
X10091Y2759D01*
X10718Y2132D02*
X10859Y1991D01*
X10718Y2618D02*
X10859Y2759D01*
X14137Y5763D02*
X14279Y5621D01*
X14233Y4067D02*
X14419Y3881D01*
X14233Y4783D02*
X14419Y4969D01*
X15690Y12640D02*
X15832Y12782D01*
D02*
D12*
X3525Y20325D02*
Y16975D01*
X4075Y16425D01*
X4875D01*
X3525Y23325D02*
X6175D01*
X6525Y22975D01*
X7375Y14075D02*
X7525D01*
X8475Y15025D01*
X8275Y24125D02*
X11525D01*
X11875Y23775D01*
Y20625D01*
X8475Y15025D02*
Y15625D01*
X9525Y16675D01*
Y17975D01*
X9475Y18025D01*
X10625Y19175D01*
Y19525D01*
X10125Y22725D02*
X10075D01*
X9825Y22975D01*
X6525D01*
X10625Y20625D02*
Y19525D01*
Y21975D02*
Y20625D01*
X11875D02*
X10625D01*
X12925Y5975D02*
Y4475D01*
X12875Y4425D01*
X14875Y2775D02*
X11875D01*
X9175Y5475D01*
Y5825D01*
X14875Y9375D02*
X16175D01*
X16475Y9075D01*
X14875Y9375D02*
X13425D01*
X12725Y10075D01*
Y12175D01*
X12975Y12425D01*
X13475D01*
X14875Y9375D02*
X13975D01*
Y7625D01*
X15275Y6325D01*
Y3225D01*
X14875Y2825D01*
Y2775D01*
X16475Y9075D02*
X18475D01*
X18775Y9375D01*
Y19925D01*
X18075Y20625D01*
X11875D01*
X18336Y4631D02*
X17481D01*
X17225Y4375D01*
Y3625D01*
X16375Y2775D01*
X14875D01*
D02*
D14*
X2885Y7745D02*
Y10305D01*
Y7745D02*
Y3565D01*
X4075Y2375D01*
X7975D01*
X2885Y10305D02*
X2825D01*
Y13125D01*
X3775Y14075D01*
X5375D01*
X4875Y18425D02*
Y19325D01*
X6525Y20975D01*
X5375Y14075D02*
Y13975D01*
X5725D01*
X8525Y16775D01*
Y17975D01*
X8475Y18025D01*
X6525Y21975D02*
X9625D01*
X6525D02*
Y20975D01*
X7975Y2375D02*
X10475D01*
X7975Y6775D02*
Y2375D01*
Y7425D02*
Y6775D01*
Y9375D02*
Y7425D01*
X9625Y19525D02*
Y21975D01*
Y19525D02*
X8625D01*
X8475Y19375D01*
Y18025D01*
X13875Y4425D02*
Y3725D01*
X13625Y3475D01*
X12175D01*
X11675Y3975D01*
Y4775D01*
X9675Y6775D01*
X7975D01*
X13925Y5975D02*
Y4475D01*
X13875Y4425D01*
X18336Y3844D02*
Y2436D01*
X18025Y2125D01*
X10475D01*
Y2375D01*
D02*
D18*
X4665Y10305D02*
Y11885D01*
X3875Y12675D01*
X4665Y10305D02*
Y7745D01*
X5825Y5975D02*
Y8225D01*
X6975Y9375D01*
X8875Y12675D02*
Y13875D01*
X9475Y14475D01*
Y15025D01*
X9175Y10825D02*
X9475D01*
X10225Y11575D01*
Y13075D01*
X11475Y14325D01*
Y15025D01*
X10425Y8375D02*
X11925D01*
Y12275D01*
X12975Y13325D01*
X14475D01*
Y13125D01*
X10475Y15025D02*
Y14075D01*
X9725Y13325D01*
Y12075D01*
X9425Y11775D01*
X6575D01*
X5775Y10975D01*
X5825D01*
X12475Y18025D02*
Y18675D01*
X11625Y19525D01*
X13425Y6725D02*
X12525D01*
X11925Y7325D01*
X10525D01*
X10475Y7375D01*
X13475Y11425D02*
Y10075D01*
X13675Y9875D01*
X18075D01*
X18325Y10125D01*
Y17725D01*
X18025Y18025D01*
X14475D01*
X13475Y15025D02*
Y14725D01*
X11275Y12525D01*
Y9325D01*
X10125D01*
X9475Y8675D01*
Y7775D01*
X9725Y7525D01*
X10325D01*
X10475Y7375D01*
X13475Y18025D02*
Y18975D01*
X13625Y19125D01*
X15175D01*
X14475Y11425D02*
Y10675D01*
X14725Y10425D01*
X17525D01*
X17775Y10675D01*
Y16875D01*
X17475Y17175D01*
X13625D01*
X13475Y17325D01*
Y18025D01*
X14475Y12425D02*
Y13125D01*
Y15025D01*
X15175Y24125D02*
X13275D01*
X15175D02*
X15275Y24225D01*
X18475D01*
X19364Y23336D01*
Y6545D01*
X19025Y6206D01*
X18336D01*
X15425Y8375D02*
X15475D01*
X16475Y7375D01*
Y5419D01*
X15475Y11425D02*
X17075D01*
X17225Y11575D01*
Y16425D01*
X16925Y16725D01*
X11625D01*
X11475Y16575D01*
Y15025D01*
X16475Y4075D02*
Y5419D01*
X18336D02*
X16475D01*
D02*
D19*
X5325Y4125D03*
X17375Y22275D03*
D02*
D71*
X5375Y14075D03*
X6525Y20975D03*
Y21975D03*
Y22975D03*
X7375Y14075D03*
X9625Y21975D03*
X10125Y22725D03*
X10625Y21975D03*
X12925Y5975D03*
X13425Y6725D03*
X13925Y5975D03*
D02*
D23*
X18336Y3844D03*
D02*
D24*
Y4631D03*
Y5419D03*
Y6206D03*
D02*
D26*
X9625Y19525D03*
X12875Y4425D03*
D02*
D27*
X7975Y9375D03*
X10625Y19525D03*
X11625D03*
X13875Y4425D03*
D02*
D29*
X3875Y12675D03*
X5825Y5975D03*
Y10975D03*
X6975Y9375D03*
X8275Y24125D03*
X8875Y12675D03*
X9175Y5825D03*
Y10825D03*
X10425Y8375D03*
X10475Y2375D03*
Y7375D03*
X13275Y24125D03*
X15175Y19125D03*
Y24125D03*
X15425Y8375D03*
X16475Y4075D03*
Y9075D03*
D02*
D84*
X12025Y14025D02*
X10775Y12775D01*
Y11025D01*
X9575Y9825D01*
X8425D01*
X7975Y9375D01*
X15475Y12425D02*
X16375D01*
X16575Y12625D01*
Y15775D01*
X16225Y16125D01*
X12475D01*
X12025Y15675D01*
D02*
D85*
Y14025D01*
D02*
D86*
X3525Y20325D03*
Y23325D03*
X8475Y15025D03*
Y18025D03*
X9475Y15025D03*
Y18025D03*
X10475Y15025D03*
X12475Y18025D03*
X13475Y15025D03*
Y18025D03*
X14475Y15025D03*
Y18025D03*
D02*
D87*
X11475Y15025D03*
D02*
D88*
X10475Y18025D03*
X11475D03*
X12475Y15025D03*
D02*
D89*
X13475Y11425D03*
Y12425D03*
X14475Y11425D03*
Y12425D03*
X15475Y11425D03*
Y12425D03*
D02*
D90*
X2885Y7745D03*
Y10305D03*
X4665Y7745D03*
Y10305D03*
D02*
D91*
X4875Y16425D03*
Y18425D03*
X0Y0D02*
M02*
