G05
M48
;#@! TF.GenerationSoftware,DesignSpark,DesignSpark PCB,10.0.5344
;#@! TF.CreationDate,2023-05-31T07:41:06--1:00*
;#@! TF.FileFunction,Plated,1,2,PTH
;FILE_FORMAT=3:5
;TYPE=PLATED
INCH,TZ
FMAT,2
T1C000.02362
T2C000.02500
T3C000.03150
T4C000.03200
T5C000.03500
T6C000.03583
T7C000.03600
T8C000.04000
T9C000.04700
T10C000.13780
%
T001
X0.69750Y0.93750
X0.79750Y0.93750
T002
X0.53750Y1.40750
X0.65250Y2.09750
X0.65250Y2.19750
X0.65250Y2.29750
X0.73750Y1.40750
T003
X0.38750Y1.26750
X0.58250Y0.59750
X0.58250Y1.09750
X0.82750Y2.41250
X0.88750Y1.26750
X0.91750Y0.58250
X0.91750Y1.08250
X0.96250Y2.19750
X1.01250Y2.27250
X1.04250Y0.83750
X1.04750Y0.23750
X1.04750Y0.73750
X1.04750Y1.80250
X1.06250Y2.19750
X1.14750Y1.50250
X1.14750Y1.80250
X1.24750Y1.50250
X1.29250Y0.59750
X1.32750Y2.41250
X1.34250Y0.67250
X1.39250Y0.59750
X1.51750Y1.91250
X1.51750Y2.41250
X1.54250Y0.83750
X1.64750Y0.40750
X1.64750Y0.90750
T004
X0.35250Y2.03250
X0.35250Y2.33250
X0.84750Y1.50250
X0.84750Y1.80250
X0.94750Y1.50250
X0.94750Y1.80250
X1.04750Y1.50250
X1.24750Y1.80250
X1.34750Y1.50250
X1.34750Y1.80250
X1.44750Y1.50250
X1.44750Y1.80250
T005
X1.28750Y0.44250
X1.38750Y0.44250
T006
X0.96250Y1.95250
X1.06250Y1.95250
X1.16250Y1.95250
T007
X1.34750Y1.14250
X1.34750Y1.24250
X1.44750Y1.14250
X1.44750Y1.24250
X1.54750Y1.14250
X1.54750Y1.24250
T008
X0.28850Y0.77450
X0.28850Y1.03050
X0.46650Y0.77450
X0.46650Y1.03050
X1.83356Y0.38439
X1.83356Y0.46313
X1.83356Y0.54187
X1.83356Y0.62061
T009
X0.48750Y1.64250
X0.48750Y1.84250
T010
X0.53250Y0.41250
X1.73750Y2.22750
M30
