G04 DesignSpark PCB Gerber Version 10.0 Build 5299*
%FSLAX34Y34*%
%MOIN*%
%ADD94C,0.02362*%
%ADD81C,0.02500*%
%ADD77C,0.03150*%
%ADD92C,0.03200*%
%ADD95C,0.03500*%
%ADD82C,0.03583*%
%ADD93C,0.03600*%
%ADD78C,0.04000*%
%ADD80C,0.04700*%
%ADD76C,0.13780*%
X0Y0D02*
D02*
D76*
X5325Y4125D03*
X17375Y22275D03*
D02*
D77*
X3875Y12675D03*
X5825Y5975D03*
Y10975D03*
X8275Y24125D03*
X8875Y12675D03*
X9175Y5825D03*
Y10825D03*
X9625Y21975D03*
X10125Y22725D03*
X10425Y8375D03*
X10475Y2375D03*
Y7375D03*
Y18025D03*
X10625Y21975D03*
X11475Y15025D03*
Y18025D03*
X12475Y15025D03*
X12925Y5975D03*
X13275Y24125D03*
X13425Y6725D03*
X13925Y5975D03*
X15175Y19125D03*
Y24125D03*
X15425Y8375D03*
X16475Y4075D03*
Y9075D03*
D02*
D78*
X2885Y7745D03*
Y10305D03*
X4665Y7745D03*
Y10305D03*
X18336Y3844D03*
Y4631D03*
Y5419D03*
Y6206D03*
D02*
D80*
X4875Y16425D03*
Y18425D03*
D02*
D81*
X5375Y14075D03*
X6525Y20975D03*
Y21975D03*
Y22975D03*
X7375Y14075D03*
D02*
D82*
X9625Y19525D03*
X10625D03*
X11625D03*
D02*
D92*
X3525Y20325D03*
Y23325D03*
X8475Y15025D03*
Y18025D03*
X9475Y15025D03*
Y18025D03*
X10475Y15025D03*
X12475Y18025D03*
X13475Y15025D03*
Y18025D03*
X14475Y15025D03*
Y18025D03*
D02*
D93*
X13475Y11425D03*
Y12425D03*
X14475Y11425D03*
Y12425D03*
X15475Y11425D03*
Y12425D03*
D02*
D94*
X6975Y9375D03*
X7975D03*
D02*
D95*
X12875Y4425D03*
X13875D03*
X0Y0D02*
M02*
