G04 DesignSpark PCB Gerber Version 11.0 Build 5877*
%FSLAX33Y33*%
%MOIN*%
%ADD15O,0.06000X0.12000*%
%ADD18O,0.07087X0.14173*%
%ADD94R,0.01575X0.06299*%
%ADD112R,0.01575X0.09100*%
%ADD114R,0.02000X0.03050*%
%ADD100R,0.03000X0.07000*%
%ADD104R,0.03400X0.05400*%
%ADD110R,0.04700X0.08700*%
%ADD124R,0.05500X0.06000*%
%ADD117R,0.06000X0.10000*%
%ADD118R,0.06000X0.10040*%
%ADD99R,0.06300X0.07090*%
%ADD106R,0.06300X0.09800*%
%ADD103R,0.07000X0.09000*%
%ADD108R,0.07874X0.12598*%
%ADD113R,0.07900X0.09800*%
%ADD97R,0.03150X0.03150*%
%ADD96R,0.06299X0.06299*%
%ADD70R,0.07874X0.07874*%
%ADD86C,0.00100*%
%ADD21C,0.00500*%
%ADD11C,0.01181*%
%ADD91C,0.01575*%
%ADD12C,0.01969*%
%ADD13C,0.02362*%
%ADD93C,0.03937*%
%ADD92C,0.05118*%
%ADD17C,0.07400*%
%ADD19C,0.08000*%
%ADD14C,0.27559*%
%ADD102O,0.04800X0.01800*%
%ADD16O,0.12000X0.06000*%
%ADD20O,0.14173X0.07087*%
%ADD95R,0.06299X0.01575*%
%ADD105R,0.03400X0.01600*%
%ADD101R,0.04800X0.01800*%
%ADD115R,0.02200X0.02000*%
%ADD116R,0.02800X0.02000*%
%ADD98R,0.07874X0.02756*%
%ADD121R,0.04100X0.03900*%
%ADD109R,0.07874X0.03937*%
%ADD122R,0.08700X0.04100*%
%ADD125R,0.04703X0.04200*%
%ADD123R,0.06000X0.05500*%
%ADD119R,0.10000X0.06000*%
%ADD120R,0.10040X0.06000*%
%ADD71R,0.12000X0.06000*%
%ADD107R,0.09000X0.07000*%
%ADD111R,0.14200X0.08700*%
X0Y0D02*
D02*
D11*
X321Y502D02*
Y478D01*
Y514D02*
Y537D01*
X324Y662D02*
Y639D01*
Y668D02*
Y508D01*
X321D01*
X324Y674D02*
Y698D01*
Y911D02*
Y888D01*
Y923D02*
Y947D01*
Y1126D02*
Y1102D01*
Y1132D02*
Y917D01*
Y1138D02*
Y1161D01*
Y1336D02*
Y1312D01*
Y1347D02*
Y1371D01*
Y1531D02*
Y1507D01*
Y1536D02*
Y1342D01*
Y1542D02*
Y1566D01*
Y1703D02*
Y1679D01*
Y1715D02*
Y1738D01*
X344Y2024D02*
X320D01*
X348Y127D02*
X331Y111D01*
X348Y314D02*
X331Y330D01*
X350Y2018D02*
Y1994D01*
Y2024D02*
X385D01*
X468Y1941D01*
X350Y2030D02*
Y2053D01*
X352Y1886D02*
X328D01*
X356Y2024D02*
X379D01*
X358Y1880D02*
Y1856D01*
Y1886D02*
Y1877D01*
X324Y1844D01*
Y1709D01*
X358Y1892D02*
Y1915D01*
X360Y1967D02*
X336D01*
X364Y1886D02*
X387D01*
X366Y1962D02*
Y1938D01*
Y1973D02*
Y1997D01*
X371Y1967D02*
X395D01*
X405Y486D02*
Y514D01*
X418Y527D01*
X446D01*
X487Y568D01*
X421Y1784D02*
X397D01*
X427Y1778D02*
Y1754D01*
Y1790D02*
Y1814D01*
X428Y1569D02*
Y954D01*
X448Y934D01*
X509D01*
X522Y947D01*
X428Y1569D02*
Y1664D01*
X443Y1679D01*
X513D01*
X516Y1676D01*
X464Y1937D02*
X447Y1920D01*
X464Y1945D02*
X447Y1962D01*
X471Y733D02*
X447D01*
X472Y1937D02*
X489Y1920D01*
X472Y1945D02*
X489Y1962D01*
X474Y1812D02*
X450D01*
X477Y739D02*
Y763D01*
X483Y733D02*
X506D01*
X487Y492D02*
Y516D01*
X496Y1130D02*
X474Y1152D01*
X515Y1485D02*
X498Y1469D01*
X515Y1494D02*
X498Y1510D01*
X516Y1637D02*
X466D01*
X518Y1787D02*
Y1764D01*
X523Y1485D02*
X540Y1469D01*
X523Y1494D02*
X540Y1510D01*
X535Y127D02*
X551Y111D01*
X541Y468D02*
X564D01*
X547Y1130D02*
X569Y1152D01*
X562Y1812D02*
X585D01*
X592Y2024D02*
X568D01*
X596Y103D02*
X579Y86D01*
X596Y111D02*
X579Y128D01*
X598Y2018D02*
Y1994D01*
Y2030D02*
Y2053D01*
X604Y2024D02*
X627D01*
X604Y103D02*
X621Y86D01*
X605Y1937D02*
X589Y1920D01*
X605Y1945D02*
X589Y1962D01*
X614Y1937D02*
X631Y1920D01*
X614Y1945D02*
X631Y1962D01*
X644Y424D02*
X620D01*
X651Y1676D02*
X652D01*
X700Y1724D01*
X673Y624D02*
X698D01*
Y448D02*
Y472D01*
Y724D02*
X768D01*
X700Y1724D02*
X484D01*
X483Y1725D01*
X436D01*
X401Y1690D01*
Y909D01*
X441Y869D01*
X521D01*
X522Y868D01*
X708Y1363D02*
X697D01*
X688Y1354D01*
X553D01*
X515Y1392D01*
Y1407D01*
X708Y1462D02*
X625D01*
X571Y1407D01*
X709Y1264D02*
X668D01*
Y1284D01*
X628Y1324D01*
X553D01*
X515Y1286D01*
Y1271D01*
X768Y724D02*
X798D01*
X815Y707D01*
Y625D01*
X863Y578D01*
X933D01*
X936Y575D01*
X770Y673D02*
X595D01*
X567Y645D01*
Y539D01*
X555Y527D01*
X527D01*
X487Y568D01*
X787Y152D02*
Y128D01*
X816Y216D02*
X840D01*
X833Y524D02*
Y514D01*
X857Y862D02*
X833D01*
X857Y1118D02*
X833D01*
X858Y190D02*
X842Y173D01*
X858Y198D02*
X842Y215D01*
X862Y194D02*
Y192D01*
X927Y128D01*
X864Y1909D02*
X840D01*
X864Y2028D02*
X840D01*
X867Y190D02*
X883Y173D01*
X869Y1764D02*
Y1763D01*
X920Y1712D01*
X870Y1904D02*
Y1880D01*
Y1909D02*
X917D01*
Y2028D01*
X870D01*
Y1915D02*
Y1939D01*
Y2022D02*
Y1998D01*
Y2033D02*
Y2057D01*
X875Y1909D02*
X899D01*
X875Y2028D02*
X899D01*
X888Y831D02*
Y808D01*
Y893D02*
Y917D01*
Y1087D02*
Y1064D01*
X919Y862D02*
X942D01*
X919Y1118D02*
X942D01*
X920Y1599D02*
Y1542D01*
X908Y1529D01*
X643D01*
X633Y1539D01*
X458D01*
X428Y1569D01*
X921Y128D02*
X897D01*
X925Y575D02*
X936D01*
X936Y575D01*
X926Y575D02*
X936D01*
X936Y575D01*
X927Y134D02*
Y157D01*
X928Y436D02*
X936Y427D01*
X933Y128D02*
X956D01*
X936Y378D02*
X855D01*
X789Y444D01*
Y491D01*
X789Y492D01*
X789Y492D01*
Y601D01*
X773Y617D01*
X705D01*
X698Y624D01*
X936Y427D02*
X882D01*
X835Y474D01*
Y522D01*
X833Y524D01*
X936Y624D02*
X918D01*
X865Y677D01*
X966Y783D02*
X761D01*
X758Y779D01*
X648D01*
X624Y756D01*
X584D01*
X497Y669D01*
X487D01*
Y668D01*
X995Y1835D02*
X979Y1852D01*
X999Y1831D02*
Y1843D01*
X976Y1866D01*
X1003Y640D02*
Y593D01*
X990Y580D01*
X941D01*
X936Y575D01*
X1004Y1827D02*
X1020Y1810D01*
X1004Y1835D02*
X1020Y1852D01*
X1012Y1166D02*
X989D01*
X1018Y1160D02*
Y1137D01*
Y1172D02*
Y1196D01*
X1024Y1166D02*
X1048D01*
X1088Y1902D02*
X1064D01*
X1088Y2035D02*
X1064D01*
X1090Y932D02*
Y908D01*
Y944D02*
Y967D01*
X1094Y1896D02*
Y1872D01*
Y1907D02*
Y1931D01*
Y2030D02*
Y2006D01*
Y2035D02*
X936D01*
X877Y1976D01*
X645D01*
X598Y2024D01*
X1094Y2041D02*
Y2065D01*
X1100Y1902D02*
X1123D01*
X1100Y2035D02*
X1123D01*
X1118Y427D02*
X1049D01*
X1118Y624D02*
Y740D01*
X1073Y784D01*
X1119Y1321D02*
Y1297D01*
Y1333D02*
Y1356D01*
X1133Y1134D02*
X1063D01*
X1003Y1074D01*
Y640D01*
X1138Y189D02*
X1115D01*
X1144Y183D02*
Y159D01*
X1150Y189D02*
X1174D01*
X1155Y1781D02*
X1131D01*
X1161Y1787D02*
Y1810D01*
X1186Y1327D02*
X1119D01*
X1186Y1390D02*
X1108D01*
X1078Y1359D01*
Y1219D01*
X1128Y1169D01*
X1153D01*
X1168Y1154D01*
Y1114D01*
X1038Y984D01*
Y524D01*
X1034Y520D01*
Y469D01*
X996Y432D01*
X936D01*
Y427D01*
X1186Y1421D02*
X1080D01*
X1043Y1384D01*
Y1274D01*
X943Y1174D01*
X805D01*
X790Y1159D01*
Y1088D01*
X645Y943D01*
Y821D01*
X651Y814D01*
Y812D01*
X1186Y1453D02*
X1051D01*
X1008Y1409D01*
Y1295D01*
X913Y1200D01*
X751D01*
X710Y1159D01*
Y1118D01*
X1186Y1484D02*
X1128D01*
X1128Y1484D01*
X1033D01*
X973Y1424D01*
Y1324D01*
X918Y1269D01*
X864D01*
X859Y1264D01*
X1186Y1516D02*
X1014D01*
X938Y1439D01*
Y1384D01*
X923Y1369D01*
X863D01*
X858Y1363D01*
X1186Y1547D02*
X1003D01*
X917Y1462D01*
X858D01*
X1196Y939D02*
Y915D01*
Y945D02*
X1460D01*
X1484Y969D01*
X1196Y951D02*
Y974D01*
X1200Y1897D02*
X1176D01*
X1202Y945D02*
X1226D01*
X1227Y1001D02*
X1203D01*
X1234Y1137D02*
X1229D01*
X1132Y1040D01*
Y761D01*
X1196Y697D01*
Y666D01*
X1274Y587D01*
X1364D01*
X1369Y582D01*
X1400D01*
X1234Y1611D02*
Y1594D01*
X933D01*
X928Y1599D01*
X920D01*
X1238Y1796D02*
Y1819D01*
Y1882D02*
Y1859D01*
Y1912D02*
Y1935D01*
X1247Y369D02*
X1225Y347D01*
X1247Y421D02*
X1225Y443D01*
X1252Y971D02*
Y948D01*
X1253Y2028D02*
X1230D01*
X1259Y2022D02*
Y1998D01*
Y2028D02*
X1472D01*
X1259Y2033D02*
Y2057D01*
X1265Y2028D02*
X1289D01*
X1266Y1137D02*
Y1093D01*
X1251Y1078D01*
X1208D01*
X1174Y1044D01*
Y1043D01*
X1158Y1026D01*
Y772D01*
X1222Y708D01*
Y681D01*
X1285Y617D01*
X1402D01*
Y623D01*
X1266Y1611D02*
Y1653D01*
X1245Y1674D01*
X1180D01*
X1145Y1639D01*
X1008D01*
X983Y1664D01*
Y1699D01*
X970Y1712D01*
X920D01*
X1275Y1781D02*
X1299D01*
X1278Y1001D02*
X1302D01*
X1285Y1073D02*
X1297D01*
Y1046D01*
X1252Y1001D01*
X1297Y1137D02*
Y1205D01*
Y1137D02*
Y1073D01*
Y1205D02*
X1349D01*
X1360Y1216D01*
X1297Y1611D02*
Y1569D01*
X1273Y1544D01*
X1262D01*
X1247Y1529D01*
Y1204D01*
X1263Y1209D01*
X1299Y1915D02*
Y1939D01*
X1299Y369D02*
X1321Y347D01*
X1299Y421D02*
X1321Y443D01*
X1305Y1909D02*
X1328D01*
X1309Y1276D02*
X1357D01*
X1361Y1271D01*
X1309Y1276D02*
Y1217D01*
X1297Y1205D01*
X1309Y1276D02*
X1333D01*
X1309Y1400D02*
Y1423D01*
Y1447D02*
Y1423D01*
Y1472D02*
Y1276D01*
Y1498D02*
Y1522D01*
X1317Y525D02*
X1293D01*
X1323Y519D02*
Y495D01*
Y531D02*
Y554D01*
X1329Y525D02*
X1352D01*
X1329Y1611D02*
Y1558D01*
X1343Y1544D01*
X1551D01*
X1565Y1531D01*
Y1224D01*
X1546Y1205D01*
X1335Y1374D02*
X1358D01*
X1335Y1472D02*
X1358D01*
X1345Y204D02*
X1321D01*
X1345Y421D02*
X1321D01*
X1354Y1216D02*
X1330D01*
X1354Y1217D02*
X1330D01*
X1357Y1218D02*
X1359Y1216D01*
X1360D01*
Y1211D02*
Y1187D01*
Y1249D02*
Y1217D01*
X1360Y1611D02*
Y1695D01*
X1344Y1712D01*
X1361Y1271D02*
Y1233D01*
Y1271D02*
X1362Y1271D01*
X1366Y1216D02*
X1389D01*
X1366Y1217D02*
X1389D01*
X1367Y672D02*
X1337D01*
X1279Y731D01*
X1379Y161D02*
Y137D01*
Y247D02*
Y271D01*
Y378D02*
Y354D01*
Y464D02*
Y488D01*
X1382Y1374D02*
X1358D01*
X1382Y1472D02*
X1358D01*
X1408Y1250D02*
Y1226D01*
Y1301D02*
Y1325D01*
Y1348D02*
Y1325D01*
Y1400D02*
Y1423D01*
Y1447D02*
Y1423D01*
Y1472D02*
Y1276D01*
X1412Y204D02*
X1436D01*
X1412Y421D02*
X1436D01*
X1413Y896D02*
X1295D01*
X1279Y881D01*
X1423Y1137D02*
Y1092D01*
X1419Y1088D01*
X1423Y1137D02*
Y1260D01*
X1408Y1276D01*
X1427Y1684D02*
X1405Y1662D01*
X1427Y1739D02*
X1405Y1761D01*
X1433Y1276D02*
X1457D01*
X1433Y1374D02*
X1457D01*
X1433Y1472D02*
X1457D01*
X1448Y1777D02*
X1425D01*
X1452Y1221D02*
X1428D01*
X1454Y1712D02*
Y1777D01*
Y1712D02*
Y1703D01*
X1483Y1674D01*
X1484Y1663D01*
X1501D01*
X1518Y1647D01*
Y1612D01*
X1518Y1611D01*
X1458Y1216D02*
Y1192D01*
X1458Y1252D02*
Y1222D01*
X1458Y1221D01*
X1460Y1777D02*
X1484D01*
X1463Y135D02*
X1439D01*
X1464Y1221D02*
X1487D01*
X1468Y1905D02*
X1451Y1889D01*
X1468Y1914D02*
X1451Y1930D01*
X1468Y2023D02*
X1451Y2007D01*
X1468Y2032D02*
X1451Y2048D01*
X1469Y135D02*
X1806D01*
X1469Y141D02*
Y164D01*
X1472Y1909D02*
X1299D01*
X1475Y135D02*
X1498D01*
X1476Y1905D02*
X1493Y1889D01*
X1476Y1914D02*
X1493Y1930D01*
X1476Y2023D02*
X1493Y2007D01*
X1476Y2032D02*
X1493Y2048D01*
X1478Y969D02*
X1454D01*
X1481Y1276D02*
X1457D01*
X1481Y1374D02*
X1457D01*
X1481Y1472D02*
X1457D01*
X1481Y1684D02*
X1503Y1662D01*
X1481Y1739D02*
X1503Y1761D01*
X1484Y963D02*
Y939D01*
Y974D02*
Y998D01*
X1485Y623D02*
Y647D01*
X1485D01*
Y671D01*
Y571D02*
Y597D01*
X1485D01*
Y623D01*
X1490Y969D02*
X1513D01*
X1506Y1250D02*
Y1226D01*
Y1276D02*
Y1219D01*
Y1301D02*
Y1325D01*
Y1348D02*
Y1325D01*
Y1400D02*
Y1423D01*
Y1447D02*
Y1423D01*
Y1472D02*
Y1276D01*
Y1472D02*
X1491D01*
X1522Y425D02*
X1525D01*
Y483D01*
X1488Y520D01*
Y568D01*
X1485Y571D01*
X1523D02*
Y530D01*
X1554Y425D02*
X1558D01*
Y540D01*
X1558Y540D01*
Y569D01*
X1560Y571D01*
Y622D01*
Y671D01*
X1581Y1611D02*
X1581D01*
Y1642D01*
X1616Y1677D01*
X1584Y426D02*
X1585Y425D01*
X1585Y1608D02*
X1607Y1586D01*
X1585Y1615D02*
X1607Y1637D01*
X1616Y2027D02*
X1594Y2005D01*
X1616Y1671D02*
Y1647D01*
Y1677D02*
Y1797D01*
X1613D01*
Y1918D01*
X1616Y1683D02*
Y1707D01*
X1627Y1264D02*
X1696D01*
X1627Y1295D02*
X1719D01*
X1783Y1231D01*
X2049D01*
X2099Y1281D01*
Y1443D01*
X2124Y1468D01*
Y1621D01*
X2165Y1662D01*
X2233D01*
X1627Y1327D02*
X1723D01*
X1790Y1260D01*
X2034D01*
X2072Y1297D01*
Y1452D01*
X2094Y1474D01*
Y1626D01*
X2174Y1705D01*
Y1728D01*
X2202Y1757D01*
X2233D01*
Y1762D01*
X1627Y1358D02*
X1727D01*
X1798Y1287D01*
X1962D01*
X1981Y1306D01*
Y1343D01*
X2013Y1376D01*
X1627Y1390D02*
X1714D01*
X1787Y1463D01*
X1876D01*
X1897Y1442D01*
Y1392D01*
X1913Y1376D01*
X1627Y1421D02*
X1699D01*
X1771Y1493D01*
X1931D01*
X1970Y1455D01*
X2034D01*
X2045Y1466D01*
Y1502D01*
X2052Y1509D01*
X1627Y1453D02*
X1691D01*
X1759Y1521D01*
X1963D01*
X1975Y1509D01*
X2002D01*
X1627Y1484D02*
X1629Y1486D01*
X1676D01*
X1723Y1533D01*
X1627Y1547D02*
Y1551D01*
X1663D01*
X1721Y1609D01*
X1930D01*
X2178Y1857D01*
X2268D01*
X2289Y1836D01*
Y1823D01*
X2302Y1811D01*
Y969D01*
X2296Y963D01*
Y376D01*
X2322Y350D01*
Y171D01*
X2258Y107D01*
X2256D01*
X2240Y91D01*
X2035D01*
X2031Y94D01*
X654D01*
X627Y121D01*
Y277D01*
X524Y381D01*
X417D01*
X390Y407D01*
X377D01*
Y411D01*
X1631Y699D02*
X1608D01*
X1633Y1048D02*
X1610D01*
X1637Y693D02*
Y669D01*
Y705D02*
Y728D01*
X1643Y699D02*
X1667D01*
X1659Y422D02*
Y399D01*
Y434D02*
Y458D01*
X1662Y2027D02*
X1684Y2005D01*
X1668Y1785D02*
X1644D01*
X1674Y1779D02*
Y1756D01*
Y1791D02*
Y1815D01*
X1678Y1072D02*
Y1095D01*
X1688Y2042D02*
Y2019D01*
Y2048D02*
X2016D01*
X2005Y2037D01*
Y1948D01*
X1688Y2054D02*
Y2078D01*
X1694Y386D02*
X1672Y364D01*
X1694Y2048D02*
X1718D01*
X1695Y204D02*
X1672D01*
X1696Y1192D02*
X1730D01*
X1750Y1172D01*
X2073D01*
X2153Y1252D01*
Y1422D01*
X2178Y1447D01*
X2218D01*
X2233Y1462D01*
X1705Y1668D02*
Y1637D01*
X1680Y1612D01*
X1723Y1533D02*
X1732Y1542D01*
X1729Y161D02*
Y137D01*
Y247D02*
Y271D01*
Y421D02*
X1666D01*
X1659Y428D01*
X1733Y1783D02*
X1716Y1766D01*
X1733Y1969D02*
X1716Y1986D01*
X1749Y1554D02*
Y1552D01*
X1944D01*
X1982Y1590D01*
X1990D01*
X2167Y1767D01*
X1749Y1554D02*
X1745D01*
X1723Y1533D01*
X1763Y204D02*
X1786D01*
X1764Y386D02*
X1786Y364D01*
X1789Y1376D02*
X1766D01*
X1790Y667D02*
X1773Y650D01*
X1790Y675D02*
X1773Y692D01*
X1792Y1035D02*
X1770Y1013D01*
X1792Y1066D02*
X1770Y1088D01*
X1794Y949D02*
Y973D01*
X1798Y667D02*
X1815Y650D01*
X1798Y797D02*
X1776Y775D01*
X1798Y835D02*
X1776Y857D01*
X1800Y135D02*
X1776D01*
X1806Y141D02*
Y164D01*
X1808Y1126D02*
X1852D01*
X1871Y1145D01*
X1960D01*
X2003Y1101D01*
X1808Y1126D02*
X1649D01*
X1636Y1139D01*
X1811Y135D02*
X1835D01*
X1816Y1668D02*
X1792D01*
X1822Y227D02*
X1799D01*
X1823Y1035D02*
X1845Y1013D01*
X1823Y1066D02*
X1845Y1088D01*
X1828Y222D02*
Y198D01*
Y233D02*
Y257D01*
X1833Y920D02*
X1856D01*
X1834Y227D02*
X1858D01*
X1837Y835D02*
X1859Y857D01*
X1837Y1376D02*
X1861D01*
X1838Y442D02*
Y447D01*
X1788Y497D01*
X1600D01*
X1586Y483D01*
Y427D01*
X1585Y427D01*
Y425D01*
X1855Y1697D02*
Y1721D01*
X1869Y184D02*
X1845D01*
X1894Y1668D02*
X1917D01*
X1919Y1783D02*
X1936Y1766D01*
X1919Y1969D02*
X1936Y1986D01*
X1933Y155D02*
Y131D01*
X1951Y1724D02*
X1927D01*
X1957Y1718D02*
Y1695D01*
Y1730D02*
Y1754D01*
X1960Y2050D02*
X1936D01*
X1961Y521D02*
Y497D01*
Y532D02*
Y556D01*
X1963Y1724D02*
X1986D01*
X1966Y2044D02*
Y2021D01*
Y2050D02*
Y1939D01*
X2062D01*
Y1827D01*
X1966Y2056D02*
Y2080D01*
X1967Y527D02*
X1991D01*
X1972Y2050D02*
X1995D01*
X1974Y951D02*
X1950D01*
X1988Y413D02*
Y389D01*
Y471D02*
Y495D01*
X1993Y1809D02*
X1969D01*
X1999Y1948D02*
X1976D01*
X2002Y1780D02*
Y1756D01*
Y1838D02*
Y1862D01*
X2003Y912D02*
Y889D01*
Y991D02*
Y1014D01*
X2005Y1942D02*
Y1918D01*
Y1954D02*
Y1977D01*
X2011Y1948D02*
X2035D01*
X2027Y442D02*
X2051D01*
X2032Y951D02*
X2056D01*
X2050Y1503D02*
Y1509D01*
X2052D01*
Y1838D02*
Y1862D01*
X2061Y1809D02*
X2085D01*
X2062Y1827D02*
Y1813D01*
X2059Y1809D01*
X2052D01*
X2063Y155D02*
X2046Y138D01*
X2065Y916D02*
Y892D01*
Y928D02*
Y951D01*
X2118Y1122D02*
Y1170D01*
X2119Y1171D01*
Y1177D01*
X2124D01*
X2146Y2048D02*
X2122D01*
X2152Y2042D02*
Y2019D01*
Y2054D02*
Y2078D01*
X2158Y2048D02*
X2182D01*
X2188Y1944D02*
X2165D01*
X2194Y1938D02*
Y1914D01*
Y1944D02*
X2179D01*
X2166Y1957D01*
X2194Y1950D02*
Y1973D01*
X2200Y1944D02*
X2224D01*
X2201Y767D02*
X2177D01*
X2203Y476D02*
Y453D01*
Y488D02*
Y512D01*
X2207Y761D02*
Y737D01*
Y773D02*
Y796D01*
X2209Y482D02*
X2233D01*
X2212Y767D02*
X2236D01*
X2233Y1562D02*
X2174D01*
X2152Y1539D01*
Y1459D01*
X2128Y1435D01*
Y1271D01*
X2061Y1204D01*
X1770D01*
X1741Y1232D01*
X1627D01*
X2239Y1826D02*
Y1830D01*
X2183D01*
X1939Y1586D01*
X1737D01*
X1670Y1518D01*
X1627D01*
Y1516D01*
X2249Y341D02*
X2266Y358D01*
X2322Y103D02*
X2299D01*
X2328Y109D02*
Y133D01*
X2330Y647D02*
Y623D01*
Y653D02*
Y400D01*
X2337D01*
X2330Y658D02*
Y682D01*
X2332Y2047D02*
X2315Y2030D01*
X2332Y2055D02*
X2315Y2072D01*
X2332Y1944D02*
X2308D01*
X2334Y103D02*
X2358D01*
X2337Y394D02*
Y370D01*
Y406D02*
Y429D01*
X2338Y1938D02*
Y1914D01*
Y1944D02*
Y1975D01*
X2336D01*
Y2051D01*
X2338Y1950D02*
Y1973D01*
X2339Y891D02*
Y867D01*
Y903D02*
Y926D01*
Y1127D02*
Y1103D01*
Y1133D02*
Y897D01*
Y1139D02*
Y1162D01*
Y1859D02*
Y1772D01*
X2342D01*
X2340Y1364D02*
Y1341D01*
Y1376D02*
Y1400D01*
X2340Y2047D02*
X2357Y2030D01*
X2340Y2055D02*
X2357Y2072D01*
X2341Y1556D02*
Y1532D01*
Y1562D02*
Y1370D01*
X2340D01*
X2341Y1568D02*
Y1592D01*
X2342Y1766D02*
Y1742D01*
Y1778D02*
Y1801D01*
D02*
D12*
X651Y1637D02*
X733D01*
X770Y1599D01*
Y1712D02*
Y1599D01*
X1238Y1781D02*
X1161D01*
X1248Y515D02*
Y542D01*
X1198Y592D01*
Y607D01*
X1329Y1137D02*
X1360D01*
X1392D01*
X1365Y1085D02*
Y1003D01*
X1363Y1001D01*
X1365Y1085D02*
X1363Y1086D01*
Y1135D01*
X1360Y1137D01*
X1388Y739D02*
X1376D01*
X1367Y747D01*
X1413Y822D02*
X1397D01*
X1386Y811D01*
X1212D01*
X1198Y797D01*
X1413Y822D02*
X1438D01*
X1413Y859D02*
X1358D01*
X1473Y857D02*
X1597D01*
X1638Y816D01*
X1491Y425D02*
X1488D01*
Y476D01*
X1441Y523D01*
Y732D01*
X1434Y739D01*
X1388D01*
X1498Y1048D02*
X1402D01*
X1365Y1085D01*
X1516Y822D02*
X1485D01*
X1435Y772D01*
X1421D01*
X1388Y739D01*
X1516Y822D02*
Y785D01*
X1521Y779D01*
Y672D01*
X1523Y671D01*
X1517Y897D02*
X1620D01*
X1644Y920D01*
X1728Y816D02*
X1722D01*
Y965D01*
X1701Y987D01*
X1561D01*
X1500Y1048D01*
X1498D01*
X1962Y771D02*
Y647D01*
X2063Y546D01*
Y540D01*
X2140Y463D01*
X1962Y867D02*
X1908Y922D01*
Y1088D01*
X2098Y983D02*
X2154D01*
X2233Y1062D01*
D02*
D13*
X321Y508D03*
X324Y668D03*
Y917D03*
Y1132D03*
Y1342D03*
Y1536D03*
Y1709D03*
X350Y2024D03*
X358Y1886D03*
X365Y472D02*
X369D01*
X389Y452D01*
X395D01*
X434Y412D01*
X543D01*
X605Y350D01*
X825D01*
X889Y286D01*
X993D01*
Y287D01*
X1016Y311D01*
X366Y1967D03*
X368Y885D02*
Y897D01*
X364D01*
Y476D01*
X368Y885D02*
Y864D01*
X438Y794D01*
X573D01*
X613Y834D01*
Y1004D01*
X609Y1008D01*
Y1022D01*
X377Y411D03*
X405Y486D03*
X427Y1784D03*
X466Y1637D03*
X468Y1941D03*
X477Y733D03*
X518Y1812D02*
X454D01*
X427Y1784D01*
X519Y1489D03*
X535Y299D03*
X571Y1271D02*
X608D01*
Y1061D01*
X609Y1059D01*
Y1022D01*
X598Y2024D03*
X600Y107D03*
X609Y1022D02*
X603Y1029D01*
X525D01*
X522Y1026D01*
X610Y1941D03*
X651Y812D03*
X687Y216D02*
X682D01*
Y277D01*
X718Y315D01*
X810D01*
X892Y233D01*
X1189D01*
Y230D01*
X698Y1812D02*
Y1851D01*
X663Y1886D01*
X448D01*
X368Y1806D01*
Y885D01*
X698Y1812D02*
X745D01*
X770Y1787D01*
X700Y1724D03*
X770Y673D03*
X770Y1787D02*
Y1712D01*
Y1787D02*
Y1802D01*
X793Y1824D01*
X948D01*
Y1823D01*
X1035Y1736D01*
X1036D01*
X1047Y1725D01*
X1330D01*
X1344Y1712D01*
X833Y524D03*
X862Y194D03*
X865Y677D03*
X869Y1764D03*
X870Y1909D03*
Y2028D03*
X888Y1118D02*
Y862D01*
X927Y128D03*
X966Y783D03*
X999Y1831D03*
X1016Y311D02*
X1039Y334D01*
Y365D01*
X1052Y378D01*
X1118D01*
X1018Y1166D03*
X1049Y427D03*
X1073Y784D03*
X1083Y1862D02*
X1094D01*
Y1902D01*
X1090Y938D03*
X1094Y1902D03*
Y2035D03*
X1118Y427D02*
Y476D01*
X1119Y1327D03*
X1133Y1134D03*
X1144Y189D03*
X1161Y1781D03*
X1189Y230D03*
X1191Y356D03*
Y457D01*
X1248Y515D01*
X1196Y945D03*
X1198Y607D03*
Y797D03*
X1259Y2028D03*
X1263Y1209D03*
X1273Y215D02*
X1205D01*
X1189Y230D01*
X1273Y395D02*
X1285D01*
Y487D01*
X1323Y525D01*
X1273Y395D02*
X1353D01*
X1379Y421D01*
X1297Y1073D03*
X1299Y1909D03*
X1323Y525D03*
X1358Y859D03*
X1360Y1216D03*
Y1217D03*
X1379Y204D02*
X1729D01*
X1379Y421D02*
Y469D01*
X1323Y525D01*
X1400Y582D03*
X1402Y623D03*
X1419Y1088D03*
X1454Y1777D03*
X1458Y1221D03*
X1469Y135D03*
X1472Y1909D03*
Y2028D03*
X1484Y969D03*
X1485Y623D03*
X1523Y530D03*
X1546Y1205D03*
X1560Y622D03*
X1613Y1918D03*
X1616Y1677D03*
X1636Y1139D03*
X1637Y699D03*
X1659Y428D03*
X1674Y1785D03*
X1678Y1048D02*
X1753D01*
X1680Y1612D03*
X1688Y2048D03*
X1696Y1192D03*
Y1264D03*
X1728Y816D02*
Y727D01*
X1729Y728D01*
X1797D01*
X1749Y1554D03*
X1753Y1048D03*
X1805D01*
X1808Y1051D01*
X1794Y671D03*
X1797Y728D02*
X1913Y612D01*
Y386D01*
X1864Y337D01*
X1858D01*
X1833Y313D01*
X1698D01*
X1665Y279D01*
X1448D01*
X1423Y304D01*
X1194D01*
X1167Y277D01*
X1050D01*
X1016Y311D01*
X1806Y135D03*
X1808Y1051D02*
Y934D01*
X1794Y920D01*
X1818Y816D02*
Y896D01*
X1794Y920D01*
X1823Y227D02*
X1828D01*
D03*
X1933Y284D02*
Y280D01*
X1946D01*
X2107Y440D01*
X2117D01*
X2140Y463D01*
X1957Y1724D03*
X1961Y527D03*
X1962Y771D03*
Y867D03*
X1966Y2050D03*
X2003Y951D02*
X2036D01*
X2065Y922D01*
X2005Y1948D03*
X2052Y1809D02*
X2002D01*
X2062Y1827D03*
X2065Y922D03*
X2119Y1171D03*
X2138Y891D02*
X2065Y818D01*
X1939D01*
X1858Y736D01*
Y728D01*
X1797D01*
X2152Y2048D03*
X2167Y1767D03*
X2194Y1944D03*
X2203Y482D03*
X2207Y767D03*
X2233Y1062D02*
Y904D01*
X2177Y848D01*
Y852D01*
X2138Y891D01*
X2233Y1262D02*
X2209D01*
X2160Y1212D01*
Y1060D01*
X2137Y1036D01*
X2073D01*
X2051Y1014D01*
Y999D01*
X2003Y951D01*
X2239Y1826D03*
X2328Y103D03*
X2330Y653D03*
X2336Y2051D03*
X2337Y400D03*
X2338Y1944D03*
X2339Y897D03*
Y1133D03*
X2340Y1370D03*
X2341Y1562D03*
X2342Y1772D03*
D02*
D14*
X441Y220D03*
X1826Y1876D03*
X2156Y248D03*
D02*
D15*
X1813Y1376D03*
X1913D03*
X2013D03*
D02*
D16*
X487Y468D03*
Y568D03*
Y668D03*
X522Y868D03*
Y947D03*
Y1026D03*
X698Y424D03*
Y524D03*
Y624D03*
Y724D03*
D02*
D17*
X710Y862D03*
Y1118D03*
X888Y862D03*
Y1118D03*
D02*
D18*
X687Y216D03*
X787D03*
D02*
D19*
X2233Y1762D03*
D02*
D70*
Y1062D03*
Y1162D03*
Y1262D03*
Y1362D03*
Y1462D03*
Y1562D03*
Y1662D03*
D02*
D71*
X522Y1105D03*
D02*
D20*
X1933Y184D03*
Y284D03*
D02*
D21*
X288Y67D02*
X2370D01*
Y2567D01*
X288D01*
Y67D01*
X297Y174D02*
Y76D01*
X394D01*
G75*
G02*
X297Y174I47J145D01*
G01*
G36*
X297Y174D02*
Y76D01*
X394D01*
G75*
G02*
X297Y174I47J145D01*
G01*
G37*
Y499D02*
Y267D01*
G75*
G02*
X402Y367I145J-47D01*
G01*
X383Y386D01*
G75*
G02*
X368Y436I-6J25D01*
G01*
X356Y448D01*
G75*
G02*
X339Y467I8J25D01*
G01*
G75*
G02*
X337Y476I25J9D01*
G01*
Y487D01*
G75*
G02*
X297Y499I-16J20D01*
G01*
G36*
X297Y499D02*
Y267D01*
G75*
G02*
X402Y367I145J-47D01*
G01*
X383Y386D01*
G75*
G02*
X368Y436I-6J25D01*
G01*
X356Y448D01*
G75*
G02*
X339Y467I8J25D01*
G01*
G75*
G02*
X337Y476I25J9D01*
G01*
Y487D01*
G75*
G02*
X297Y499I-16J20D01*
G01*
G37*
Y2087D02*
Y517D01*
G75*
G02*
X337Y528I25J-9D01*
G01*
Y646D01*
G75*
G02*
X298Y668I-13J23D01*
G01*
G75*
G02*
X337Y691I26J0D01*
G01*
Y895D01*
G75*
G02*
X298Y917I-13J23D01*
G01*
G75*
G02*
X341Y937I26J0D01*
G01*
Y1112D01*
G75*
G02*
X298Y1132I-17J20D01*
G01*
G75*
G02*
X341Y1152I26J0D01*
G01*
Y1322D01*
G75*
G02*
X298Y1342I-17J20D01*
G01*
G75*
G02*
X341Y1361I26J0D01*
G01*
Y1517D01*
G75*
G02*
X298Y1536I-17J20D01*
G01*
G75*
G02*
X341Y1556I26J0D01*
G01*
Y1689D01*
G75*
G02*
X298Y1709I-17J20D01*
G01*
G75*
G02*
X341Y1728I26J0D01*
G01*
Y1806D01*
G75*
G02*
X349Y1824I26J0D01*
G01*
X429Y1904D01*
G75*
G02*
X448Y1912I18J-18D01*
G01*
X663D01*
G75*
G02*
X681Y1904I0J-26D01*
G01*
X716Y1869D01*
G75*
G02*
X723Y1856I-18J-18D01*
G01*
X762D01*
Y1831D01*
G75*
G02*
X763Y1831I-17J-20D01*
G01*
X774Y1842D01*
G75*
G02*
X793Y1850I18J-18D01*
G01*
X948D01*
G75*
G02*
X969Y1839I0J-26D01*
G01*
X974Y1834D01*
G75*
G02*
X1026Y1831I26J-4D01*
G01*
G75*
G02*
X1003Y1805I-26J0D01*
G01*
X1050Y1758D01*
G75*
G02*
X1054Y1755I-14J-22D01*
G01*
X1057Y1752D01*
X1180D01*
Y1763D01*
G75*
G02*
X1135Y1781I-19J18D01*
G01*
G75*
G02*
X1180Y1799I26J0D01*
G01*
Y1816D01*
X1263D01*
Y1820D01*
G75*
G02*
Y1859I35J19D01*
G01*
Y1862D01*
X1180D01*
Y1932D01*
X1285D01*
G75*
G02*
X1325Y1909I13J-22D01*
G01*
G75*
G02*
X1295Y1884I-26J0D01*
G01*
Y1879D01*
G75*
G02*
X1298Y1879I2J-40D01*
G01*
X1414D01*
Y1880D01*
X1503D01*
Y1797D01*
X1471D01*
G75*
G02*
X1475Y1761I-17J-20D01*
G01*
X1500D01*
Y1662D01*
X1408D01*
Y1761D01*
X1433D01*
G75*
G02*
X1437Y1797I21J15D01*
G01*
X1414D01*
Y1799D01*
X1298D01*
G75*
G02*
X1295Y1799I0J40D01*
G01*
Y1752D01*
X1298D01*
Y1761D01*
X1390D01*
Y1662D01*
X1381D01*
Y1657D01*
X1524D01*
G75*
G02*
X1515Y1680I25J23D01*
G01*
Y1685D01*
X1511D01*
Y1708D01*
G75*
G02*
Y1740I39J16D01*
G01*
Y1773D01*
X1594D01*
Y1731D01*
G75*
G02*
Y1723I-42J-4D01*
G01*
Y1691D01*
G75*
G02*
X1643Y1677I22J-14D01*
G01*
G75*
G02*
X1603Y1655I-26J0D01*
G01*
Y1569D01*
X1620D01*
G75*
G02*
X1627Y1571I7J-19D01*
G01*
X1654D01*
X1671Y1587D01*
G75*
G02*
X1655Y1619I9J25D01*
G01*
X1645D01*
Y1717D01*
X1764D01*
Y1629D01*
X1795D01*
Y1717D01*
X1914D01*
Y1629D01*
X1921D01*
X2052Y1760D01*
X1973D01*
Y1835D01*
G75*
G02*
X1698Y1794I-146J41D01*
G01*
G75*
G02*
X1700Y1785I-25J-8D01*
G01*
G75*
G02*
X1647I-26J0D01*
G01*
G75*
G02*
X1693Y1803I26J0D01*
G01*
G75*
G02*
X1681Y1832I133J73D01*
G01*
X1595D01*
Y1899D01*
G75*
G02*
X1593Y1900I18J19D01*
G01*
Y1863D01*
X1594D01*
Y1775D01*
X1511D01*
Y1797D01*
X1504D01*
Y1880D01*
X1505D01*
Y1916D01*
X1506D01*
Y1962D01*
X1589D01*
Y1929D01*
G75*
G02*
X1639Y1918I23J-12D01*
G01*
G75*
G02*
X1639Y1916I-26J0D01*
G01*
X1679D01*
G75*
G02*
X1977Y1859I147J-40D01*
G01*
X2081D01*
Y1845D01*
G75*
G02*
Y1809I-19J-18D01*
G01*
Y1790D01*
X2163Y1872D01*
G75*
G02*
X2178Y1878I14J-14D01*
G01*
X2268D01*
G75*
G02*
X2282Y1872I0J-20D01*
G01*
X2304Y1850D01*
G75*
G02*
X2310Y1836I-14J-14D01*
G01*
Y1832D01*
X2316Y1825D01*
G75*
G02*
X2322Y1811I-14J-14D01*
G01*
Y1788D01*
G75*
G02*
X2362Y1789I20J-17D01*
G01*
Y1933D01*
G75*
G02*
X2312Y1944I-24J11D01*
G01*
G75*
G02*
X2362Y1955I26J0D01*
G01*
Y2046D01*
G75*
G02*
X2310Y2051I-26J6D01*
G01*
G75*
G02*
X2362Y2057I26J0D01*
G01*
Y2087D01*
X1683D01*
Y2074D01*
G75*
G02*
X1715Y2048I5J-26D01*
G01*
G75*
G02*
X1683Y2023I-26J0D01*
G01*
Y2008D01*
X1595D01*
Y2087D01*
X1593D01*
Y2008D01*
X1589D01*
Y1963D01*
X1506D01*
Y2008D01*
X1505D01*
Y2087D01*
X297D01*
X1940Y2050D02*
G75*
G02*
X1992I26J0D01*
G01*
G75*
G02*
X1940I-26J0D01*
G01*
X1979Y1948D02*
G75*
G02*
X2031I26J0D01*
G01*
G75*
G02*
X1979I-26J0D01*
G01*
X2126Y2048D02*
G75*
G02*
X2178I26J0D01*
G01*
G75*
G02*
X2126I-26J0D01*
G01*
X2168Y1944D02*
G75*
G02*
X2220I26J0D01*
G01*
G75*
G02*
X2168I-26J0D01*
G01*
X324Y2024D02*
G75*
G02*
X376I26J0D01*
G01*
G75*
G02*
X324I-26J0D01*
G01*
X332Y1886D02*
G75*
G02*
X384I26J0D01*
G01*
G75*
G02*
X332I-26J0D01*
G01*
X339Y1967D02*
G75*
G02*
X392I26J0D01*
G01*
G75*
G02*
X339I-26J0D01*
G01*
X442Y1941D02*
G75*
G02*
X494I26J0D01*
G01*
G75*
G02*
X442I-26J0D01*
G01*
X572Y2024D02*
G75*
G02*
X624I26J0D01*
G01*
G75*
G02*
X572I-26J0D01*
G01*
X584Y1941D02*
G75*
G02*
X636I26J0D01*
G01*
G75*
G02*
X584I-26J0D01*
G01*
X843Y1909D02*
G75*
G02*
X896I26J0D01*
G01*
G75*
G02*
X843I-26J0D01*
G01*
Y2028D02*
G75*
G02*
X896I26J0D01*
G01*
G75*
G02*
X843I-26J0D01*
G01*
X1068Y1902D02*
G75*
G02*
X1120I26J0D01*
G01*
G75*
G02*
X1068I-26J0D01*
G01*
Y2035D02*
G75*
G02*
X1120I26J0D01*
G01*
G75*
G02*
X1068I-26J0D01*
G01*
X1233Y2028D02*
G75*
G02*
X1285I26J0D01*
G01*
G75*
G02*
X1233I-26J0D01*
G01*
X1446Y1909D02*
G75*
G02*
X1498I26J0D01*
G01*
G75*
G02*
X1446I-26J0D01*
G01*
Y2028D02*
G75*
G02*
X1498I26J0D01*
G01*
G75*
G02*
X1446I-26J0D01*
G01*
X1931Y1724D02*
G75*
G02*
X1983I26J0D01*
G01*
G75*
G02*
X1931I-26J0D01*
G01*
X299Y661D02*
G36*
X299Y661D02*
Y522D01*
G75*
G02*
X337Y528I22J-14D01*
G01*
Y646D01*
G75*
G02*
X299Y661I-13J23D01*
G01*
G37*
Y910D02*
G36*
X299Y910D02*
Y676D01*
G75*
G02*
X337Y691I25J-7D01*
G01*
Y895D01*
G75*
G02*
X299Y910I-13J23D01*
G01*
G37*
Y1125D02*
G36*
X299Y1125D02*
Y925D01*
G75*
G02*
X341Y937I25J-7D01*
G01*
Y1112D01*
G75*
G02*
X299Y1125I-17J20D01*
G01*
G37*
Y1334D02*
G36*
X299Y1334D02*
Y1139D01*
G75*
G02*
X341Y1152I25J-7D01*
G01*
Y1322D01*
G75*
G02*
X299Y1334I-17J20D01*
G01*
G37*
Y1529D02*
G36*
X299Y1529D02*
Y1349D01*
G75*
G02*
X341Y1361I25J-7D01*
G01*
Y1517D01*
G75*
G02*
X299Y1529I-17J20D01*
G01*
G37*
Y1701D02*
G36*
X299Y1701D02*
Y1544D01*
G75*
G02*
X341Y1556I25J-7D01*
G01*
Y1689D01*
G75*
G02*
X299Y1701I-17J20D01*
G01*
G37*
Y1724D02*
G36*
X299Y1724D02*
Y1716D01*
G75*
G02*
X303Y1724I25J-7D01*
G01*
X299D01*
G37*
X1381Y1662D02*
G36*
X1381Y1662D02*
Y1657D01*
X1524D01*
G75*
G02*
X1515Y1680I25J23D01*
G01*
Y1685D01*
X1511D01*
Y1708D01*
G75*
G02*
X1508Y1724I39J16D01*
G01*
Y1724D01*
X1500D01*
Y1662D01*
X1408D01*
Y1724D01*
X1390D01*
Y1662D01*
X1381D01*
G37*
X1594Y1723D02*
G36*
X1594Y1723D02*
Y1691D01*
G75*
G02*
X1643Y1677I22J-14D01*
G01*
G75*
G02*
X1603Y1655I-26J0D01*
G01*
Y1569D01*
X1620D01*
G75*
G02*
X1627Y1571I7J-19D01*
G01*
X1654D01*
X1671Y1587D01*
G75*
G02*
X1654Y1612I9J25D01*
G01*
G75*
G02*
X1655Y1619I26J0D01*
G01*
X1645D01*
Y1717D01*
X1764D01*
Y1629D01*
X1795D01*
Y1717D01*
X1914D01*
Y1629D01*
X1921D01*
X2016Y1724D01*
X1983D01*
G75*
G02*
X1931I-26J0D01*
G01*
X1834D01*
G75*
G02*
X1818I-8J152D01*
G01*
X1594D01*
G75*
G02*
X1594Y1723I-42J3D01*
G01*
G37*
X299Y1886D02*
G36*
X299Y1886D02*
Y1724D01*
X303D01*
G75*
G02*
X341Y1728I21J-15D01*
G01*
Y1806D01*
G75*
G02*
X349Y1824I26J0D01*
G01*
X411Y1886D01*
X384D01*
G75*
G02*
X332I-26J0D01*
G01*
X299D01*
G37*
X700D02*
G36*
X700Y1886D02*
X716Y1869D01*
G75*
G02*
X723Y1856I-18J-19D01*
G01*
X762D01*
Y1831D01*
X763Y1831D01*
X774Y1842D01*
G75*
G02*
X793Y1850I18J-18D01*
G01*
X948D01*
G75*
G02*
X969Y1839I0J-26D01*
G01*
X974Y1834D01*
G75*
G02*
X1026Y1831I26J-4D01*
G01*
G75*
G02*
X1003Y1805I-26J0D01*
G01*
X1050Y1758D01*
G75*
G02*
X1054Y1755I-14J-22D01*
G01*
X1057Y1752D01*
X1180D01*
Y1763D01*
G75*
G02*
X1135Y1781I-19J18D01*
G01*
G75*
G02*
X1180Y1799I26J0D01*
G01*
Y1816D01*
X1263D01*
Y1820D01*
G75*
G02*
X1258Y1839I35J19D01*
G01*
G75*
G02*
X1263Y1859I40J0D01*
G01*
Y1862D01*
X1180D01*
Y1886D01*
X1115D01*
G75*
G02*
X1073I-21J16D01*
G01*
X881D01*
G75*
G02*
X858I-11J24D01*
G01*
X700D01*
G37*
X1295Y1799D02*
G36*
X1295Y1799D02*
Y1752D01*
X1298D01*
Y1761D01*
X1390D01*
Y1724D01*
X1408D01*
Y1761D01*
X1433D01*
G75*
G02*
X1428Y1777I21J15D01*
G01*
G75*
G02*
X1437Y1797I26J0D01*
G01*
X1414D01*
Y1799D01*
X1298D01*
G75*
G02*
X1295Y1799I0J39D01*
G01*
G37*
Y1884D02*
G36*
X1295Y1884D02*
Y1879D01*
G75*
G02*
X1298Y1879I2J-39D01*
G01*
X1414D01*
Y1880D01*
X1503D01*
Y1797D01*
X1471D01*
G75*
G02*
X1480Y1777I-17J-20D01*
G01*
G75*
G02*
X1475Y1761I-26J0D01*
G01*
X1500D01*
Y1724D01*
X1508D01*
G75*
G02*
X1511Y1740I42J0D01*
G01*
Y1773D01*
X1594D01*
Y1731D01*
G75*
G02*
X1595Y1727I-42J-4D01*
G01*
G75*
G02*
X1594Y1724I-42J0D01*
G01*
X1818D01*
G75*
G02*
X1698Y1794I8J152D01*
G01*
G75*
G02*
X1700Y1785I-25J-8D01*
G01*
G75*
G02*
X1647I-26J0D01*
G01*
G75*
G02*
X1693Y1803I26J0D01*
G01*
G75*
G02*
X1681Y1832I134J73D01*
G01*
X1595D01*
Y1886D01*
X1593D01*
Y1863D01*
X1594D01*
Y1775D01*
X1511D01*
Y1797D01*
X1504D01*
Y1880D01*
X1505D01*
Y1886D01*
X1483D01*
G75*
G02*
X1461I-11J24D01*
G01*
X1310D01*
G75*
G02*
X1295Y1884I-11J24D01*
G01*
G37*
X1834Y1724D02*
G36*
X1834Y1724D02*
X1931D01*
G75*
G02*
X1983I26J0D01*
G01*
X2016D01*
X2052Y1760D01*
X1973D01*
Y1835D01*
G75*
G02*
X1834Y1724I-146J41D01*
G01*
G37*
X1978Y1876D02*
G36*
X1978Y1876D02*
G75*
G02*
X1977Y1859I-152J0D01*
G01*
X2081D01*
Y1845D01*
G75*
G02*
X2089Y1827I-19J-18D01*
G01*
G75*
G02*
X2081Y1809I-26J0D01*
G01*
Y1790D01*
X2163Y1872D01*
G75*
G02*
X2178Y1878I14J-14D01*
G01*
X2268D01*
G75*
G02*
X2282Y1872I0J-20D01*
G01*
X2304Y1850D01*
G75*
G02*
X2310Y1836I-14J-14D01*
G01*
Y1832D01*
X2316Y1825D01*
G75*
G02*
X2322Y1811I-14J-14D01*
G01*
Y1788D01*
G75*
G02*
X2359Y1791I20J-17D01*
G01*
Y1886D01*
X1978D01*
G75*
G02*
X1978Y1876I-152J-10D01*
G01*
G37*
X299Y1948D02*
G36*
X299Y1948D02*
Y1886D01*
X332D01*
G75*
G02*
X384I26J0D01*
G01*
X411D01*
X429Y1904D01*
G75*
G02*
X448Y1912I18J-18D01*
G01*
X663D01*
G75*
G02*
X681Y1904I0J-26D01*
G01*
X700Y1886D01*
X858D01*
G75*
G02*
X843Y1909I11J24D01*
G01*
G75*
G02*
X896I26J0D01*
G01*
G75*
G02*
X881Y1886I-26J0D01*
G01*
X1073D01*
G75*
G02*
X1068Y1902I21J16D01*
G01*
G75*
G02*
X1120I26J0D01*
G01*
G75*
G02*
X1115Y1886I-26J0D01*
G01*
X1180D01*
Y1932D01*
X1285D01*
G75*
G02*
X1325Y1909I13J-22D01*
G01*
Y1909D01*
G75*
G02*
X1310Y1886I-26J0D01*
G01*
X1461D01*
G75*
G02*
X1446Y1909I11J24D01*
G01*
G75*
G02*
X1498I26J0D01*
G01*
G75*
G02*
X1483Y1886I-26J0D01*
G01*
X1505D01*
Y1916D01*
X1506D01*
Y1948D01*
X635D01*
G75*
G02*
X636Y1941I-25J-7D01*
G01*
G75*
G02*
X584I-26J0D01*
G01*
G75*
G02*
X584Y1948I26J0D01*
G01*
X493D01*
G75*
G02*
X494Y1941I-25J-7D01*
G01*
G75*
G02*
X442I-26J0D01*
G01*
G75*
G02*
X443Y1948I26J0D01*
G01*
X383D01*
G75*
G02*
X348I-17J20D01*
G01*
X299D01*
G37*
X1589D02*
G36*
X1589Y1948D02*
Y1929D01*
G75*
G02*
X1639Y1918I23J-12D01*
G01*
Y1917D01*
G75*
G02*
X1639Y1916I-23J0D01*
G01*
X1679D01*
G75*
G02*
X1692Y1948I147J-40D01*
G01*
X1589D01*
G37*
X1593Y1900D02*
G36*
X1593Y1900D02*
Y1886D01*
X1595D01*
Y1899D01*
G75*
G02*
X1593Y1900I21J21D01*
G01*
G37*
X1960Y1948D02*
G36*
X1960Y1948D02*
G75*
G02*
X1978Y1886I-134J-72D01*
G01*
X2359D01*
Y1928D01*
G75*
G02*
X2312Y1944I-21J15D01*
G01*
G75*
G02*
X2312Y1948I26J0D01*
G01*
X2220D01*
G75*
G02*
X2220Y1944I-26J-4D01*
G01*
G75*
G02*
X2168I-26J0D01*
G01*
G75*
G02*
X2168Y1948I26J0D01*
G01*
X2031D01*
G75*
G02*
X1979I-26J0D01*
G01*
X1960D01*
G37*
X299Y2024D02*
G36*
X299Y2024D02*
Y1948D01*
X348D01*
G75*
G02*
X339Y1967I17J20D01*
G01*
G75*
G02*
X392I26J0D01*
G01*
G75*
G02*
X383Y1948I-26J0D01*
G01*
X443D01*
G75*
G02*
X493I25J-7D01*
G01*
X584D01*
G75*
G02*
X635I25J-7D01*
G01*
X1506D01*
Y1962D01*
X1589D01*
Y1948D01*
X1692D01*
G75*
G02*
X1790Y2024I134J-72D01*
G01*
X1697D01*
G75*
G02*
X1683Y2023I-9J25D01*
G01*
Y2008D01*
X1595D01*
Y2024D01*
X1593D01*
Y2008D01*
X1589D01*
Y1963D01*
X1506D01*
Y2008D01*
X1505D01*
Y2024D01*
X1498D01*
G75*
G02*
X1446I-26J4D01*
G01*
X1285D01*
G75*
G02*
X1233I-26J4D01*
G01*
X1117D01*
G75*
G02*
X1071I-23J12D01*
G01*
X895D01*
G75*
G02*
X844I-26J4D01*
G01*
X624D01*
G75*
G02*
X572I-26J0D01*
G01*
X376D01*
G75*
G02*
X324I-26J0D01*
G01*
X299D01*
G37*
X1863D02*
G36*
X1863Y2024D02*
G75*
G02*
X1960Y1948I-37J-148D01*
G01*
X1979D01*
G75*
G02*
X2031I26J0D01*
G01*
X2168D01*
G75*
G02*
X2220I26J-4D01*
G01*
X2312D01*
G75*
G02*
X2359Y1959I26J-4D01*
G01*
Y2024D01*
X2161D01*
G75*
G02*
X2143I-9J25D01*
G01*
X1863D01*
G37*
X299Y2050D02*
G36*
X299Y2050D02*
Y2024D01*
X324D01*
G75*
G02*
X376I26J0D01*
G01*
X572D01*
G75*
G02*
X624I26J0D01*
G01*
X844D01*
G75*
G02*
X843Y2028I26J4D01*
G01*
G75*
G02*
X856Y2050I26J0D01*
G01*
X299D01*
G37*
X896Y2028D02*
G36*
X896Y2028D02*
G75*
G02*
X895Y2024I-26J0D01*
G01*
X1071D01*
G75*
G02*
X1068Y2035I23J12D01*
G01*
G75*
G02*
X1072Y2050I26J0D01*
G01*
X883D01*
G75*
G02*
X896Y2028I-13J-23D01*
G01*
G37*
X1120Y2035D02*
G36*
X1120Y2035D02*
G75*
G02*
X1117Y2024I-26J0D01*
G01*
X1233D01*
G75*
G02*
X1233Y2028I26J4D01*
G01*
G75*
G02*
X1246Y2050I26J0D01*
G01*
X1115D01*
G75*
G02*
X1120Y2035I-22J-15D01*
G01*
G37*
X1285Y2028D02*
G36*
X1285Y2028D02*
G75*
G02*
X1285Y2024I-26J0D01*
G01*
X1446D01*
G75*
G02*
X1446Y2028I26J4D01*
G01*
G75*
G02*
X1459Y2050I26J0D01*
G01*
X1272D01*
G75*
G02*
X1285Y2028I-13J-23D01*
G01*
G37*
X1498D02*
G36*
X1498Y2028D02*
G75*
G02*
X1498Y2024I-26J0D01*
G01*
X1505D01*
Y2050D01*
X1485D01*
G75*
G02*
X1498Y2028I-13J-23D01*
G01*
G37*
X1593Y2050D02*
G36*
X1593Y2050D02*
Y2024D01*
X1595D01*
Y2050D01*
X1593D01*
G37*
X1715Y2048D02*
G36*
X1715Y2048D02*
G75*
G02*
X1697Y2024I-26J0D01*
G01*
X1790D01*
G75*
G02*
X1863I37J-148D01*
G01*
X2143D01*
G75*
G02*
X2126Y2048I9J25D01*
G01*
G75*
G02*
X2126Y2050I26J0D01*
G01*
X1992D01*
G75*
G02*
X1940I-26J0D01*
G01*
X1714D01*
G75*
G02*
X1715Y2048I-26J-2D01*
G01*
G37*
X2178D02*
G36*
X2178Y2048D02*
G75*
G02*
X2161Y2024I-26J0D01*
G01*
X2359D01*
Y2039D01*
G75*
G02*
X2310Y2050I-23J12D01*
G01*
X2178D01*
G75*
G02*
X2178Y2048I-26J-2D01*
G01*
G37*
X299Y2085D02*
G36*
X299Y2085D02*
Y2050D01*
X856D01*
G75*
G02*
X883I13J-23D01*
G01*
X1072D01*
G75*
G02*
X1115I22J-15D01*
G01*
X1246D01*
G75*
G02*
X1272I13J-23D01*
G01*
X1459D01*
G75*
G02*
X1485I13J-23D01*
G01*
X1505D01*
Y2085D01*
X299D01*
G37*
X1593D02*
G36*
X1593Y2085D02*
Y2050D01*
X1595D01*
Y2085D01*
X1593D01*
G37*
X1683D02*
G36*
X1683Y2085D02*
Y2074D01*
G75*
G02*
X1714Y2050I5J-26D01*
G01*
X1940D01*
G75*
G02*
X1992I26J0D01*
G01*
X2126D01*
G75*
G02*
X2178I26J-2D01*
G01*
X2310D01*
G75*
G02*
X2310Y2051I26J1D01*
G01*
G75*
G02*
X2359Y2064I26J0D01*
G01*
Y2085D01*
X1683D01*
G37*
X390Y805D02*
Y527D01*
G75*
G02*
X391Y528I15J-13D01*
G01*
X404Y542D01*
G75*
G02*
X417Y547I14J-14D01*
G01*
G75*
G02*
X457Y612I39J20D01*
G01*
X517D01*
G75*
G02*
X547Y601I0J-44D01*
G01*
Y635D01*
G75*
G02*
X517Y624I-30J33D01*
G01*
X457D01*
G75*
G02*
X412Y668I0J44D01*
G01*
G75*
G02*
X457Y712I44J0D01*
G01*
X461D01*
G75*
G02*
X451Y733I15J21D01*
G01*
G75*
G02*
X503I26J0D01*
G01*
G75*
G02*
X492Y712I-26J0D01*
G01*
X512D01*
X567Y768D01*
X438D01*
G75*
G02*
X419Y776I0J26D01*
G01*
X390Y805D01*
G36*
X390Y805D02*
Y527D01*
G75*
G02*
X391Y528I15J-13D01*
G01*
X404Y542D01*
G75*
G02*
X417Y547I14J-14D01*
G01*
G75*
G02*
X457Y612I39J20D01*
G01*
X517D01*
G75*
G02*
X547Y601I0J-44D01*
G01*
Y635D01*
G75*
G02*
X517Y624I-30J33D01*
G01*
X457D01*
G75*
G02*
X412Y668I0J44D01*
G01*
G75*
G02*
X457Y712I44J0D01*
G01*
X461D01*
G75*
G02*
X451Y733I15J21D01*
G01*
G75*
G02*
X503I26J0D01*
G01*
G75*
G02*
X492Y712I-26J0D01*
G01*
X512D01*
X567Y768D01*
X438D01*
G75*
G02*
X419Y776I0J26D01*
G01*
X390Y805D01*
G37*
X394Y888D02*
Y875D01*
X449Y820D01*
X562D01*
X570Y828D01*
G75*
G02*
X552Y824I-18J40D01*
G01*
X492D01*
G75*
G02*
X452Y849I0J44D01*
G01*
X441D01*
G75*
G02*
X427Y855I0J20D01*
G01*
X394Y888D01*
G36*
X394Y888D02*
Y875D01*
X449Y820D01*
X562D01*
X570Y828D01*
G75*
G02*
X552Y824I-18J40D01*
G01*
X492D01*
G75*
G02*
X452Y849I0J44D01*
G01*
X441D01*
G75*
G02*
X427Y855I0J20D01*
G01*
X394Y888D01*
G37*
Y1795D02*
Y1712D01*
X422Y1740D01*
G75*
G02*
X436Y1746I14J-14D01*
G01*
X483D01*
G75*
G02*
X490Y1744I0J-20D01*
G01*
X684D01*
G75*
G02*
X711Y1748I17J-20D01*
G01*
Y1761D01*
X744D01*
Y1767D01*
X633D01*
Y1856D01*
X656D01*
X652Y1860D01*
X458D01*
X454Y1856D01*
X582D01*
Y1767D01*
X453D01*
Y1855D01*
X394Y1795D01*
X401Y1784D02*
G75*
G02*
X453I26J0D01*
G01*
G75*
G02*
X401I-26J0D01*
G01*
X396D02*
G36*
X396Y1784D02*
Y1714D01*
X422Y1740D01*
G75*
G02*
X436Y1746I14J-14D01*
G01*
X483D01*
G75*
G02*
X490Y1744I0J-20D01*
G01*
X684D01*
G75*
G02*
X711Y1748I17J-20D01*
G01*
Y1761D01*
X742D01*
Y1767D01*
X633D01*
Y1784D01*
X582D01*
Y1767D01*
X453D01*
Y1784D01*
X453D01*
G75*
G02*
X401I-26J0D01*
G01*
X396D01*
G37*
Y1798D02*
G36*
X396Y1798D02*
Y1784D01*
X401D01*
G75*
G02*
X453I26J0D01*
G01*
X453D01*
Y1855D01*
X396Y1798D01*
G37*
X456Y1857D02*
G36*
X456Y1857D02*
X454Y1856D01*
X582D01*
Y1784D01*
X633D01*
Y1856D01*
X656D01*
X654Y1857D01*
X456D01*
G37*
X421Y932D02*
Y917D01*
X449Y889D01*
X453D01*
G75*
G02*
X471Y908I39J-21D01*
G01*
G75*
G02*
X462Y914I20J39D01*
G01*
X448D01*
G75*
G02*
X433Y920I0J20D01*
G01*
X421Y932D01*
G36*
X421Y932D02*
Y917D01*
X449Y889D01*
X453D01*
G75*
G02*
X471Y908I39J-21D01*
G01*
G75*
G02*
X462Y914I20J39D01*
G01*
X448D01*
G75*
G02*
X433Y920I0J20D01*
G01*
X421Y932D01*
G37*
X438Y1699D02*
G75*
G02*
X443Y1699I5J-20D01*
G01*
X513D01*
G75*
G02*
X519Y1698I0J-20D01*
G01*
X537D01*
Y1700D01*
X629D01*
Y1698D01*
X646D01*
X651Y1704D01*
X484D01*
G75*
G02*
X477Y1705I0J20D01*
G01*
X444D01*
X438Y1699D01*
G36*
X438Y1699D02*
G75*
G02*
X443Y1699I5J-20D01*
G01*
X513D01*
G75*
G02*
X519Y1698I0J-20D01*
G01*
X537D01*
Y1700D01*
X629D01*
Y1698D01*
X646D01*
X651Y1704D01*
X484D01*
G75*
G02*
X477Y1705I0J20D01*
G01*
X444D01*
X438Y1699D01*
G37*
X448Y1019D02*
Y962D01*
X449Y961D01*
G75*
G02*
X471Y987I42J-14D01*
G01*
G75*
G02*
X448Y1019I20J39D01*
G01*
G36*
X448Y1019D02*
Y962D01*
X449Y961D01*
G75*
G02*
X471Y987I42J-14D01*
G01*
G75*
G02*
X448Y1019I20J39D01*
G01*
G37*
Y1521D02*
Y1149D01*
X582D01*
Y1230D01*
X483D01*
Y1312D01*
X512D01*
X538Y1338D01*
G75*
G02*
X539Y1339I14J-14D01*
G01*
G75*
G02*
X538Y1340I14J15D01*
G01*
X512Y1366D01*
X483D01*
Y1448D01*
X584D01*
X611Y1476D01*
G75*
G02*
X625Y1482I14J-14D01*
G01*
X648D01*
Y1509D01*
X643D01*
G75*
G02*
X628Y1515I0J20D01*
G01*
X624Y1519D01*
X458D01*
G75*
G02*
X448Y1521I0J20D01*
G01*
X493Y1489D02*
G75*
G02*
X545I26J0D01*
G01*
G75*
G02*
X493I-26J0D01*
G01*
X450D02*
G36*
X450Y1489D02*
Y1151D01*
X582D01*
Y1230D01*
X483D01*
Y1312D01*
X512D01*
X538Y1338D01*
G75*
G02*
X539Y1339I14J-14D01*
G01*
G75*
G02*
X538Y1340I13J15D01*
G01*
X512Y1366D01*
X483D01*
Y1448D01*
X584D01*
X611Y1476D01*
G75*
G02*
X625Y1482I14J-14D01*
G01*
X646D01*
Y1489D01*
X545D01*
G75*
G02*
X493I-26J0D01*
G01*
X450D01*
G37*
Y1519D02*
G36*
X450Y1519D02*
Y1489D01*
X493D01*
G75*
G02*
X545I26J0D01*
G01*
X646D01*
Y1509D01*
X643D01*
G75*
G02*
X628Y1515I0J20D01*
G01*
X624Y1519D01*
X458D01*
G75*
G02*
X457Y1519I0J20D01*
G01*
X450D01*
G37*
X448Y1617D02*
Y1577D01*
X466Y1559D01*
X633D01*
G75*
G02*
X647Y1553I0J-20D01*
G01*
X651Y1549D01*
X899D01*
X900Y1550D01*
X861D01*
Y1648D01*
X970D01*
X968Y1650D01*
G75*
G02*
X963Y1662I14J14D01*
G01*
X861D01*
Y1739D01*
G75*
G02*
X843Y1764I8J25D01*
G01*
G75*
G02*
X895Y1766I26J0D01*
G01*
X899Y1761D01*
X973D01*
X936Y1798D01*
X804D01*
X796Y1791D01*
Y1761D01*
X830D01*
Y1662D01*
X794D01*
Y1648D01*
X830D01*
Y1550D01*
X711D01*
Y1612D01*
X682D01*
Y1575D01*
X629D01*
Y1573D01*
X537D01*
Y1574D01*
X485D01*
Y1619D01*
G75*
G02*
X448Y1617I-19J18D01*
G01*
G36*
X448Y1617D02*
Y1577D01*
X466Y1559D01*
X633D01*
G75*
G02*
X647Y1553I0J-20D01*
G01*
X651Y1549D01*
X899D01*
X900Y1550D01*
X861D01*
Y1648D01*
X970D01*
X968Y1650D01*
G75*
G02*
X963Y1662I14J14D01*
G01*
X861D01*
Y1739D01*
G75*
G02*
X843Y1764I8J25D01*
G01*
G75*
G02*
X895Y1766I26J0D01*
G01*
X899Y1761D01*
X973D01*
X936Y1798D01*
X804D01*
X796Y1791D01*
Y1761D01*
X830D01*
Y1662D01*
X794D01*
Y1648D01*
X830D01*
Y1550D01*
X711D01*
Y1612D01*
X682D01*
Y1575D01*
X629D01*
Y1573D01*
X537D01*
Y1574D01*
X485D01*
Y1619D01*
G75*
G02*
X448Y1617I-19J18D01*
G01*
G37*
X460Y513D02*
G75*
G02*
X460Y512I-14J14D01*
G01*
X514D01*
G75*
G02*
X513Y513I14J15D01*
G01*
X502Y524D01*
X471D01*
X460Y513D01*
G36*
X460Y513D02*
G75*
G02*
X460Y512I-14J14D01*
G01*
X514D01*
G75*
G02*
X513Y513I14J15D01*
G01*
X502Y524D01*
X471D01*
X460Y513D01*
G37*
X555Y507D02*
X538D01*
G75*
G02*
X549Y438I-21J-39D01*
G01*
G75*
G02*
X562Y431I-6J-25D01*
G01*
X616Y377D01*
X825D01*
G75*
G02*
X828Y376I0J-26D01*
G01*
X775Y430D01*
G75*
G02*
X771Y435I14J14D01*
G01*
G75*
G02*
X728Y380I-43J-11D01*
G01*
X668D01*
G75*
G02*
X623Y424I0J44D01*
G01*
G75*
G02*
X668Y468I44J0D01*
G01*
X728D01*
G75*
G02*
X769Y440I0J-44D01*
G01*
G75*
G02*
X769Y444I20J4D01*
G01*
Y491D01*
G75*
G02*
X769Y492I20J1D01*
G01*
Y492D01*
Y492D01*
Y507D01*
G75*
G02*
X728Y480I-41J17D01*
G01*
X668D01*
G75*
G02*
X623Y524I0J44D01*
G01*
G75*
G02*
X668Y568I44J0D01*
G01*
X728D01*
G75*
G02*
X769Y541I0J-44D01*
G01*
Y592D01*
X764Y597D01*
X763D01*
G75*
G02*
X728Y580I-35J27D01*
G01*
X668D01*
G75*
G02*
X634Y653I0J44D01*
G01*
X604D01*
X587Y637D01*
Y539D01*
Y539D01*
Y539D01*
G75*
G02*
X581Y525I-20J0D01*
G01*
X570Y513D01*
G75*
G02*
X555Y507I-14J14D01*
G01*
G36*
X555Y507D02*
X538D01*
G75*
G02*
X549Y438I-21J-39D01*
G01*
G75*
G02*
X562Y431I-6J-25D01*
G01*
X616Y377D01*
X825D01*
G75*
G02*
X828Y376I0J-26D01*
G01*
X775Y430D01*
G75*
G02*
X771Y435I14J14D01*
G01*
G75*
G02*
X728Y380I-43J-11D01*
G01*
X668D01*
G75*
G02*
X623Y424I0J44D01*
G01*
G75*
G02*
X668Y468I44J0D01*
G01*
X728D01*
G75*
G02*
X769Y440I0J-44D01*
G01*
G75*
G02*
X769Y444I20J4D01*
G01*
Y491D01*
G75*
G02*
X769Y492I20J1D01*
G01*
Y492D01*
Y492D01*
Y507D01*
G75*
G02*
X728Y480I-41J17D01*
G01*
X668D01*
G75*
G02*
X623Y524I0J44D01*
G01*
G75*
G02*
X668Y568I44J0D01*
G01*
X728D01*
G75*
G02*
X769Y541I0J-44D01*
G01*
Y592D01*
X764Y597D01*
X763D01*
G75*
G02*
X728Y580I-35J27D01*
G01*
X668D01*
G75*
G02*
X634Y653I0J44D01*
G01*
X604D01*
X587Y637D01*
Y539D01*
Y539D01*
Y539D01*
G75*
G02*
X581Y525I-20J0D01*
G01*
X570Y513D01*
G75*
G02*
X555Y507I-14J14D01*
G01*
G37*
X559Y316D02*
G75*
G02*
X489Y76I-118J-96D01*
G01*
X646D01*
G75*
G02*
X640Y80I8J19D01*
G01*
X624Y96D01*
G75*
G02*
X574Y107I-24J11D01*
G01*
G75*
G02*
X607Y132I26J0D01*
G01*
Y269D01*
X559Y316D01*
G36*
X559Y316D02*
G75*
G02*
X489Y76I-118J-96D01*
G01*
X646D01*
G75*
G02*
X640Y80I8J19D01*
G01*
X624Y96D01*
G75*
G02*
X574Y107I-24J11D01*
G01*
G75*
G02*
X607Y132I26J0D01*
G01*
Y269D01*
X559Y316D01*
G37*
X561Y668D02*
Y668D01*
X581Y688D01*
G75*
G02*
X595Y693I14J-14D01*
G01*
X636D01*
G75*
G02*
X625Y736I32J31D01*
G01*
G75*
G02*
X624Y736I-1J20D01*
G01*
X592D01*
X552Y695D01*
G75*
G02*
X561Y668I-35J-27D01*
G01*
G36*
X561Y668D02*
Y668D01*
X581Y688D01*
G75*
G02*
X595Y693I14J-14D01*
G01*
X636D01*
G75*
G02*
X625Y736I32J31D01*
G01*
G75*
G02*
X624Y736I-1J20D01*
G01*
X592D01*
X552Y695D01*
G75*
G02*
X561Y668I-35J-27D01*
G01*
G37*
X592Y776D02*
X616D01*
X633Y793D01*
G75*
G02*
X625Y810I18J19D01*
G01*
X592Y776D01*
G36*
X592Y776D02*
X616D01*
X633Y793D01*
G75*
G02*
X625Y810I18J19D01*
G01*
X592Y776D01*
G37*
X602Y1304D02*
Y1297D01*
X608D01*
G75*
G02*
X634Y1271I0J-26D01*
G01*
Y1068D01*
G75*
G02*
X635Y1059I-25J-9D01*
G01*
Y1017D01*
G75*
G02*
X639Y1004I-23J-13D01*
G01*
Y1004D01*
Y1004D01*
Y965D01*
X770Y1096D01*
Y1159D01*
G75*
G02*
X776Y1173I20J0D01*
G01*
X782Y1180D01*
X759D01*
X739Y1160D01*
G75*
G02*
X710Y1067I-30J-42D01*
G01*
G75*
G02*
X691Y1166I0J51D01*
G01*
G75*
G02*
X695Y1173I19J-7D01*
G01*
X736Y1214D01*
X736Y1214D01*
X649D01*
Y1255D01*
G75*
G02*
X647Y1264I18J9D01*
G01*
Y1276D01*
X619Y1304D01*
X602D01*
G36*
X602Y1304D02*
Y1297D01*
X608D01*
G75*
G02*
X634Y1271I0J-26D01*
G01*
Y1068D01*
G75*
G02*
X635Y1059I-25J-9D01*
G01*
Y1017D01*
G75*
G02*
X639Y1004I-23J-13D01*
G01*
Y1004D01*
Y1004D01*
Y965D01*
X770Y1096D01*
Y1159D01*
G75*
G02*
X776Y1173I20J0D01*
G01*
X782Y1180D01*
X759D01*
X739Y1160D01*
G75*
G02*
X710Y1067I-30J-42D01*
G01*
G75*
G02*
X691Y1166I0J51D01*
G01*
G75*
G02*
X695Y1173I19J-7D01*
G01*
X736Y1214D01*
X736Y1214D01*
X649D01*
Y1255D01*
G75*
G02*
X647Y1264I18J9D01*
G01*
Y1276D01*
X619Y1304D01*
X602D01*
G37*
Y1410D02*
Y1374D01*
X648D01*
Y1413D01*
X648D01*
Y1441D01*
X634D01*
X602Y1410D01*
G36*
X602Y1410D02*
Y1374D01*
X648D01*
Y1413D01*
X648D01*
Y1441D01*
X634D01*
X602Y1410D01*
G37*
X609Y324D02*
X642Y291D01*
G75*
G02*
X647Y282I-14J-14D01*
G01*
G75*
G02*
X663Y295I40J-30D01*
G01*
X663Y296D01*
X691Y324D01*
X609D01*
G36*
X609Y324D02*
X642Y291D01*
G75*
G02*
X647Y282I-14J-14D01*
G01*
G75*
G02*
X663Y295I40J-30D01*
G01*
X663Y296D01*
X691Y324D01*
X609D01*
G37*
X648Y150D02*
Y129D01*
X662Y115D01*
X904D01*
G75*
G02*
X900Y128I23J13D01*
G01*
G75*
G02*
X953I26J0D01*
G01*
G75*
G02*
X949Y115I-26J0D01*
G01*
X1452D01*
G75*
G02*
X1443Y135I17J20D01*
G01*
G75*
G02*
X1495I26J0D01*
G01*
G75*
G02*
X1486Y115I-26J0D01*
G01*
X1789D01*
G75*
G02*
X1780Y141I17J20D01*
G01*
X1675D01*
Y255D01*
G75*
G02*
X1665Y253I-10J24D01*
G01*
X1448D01*
G75*
G02*
X1432Y258I0J26D01*
G01*
Y141D01*
X1325D01*
Y267D01*
X1423D01*
X1412Y278D01*
X1317D01*
Y151D01*
X1229D01*
Y189D01*
X1205D01*
G75*
G02*
X1186Y197I0J26D01*
G01*
X1176Y207D01*
X1163D01*
G75*
G02*
X1170Y189I-19J-18D01*
G01*
G75*
G02*
X1118I-26J0D01*
G01*
G75*
G02*
X1125Y207I26J0D01*
G01*
X892D01*
G75*
G02*
X884Y208I0J26D01*
G01*
G75*
G02*
X889Y194I-22J-14D01*
G01*
G75*
G02*
X836Y192I-26J0D01*
G01*
Y181D01*
G75*
G02*
X737I-50J0D01*
G01*
Y252D01*
G75*
G02*
X753Y289I50J0D01*
G01*
X729D01*
X724Y284D01*
G75*
G02*
X736Y252I-38J-32D01*
G01*
Y181D01*
G75*
G02*
X648Y150I-50J0D01*
G01*
G36*
X648Y150D02*
Y129D01*
X662Y115D01*
X904D01*
G75*
G02*
X900Y128I23J13D01*
G01*
G75*
G02*
X953I26J0D01*
G01*
G75*
G02*
X949Y115I-26J0D01*
G01*
X1452D01*
G75*
G02*
X1443Y135I17J20D01*
G01*
G75*
G02*
X1495I26J0D01*
G01*
G75*
G02*
X1486Y115I-26J0D01*
G01*
X1789D01*
G75*
G02*
X1780Y141I17J20D01*
G01*
X1675D01*
Y255D01*
G75*
G02*
X1665Y253I-10J24D01*
G01*
X1448D01*
G75*
G02*
X1432Y258I0J26D01*
G01*
Y141D01*
X1325D01*
Y267D01*
X1423D01*
X1412Y278D01*
X1317D01*
Y151D01*
X1229D01*
Y189D01*
X1205D01*
G75*
G02*
X1186Y197I0J26D01*
G01*
X1176Y207D01*
X1163D01*
G75*
G02*
X1170Y189I-19J-18D01*
G01*
G75*
G02*
X1118I-26J0D01*
G01*
G75*
G02*
X1125Y207I26J0D01*
G01*
X892D01*
G75*
G02*
X884Y208I0J26D01*
G01*
G75*
G02*
X889Y194I-22J-14D01*
G01*
G75*
G02*
X836Y192I-26J0D01*
G01*
Y181D01*
G75*
G02*
X737I-50J0D01*
G01*
Y252D01*
G75*
G02*
X753Y289I50J0D01*
G01*
X729D01*
X724Y284D01*
G75*
G02*
X736Y252I-38J-32D01*
G01*
Y181D01*
G75*
G02*
X648Y150I-50J0D01*
G01*
G37*
X665Y934D02*
Y888D01*
G75*
G02*
X761Y862I44J-26D01*
G01*
G75*
G02*
X673Y826I-51J0D01*
G01*
G75*
G02*
X675Y800I-22J-14D01*
G01*
X750D01*
G75*
G02*
X761Y803I12J-16D01*
G01*
X949D01*
G75*
G02*
X982Y803I17J-20D01*
G01*
Y1074D01*
G75*
G02*
X988Y1088I20J0D01*
G01*
X1048Y1148D01*
G75*
G02*
X1063Y1154I14J-14D01*
G01*
X1114D01*
G75*
G02*
X1113Y1155I14J15D01*
G01*
X1063Y1205D01*
G75*
G02*
X1057Y1219I14J14D01*
G01*
Y1260D01*
G75*
G02*
X1057Y1259I-15J14D01*
G01*
X957Y1159D01*
G75*
G02*
X943Y1153I-14J14D01*
G01*
X925D01*
G75*
G02*
X888Y1067I-37J-35D01*
G01*
G75*
G02*
X850Y1153I0J51D01*
G01*
X813D01*
X810Y1150D01*
Y1088D01*
G75*
G02*
X804Y1073I-20J0D01*
G01*
X665Y934D01*
X992Y1166D02*
G75*
G02*
X1045I26J0D01*
G01*
G75*
G02*
X992I-26J0D01*
G01*
X836Y862D02*
G75*
G02*
X939I51J0D01*
G01*
G75*
G02*
X836I-51J0D01*
G01*
X678Y812D02*
G36*
X678Y812D02*
G75*
G02*
X676Y802I-26J0D01*
G01*
X754D01*
G75*
G02*
X761Y803I7J-19D01*
G01*
X949D01*
G75*
G02*
X982Y803I17J-20D01*
G01*
Y862D01*
X939D01*
G75*
G02*
X836I-51J0D01*
G01*
X761D01*
G75*
G02*
X673Y826I-51J0D01*
G01*
G75*
G02*
X678Y812I-22J-14D01*
G01*
G37*
X668Y937D02*
G36*
X668Y937D02*
Y892D01*
G75*
G02*
X761Y862I42J-30D01*
G01*
X836D01*
G75*
G02*
X939I51J0D01*
G01*
X982D01*
Y1074D01*
G75*
G02*
X988Y1088I20J0D01*
G01*
X1048Y1148D01*
G75*
G02*
X1063Y1154I14J-14D01*
G01*
X1111D01*
Y1157D01*
X1102Y1166D01*
X1045D01*
G75*
G02*
X992I-26J0D01*
G01*
X964D01*
X957Y1159D01*
G75*
G02*
X943Y1153I-14J14D01*
G01*
X925D01*
G75*
G02*
X939Y1118I-37J-35D01*
G01*
G75*
G02*
X888Y1067I-51J0D01*
G01*
G75*
G02*
X836Y1118I0J51D01*
G01*
G75*
G02*
X850Y1153I51J0D01*
G01*
X813D01*
X810Y1150D01*
Y1088D01*
G75*
G02*
X804Y1073I-20J0D01*
G01*
X668Y937D01*
G37*
X964Y1166D02*
G36*
X964Y1166D02*
X992D01*
G75*
G02*
X1045I26J0D01*
G01*
X1102D01*
X1063Y1205D01*
G75*
G02*
X1057Y1219I14J14D01*
G01*
Y1257D01*
X1055D01*
X964Y1166D01*
G37*
X666Y1314D02*
X667Y1313D01*
X768D01*
Y1220D01*
X799D01*
Y1313D01*
X918D01*
Y1298D01*
X952Y1332D01*
Y1370D01*
X937Y1355D01*
G75*
G02*
X923Y1349I-14J14D01*
G01*
X917D01*
Y1314D01*
X798D01*
Y1413D01*
X798D01*
Y1509D01*
X767D01*
Y1412D01*
X767D01*
Y1314D01*
X666D01*
G36*
X666Y1314D02*
X667Y1313D01*
X768D01*
Y1220D01*
X799D01*
Y1313D01*
X918D01*
Y1298D01*
X952Y1332D01*
Y1370D01*
X937Y1355D01*
G75*
G02*
X923Y1349I-14J14D01*
G01*
X917D01*
Y1314D01*
X798D01*
Y1413D01*
X798D01*
Y1509D01*
X767D01*
Y1412D01*
X767D01*
Y1314D01*
X666D01*
G37*
X682Y1677D02*
Y1661D01*
X733D01*
G75*
G02*
X746Y1657I0J-24D01*
G01*
Y1662D01*
X711D01*
Y1700D01*
G75*
G02*
X703Y1698I-11J24D01*
G01*
X682Y1677D01*
G36*
X682Y1677D02*
Y1661D01*
X733D01*
G75*
G02*
X746Y1657I0J-24D01*
G01*
Y1662D01*
X711D01*
Y1700D01*
G75*
G02*
X703Y1698I-11J24D01*
G01*
X682Y1677D01*
G37*
X758Y759D02*
X755D01*
G75*
G02*
X767Y744I-27J-35D01*
G01*
X798D01*
G75*
G02*
X812Y738I0J-20D01*
G01*
X830Y721D01*
G75*
G02*
X836Y707I-14J-14D01*
G01*
Y633D01*
X871Y598D01*
X883D01*
Y630D01*
X862Y651D01*
G75*
G02*
X839Y677I3J26D01*
G01*
G75*
G02*
X891Y679I26J0D01*
G01*
X918Y652D01*
X982D01*
Y763D01*
G75*
G02*
X949Y763I-17J20D01*
G01*
X769D01*
G75*
G02*
X758Y759I-12J16D01*
G01*
G36*
X758Y759D02*
X755D01*
G75*
G02*
X767Y744I-27J-35D01*
G01*
X798D01*
G75*
G02*
X812Y738I0J-20D01*
G01*
X830Y721D01*
G75*
G02*
X836Y707I-14J-14D01*
G01*
Y633D01*
X871Y598D01*
X883D01*
Y630D01*
X862Y651D01*
G75*
G02*
X839Y677I3J26D01*
G01*
G75*
G02*
X891Y679I26J0D01*
G01*
X918Y652D01*
X982D01*
Y763D01*
G75*
G02*
X949Y763I-17J20D01*
G01*
X769D01*
G75*
G02*
X758Y759I-12J16D01*
G01*
G37*
X765Y648D02*
G75*
G02*
X770Y637I-38J-24D01*
G01*
X772D01*
G75*
G02*
X787Y631I0J-20D01*
G01*
X795Y623D01*
G75*
G02*
X795Y625I20J2D01*
G01*
Y666D01*
G75*
G02*
X765Y648I-25J7D01*
G01*
G36*
X765Y648D02*
G75*
G02*
X770Y637I-38J-24D01*
G01*
X772D01*
G75*
G02*
X787Y631I0J-20D01*
G01*
X795Y623D01*
G75*
G02*
X795Y625I20J2D01*
G01*
Y666D01*
G75*
G02*
X765Y648I-25J7D01*
G01*
G37*
X809Y513D02*
Y497D01*
G75*
G02*
X809Y487I-20J-5D01*
G01*
Y452D01*
X863Y398D01*
X883D01*
Y407D01*
X882D01*
G75*
G02*
X868Y413I0J20D01*
G01*
X821Y460D01*
G75*
G02*
X815Y474I14J14D01*
G01*
Y505D01*
G75*
G02*
X814Y505I18J9D01*
G01*
G75*
G02*
X809Y513I18J19D01*
G01*
G36*
X809Y513D02*
Y497D01*
G75*
G02*
X809Y487I-20J-5D01*
G01*
Y452D01*
X863Y398D01*
X883D01*
Y407D01*
X882D01*
G75*
G02*
X868Y413I0J20D01*
G01*
X821Y460D01*
G75*
G02*
X815Y474I14J14D01*
G01*
Y505D01*
G75*
G02*
X814Y505I18J9D01*
G01*
G75*
G02*
X809Y513I18J19D01*
G01*
G37*
Y601D02*
Y535D01*
G75*
G02*
X859Y524I24J-11D01*
G01*
G75*
G02*
X855Y511I-26J0D01*
G01*
Y483D01*
X883Y455D01*
Y558D01*
X863D01*
G75*
G02*
X848Y563I0J20D01*
G01*
X809Y603D01*
G75*
G02*
X809Y601I-20J-2D01*
G01*
Y601D01*
Y601D01*
G36*
X809Y601D02*
Y535D01*
G75*
G02*
X859Y524I24J-11D01*
G01*
G75*
G02*
X855Y511I-26J0D01*
G01*
Y483D01*
X883Y455D01*
Y558D01*
X863D01*
G75*
G02*
X848Y563I0J20D01*
G01*
X809Y603D01*
G75*
G02*
X809Y601I-20J-2D01*
G01*
Y601D01*
Y601D01*
G37*
X836Y252D02*
Y196D01*
G75*
G02*
X869Y219I26J-2D01*
G01*
X836Y252D01*
Y252D01*
G36*
X836Y252D02*
Y196D01*
G75*
G02*
X869Y219I26J-2D01*
G01*
X836Y252D01*
Y252D01*
G37*
X917Y1511D02*
Y1490D01*
X977Y1550D01*
X940D01*
Y1542D01*
G75*
G02*
X934Y1527I-20J0D01*
G01*
X922Y1515D01*
G75*
G02*
X917Y1511I-14J14D01*
G01*
X917D01*
G36*
X917Y1511D02*
Y1490D01*
X977Y1550D01*
X940D01*
Y1542D01*
G75*
G02*
X934Y1527I-20J0D01*
G01*
X922Y1515D01*
G75*
G02*
X917Y1511I-14J14D01*
G01*
X917D01*
G37*
X918Y1249D02*
Y1234D01*
X987Y1303D01*
Y1310D01*
X932Y1255D01*
G75*
G02*
X918Y1249I-14J14D01*
G01*
G36*
X918Y1249D02*
Y1234D01*
X987Y1303D01*
Y1310D01*
X932Y1255D01*
G75*
G02*
X918Y1249I-14J14D01*
G01*
G37*
X980Y1574D02*
Y1553D01*
X988Y1562D01*
G75*
G02*
X1003Y1567I14J-14D01*
G01*
X1140D01*
Y1569D01*
X1212D01*
Y1574D01*
X980D01*
G36*
X980Y1574D02*
Y1553D01*
X988Y1562D01*
G75*
G02*
X1003Y1567I14J-14D01*
G01*
X1140D01*
Y1569D01*
X1212D01*
Y1574D01*
X980D01*
G37*
Y1639D02*
Y1614D01*
X1212D01*
Y1654D01*
X1189D01*
X1160Y1625D01*
G75*
G02*
X1145Y1619I-14J14D01*
G01*
X1008D01*
G75*
G02*
X993Y1625I0J20D01*
G01*
X980Y1639D01*
G36*
X980Y1639D02*
Y1614D01*
X1212D01*
Y1654D01*
X1189D01*
X1160Y1625D01*
G75*
G02*
X1145Y1619I-14J14D01*
G01*
X1008D01*
G75*
G02*
X993Y1625I0J20D01*
G01*
X980Y1639D01*
G37*
Y1755D02*
Y1729D01*
G75*
G02*
X985Y1726I-9J-18D01*
G01*
X997Y1713D01*
G75*
G02*
X1003Y1699I-14J-14D01*
G01*
Y1672D01*
X1016Y1659D01*
X1137D01*
X1166Y1688D01*
G75*
G02*
X1180Y1694I14J-14D01*
G01*
X1245D01*
G75*
G02*
X1260Y1688I0J-20D01*
G01*
X1280Y1668D01*
G75*
G02*
X1286Y1657I-14J-14D01*
G01*
X1340D01*
Y1662D01*
X1298D01*
Y1699D01*
X1047D01*
G75*
G02*
X1028Y1707I0J26D01*
G01*
X1021Y1714D01*
G75*
G02*
X1016Y1718I14J22D01*
G01*
X980Y1755D01*
G36*
X980Y1755D02*
Y1729D01*
G75*
G02*
X985Y1726I-9J-18D01*
G01*
X997Y1713D01*
G75*
G02*
X1003Y1699I-14J-14D01*
G01*
Y1672D01*
X1016Y1659D01*
X1137D01*
X1166Y1688D01*
G75*
G02*
X1180Y1694I14J-14D01*
G01*
X1245D01*
G75*
G02*
X1260Y1688I0J-20D01*
G01*
X1280Y1668D01*
G75*
G02*
X1286Y1657I-14J-14D01*
G01*
X1340D01*
Y1662D01*
X1298D01*
Y1699D01*
X1047D01*
G75*
G02*
X1028Y1707I0J26D01*
G01*
X1021Y1714D01*
G75*
G02*
X1016Y1718I14J22D01*
G01*
X980Y1755D01*
G37*
X990Y412D02*
Y322D01*
X997Y329D01*
X1013Y344D01*
Y365D01*
Y365D01*
Y365D01*
G75*
G02*
X1020Y384I26J0D01*
G01*
X1033Y396D01*
G75*
G02*
X1041Y402I18J-18D01*
G01*
G75*
G02*
X1023Y427I7J25D01*
G01*
G75*
G02*
X1023Y430I26J0D01*
G01*
X1011Y418D01*
G75*
G02*
X996Y412I-14J14D01*
G01*
X990D01*
G36*
X990Y412D02*
Y322D01*
X997Y329D01*
X1013Y344D01*
Y365D01*
Y365D01*
Y365D01*
G75*
G02*
X1020Y384I26J0D01*
G01*
X1033Y396D01*
G75*
G02*
X1041Y402I18J-18D01*
G01*
G75*
G02*
X1023Y427I7J25D01*
G01*
G75*
G02*
X1023Y430I26J0D01*
G01*
X1011Y418D01*
G75*
G02*
X996Y412I-14J14D01*
G01*
X990D01*
G37*
Y560D02*
Y454D01*
X1014Y478D01*
Y520D01*
G75*
G02*
X1017Y532I20J0D01*
G01*
Y579D01*
X1004Y565D01*
G75*
G02*
X990Y560I-14J14D01*
G01*
G36*
X990Y560D02*
Y454D01*
X1014Y478D01*
Y520D01*
G75*
G02*
X1017Y532I20J0D01*
G01*
Y579D01*
X1004Y565D01*
G75*
G02*
X990Y560I-14J14D01*
G01*
G37*
X1023Y1066D02*
Y998D01*
X1133Y1108D01*
G75*
G02*
X1116Y1114I0J26D01*
G01*
X1071D01*
X1023Y1066D01*
G36*
X1023Y1066D02*
Y998D01*
X1133Y1108D01*
G75*
G02*
X1116Y1114I0J26D01*
G01*
X1071D01*
X1023Y1066D01*
G37*
X1048Y455D02*
X1046Y453D01*
G75*
G02*
X1064Y448I2J-26D01*
G01*
Y652D01*
X1097D01*
Y732D01*
X1071Y758D01*
G75*
G02*
X1058Y763I3J26D01*
G01*
Y524D01*
G75*
G02*
X1054Y512I-20J0D01*
G01*
Y469D01*
G75*
G02*
X1048Y455I-20J0D01*
G01*
G36*
X1048Y455D02*
X1046Y453D01*
G75*
G02*
X1064Y448I2J-26D01*
G01*
Y652D01*
X1097D01*
Y732D01*
X1071Y758D01*
G75*
G02*
X1058Y763I3J26D01*
G01*
Y524D01*
G75*
G02*
X1054Y512I-20J0D01*
G01*
Y469D01*
G75*
G02*
X1048Y455I-20J0D01*
G01*
G37*
X1058Y976D02*
Y805D01*
G75*
G02*
X1099Y787I15J-21D01*
G01*
X1112Y774D01*
Y924D01*
G75*
G02*
X1063Y938I-22J14D01*
G01*
G75*
G02*
X1112Y952I26J0D01*
G01*
Y1029D01*
X1058Y976D01*
G36*
X1058Y976D02*
Y805D01*
G75*
G02*
X1099Y787I15J-21D01*
G01*
X1112Y774D01*
Y924D01*
G75*
G02*
X1063Y938I-22J14D01*
G01*
G75*
G02*
X1112Y952I26J0D01*
G01*
Y1029D01*
X1058Y976D01*
G37*
X1098Y1312D02*
Y1227D01*
X1136Y1189D01*
X1140D01*
Y1311D01*
G75*
G02*
X1098Y1312I-21J16D01*
G01*
G36*
X1098Y1312D02*
Y1227D01*
X1136Y1189D01*
X1140D01*
Y1311D01*
G75*
G02*
X1098Y1312I-21J16D01*
G01*
G37*
Y1351D02*
Y1341D01*
G75*
G02*
X1140Y1342I22J-15D01*
G01*
Y1370D01*
X1117D01*
X1098Y1351D01*
G36*
X1098Y1351D02*
Y1341D01*
G75*
G02*
X1140Y1342I22J-15D01*
G01*
Y1370D01*
X1117D01*
X1098Y1351D01*
G37*
X1138Y726D02*
Y652D01*
X1171D01*
Y475D01*
G75*
G02*
X1172Y476I19J-17D01*
G01*
X1224Y528D01*
Y532D01*
X1181Y575D01*
G75*
G02*
X1174Y592I17J17D01*
G01*
Y597D01*
G75*
G02*
X1200Y633I24J10D01*
G01*
X1181Y651D01*
G75*
G02*
X1175Y666I14J14D01*
G01*
Y689D01*
X1138Y726D01*
G36*
X1138Y726D02*
Y652D01*
X1171D01*
Y475D01*
G75*
G02*
X1172Y476I19J-17D01*
G01*
X1224Y528D01*
Y532D01*
X1181Y575D01*
G75*
G02*
X1174Y592I17J17D01*
G01*
Y597D01*
G75*
G02*
X1200Y633I24J10D01*
G01*
X1181Y651D01*
G75*
G02*
X1175Y666I14J14D01*
G01*
Y689D01*
X1138Y726D01*
G37*
X1171Y339D02*
Y318D01*
X1176Y323D01*
G75*
G02*
X1194Y330I18J-18D01*
G01*
X1423D01*
G75*
G02*
X1436Y327I0J-26D01*
G01*
G75*
G02*
X1499Y322I32J-5D01*
G01*
G75*
G02*
X1494Y305I-32J0D01*
G01*
X1613D01*
G75*
G02*
X1608Y322I27J17D01*
G01*
G75*
G02*
X1672Y324I32J0D01*
G01*
X1680Y331D01*
G75*
G02*
X1698Y339I18J-18D01*
G01*
X1822D01*
X1839Y356D01*
G75*
G02*
X1853Y363I18J-18D01*
G01*
X1883Y393D01*
X1783D01*
Y358D01*
X1675D01*
Y408D01*
G75*
G02*
X1639Y411I-16J20D01*
G01*
Y365D01*
X1469D01*
Y410D01*
G75*
G02*
X1463Y425I19J15D01*
G01*
Y466D01*
X1424Y506D01*
G75*
G02*
X1417Y523I17J17D01*
G01*
Y562D01*
G75*
G02*
X1384Y562I-16J20D01*
G01*
X1369D01*
G75*
G02*
X1356Y567I0J20D01*
G01*
X1274D01*
G75*
G02*
X1260Y573I0J20D01*
G01*
X1224Y609D01*
G75*
G02*
X1224Y607I-26J-2D01*
G01*
G75*
G02*
X1223Y601I-26J0D01*
G01*
X1265Y559D01*
G75*
G02*
X1272Y542I-17J-17D01*
G01*
Y525D01*
G75*
G02*
X1267Y496I-24J-10D01*
G01*
X1230Y459D01*
X1317D01*
Y331D01*
X1229D01*
Y458D01*
X1217Y447D01*
Y356D01*
G75*
G02*
X1171Y339I-26J0D01*
G01*
X1297Y525D02*
G75*
G02*
X1349I26J0D01*
G01*
G75*
G02*
X1297I-26J0D01*
G01*
X1325Y484D02*
X1432D01*
Y358D01*
X1325D01*
Y484D01*
X1174Y336D02*
G36*
X1174Y336D02*
Y320D01*
X1176Y323D01*
G75*
G02*
X1194Y330I18J-18D01*
G01*
X1423D01*
G75*
G02*
X1436Y327I0J-26D01*
G01*
G75*
G02*
X1499Y322I32J-5D01*
G01*
Y322D01*
Y322D01*
G75*
G02*
X1496Y308I-32J0D01*
G01*
X1612D01*
G75*
G02*
X1608Y322I29J14D01*
G01*
Y322D01*
G75*
G02*
X1672Y324I32J0D01*
G01*
X1680Y331D01*
G75*
G02*
X1698Y339I18J-18D01*
G01*
X1822D01*
X1839Y356D01*
G75*
G02*
X1853Y363I18J-18D01*
G01*
X1880Y390D01*
Y393D01*
X1783D01*
Y358D01*
X1675D01*
Y408D01*
G75*
G02*
X1639Y411I-16J20D01*
G01*
Y365D01*
X1469D01*
Y410D01*
G75*
G02*
X1464Y421I19J15D01*
G01*
X1432D01*
Y358D01*
X1325D01*
Y421D01*
X1317D01*
Y331D01*
X1229D01*
Y421D01*
X1217D01*
Y356D01*
G75*
G02*
X1174Y336I-26J0D01*
G01*
G37*
X1217Y447D02*
G36*
X1217Y447D02*
Y421D01*
X1229D01*
Y458D01*
X1217Y447D01*
G37*
X1267Y496D02*
G36*
X1267Y496D02*
X1230Y459D01*
X1317D01*
Y421D01*
X1325D01*
Y484D01*
X1432D01*
Y421D01*
X1464D01*
G75*
G02*
X1463Y425I24J4D01*
G01*
Y466D01*
X1424Y506D01*
G75*
G02*
X1417Y523I17J17D01*
G01*
Y523D01*
Y525D01*
X1349D01*
G75*
G02*
X1297I-26J0D01*
G01*
X1272D01*
Y525D01*
G75*
G02*
X1274Y515I-24J-10D01*
G01*
G75*
G02*
X1267Y496I-26J0D01*
G01*
G37*
X1224Y606D02*
G36*
X1224Y606D02*
G75*
G02*
X1223Y601I-26J1D01*
G01*
X1265Y559D01*
G75*
G02*
X1272Y542I-17J-17D01*
G01*
Y542D01*
Y525D01*
X1297D01*
G75*
G02*
X1349I26J0D01*
G01*
X1417D01*
Y562D01*
G75*
G02*
X1384Y562I-16J20D01*
G01*
X1369D01*
G75*
G02*
X1356Y567I0J20D01*
G01*
X1274D01*
G75*
G02*
X1260Y573I0J20D01*
G01*
X1227Y606D01*
X1224D01*
G37*
X1172Y1179D02*
X1182Y1168D01*
G75*
G02*
X1188Y1154I-14J-14D01*
G01*
Y1154D01*
Y1154D01*
Y1125D01*
X1212Y1149D01*
Y1179D01*
X1172D01*
G36*
X1172Y1179D02*
X1182Y1168D01*
G75*
G02*
X1188Y1154I-14J-14D01*
G01*
Y1154D01*
Y1154D01*
Y1125D01*
X1212Y1149D01*
Y1179D01*
X1172D01*
G37*
X1178Y926D02*
Y814D01*
G75*
G02*
X1188Y821I20J-17D01*
G01*
X1195Y828D01*
G75*
G02*
X1212Y835I17J-17D01*
G01*
X1230D01*
Y940D01*
X1329D01*
Y917D01*
X1374D01*
Y920D01*
X1451D01*
Y873D01*
X1446D01*
G75*
G02*
X1450Y865I-19J-14D01*
G01*
X1450Y866D01*
G75*
G02*
X1473Y881I22J-9D01*
G01*
X1484D01*
G75*
G02*
X1502Y920I17J16D01*
G01*
X1510D01*
G75*
G02*
X1517Y921I6J-23D01*
G01*
X1584D01*
Y962D01*
X1561D01*
G75*
G02*
X1544Y969I0J24D01*
G01*
X1510Y1003D01*
X1433D01*
Y1024D01*
X1408D01*
Y951D01*
X1317D01*
Y1051D01*
X1340D01*
Y1077D01*
G75*
G02*
X1339Y1086I22J9D01*
G01*
Y1092D01*
X1316D01*
G75*
G02*
X1298Y1047I-18J-19D01*
G01*
Y951D01*
X1222D01*
G75*
G02*
X1178Y926I-25J-6D01*
G01*
X1458Y969D02*
G75*
G02*
X1510I26J0D01*
G01*
G75*
G02*
X1458I-26J0D01*
G01*
X1181Y924D02*
G36*
X1181Y924D02*
Y816D01*
G75*
G02*
X1188Y821I17J-20D01*
G01*
X1195Y828D01*
G75*
G02*
X1212Y835I17J-17D01*
G01*
X1230D01*
Y940D01*
X1329D01*
Y917D01*
X1374D01*
Y920D01*
X1451D01*
Y873D01*
X1446D01*
G75*
G02*
X1450Y865I-19J-14D01*
G01*
X1450Y866D01*
G75*
G02*
X1473Y881I22J-9D01*
G01*
X1484D01*
G75*
G02*
X1478Y897I17J16D01*
G01*
G75*
G02*
X1502Y920I23J0D01*
G01*
X1510D01*
G75*
G02*
X1517Y921I6J-23D01*
G01*
X1582D01*
Y962D01*
X1561D01*
G75*
G02*
X1545Y969I0J24D01*
G01*
X1510D01*
G75*
G02*
X1458I-26J0D01*
G01*
X1408D01*
Y951D01*
X1317D01*
Y969D01*
X1298D01*
Y951D01*
X1222D01*
G75*
G02*
X1222Y945I-25J-6D01*
G01*
G75*
G02*
X1181Y924I-26J0D01*
G01*
G37*
X1298Y1047D02*
G36*
X1298Y1047D02*
Y969D01*
X1317D01*
Y1051D01*
X1340D01*
Y1077D01*
G75*
G02*
X1339Y1086I22J9D01*
G01*
Y1089D01*
X1318D01*
G75*
G02*
X1324Y1073I-20J-16D01*
G01*
G75*
G02*
X1298Y1047I-26J0D01*
G01*
G37*
X1408Y1024D02*
G36*
X1408Y1024D02*
Y969D01*
X1458D01*
G75*
G02*
X1510I26J0D01*
G01*
X1545D01*
G75*
G02*
X1544Y969I16J18D01*
G01*
X1510Y1003D01*
X1433D01*
Y1024D01*
X1408D01*
G37*
X1178Y1018D02*
Y964D01*
G75*
G02*
X1207Y969I18J-19D01*
G01*
Y1048D01*
X1192Y1033D01*
G75*
G02*
X1189Y1028I-18J10D01*
G01*
X1178Y1018D01*
G36*
X1178Y1018D02*
Y964D01*
G75*
G02*
X1207Y969I18J-19D01*
G01*
Y1048D01*
X1192Y1033D01*
G75*
G02*
X1189Y1028I-18J10D01*
G01*
X1178Y1018D01*
G37*
X1187Y259D02*
X1189D01*
G75*
G02*
X1214Y243I0J-26D01*
G01*
X1215Y241D01*
X1229D01*
Y278D01*
X1205D01*
X1187Y259D01*
G36*
X1187Y259D02*
X1189D01*
G75*
G02*
X1214Y243I0J-26D01*
G01*
X1215Y241D01*
X1229D01*
Y278D01*
X1205D01*
X1187Y259D01*
G37*
X1216Y1057D02*
X1210Y1051D01*
X1284D01*
G75*
G02*
X1271Y1070I14J22D01*
G01*
X1265Y1063D01*
G75*
G02*
X1251Y1057I-14J14D01*
G01*
X1216D01*
G36*
X1216Y1057D02*
X1210Y1051D01*
X1284D01*
G75*
G02*
X1271Y1070I14J22D01*
G01*
X1265Y1063D01*
G75*
G02*
X1251Y1057I-14J14D01*
G01*
X1216D01*
G37*
X1222Y786D02*
G75*
G02*
X1183Y775I-24J10D01*
G01*
X1230Y729D01*
Y786D01*
X1222D01*
G36*
X1222Y786D02*
G75*
G02*
X1183Y775I-24J10D01*
G01*
X1230Y729D01*
Y786D01*
X1222D01*
G37*
X1260Y671D02*
X1294Y637D01*
X1329D01*
Y654D01*
G75*
G02*
X1323Y658I8J19D01*
G01*
X1310Y671D01*
X1260D01*
G36*
X1260Y671D02*
X1294Y637D01*
X1329D01*
Y654D01*
G75*
G02*
X1323Y658I8J19D01*
G01*
X1310Y671D01*
X1260D01*
G37*
X1268Y1253D02*
Y1235D01*
G75*
G02*
X1267Y1183I-5J-26D01*
G01*
X1532D01*
G75*
G02*
X1538Y1230I15J22D01*
G01*
X1482D01*
G75*
G02*
X1484Y1221I-25J-8D01*
G01*
G75*
G02*
X1432I-26J0D01*
G01*
G75*
G02*
X1433Y1230I26J0D01*
G01*
X1382D01*
G75*
G02*
X1386Y1217I-23J-13D01*
G01*
X1386Y1216D01*
X1386Y1216D01*
G75*
G02*
X1334I-26J0D01*
G01*
X1334Y1216D01*
X1334Y1217D01*
G75*
G02*
X1337Y1229I26J0D01*
G01*
X1297D01*
G75*
G02*
X1287Y1234I0J15D01*
G01*
X1268Y1253D01*
G36*
X1268Y1253D02*
Y1235D01*
G75*
G02*
X1267Y1183I-5J-26D01*
G01*
X1532D01*
G75*
G02*
X1538Y1230I15J22D01*
G01*
X1482D01*
G75*
G02*
X1484Y1221I-25J-8D01*
G01*
G75*
G02*
X1432I-26J0D01*
G01*
G75*
G02*
X1433Y1230I26J0D01*
G01*
X1382D01*
G75*
G02*
X1386Y1217I-23J-13D01*
G01*
X1386Y1216D01*
X1386Y1216D01*
G75*
G02*
X1334I-26J0D01*
G01*
X1334Y1216D01*
X1334Y1217D01*
G75*
G02*
X1337Y1229I26J0D01*
G01*
X1297D01*
G75*
G02*
X1287Y1234I0J15D01*
G01*
X1268Y1253D01*
G37*
Y1328D02*
Y1318D01*
G75*
G02*
X1278Y1322I10J-11D01*
G01*
X1341D01*
G75*
G02*
X1356Y1307I0J-15D01*
G01*
Y1244D01*
G75*
G02*
X1355Y1242I-15J0D01*
G01*
G75*
G02*
X1362Y1243I4J-26D01*
G01*
Y1321D01*
X1454D01*
Y1247D01*
G75*
G02*
X1460Y1247I4J-26D01*
G01*
Y1321D01*
X1545D01*
Y1328D01*
X1460D01*
Y1420D01*
X1545D01*
Y1427D01*
X1460D01*
Y1518D01*
X1545D01*
Y1522D01*
X1543Y1524D01*
X1343D01*
G75*
G02*
X1329Y1530I0J20D01*
G01*
X1315Y1544D01*
G75*
G02*
X1310Y1552I14J14D01*
G01*
X1287Y1530D01*
G75*
G02*
X1273Y1524I-14J14D01*
G01*
X1271D01*
X1268Y1521D01*
Y1518D01*
X1355D01*
Y1427D01*
X1268D01*
Y1420D01*
X1355D01*
Y1328D01*
X1268D01*
X1362Y1420D02*
X1454D01*
Y1328D01*
X1362D01*
Y1420D01*
Y1518D02*
X1454D01*
Y1427D01*
X1362D01*
Y1518D01*
X1270Y1328D02*
G36*
X1270Y1328D02*
Y1320D01*
G75*
G02*
X1278Y1322I8J-13D01*
G01*
X1341D01*
G75*
G02*
X1356Y1307I0J-15D01*
G01*
Y1245D01*
X1362D01*
Y1321D01*
X1454D01*
Y1247D01*
G75*
G02*
X1460Y1247I4J-26D01*
G01*
Y1321D01*
X1542D01*
Y1328D01*
X1460D01*
Y1374D01*
X1454D01*
Y1328D01*
X1362D01*
Y1374D01*
X1355D01*
Y1328D01*
X1270D01*
G37*
Y1427D02*
G36*
X1270Y1427D02*
Y1420D01*
X1355D01*
Y1374D01*
X1362D01*
Y1420D01*
X1454D01*
Y1374D01*
X1460D01*
Y1420D01*
X1542D01*
Y1427D01*
X1460D01*
Y1472D01*
X1454D01*
Y1427D01*
X1362D01*
Y1472D01*
X1355D01*
Y1427D01*
X1270D01*
G37*
Y1523D02*
G36*
X1270Y1523D02*
Y1518D01*
X1355D01*
Y1472D01*
X1362D01*
Y1518D01*
X1454D01*
Y1472D01*
X1460D01*
Y1518D01*
X1542D01*
Y1524D01*
X1343D01*
G75*
G02*
X1329Y1530I0J20D01*
G01*
X1315Y1544D01*
G75*
G02*
X1311Y1550I14J14D01*
G01*
X1307D01*
X1287Y1530D01*
G75*
G02*
X1273Y1524I-14J14D01*
G01*
X1271D01*
X1270Y1523D01*
G37*
X1329Y786D02*
Y710D01*
X1331Y708D01*
X1405D01*
Y649D01*
G75*
G02*
X1417Y645I-3J-26D01*
G01*
Y715D01*
X1405D01*
Y712D01*
X1329D01*
Y783D01*
X1397D01*
X1404Y789D01*
G75*
G02*
X1421Y796I17J-17D01*
G01*
X1425D01*
X1427Y797D01*
X1407D01*
X1403Y793D01*
G75*
G02*
X1386Y786I-17J17D01*
G01*
X1329D01*
G36*
X1329Y786D02*
Y710D01*
X1331Y708D01*
X1405D01*
Y649D01*
G75*
G02*
X1417Y645I-3J-26D01*
G01*
Y715D01*
X1405D01*
Y712D01*
X1329D01*
Y783D01*
X1397D01*
X1404Y789D01*
G75*
G02*
X1421Y796I17J-17D01*
G01*
X1425D01*
X1427Y797D01*
X1407D01*
X1403Y793D01*
G75*
G02*
X1386Y786I-17J17D01*
G01*
X1329D01*
G37*
X1452Y755D02*
X1452Y755D01*
X1458Y749D01*
G75*
G02*
X1465Y732I-17J-17D01*
G01*
Y700D01*
X1497D01*
Y769D01*
G75*
G02*
X1492Y785I19J15D01*
G01*
Y794D01*
X1452Y755D01*
G36*
X1452Y755D02*
X1452Y755D01*
X1458Y749D01*
G75*
G02*
X1465Y732I-17J-17D01*
G01*
Y700D01*
X1497D01*
Y769D01*
G75*
G02*
X1492Y785I19J15D01*
G01*
Y794D01*
X1452Y755D01*
G37*
X1505Y607D02*
Y601D01*
X1540D01*
Y606D01*
G75*
G02*
Y639I20J17D01*
G01*
Y641D01*
X1505D01*
Y640D01*
G75*
G02*
Y607I-20J-17D01*
G01*
G36*
X1505Y607D02*
Y601D01*
X1540D01*
Y606D01*
G75*
G02*
Y639I20J17D01*
G01*
Y641D01*
X1505D01*
Y640D01*
G75*
G02*
Y607I-20J-17D01*
G01*
G37*
X1540Y800D02*
Y795D01*
G75*
G02*
X1546Y779I-19J-15D01*
G01*
Y700D01*
X1584D01*
Y641D01*
X1580D01*
Y639D01*
G75*
G02*
Y606I-20J-17D01*
G01*
Y601D01*
X1584D01*
Y542D01*
X1578D01*
Y540D01*
G75*
G02*
X1578Y538I-20J0D01*
G01*
Y504D01*
X1586Y511D01*
G75*
G02*
X1600Y517I14J-14D01*
G01*
X1643D01*
Y626D01*
X1814D01*
Y510D01*
X1803D01*
X1822Y491D01*
X1887D01*
Y601D01*
X1820Y668D01*
G75*
G02*
X1768Y671I-26J3D01*
G01*
G75*
G02*
X1791Y697I26J0D01*
G01*
X1786Y702D01*
X1737D01*
G75*
G02*
X1701Y727I-9J24D01*
G01*
Y758D01*
X1690D01*
Y871D01*
X1675D01*
Y758D01*
X1600D01*
Y820D01*
X1587Y833D01*
X1551D01*
G75*
G02*
X1540Y800I-21J-11D01*
G01*
X1611Y699D02*
G75*
G02*
X1663I26J0D01*
G01*
G75*
G02*
X1611I-26J0D01*
G01*
X1578Y538D02*
G36*
X1578Y538D02*
Y504D01*
X1586Y511D01*
G75*
G02*
X1600Y517I14J-14D01*
G01*
X1643D01*
Y626D01*
X1814D01*
Y510D01*
X1803D01*
X1820Y494D01*
X1884D01*
Y604D01*
X1820Y668D01*
G75*
G02*
X1768Y671I-26J3D01*
G01*
G75*
G02*
X1791Y697I26J0D01*
G01*
X1789Y699D01*
X1663D01*
G75*
G02*
X1611I-26J0D01*
G01*
X1584D01*
Y641D01*
X1580D01*
Y639D01*
G75*
G02*
X1586Y622I-20J-17D01*
G01*
G75*
G02*
X1580Y606I-26J0D01*
G01*
Y601D01*
X1584D01*
Y542D01*
X1578D01*
Y540D01*
G75*
G02*
X1578Y538I-20J0D01*
G01*
G37*
X1542Y801D02*
G36*
X1542Y801D02*
Y791D01*
G75*
G02*
X1546Y779I-21J-12D01*
G01*
Y700D01*
X1584D01*
Y699D01*
X1611D01*
G75*
G02*
X1663I26J0D01*
G01*
X1789D01*
X1786Y702D01*
X1737D01*
G75*
G02*
X1701Y727I-9J24D01*
G01*
Y758D01*
X1690D01*
Y869D01*
X1675D01*
Y758D01*
X1600D01*
Y820D01*
X1587Y833D01*
X1551D01*
G75*
G02*
X1554Y822I-21J-11D01*
G01*
G75*
G02*
X1542Y801I-23J0D01*
G01*
G37*
X1562Y1092D02*
Y1020D01*
X1571Y1011D01*
X1613D01*
Y1092D01*
X1742D01*
Y1071D01*
G75*
G02*
X1754Y1074I12J-23D01*
G01*
Y1085D01*
X1854D01*
Y1092D01*
X1754D01*
Y1106D01*
X1649D01*
G75*
G02*
X1635Y1111I0J20D01*
G01*
X1634Y1113D01*
G75*
G02*
X1610Y1139I3J26D01*
G01*
G75*
G02*
X1661Y1146I26J0D01*
G01*
X1754D01*
Y1152D01*
X1750D01*
G75*
G02*
X1735Y1158I0J20D01*
G01*
X1721Y1172D01*
X1713D01*
G75*
G02*
X1673Y1180I-17J20D01*
G01*
Y1179D01*
X1603D01*
Y1092D01*
X1562D01*
G36*
X1562Y1092D02*
Y1020D01*
X1571Y1011D01*
X1613D01*
Y1092D01*
X1742D01*
Y1071D01*
G75*
G02*
X1754Y1074I12J-23D01*
G01*
Y1085D01*
X1854D01*
Y1092D01*
X1754D01*
Y1106D01*
X1649D01*
G75*
G02*
X1635Y1111I0J20D01*
G01*
X1634Y1113D01*
G75*
G02*
X1610Y1139I3J26D01*
G01*
G75*
G02*
X1661Y1146I26J0D01*
G01*
X1754D01*
Y1152D01*
X1750D01*
G75*
G02*
X1735Y1158I0J20D01*
G01*
X1721Y1172D01*
X1713D01*
G75*
G02*
X1673Y1180I-17J20D01*
G01*
Y1179D01*
X1603D01*
Y1092D01*
X1562D01*
G37*
X1581Y1566D02*
X1350D01*
X1351Y1565D01*
X1551D01*
G75*
G02*
X1566Y1559I0J-20D01*
G01*
X1579Y1545D01*
G75*
G02*
X1581Y1542I-14J-14D01*
G01*
Y1566D01*
G36*
X1581Y1566D02*
X1350D01*
X1351Y1565D01*
X1551D01*
G75*
G02*
X1566Y1559I0J-20D01*
G01*
X1579Y1545D01*
G75*
G02*
X1581Y1542I-14J-14D01*
G01*
Y1566D01*
G37*
X1639Y477D02*
Y445D01*
G75*
G02*
X1675Y449I20J-17D01*
G01*
Y477D01*
X1639D01*
G36*
X1639Y477D02*
Y445D01*
G75*
G02*
X1675Y449I20J-17D01*
G01*
Y477D01*
X1639D01*
G37*
X1709Y286D02*
X1690Y267D01*
X1783D01*
Y148D01*
G75*
G02*
X1832Y135I23J-13D01*
G01*
G75*
G02*
X1822Y115I-26J0D01*
G01*
X2031D01*
G75*
G02*
X2043Y111I0J-20D01*
G01*
X2090D01*
G75*
G02*
X2019Y183I66J137D01*
G01*
G75*
G02*
X1969Y135I-50J2D01*
G01*
X1898D01*
G75*
G02*
X1848Y184I0J50D01*
G01*
G75*
G02*
X1898Y234I50J0D01*
G01*
X1969D01*
G75*
G02*
X2007Y216I0J-50D01*
G01*
G75*
G02*
X2004Y248I149J32D01*
G01*
G75*
G02*
X2004Y249I152J0D01*
G01*
G75*
G02*
X1969Y235I-35J35D01*
G01*
X1898D01*
G75*
G02*
X1849Y292I0J50D01*
G01*
G75*
G02*
X1833Y286I-16J21D01*
G01*
X1709D01*
X1802Y227D02*
G75*
G02*
X1854I26J0D01*
G01*
G75*
G02*
X1802I-26J0D01*
G01*
X1783D02*
G36*
X1783Y227D02*
Y148D01*
G75*
G02*
X1832Y135I23J-13D01*
G01*
Y135D01*
G75*
G02*
X1822Y115I-26J0D01*
G01*
X2031D01*
G75*
G02*
X2038Y113I0J-20D01*
G01*
X2085D01*
G75*
G02*
X2019Y183I71J135D01*
G01*
G75*
G02*
X1969Y135I-50J2D01*
G01*
X1898D01*
G75*
G02*
X1848Y184I0J50D01*
G01*
G75*
G02*
X1873Y227I50J0D01*
G01*
X1854D01*
G75*
G02*
X1802I-26J0D01*
G01*
X1783D01*
G37*
X2005D02*
G36*
X2005Y227D02*
X1994D01*
G75*
G02*
X2007Y216I-25J-43D01*
G01*
G75*
G02*
X2005Y227I149J32D01*
G01*
G37*
X1692Y270D02*
G36*
X1692Y270D02*
Y267D01*
X1783D01*
Y227D01*
X1802D01*
G75*
G02*
X1854I26J0D01*
G01*
X1873D01*
G75*
G02*
X1898Y234I25J-43D01*
G01*
X1969D01*
G75*
G02*
X1994Y227I0J-50D01*
G01*
X2005D01*
G75*
G02*
X2004Y248I151J21D01*
G01*
Y248D01*
G75*
G02*
X2004Y249I38J0D01*
G01*
G75*
G02*
X1969Y235I-35J35D01*
G01*
X1898D01*
G75*
G02*
X1848Y284I0J50D01*
G01*
G75*
G02*
X1849Y289I50J0D01*
G01*
X1845D01*
G75*
G02*
X1833Y286I-12J23D01*
G01*
X1709D01*
X1692Y270D01*
G37*
X1718Y1003D02*
X1739Y982D01*
G75*
G02*
X1746Y970I-17J-17D01*
G01*
X1853D01*
Y874D01*
X1855D01*
Y771D01*
X1921Y836D01*
G75*
G02*
X1939Y844I18J-18D01*
G01*
X1950D01*
G75*
G02*
X1938Y857I12J23D01*
G01*
X1891Y904D01*
G75*
G02*
X1883Y922I17J17D01*
G01*
Y1054D01*
X1861D01*
Y1017D01*
X1754D01*
Y1022D01*
G75*
G02*
X1742Y1024I-1J26D01*
G01*
Y1003D01*
X1718D01*
G36*
X1718Y1003D02*
X1739Y982D01*
G75*
G02*
X1746Y970I-17J-17D01*
G01*
X1853D01*
Y874D01*
X1855D01*
Y771D01*
X1921Y836D01*
G75*
G02*
X1939Y844I18J-18D01*
G01*
X1950D01*
G75*
G02*
X1938Y857I12J23D01*
G01*
X1891Y904D01*
G75*
G02*
X1883Y922I17J17D01*
G01*
Y1054D01*
X1861D01*
Y1017D01*
X1754D01*
Y1022D01*
G75*
G02*
X1742Y1024I-1J26D01*
G01*
Y1003D01*
X1718D01*
G37*
X1731Y1378D02*
G75*
G02*
X1742Y1373I-3J-20D01*
G01*
X1769Y1345D01*
G75*
G02*
X1769Y1346I44J1D01*
G01*
Y1406D01*
G75*
G02*
X1771Y1418I44J0D01*
G01*
X1731Y1378D01*
G36*
X1731Y1378D02*
G75*
G02*
X1742Y1373I-3J-20D01*
G01*
X1769Y1345D01*
G75*
G02*
X1769Y1346I44J1D01*
G01*
Y1406D01*
G75*
G02*
X1771Y1418I44J0D01*
G01*
X1731Y1378D01*
G37*
X1754Y758D02*
Y754D01*
X1839D01*
X1839Y755D01*
X1843Y758D01*
X1780D01*
Y871D01*
X1765D01*
Y758D01*
X1754D01*
G36*
X1754Y758D02*
Y754D01*
X1839D01*
X1839Y755D01*
X1843Y758D01*
X1780D01*
Y871D01*
X1765D01*
Y758D01*
X1754D01*
G37*
X1858Y1346D02*
G75*
G02*
X1835Y1307I-44J0D01*
G01*
X1891D01*
G75*
G02*
X1869Y1346I22J38D01*
G01*
Y1406D01*
G75*
G02*
X1877Y1431I44J0D01*
G01*
Y1434D01*
X1867Y1443D01*
X1837D01*
G75*
G02*
X1858Y1406I-24J-37D01*
G01*
Y1346D01*
G36*
X1858Y1346D02*
G75*
G02*
X1835Y1307I-44J0D01*
G01*
X1891D01*
G75*
G02*
X1869Y1346I22J38D01*
G01*
Y1406D01*
G75*
G02*
X1877Y1431I44J0D01*
G01*
Y1434D01*
X1867Y1443D01*
X1837D01*
G75*
G02*
X1858Y1406I-24J-37D01*
G01*
Y1346D01*
G37*
X1884Y725D02*
G75*
G02*
X1860Y702I-26J3D01*
G01*
X1931Y631D01*
G75*
G02*
X1939Y612I-18J-18D01*
G01*
Y540D01*
G75*
G02*
X1987Y527I22J-14D01*
G01*
G75*
G02*
X1939Y513I-26J0D01*
G01*
Y491D01*
X2047D01*
Y417D01*
X2086Y457D01*
Y483D01*
X2046Y523D01*
G75*
G02*
X2039Y535I17J17D01*
G01*
X1945Y630D01*
G75*
G02*
X1938Y647I17J17D01*
G01*
Y761D01*
G75*
G02*
X1937Y779I24J10D01*
G01*
X1884Y725D01*
G36*
X1884Y725D02*
G75*
G02*
X1860Y702I-26J3D01*
G01*
X1931Y631D01*
G75*
G02*
X1939Y612I-18J-18D01*
G01*
Y540D01*
G75*
G02*
X1987Y527I22J-14D01*
G01*
G75*
G02*
X1939Y513I-26J0D01*
G01*
Y491D01*
X2047D01*
Y417D01*
X2086Y457D01*
Y483D01*
X2046Y523D01*
G75*
G02*
X2039Y535I17J17D01*
G01*
X1945Y630D01*
G75*
G02*
X1938Y647I17J17D01*
G01*
Y761D01*
G75*
G02*
X1937Y779I24J10D01*
G01*
X1884Y725D01*
G37*
X1895Y1473D02*
X1911Y1456D01*
G75*
G02*
X1916Y1450I-14J-14D01*
G01*
G75*
G02*
X1958Y1406I-2J-44D01*
G01*
Y1346D01*
G75*
G02*
X1935Y1307I-44J0D01*
G01*
X1954D01*
X1960Y1314D01*
Y1343D01*
G75*
G02*
X1966Y1358I20J0D01*
G01*
X1969Y1360D01*
Y1406D01*
G75*
G02*
X1979Y1435I44J0D01*
G01*
X1970D01*
G75*
G02*
X1956Y1440I0J20D01*
G01*
X1923Y1473D01*
X1895D01*
G36*
X1895Y1473D02*
X1911Y1456D01*
G75*
G02*
X1916Y1450I-14J-14D01*
G01*
G75*
G02*
X1958Y1406I-2J-44D01*
G01*
Y1346D01*
G75*
G02*
X1935Y1307I-44J0D01*
G01*
X1954D01*
X1960Y1314D01*
Y1343D01*
G75*
G02*
X1966Y1358I20J0D01*
G01*
X1969Y1360D01*
Y1406D01*
G75*
G02*
X1979Y1435I44J0D01*
G01*
X1970D01*
G75*
G02*
X1956Y1440I0J20D01*
G01*
X1923Y1473D01*
X1895D01*
G37*
X1898Y334D02*
X1898D01*
X1964D01*
X2022Y393D01*
X1939D01*
Y386D01*
G75*
G02*
X1931Y367I-26J0D01*
G01*
X1898Y334D01*
G36*
X1898Y334D02*
X1898D01*
X1964D01*
X2022Y393D01*
X1939D01*
Y386D01*
G75*
G02*
X1931Y367I-26J0D01*
G01*
X1898Y334D01*
G37*
X1932Y1054D02*
Y932D01*
X1954Y910D01*
Y1011D01*
X2052D01*
Y944D01*
G75*
G02*
X2084Y940I13J-23D01*
G01*
Y959D01*
X2070D01*
Y1007D01*
X2126D01*
Y1007D01*
X2144D01*
X2179Y1042D01*
Y1420D01*
X2173Y1414D01*
Y1252D01*
G75*
G02*
X2167Y1238I-20J0D01*
G01*
X2127Y1198D01*
G75*
G02*
X2144Y1178I-2J-20D01*
G01*
G75*
G02*
X2138Y1153I-25J-7D01*
G01*
Y1146D01*
X2143D01*
Y1098D01*
X2053D01*
Y1146D01*
X2097D01*
Y1157D01*
G75*
G02*
X2094Y1165I22J14D01*
G01*
X2087Y1158D01*
G75*
G02*
X2073Y1152I-14J14D01*
G01*
X2052D01*
Y1042D01*
X1954D01*
Y1054D01*
X1932D01*
G36*
X1932Y1054D02*
Y932D01*
X1954Y910D01*
Y1011D01*
X2052D01*
Y944D01*
G75*
G02*
X2084Y940I13J-23D01*
G01*
Y959D01*
X2070D01*
Y1007D01*
X2126D01*
Y1007D01*
X2144D01*
X2179Y1042D01*
Y1420D01*
X2173Y1414D01*
Y1252D01*
G75*
G02*
X2167Y1238I-20J0D01*
G01*
X2127Y1198D01*
G75*
G02*
X2144Y1178I-2J-20D01*
G01*
G75*
G02*
X2138Y1153I-25J-7D01*
G01*
Y1146D01*
X2143D01*
Y1098D01*
X2053D01*
Y1146D01*
X2097D01*
Y1157D01*
G75*
G02*
X2094Y1165I22J14D01*
G01*
X2087Y1158D01*
G75*
G02*
X2073Y1152I-14J14D01*
G01*
X2052D01*
Y1042D01*
X1954D01*
Y1054D01*
X1932D01*
G37*
X1971Y892D02*
X1972Y891D01*
G75*
G02*
X1974Y844I-10J-24D01*
G01*
X2054D01*
X2084Y874D01*
Y903D01*
G75*
G02*
X2052Y899I-19J18D01*
G01*
Y892D01*
X1971D01*
G36*
X1971Y892D02*
X1972Y891D01*
G75*
G02*
X1974Y844I-10J-24D01*
G01*
X2054D01*
X2084Y874D01*
Y903D01*
G75*
G02*
X2052Y899I-19J18D01*
G01*
Y892D01*
X1971D01*
G37*
X1986Y761D02*
Y657D01*
X2080Y563D01*
G75*
G02*
X2087Y551I-17J-17D01*
G01*
X2097Y540D01*
X2194D01*
Y507D01*
G75*
G02*
X2229Y482I9J-24D01*
G01*
G75*
G02*
X2194Y458I-26J0D01*
G01*
Y395D01*
G75*
G02*
X2301Y293I-38J-147D01*
G01*
Y342D01*
X2281Y362D01*
G75*
G02*
X2275Y376I14J14D01*
G01*
Y963D01*
G75*
G02*
X2281Y977I20J0D01*
G01*
Y1008D01*
X2259D01*
Y904D01*
G75*
G02*
X2251Y886I-26J0D01*
G01*
X2195Y830D01*
G75*
G02*
X2191Y826I-18J18D01*
G01*
Y813D01*
X2097D01*
X2084Y800D01*
G75*
G02*
X2065Y792I-18J18D01*
G01*
X1977D01*
G75*
G02*
X1986Y761I-15J-21D01*
G01*
X2180Y767D02*
G75*
G02*
X2233I26J0D01*
G01*
G75*
G02*
X2180I-26J0D01*
G01*
X1986Y761D02*
G36*
X1986Y761D02*
Y657D01*
X2080Y563D01*
G75*
G02*
X2087Y551I-17J-17D01*
G01*
X2097Y540D01*
X2194D01*
Y507D01*
G75*
G02*
X2229Y482I9J-24D01*
G01*
G75*
G02*
X2194Y458I-26J0D01*
G01*
Y395D01*
G75*
G02*
X2299Y300I-38J-147D01*
G01*
Y344D01*
X2281Y362D01*
G75*
G02*
X2275Y376I14J14D01*
G01*
Y767D01*
X2233D01*
G75*
G02*
X2180I-26J0D01*
G01*
X1988D01*
G75*
G02*
X1986Y761I-26J4D01*
G01*
G37*
X1980Y792D02*
G36*
X1980Y792D02*
Y790D01*
G75*
G02*
X1988Y771I-18J-19D01*
G01*
G75*
G02*
X1988Y767I-26J0D01*
G01*
X2180D01*
G75*
G02*
X2233I26J0D01*
G01*
X2275D01*
Y963D01*
G75*
G02*
X2281Y977I20J0D01*
G01*
Y1005D01*
X2259D01*
Y904D01*
G75*
G02*
X2251Y886I-26J0D01*
G01*
X2195Y830D01*
G75*
G02*
X2191Y826I-18J18D01*
G01*
Y813D01*
X2097D01*
X2084Y800D01*
G75*
G02*
X2065Y792I-18J18D01*
G01*
X1980D01*
G37*
X1990Y1569D02*
X1979Y1559D01*
X2074D01*
Y1626D01*
G75*
G02*
X2080Y1640I20J0D01*
G01*
X2153Y1714D01*
Y1725D01*
X2004Y1575D01*
G75*
G02*
X1990Y1569I-14J14D01*
G01*
G36*
X1990Y1569D02*
X1979Y1559D01*
X2074D01*
Y1626D01*
G75*
G02*
X2080Y1640I20J0D01*
G01*
X2153Y1714D01*
Y1725D01*
X2004Y1575D01*
G75*
G02*
X1990Y1569I-14J14D01*
G01*
G37*
X1995Y1292D02*
X1983Y1280D01*
X2026D01*
X2052Y1306D01*
Y1324D01*
G75*
G02*
X2001Y1303I-38J22D01*
G01*
G75*
G02*
X1995Y1292I-20J3D01*
G01*
G36*
X1995Y1292D02*
X1983Y1280D01*
X2026D01*
X2052Y1306D01*
Y1324D01*
G75*
G02*
X2001Y1303I-38J22D01*
G01*
G75*
G02*
X1995Y1292I-20J3D01*
G01*
G37*
X2144Y1612D02*
Y1561D01*
X2159Y1576D01*
G75*
G02*
X2174Y1582I14J-14D01*
G01*
X2179D01*
Y1641D01*
X2174D01*
X2144Y1612D01*
G36*
X2144Y1612D02*
Y1561D01*
X2159Y1576D01*
G75*
G02*
X2174Y1582I14J-14D01*
G01*
X2179D01*
Y1641D01*
X2174D01*
X2144Y1612D01*
G37*
X2172Y1531D02*
Y1466D01*
G75*
G02*
X2178Y1467I6J-19D01*
G01*
X2179D01*
Y1538D01*
X2172Y1531D01*
G36*
X2172Y1531D02*
Y1466D01*
G75*
G02*
X2178Y1467I6J-19D01*
G01*
X2179D01*
Y1538D01*
X2172Y1531D01*
G37*
X2191Y968D02*
Y900D01*
X2207Y915D01*
Y1001D01*
X2173Y968D01*
X2191D01*
G36*
X2191Y968D02*
Y900D01*
X2207Y915D01*
Y1001D01*
X2173Y968D01*
X2191D01*
G37*
X2254Y76D02*
G75*
G02*
X2253Y76I-14J14D01*
G01*
X2362D01*
Y391D01*
G75*
G02*
X2322Y378I-25J9D01*
G01*
X2336Y364D01*
G75*
G02*
X2342Y350I-14J-14D01*
G01*
Y171D01*
G75*
G02*
X2336Y156I-20J0D01*
G01*
X2273Y93D01*
G75*
G02*
X2266Y89I-14J14D01*
G01*
X2254Y76D01*
X2302Y103D02*
G75*
G02*
X2354I26J0D01*
G01*
G75*
G02*
X2302I-26J0D01*
G01*
X2266Y89D02*
G36*
X2266Y89D02*
X2256Y78D01*
X2321D01*
G75*
G02*
X2302Y103I8J25D01*
G01*
X2283D01*
X2273Y93D01*
G75*
G02*
X2266Y89I-14J14D01*
G01*
G37*
X2354Y103D02*
G36*
X2354Y103D02*
G75*
G02*
X2336Y78I-26J0D01*
G01*
X2359D01*
Y103D01*
X2354D01*
G37*
X2283D02*
G36*
X2283Y103D02*
X2302D01*
G75*
G02*
X2354I26J0D01*
G01*
X2359D01*
Y386D01*
G75*
G02*
X2322Y378I-22J14D01*
G01*
X2336Y364D01*
G75*
G02*
X2342Y350I-14J-14D01*
G01*
Y171D01*
G75*
G02*
X2336Y156I-20J0D01*
G01*
X2283Y103D01*
G37*
X2316Y631D02*
Y415D01*
G75*
G02*
X2362Y409I21J-15D01*
G01*
Y883D01*
G75*
G02*
X2316Y884I-23J13D01*
G01*
Y674D01*
G75*
G02*
X2356Y653I14J-22D01*
G01*
G75*
G02*
X2316Y631I-26J0D01*
G01*
G36*
X2316Y631D02*
Y415D01*
G75*
G02*
X2362Y409I21J-15D01*
G01*
Y883D01*
G75*
G02*
X2316Y884I-23J13D01*
G01*
Y674D01*
G75*
G02*
X2356Y653I14J-22D01*
G01*
G75*
G02*
X2316Y631I-26J0D01*
G01*
G37*
Y954D02*
Y909D01*
G75*
G02*
X2362Y910I23J-12D01*
G01*
Y1120D01*
G75*
G02*
X2322Y1113I-23J13D01*
G01*
Y969D01*
G75*
G02*
X2316Y954I-20J0D01*
G01*
G36*
X2316Y954D02*
Y909D01*
G75*
G02*
X2362Y910I23J-12D01*
G01*
Y1120D01*
G75*
G02*
X2322Y1113I-23J13D01*
G01*
Y969D01*
G75*
G02*
X2316Y954I-20J0D01*
G01*
G37*
X2322Y1351D02*
Y1153D01*
G75*
G02*
X2362Y1146I17J-20D01*
G01*
Y1355D01*
G75*
G02*
X2322Y1351I-22J15D01*
G01*
G36*
X2322Y1351D02*
Y1153D01*
G75*
G02*
X2362Y1146I17J-20D01*
G01*
Y1355D01*
G75*
G02*
X2322Y1351I-22J15D01*
G01*
G37*
Y1544D02*
Y1389D01*
G75*
G02*
X2362Y1385I18J-19D01*
G01*
Y1546D01*
G75*
G02*
X2322Y1544I-21J16D01*
G01*
G36*
X2322Y1544D02*
Y1389D01*
G75*
G02*
X2362Y1385I18J-19D01*
G01*
Y1546D01*
G75*
G02*
X2322Y1544I-21J16D01*
G01*
G37*
Y1755D02*
Y1580D01*
G75*
G02*
X2362Y1578I19J-18D01*
G01*
Y1754D01*
G75*
G02*
X2322Y1755I-20J17D01*
G01*
G36*
X2322Y1755D02*
Y1580D01*
G75*
G02*
X2362Y1578I19J-18D01*
G01*
Y1754D01*
G75*
G02*
X2322Y1755I-20J17D01*
G01*
G37*
D02*
D86*
X1278Y1307D02*
X1341D01*
Y1244D01*
X1297D01*
X1278Y1264D01*
Y1307D01*
G36*
X1278Y1307D02*
X1341D01*
Y1244D01*
X1297D01*
X1278Y1264D01*
Y1307D01*
G37*
D02*
D91*
X1438Y822D02*
X1473Y857D01*
X1549Y1611D02*
Y1680D01*
D02*
D92*
X1298Y1839D02*
X1458D01*
X1458Y1839D01*
X1548Y2007D02*
Y2158D01*
X1578Y2189D01*
X2196D01*
X2228Y2220D01*
Y2311D01*
X2192Y2346D01*
X464D01*
X436Y2374D01*
Y2461D01*
X472Y2496D01*
X1492D01*
X1550Y1724D02*
X1553Y1727D01*
Y1729D01*
Y1819D02*
Y1912D01*
X1548Y1917D01*
D02*
D93*
X1448Y1839D02*
X1458D01*
X1458Y1839D01*
X1549Y1680D02*
Y1726D01*
X1553Y1729D01*
D02*
D94*
X1234Y1137D03*
Y1611D03*
X1266Y1137D03*
Y1611D03*
X1297Y1137D03*
Y1611D03*
X1329Y1137D03*
Y1611D03*
X1360Y1137D03*
Y1611D03*
X1392Y1137D03*
Y1611D03*
X1423Y1137D03*
Y1611D03*
X1455Y1137D03*
Y1611D03*
X1486Y1137D03*
Y1611D03*
X1518Y1137D03*
Y1611D03*
X1549Y1137D03*
Y1611D03*
X1581Y1137D03*
Y1611D03*
D02*
D95*
X1186Y1201D03*
Y1232D03*
Y1264D03*
Y1295D03*
Y1327D03*
Y1358D03*
Y1390D03*
Y1421D03*
Y1453D03*
Y1484D03*
Y1516D03*
Y1547D03*
X1627Y1201D03*
Y1232D03*
Y1264D03*
Y1295D03*
Y1327D03*
Y1358D03*
Y1390D03*
Y1421D03*
Y1453D03*
Y1484D03*
Y1516D03*
Y1547D03*
D02*
D96*
X1309Y1374D03*
Y1472D03*
X1408Y1276D03*
Y1374D03*
Y1472D03*
X1506Y1276D03*
Y1374D03*
Y1472D03*
D02*
D97*
X1309Y1276D03*
D02*
D98*
X936Y329D03*
Y378D03*
Y427D03*
Y476D03*
Y526D03*
Y575D03*
Y624D03*
X1118Y329D03*
Y378D03*
Y427D03*
Y476D03*
Y526D03*
Y575D03*
Y624D03*
D02*
D99*
X1252Y1001D03*
X1344Y1712D03*
X1363Y1001D03*
X1454Y1712D03*
D02*
D100*
X2002Y1509D03*
Y1809D03*
X2052Y1509D03*
Y1809D03*
D02*
D101*
X1413Y896D03*
D02*
D102*
Y822D03*
Y859D03*
X1516Y822D03*
X1517Y897D03*
D02*
D103*
X1279Y731D03*
Y881D03*
X2003Y951D03*
Y1101D03*
D02*
D104*
X515Y1271D03*
Y1407D03*
X571Y1271D03*
Y1407D03*
D02*
D105*
X516Y1596D03*
Y1637D03*
Y1676D03*
X651Y1597D03*
Y1637D03*
Y1676D03*
D02*
D106*
X583Y1637D03*
D02*
D107*
X708Y1363D03*
X708Y1462D03*
X709Y1264D03*
X770Y1599D03*
Y1712D03*
X858Y1363D03*
X858Y1462D03*
X859Y1264D03*
X920Y1599D03*
Y1712D03*
X1644Y920D03*
X1705Y1668D03*
X1794Y920D03*
X1838Y442D03*
X1855Y1668D03*
X1988Y442D03*
D02*
D108*
X2138Y891D03*
X2140Y463D03*
D02*
D109*
X1808Y1051D03*
Y1126D03*
X1908Y1088D03*
D02*
D110*
X1638Y816D03*
X1728D03*
X1818D03*
D02*
D111*
X1729Y568D03*
D02*
D112*
X1491Y425D03*
X1522D03*
X1554D03*
X1585D03*
X1617D03*
D02*
D113*
X1379Y204D03*
Y421D03*
X1729Y204D03*
Y421D03*
D02*
D114*
X1485Y571D03*
Y671D03*
X1523Y571D03*
Y671D03*
X1560Y571D03*
Y671D03*
D02*
D115*
X2078Y1122D03*
X2118D03*
D02*
D116*
X2098Y983D03*
D02*
D117*
X1273Y395D03*
D02*
D118*
Y215D03*
D02*
D119*
X518Y1812D03*
X1678Y1048D03*
D02*
D120*
X698Y1812D03*
X1498Y1048D03*
D02*
D121*
X1298Y1839D03*
D02*
D122*
X1238Y1781D03*
Y1897D03*
D02*
D123*
X1458Y1839D03*
X1548D03*
X1549Y1874D03*
Y2050D03*
X1639Y1874D03*
Y2050D03*
D02*
D124*
X1548Y1917D03*
Y2007D03*
X1553Y1729D03*
Y1819D03*
D02*
D125*
X1367Y672D03*
Y747D03*
X0Y0D02*
M02*
