G04 DesignSpark PCB Gerber Version 11.0 Build 5877*
%FSLAX33Y33*%
%MOIN*%
%ADD107R,0.00975X0.05699*%
%ADD125R,0.00975X0.08500*%
%ADD127R,0.01400X0.02450*%
%ADD113R,0.02400X0.06400*%
%ADD117R,0.02800X0.04800*%
%ADD123R,0.04100X0.08100*%
%ADD137R,0.04900X0.05400*%
%ADD130R,0.05400X0.09400*%
%ADD131R,0.05400X0.09440*%
%ADD112R,0.05700X0.06490*%
%ADD119R,0.05700X0.09200*%
%ADD116R,0.06400X0.08400*%
%ADD121R,0.07274X0.11998*%
%ADD126R,0.07300X0.09200*%
%ADD110R,0.02550X0.02550*%
%ADD109R,0.05699X0.05699*%
%ADD86C,0.00100*%
%ADD115O,0.04200X0.01200*%
%ADD108R,0.05699X0.00975*%
%ADD118R,0.02800X0.01000*%
%ADD114R,0.04200X0.01200*%
%ADD128R,0.01600X0.01400*%
%ADD129R,0.02200X0.01400*%
%ADD111R,0.07274X0.02156*%
%ADD134R,0.03500X0.03300*%
%ADD122R,0.07274X0.03337*%
%ADD135R,0.08100X0.03500*%
%ADD138R,0.04103X0.03600*%
%ADD136R,0.05400X0.04900*%
%ADD132R,0.09400X0.05400*%
%ADD133R,0.09440X0.05400*%
%ADD120R,0.08400X0.06400*%
%ADD124R,0.13600X0.08100*%
X0Y0D02*
D02*
D86*
X1278Y1307D02*
X1341D01*
Y1244D01*
X1297D01*
X1278Y1264D01*
Y1307D01*
G36*
X1278Y1307D02*
X1341D01*
Y1244D01*
X1297D01*
X1278Y1264D01*
Y1307D01*
G37*
D02*
D107*
X1234Y1137D03*
Y1611D03*
X1266Y1137D03*
Y1611D03*
X1297Y1137D03*
Y1611D03*
X1329Y1137D03*
Y1611D03*
X1360Y1137D03*
Y1611D03*
X1392Y1137D03*
Y1611D03*
X1423Y1137D03*
Y1611D03*
X1455Y1137D03*
Y1611D03*
X1486Y1137D03*
Y1611D03*
X1518Y1137D03*
Y1611D03*
X1549Y1137D03*
Y1611D03*
X1581Y1137D03*
Y1611D03*
D02*
D108*
X1186Y1201D03*
Y1232D03*
Y1264D03*
Y1295D03*
Y1327D03*
Y1358D03*
Y1390D03*
Y1421D03*
Y1453D03*
Y1484D03*
Y1516D03*
Y1547D03*
X1627Y1201D03*
Y1232D03*
Y1264D03*
Y1295D03*
Y1327D03*
Y1358D03*
Y1390D03*
Y1421D03*
Y1453D03*
Y1484D03*
Y1516D03*
Y1547D03*
D02*
D109*
X1309Y1374D03*
Y1472D03*
X1408Y1276D03*
Y1374D03*
Y1472D03*
X1506Y1276D03*
Y1374D03*
Y1472D03*
D02*
D110*
X1309Y1276D03*
D02*
D111*
X936Y329D03*
Y378D03*
Y427D03*
Y476D03*
Y526D03*
Y575D03*
Y624D03*
X1118Y329D03*
Y378D03*
Y427D03*
Y476D03*
Y526D03*
Y575D03*
Y624D03*
D02*
D112*
X1252Y1001D03*
X1344Y1712D03*
X1363Y1001D03*
X1454Y1712D03*
D02*
D113*
X2002Y1509D03*
Y1809D03*
X2052Y1509D03*
Y1809D03*
D02*
D114*
X1413Y896D03*
D02*
D115*
Y822D03*
Y859D03*
X1516Y822D03*
X1517Y897D03*
D02*
D116*
X1279Y731D03*
Y881D03*
X2003Y951D03*
Y1101D03*
D02*
D117*
X515Y1271D03*
Y1407D03*
X571Y1271D03*
Y1407D03*
D02*
D118*
X516Y1596D03*
Y1637D03*
Y1676D03*
X651Y1597D03*
Y1637D03*
Y1676D03*
D02*
D119*
X583Y1637D03*
D02*
D120*
X708Y1363D03*
X708Y1462D03*
X709Y1264D03*
X770Y1599D03*
Y1712D03*
X858Y1363D03*
X858Y1462D03*
X859Y1264D03*
X920Y1599D03*
Y1712D03*
X1644Y920D03*
X1705Y1668D03*
X1794Y920D03*
X1838Y442D03*
X1855Y1668D03*
X1988Y442D03*
D02*
D121*
X2138Y891D03*
X2140Y463D03*
D02*
D122*
X1808Y1051D03*
Y1126D03*
X1908Y1088D03*
D02*
D123*
X1638Y816D03*
X1728D03*
X1818D03*
D02*
D124*
X1729Y568D03*
D02*
D125*
X1491Y425D03*
X1522D03*
X1554D03*
X1585D03*
X1617D03*
D02*
D126*
X1379Y204D03*
Y421D03*
X1729Y204D03*
Y421D03*
D02*
D127*
X1485Y571D03*
Y671D03*
X1523Y571D03*
Y671D03*
X1560Y571D03*
Y671D03*
D02*
D128*
X2078Y1122D03*
X2118D03*
D02*
D129*
X2098Y983D03*
D02*
D130*
X1273Y395D03*
D02*
D131*
Y215D03*
D02*
D132*
X518Y1812D03*
X1678Y1048D03*
D02*
D133*
X698Y1812D03*
X1498Y1048D03*
D02*
D134*
X1298Y1839D03*
D02*
D135*
X1238Y1781D03*
Y1897D03*
D02*
D136*
X1458Y1839D03*
X1548D03*
X1549Y1874D03*
Y2050D03*
X1639Y1874D03*
Y2050D03*
D02*
D137*
X1548Y1917D03*
Y2007D03*
X1553Y1729D03*
Y1819D03*
D02*
D138*
X1367Y672D03*
Y747D03*
X0Y0D02*
M02*
