G04 DesignSpark PCB Gerber Version 11.0 Build 5877*
%FSLAX33Y33*%
%MOIN*%
%ADD99O,0.06000X0.12000*%
%ADD102O,0.07087X0.14173*%
%ADD100O,0.12000X0.06000*%
%ADD106O,0.14173X0.07087*%
%ADD105R,0.12000X0.06000*%
%ADD104R,0.07874X0.07874*%
%ADD139C,0.00500*%
%ADD94C,0.00787*%
%ADD95C,0.01181*%
%ADD96C,0.01969*%
%ADD97C,0.02362*%
%ADD101C,0.07400*%
%ADD103C,0.08000*%
%ADD98C,0.27559*%
X0Y0D02*
D02*
D94*
X298Y165D02*
Y77D01*
X386D01*
G75*
G02*
X298Y165I55J143D01*
G01*
G36*
X298Y165D02*
Y77D01*
X386D01*
G75*
G02*
X298Y165I55J143D01*
G01*
G37*
Y493D02*
Y276D01*
G75*
G02*
X374Y358I143J-55D01*
G01*
X355D01*
G75*
G02*
X339Y365I0J22D01*
G01*
X332Y372D01*
G75*
G02*
X325Y388I15J15D01*
G01*
Y478D01*
G75*
G02*
X325Y481I22J0D01*
G01*
G75*
G02*
X298Y493I-4J27D01*
G01*
G36*
X298Y493D02*
Y276D01*
G75*
G02*
X374Y358I143J-55D01*
G01*
X355D01*
G75*
G02*
X339Y365I0J22D01*
G01*
X332Y372D01*
G75*
G02*
X325Y388I15J15D01*
G01*
Y478D01*
G75*
G02*
X325Y481I22J0D01*
G01*
G75*
G02*
X298Y493I-4J27D01*
G01*
G37*
Y660D02*
Y523D01*
G75*
G02*
X346Y520I23J-15D01*
G01*
Y625D01*
G75*
G02*
X352Y640I22J0D01*
G01*
X392Y680D01*
G75*
G02*
X407Y686I15J-15D01*
G01*
X415D01*
G75*
G02*
X457Y714I42J-18D01*
G01*
X457D01*
G75*
G02*
X449Y733I19J20D01*
G01*
G75*
G02*
X504I28J0D01*
G01*
G75*
G02*
X496Y714I-28J0D01*
G01*
X517D01*
G75*
G02*
Y622I0J-46D01*
G01*
X457D01*
G75*
G02*
X419Y643I0J46D01*
G01*
X416D01*
X389Y616D01*
Y509D01*
G75*
G02*
X427Y503I16J-23D01*
G01*
G75*
G02*
X457Y514I30J-35D01*
G01*
X517D01*
G75*
G02*
Y422I0J-46D01*
G01*
X457D01*
G75*
G02*
X412Y459I0J46D01*
G01*
X402Y449D01*
Y424D01*
G75*
G02*
X403Y402I-25J-12D01*
G01*
X523D01*
G75*
G02*
X538Y395I0J-22D01*
G01*
X630Y304D01*
G75*
G02*
X636Y288I-15J-15D01*
G01*
Y261D01*
G75*
G02*
X737Y263I50J-9D01*
G01*
G75*
G02*
X838Y252I50J-11D01*
G01*
Y206D01*
G75*
G02*
X890Y194I25J-12D01*
G01*
G75*
G02*
X890Y193I-28J0D01*
G01*
G75*
G02*
X892Y193I2J-22D01*
G01*
X1058D01*
G75*
G02*
X1074Y187I0J-22D01*
G01*
X1079Y181D01*
X1118D01*
G75*
G02*
X1117Y189I26J8D01*
G01*
G75*
G02*
X1172I28J0D01*
G01*
G75*
G02*
X1171Y181I-28J0D01*
G01*
X1188D01*
X1199Y191D01*
G75*
G02*
X1214Y198I15J-15D01*
G01*
X1814D01*
G75*
G02*
X1830Y191I0J-22D01*
G01*
X1848Y173D01*
G75*
G02*
X1887Y234I50J11D01*
G01*
G75*
G02*
X1898Y335I11J50D01*
G01*
X1969D01*
G75*
G02*
X2014Y308I0J-51D01*
G01*
G75*
G02*
X2300Y302I141J-60D01*
G01*
Y350D01*
X2282Y368D01*
G75*
G02*
X2276Y383I15J15D01*
G01*
Y955D01*
G75*
G02*
X2281Y968I22J0D01*
G01*
Y1006D01*
X2178D01*
Y1199D01*
X2147Y1168D01*
G75*
G02*
X2092Y1171I-27J3D01*
G01*
G75*
G02*
X2116Y1199I28J0D01*
G01*
X2149Y1231D01*
Y1677D01*
G75*
G02*
X2145Y1689I18J12D01*
G01*
Y1750D01*
G75*
G02*
X2184Y1788I22J17D01*
G01*
G75*
G02*
X2214Y1814I49J-27D01*
G01*
G75*
G02*
X2255Y1848I25J12D01*
G01*
X2264D01*
G75*
G02*
X2280Y1842I0J-22D01*
G01*
X2318Y1804D01*
G75*
G02*
X2324Y1792I-15J-15D01*
G01*
G75*
G02*
X2360Y1792I18J-21D01*
G01*
Y1927D01*
G75*
G02*
X2310Y1944I-22J16D01*
G01*
G75*
G02*
X2360Y1960I28J0D01*
G01*
Y2038D01*
G75*
G02*
X2308Y2051I-24J13D01*
G01*
G75*
G02*
X2360Y2065I28J0D01*
G01*
Y2087D01*
X298D01*
Y1717D01*
G75*
G02*
X352Y1709I26J-9D01*
G01*
G75*
G02*
X298Y1700I-28J0D01*
G01*
Y1545D01*
G75*
G02*
X352Y1536I26J-9D01*
G01*
G75*
G02*
X298Y1528I-28J0D01*
G01*
Y1350D01*
G75*
G02*
X352Y1342I26J-9D01*
G01*
G75*
G02*
X298Y1333I-28J0D01*
G01*
Y1141D01*
G75*
G02*
X352Y1132I26J-9D01*
G01*
G75*
G02*
X298Y1123I-28J0D01*
G01*
Y926D01*
G75*
G02*
X352Y917I26J-9D01*
G01*
G75*
G02*
X298Y909I-28J0D01*
G01*
Y677D01*
G75*
G02*
X352Y668I26J-9D01*
G01*
G75*
G02*
X298Y660I-28J0D01*
G01*
X322Y2024D02*
G75*
G02*
X377I28J0D01*
G01*
G75*
G02*
X322I-28J0D01*
G01*
X330Y1886D02*
G75*
G02*
X385I28J0D01*
G01*
G75*
G02*
X330I-28J0D01*
G01*
X338Y1967D02*
G75*
G02*
X393I28J0D01*
G01*
G75*
G02*
X338I-28J0D01*
G01*
X399Y1784D02*
G75*
G02*
X454I28J0D01*
G01*
G75*
G02*
X399I-28J0D01*
G01*
X438Y1637D02*
G75*
G02*
X493I28J0D01*
G01*
G75*
G02*
X438I-28J0D01*
G01*
X446Y1150D02*
X597D01*
Y1059D01*
X583D01*
G75*
G02*
X575Y987I-32J-33D01*
G01*
G75*
G02*
Y908I-23J-39D01*
G01*
G75*
G02*
X552Y823I-23J-39D01*
G01*
X492D01*
G75*
G02*
X468Y908I0J46D01*
G01*
G75*
G02*
Y987I23J39D01*
G01*
G75*
G02*
X460Y1059I23J39D01*
G01*
X446D01*
Y1150D01*
X848Y698D02*
G75*
G02*
X892Y677I17J-22D01*
G01*
G75*
G02*
X848Y655I-28J0D01*
G01*
X791D01*
G75*
G02*
X768Y646I-21J18D01*
G01*
G75*
G02*
X728Y578I-40J-22D01*
G01*
X668D01*
G75*
G02*
X632Y652I0J46D01*
G01*
X599Y685D01*
G75*
G02*
X592Y701I15J15D01*
G01*
Y752D01*
G75*
G02*
X599Y767I22J0D01*
G01*
X628Y797D01*
G75*
G02*
X664Y836I23J15D01*
G01*
G75*
G02*
X710Y915I46J26D01*
G01*
G75*
G02*
X762Y862I0J-53D01*
G01*
G75*
G02*
X678Y820I-53J0D01*
G01*
G75*
G02*
X673Y795I-26J-9D01*
G01*
Y789D01*
G75*
G02*
X667Y774I-22J0D01*
G01*
X662Y769D01*
G75*
G02*
X668Y770I5J-45D01*
G01*
X728D01*
G75*
G02*
X767Y701I0J-46D01*
G01*
G75*
G02*
X782Y698I3J-27D01*
G01*
X848D01*
X728Y470D02*
G75*
G02*
Y378I0J-46D01*
G01*
X668D01*
G75*
G02*
Y470I0J46D01*
G01*
X728D01*
X816Y546D02*
G75*
G02*
X860Y524I17J-22D01*
G01*
G75*
G02*
X816Y502I-28J0D01*
G01*
X768D01*
G75*
G02*
X728Y478I-40J22D01*
G01*
X668D01*
G75*
G02*
Y570I0J46D01*
G01*
X728D01*
G75*
G02*
X768Y546I0J-46D01*
G01*
X816D01*
X492Y1489D02*
G75*
G02*
X547I28J0D01*
G01*
G75*
G02*
X492I-28J0D01*
G01*
X440Y1941D02*
G75*
G02*
X495I28J0D01*
G01*
G75*
G02*
X440I-28J0D01*
G01*
X570Y2024D02*
G75*
G02*
X625I28J0D01*
G01*
G75*
G02*
X570I-28J0D01*
G01*
X582Y1941D02*
G75*
G02*
X637I28J0D01*
G01*
G75*
G02*
X582I-28J0D01*
G01*
X710Y1171D02*
G75*
G02*
X762Y1118I0J-53D01*
G01*
G75*
G02*
X710Y1066I-53J0D01*
G01*
G75*
G02*
X657Y1118I0J53D01*
G01*
G75*
G02*
X710Y1171I53J0D01*
G01*
X841Y1767D02*
G75*
G02*
X896Y1764I27J-3D01*
G01*
G75*
G02*
X872Y1737I-28J0D01*
G01*
X844Y1709D01*
G75*
G02*
X829Y1702I-15J15D01*
G01*
X717D01*
G75*
G02*
X673Y1724I-17J22D01*
G01*
G75*
G02*
X717Y1746I28J0D01*
G01*
X820D01*
X841Y1767D01*
X888Y915D02*
G75*
G02*
X940Y862I0J-53D01*
G01*
G75*
G02*
X888Y810I-53J0D01*
G01*
G75*
G02*
X835Y862I0J53D01*
G01*
G75*
G02*
X888Y915I53J0D01*
G01*
X1056Y806D02*
G75*
G02*
X1101Y784I17J-22D01*
G01*
G75*
G02*
X1056Y763I-28J0D01*
G01*
X985D01*
G75*
G02*
X938Y783I-19J20D01*
G01*
G75*
G02*
X981Y806I28J0D01*
G01*
X1056D01*
X1021Y427D02*
G75*
G02*
X1076I28J0D01*
G01*
G75*
G02*
X1021I-28J0D01*
G01*
X888Y1171D02*
G75*
G02*
X940Y1118I0J-53D01*
G01*
G75*
G02*
X888Y1066I-53J0D01*
G01*
G75*
G02*
X835Y1118I0J53D01*
G01*
G75*
G02*
X888Y1171I53J0D01*
G01*
X842Y1909D02*
G75*
G02*
X897I28J0D01*
G01*
G75*
G02*
X842I-28J0D01*
G01*
Y2028D02*
G75*
G02*
X897I28J0D01*
G01*
G75*
G02*
X842I-28J0D01*
G01*
X972Y1831D02*
G75*
G02*
X1027I28J0D01*
G01*
G75*
G02*
X972I-28J0D01*
G01*
X991Y1166D02*
G75*
G02*
X1046I28J0D01*
G01*
G75*
G02*
X991I-28J0D01*
G01*
X1062Y938D02*
G75*
G02*
X1117I28J0D01*
G01*
G75*
G02*
X1062I-28J0D01*
G01*
X1066Y1902D02*
G75*
G02*
X1121I28J0D01*
G01*
G75*
G02*
X1066I-28J0D01*
G01*
X1092Y1327D02*
G75*
G02*
X1147I28J0D01*
G01*
G75*
G02*
X1092I-28J0D01*
G01*
X1235Y1212D02*
G75*
G02*
X1290Y1209I27J-3D01*
G01*
G75*
G02*
X1266Y1182I-28J0D01*
G01*
X1203Y1119D01*
G75*
G02*
X1188Y1112I-15J15D01*
G01*
X1150D01*
G75*
G02*
X1105Y1134I-17J22D01*
G01*
G75*
G02*
X1150Y1156I28J0D01*
G01*
X1179D01*
X1235Y1212D01*
X1270Y1073D02*
G75*
G02*
X1325I28J0D01*
G01*
G75*
G02*
X1270I-28J0D01*
G01*
X1295Y525D02*
G75*
G02*
X1350I28J0D01*
G01*
G75*
G02*
X1295I-28J0D01*
G01*
X1191Y384D02*
G75*
G02*
X1217Y348I0J-28D01*
G01*
X1217Y348D01*
Y230D01*
G75*
G02*
X1162I-28J0D01*
G01*
Y356D01*
G75*
G02*
X1189Y384I28J0D01*
G01*
X1191D01*
X1169Y945D02*
G75*
G02*
X1224I28J0D01*
G01*
G75*
G02*
X1169I-28J0D01*
G01*
X1171Y797D02*
G75*
G02*
X1226I28J0D01*
G01*
G75*
G02*
X1224Y787I-28J0D01*
G01*
Y617D01*
G75*
G02*
X1226Y607I-26J-10D01*
G01*
G75*
G02*
X1171I-28J0D01*
G01*
G75*
G02*
X1173Y617I28J0D01*
G01*
Y787D01*
G75*
G02*
X1171Y797I26J10D01*
G01*
X1066Y2035D02*
G75*
G02*
X1121I28J0D01*
G01*
G75*
G02*
X1066I-28J0D01*
G01*
X1133Y1781D02*
G75*
G02*
X1188I28J0D01*
G01*
G75*
G02*
X1133I-28J0D01*
G01*
X1232Y2028D02*
G75*
G02*
X1287I28J0D01*
G01*
G75*
G02*
X1232I-28J0D01*
G01*
X1271Y1909D02*
G75*
G02*
X1326I28J0D01*
G01*
G75*
G02*
X1271I-28J0D01*
G01*
X1330Y859D02*
G75*
G02*
X1385I28J0D01*
G01*
G75*
G02*
X1330I-28J0D01*
G01*
X1533Y625D02*
G75*
G02*
X1588Y622I27J-3D01*
G01*
G75*
G02*
X1563Y595I-28J0D01*
G01*
X1535Y567D01*
G75*
G02*
X1520Y560I-15J15D01*
G01*
X1417D01*
G75*
G02*
X1383Y603I-17J22D01*
G01*
G75*
G02*
X1419Y645I19J20D01*
G01*
X1468D01*
G75*
G02*
X1505Y604I17J-22D01*
G01*
X1511D01*
X1533Y625D01*
X1434Y322D02*
G75*
G02*
X1501I33J0D01*
G01*
G75*
G02*
X1434I-33J0D01*
G01*
X1495Y530D02*
G75*
G02*
X1550I28J0D01*
G01*
G75*
G02*
X1495I-28J0D01*
G01*
X1332Y1217D02*
G75*
G02*
X1387I28J0D01*
G01*
X1387Y1216D01*
X1387Y1216D01*
G75*
G02*
X1332I-28J0D01*
G01*
X1332Y1216D01*
X1332Y1217D01*
X1391Y1088D02*
G75*
G02*
X1446I28J0D01*
G01*
G75*
G02*
X1391I-28J0D01*
G01*
X1426Y1777D02*
G75*
G02*
X1482I28J0D01*
G01*
G75*
G02*
X1426I-28J0D01*
G01*
X1430Y1221D02*
G75*
G02*
X1485I28J0D01*
G01*
G75*
G02*
X1430I-28J0D01*
G01*
X1456Y969D02*
G75*
G02*
X1511I28J0D01*
G01*
G75*
G02*
X1456I-28J0D01*
G01*
X1444Y1909D02*
G75*
G02*
X1499I28J0D01*
G01*
G75*
G02*
X1444I-28J0D01*
G01*
Y2028D02*
G75*
G02*
X1499I28J0D01*
G01*
G75*
G02*
X1444I-28J0D01*
G01*
X1639Y1166D02*
G75*
G02*
X1664Y1139I-3J-27D01*
G01*
G75*
G02*
X1609Y1136I-28J0D01*
G01*
X1562Y1182D01*
G75*
G02*
X1519Y1205I-16J23D01*
G01*
G75*
G02*
X1563Y1227I28J0D01*
G01*
X1570D01*
G75*
G02*
X1585Y1220I0J-22D01*
G01*
X1639Y1166D01*
X1610Y699D02*
G75*
G02*
X1665I28J0D01*
G01*
G75*
G02*
X1610I-28J0D01*
G01*
X1631Y428D02*
G75*
G02*
X1686I28J0D01*
G01*
G75*
G02*
X1631I-28J0D01*
G01*
X1607Y322D02*
G75*
G02*
X1674I33J0D01*
G01*
G75*
G02*
X1607I-33J0D01*
G01*
X1585Y1918D02*
G75*
G02*
X1640I28J0D01*
G01*
G75*
G02*
X1585I-28J0D01*
G01*
X1589Y1677D02*
G75*
G02*
X1644I28J0D01*
G01*
G75*
G02*
X1589I-28J0D01*
G01*
X1673Y1876D02*
G75*
G02*
X1980I154J0D01*
G01*
G75*
G02*
X1701Y1787I-154J0D01*
G01*
G75*
G02*
X1701Y1785I-28J-2D01*
G01*
G75*
G02*
X1646I-28J0D01*
G01*
G75*
G02*
X1688Y1809I28J0D01*
G01*
G75*
G02*
X1673Y1876I138J67D01*
G01*
X1868Y1406D02*
G75*
G02*
X1959I46J0D01*
G01*
Y1346D01*
G75*
G02*
X1868I-46J0D01*
G01*
Y1406D01*
X1933Y527D02*
G75*
G02*
X1989I28J0D01*
G01*
G75*
G02*
X1933I-28J0D01*
G01*
X1934Y867D02*
G75*
G02*
X1989I28J0D01*
G01*
G75*
G02*
X1988Y857I-28J0D01*
G01*
Y781D01*
G75*
G02*
X1989Y771I-26J-10D01*
G01*
G75*
G02*
X1934I-28J0D01*
G01*
G75*
G02*
X1936Y781I28J0D01*
G01*
Y857D01*
G75*
G02*
X1934Y867I26J10D01*
G01*
X1929Y1724D02*
G75*
G02*
X1984I28J0D01*
G01*
G75*
G02*
X1929I-28J0D01*
G01*
X1968Y1406D02*
G75*
G02*
X2059I46J0D01*
G01*
Y1346D01*
G75*
G02*
X1968I-46J0D01*
G01*
Y1406D01*
X2038Y922D02*
G75*
G02*
X2093I28J0D01*
G01*
G75*
G02*
X2038I-28J0D01*
G01*
X1753Y1582D02*
G75*
G02*
X1777Y1554I-3J-27D01*
G01*
G75*
G02*
X1722Y1551I-28J0D01*
G01*
X1688Y1585D01*
G75*
G02*
X1652Y1612I-8J26D01*
G01*
G75*
G02*
X1698Y1633I28J0D01*
G01*
G75*
G02*
X1707Y1627I-6J-21D01*
G01*
X1753Y1582D01*
X1726Y1048D02*
G75*
G02*
X1781I28J0D01*
G01*
G75*
G02*
X1726I-28J0D01*
G01*
X1766Y671D02*
G75*
G02*
X1821I28J0D01*
G01*
G75*
G02*
X1766I-28J0D01*
G01*
X1801Y227D02*
G75*
G02*
X1856I28J0D01*
G01*
G75*
G02*
X1801I-28J0D01*
G01*
X1768Y1406D02*
G75*
G02*
X1859I46J0D01*
G01*
Y1346D01*
G75*
G02*
X1768I-46J0D01*
G01*
Y1406D01*
X1669Y1264D02*
G75*
G02*
X1724I28J0D01*
G01*
G75*
G02*
X1718Y1247I-28J0D01*
G01*
Y1209D01*
G75*
G02*
X1724Y1192I-22J-17D01*
G01*
G75*
G02*
X1669I-28J0D01*
G01*
G75*
G02*
X1674Y1209I28J0D01*
G01*
Y1247D01*
G75*
G02*
X1669Y1264I22J17D01*
G01*
X1661Y2048D02*
G75*
G02*
X1716I28J0D01*
G01*
G75*
G02*
X1661I-28J0D01*
G01*
X1938Y2050D02*
G75*
G02*
X1994I28J0D01*
G01*
G75*
G02*
X1938I-28J0D01*
G01*
X1978Y1948D02*
G75*
G02*
X2033I28J0D01*
G01*
G75*
G02*
X1978I-28J0D01*
G01*
X2035Y1827D02*
G75*
G02*
X2090I28J0D01*
G01*
G75*
G02*
X2035I-28J0D01*
G01*
X2124Y2048D02*
G75*
G02*
X2180I28J0D01*
G01*
G75*
G02*
X2124I-28J0D01*
G01*
X2167Y1944D02*
G75*
G02*
X2222I28J0D01*
G01*
G75*
G02*
X2167I-28J0D01*
G01*
X517Y614D02*
G75*
G02*
Y522I0J-46D01*
G01*
X457D01*
G75*
G02*
Y614I0J46D01*
G01*
X517D01*
X2179Y767D02*
G75*
G02*
X2234I28J0D01*
G01*
G75*
G02*
X2179I-28J0D01*
G01*
X2176Y482D02*
G75*
G02*
X2231I28J0D01*
G01*
G75*
G02*
X2176I-28J0D01*
G01*
X838Y227D02*
G36*
X838Y227D02*
Y206D01*
G75*
G02*
X890Y194I25J-12D01*
G01*
G75*
G02*
X890Y193I-31J0D01*
G01*
G75*
G02*
X892Y193I2J-21D01*
G01*
X1058D01*
G75*
G02*
X1074Y187I0J-22D01*
G01*
X1079Y181D01*
X1118D01*
G75*
G02*
X1117Y189I26J8D01*
G01*
Y189D01*
G75*
G02*
X1172I28J0D01*
G01*
Y189D01*
G75*
G02*
X1171Y181I-27J0D01*
G01*
X1188D01*
X1199Y191D01*
G75*
G02*
X1214Y198I15J-15D01*
G01*
X1814D01*
G75*
G02*
X1830Y191I0J-22D01*
G01*
X1844Y177D01*
X1847D01*
G75*
G02*
X1847Y184I51J7D01*
G01*
G75*
G02*
X1871Y227I51J0D01*
G01*
X1856D01*
G75*
G02*
X1801I-28J0D01*
G01*
X1217D01*
G75*
G02*
X1162I-27J3D01*
G01*
X838D01*
G37*
X636Y288D02*
G36*
X636Y288D02*
Y261D01*
G75*
G02*
X657Y293I50J-9D01*
G01*
X636D01*
G75*
G02*
X636Y288I-21J-5D01*
G01*
G37*
X717Y293D02*
G36*
X717Y293D02*
G75*
G02*
X737Y263I-30J-41D01*
G01*
G75*
G02*
X757Y293I50J-11D01*
G01*
X717D01*
G37*
X838Y252D02*
G36*
X838Y252D02*
Y227D01*
X1162D01*
G75*
G02*
X1162Y230I27J3D01*
G01*
Y293D01*
X817D01*
G75*
G02*
X838Y252I-30J-41D01*
G01*
G37*
X1217Y230D02*
G36*
X1217Y230D02*
G75*
G02*
X1217Y227I-28J0D01*
G01*
X1801D01*
G75*
G02*
X1856I28J0D01*
G01*
X1871D01*
G75*
G02*
X1887Y234I27J-43D01*
G01*
G75*
G02*
X1847Y284I11J50D01*
G01*
G75*
G02*
X1848Y293I51J0D01*
G01*
X1657D01*
G75*
G02*
X1624I-17J29D01*
G01*
X1484D01*
G75*
G02*
X1450I-17J29D01*
G01*
X1217D01*
Y230D01*
G37*
X402Y424D02*
G36*
X402Y424D02*
Y424D01*
G75*
G02*
X405Y411I-25J-12D01*
G01*
G75*
G02*
X403Y402I-28J0D01*
G01*
X523D01*
G75*
G02*
X538Y395I0J-22D01*
G01*
X630Y304D01*
G75*
G02*
X636Y293I-15J-15D01*
G01*
X657D01*
G75*
G02*
X717I30J-41D01*
G01*
X757D01*
G75*
G02*
X817I30J-41D01*
G01*
X1162D01*
Y356D01*
Y356D01*
G75*
G02*
X1189Y384I28J0D01*
G01*
X1191D01*
G75*
G02*
X1218Y356I0J-28D01*
G01*
G75*
G02*
X1217Y348I-28J0D01*
G01*
X1217Y348D01*
Y293D01*
X1450D01*
G75*
G02*
X1434Y322I17J29D01*
G01*
G75*
G02*
X1501I33J0D01*
G01*
G75*
G02*
X1484Y293I-33J0D01*
G01*
X1624D01*
G75*
G02*
X1607Y322I17J29D01*
G01*
G75*
G02*
X1674I33J0D01*
G01*
G75*
G02*
X1657Y293I-33J0D01*
G01*
X1848D01*
G75*
G02*
X1898Y335I50J-9D01*
G01*
X1969D01*
G75*
G02*
X2014Y308I0J-51D01*
G01*
G75*
G02*
X2300Y302I141J-60D01*
G01*
Y350D01*
X2282Y368D01*
G75*
G02*
X2276Y383I15J15D01*
G01*
Y424D01*
X1686D01*
G75*
G02*
X1632I-27J4D01*
G01*
X1076D01*
G75*
G02*
X1021I-27J3D01*
G01*
X773D01*
G75*
G02*
X728Y378I-46J0D01*
G01*
X668D01*
G75*
G02*
X622Y424I0J46D01*
G01*
X530D01*
G75*
G02*
X517Y422I-13J44D01*
G01*
X457D01*
G75*
G02*
X444Y424I0J46D01*
G01*
X402D01*
G37*
Y449D02*
G36*
X402Y449D02*
Y424D01*
X444D01*
G75*
G02*
X412Y459I13J44D01*
G01*
X402Y449D01*
G37*
X563Y468D02*
G36*
X563Y468D02*
G75*
G02*
X530Y424I-46J0D01*
G01*
X622D01*
G75*
G02*
X668Y470I46J0D01*
G01*
X728D01*
G75*
G02*
X773Y424I0J-46D01*
G01*
X1021D01*
G75*
G02*
X1021Y427I27J3D01*
G01*
G75*
G02*
X1076I28J0D01*
G01*
G75*
G02*
X1076Y424I-28J0D01*
G01*
X1632D01*
G75*
G02*
X1631Y428I27J4D01*
G01*
G75*
G02*
X1686I28J0D01*
G01*
G75*
G02*
X1686Y424I-28J0D01*
G01*
X2276D01*
Y482D01*
X2231D01*
G75*
G02*
X2176I-28J0D01*
G01*
X746D01*
G75*
G02*
X728Y478I-19J42D01*
G01*
X668D01*
G75*
G02*
X649Y482I0J46D01*
G01*
X560D01*
G75*
G02*
X563Y468I-43J-14D01*
G01*
G37*
X344Y524D02*
G36*
X344Y524D02*
G75*
G02*
X346Y520I-22J-16D01*
G01*
Y524D01*
X344D01*
G37*
X389D02*
G36*
X389Y524D02*
Y509D01*
G75*
G02*
X427Y503I16J-23D01*
G01*
G75*
G02*
X457Y514I30J-35D01*
G01*
X517D01*
G75*
G02*
X560Y482I0J-46D01*
G01*
X649D01*
G75*
G02*
X622Y524I19J42D01*
G01*
X530D01*
G75*
G02*
X517Y522I-13J44D01*
G01*
X457D01*
G75*
G02*
X444Y524I0J46D01*
G01*
X389D01*
G37*
X768Y502D02*
G36*
X768Y502D02*
G75*
G02*
X746Y482I-40J22D01*
G01*
X2176D01*
G75*
G02*
X2231I28J0D01*
G01*
X2276D01*
Y524D01*
X1988D01*
G75*
G02*
X1934I-27J3D01*
G01*
X1550D01*
G75*
G02*
X1496I-27J6D01*
G01*
X1350D01*
G75*
G02*
X1295I-28J1D01*
G01*
X860D01*
G75*
G02*
X816Y502I-28J0D01*
G01*
X768D01*
G37*
X302Y603D02*
G36*
X302Y603D02*
Y528D01*
G75*
G02*
X344Y524I19J-20D01*
G01*
X346D01*
Y603D01*
X302D01*
G37*
X389D02*
G36*
X389Y603D02*
Y524D01*
X444D01*
G75*
G02*
X411Y568I13J44D01*
G01*
G75*
G02*
X427Y603I46J0D01*
G01*
X389D01*
G37*
X563Y568D02*
G36*
X563Y568D02*
G75*
G02*
X530Y524I-46J0D01*
G01*
X622D01*
G75*
G02*
X668Y570I46J0D01*
G01*
X728D01*
G75*
G02*
X768Y546I0J-46D01*
G01*
X816D01*
G75*
G02*
X860Y524I17J-22D01*
G01*
X1295D01*
G75*
G02*
X1295Y525I28J1D01*
G01*
G75*
G02*
X1350I28J0D01*
G01*
G75*
G02*
X1350Y524I-28J0D01*
G01*
X1496D01*
G75*
G02*
X1495Y530I27J6D01*
G01*
G75*
G02*
X1550I28J0D01*
G01*
G75*
G02*
X1550Y524I-28J0D01*
G01*
X1934D01*
G75*
G02*
X1933Y527I27J3D01*
G01*
G75*
G02*
X1989I28J0D01*
G01*
G75*
G02*
X1988Y524I-28J0D01*
G01*
X2276D01*
Y603D01*
X1580D01*
G75*
G02*
X1563Y595I-20J19D01*
G01*
X1535Y567D01*
G75*
G02*
X1520Y560I-15J15D01*
G01*
X1417D01*
G75*
G02*
X1373Y582I-17J22D01*
G01*
G75*
G02*
X1382Y603I28J0D01*
G01*
X1225D01*
G75*
G02*
X1171I-27J4D01*
G01*
X768D01*
G75*
G02*
X728Y578I-40J21D01*
G01*
X668D01*
G75*
G02*
X627Y603I0J46D01*
G01*
X546D01*
G75*
G02*
X563Y568I-30J-35D01*
G01*
G37*
X302Y652D02*
G36*
X302Y652D02*
Y603D01*
X346D01*
Y625D01*
G75*
G02*
X352Y640I22J0D01*
G01*
X383Y671D01*
X352D01*
G75*
G02*
X352Y668I-27J-3D01*
G01*
G75*
G02*
X302Y652I-28J0D01*
G01*
G37*
X389Y616D02*
G36*
X389Y616D02*
Y603D01*
X427D01*
G75*
G02*
X457Y614I30J-35D01*
G01*
X517D01*
G75*
G02*
X546Y603I0J-46D01*
G01*
X627D01*
G75*
G02*
X622Y624I40J21D01*
G01*
G75*
G02*
X632Y652I46J0D01*
G01*
X613Y671D01*
X562D01*
G75*
G02*
X563Y668I-46J-3D01*
G01*
G75*
G02*
X517Y622I-46J0D01*
G01*
X457D01*
G75*
G02*
X419Y643I0J46D01*
G01*
X416D01*
X389Y616D01*
G37*
X773Y624D02*
G36*
X773Y624D02*
G75*
G02*
X768Y603I-46J0D01*
G01*
X1171D01*
G75*
G02*
X1171Y607I27J4D01*
G01*
Y607D01*
G75*
G02*
X1173Y617I28J0D01*
G01*
Y671D01*
X892D01*
G75*
G02*
X848Y655I-27J5D01*
G01*
X791D01*
G75*
G02*
X768Y646I-21J18D01*
G01*
G75*
G02*
X773Y624I-40J-22D01*
G01*
G37*
X1224Y671D02*
G36*
X1224Y671D02*
Y617D01*
G75*
G02*
X1226Y607I-26J-10D01*
G01*
Y607D01*
G75*
G02*
X1225Y603I-28J0D01*
G01*
X1382D01*
G75*
G02*
X1383Y603I18J-21D01*
G01*
G75*
G02*
X1374Y623I19J20D01*
G01*
G75*
G02*
X1419Y645I28J0D01*
G01*
X1468D01*
G75*
G02*
X1513Y623I17J-22D01*
G01*
G75*
G02*
X1505Y604I-28J0D01*
G01*
X1511D01*
X1533Y625D01*
G75*
G02*
X1588Y622I27J-3D01*
G01*
G75*
G02*
X1580Y603I-28J0D01*
G01*
X2276D01*
Y671D01*
X1821D01*
G75*
G02*
X1766I-28J0D01*
G01*
X1637D01*
X1224D01*
G37*
X302Y699D02*
G36*
X302Y699D02*
Y685D01*
G75*
G02*
X352Y671I22J-16D01*
G01*
X383D01*
X392Y680D01*
G75*
G02*
X407Y686I15J-15D01*
G01*
X415D01*
G75*
G02*
X423Y699I42J-18D01*
G01*
X302D01*
G37*
X550D02*
G36*
X550Y699D02*
G75*
G02*
X562Y671I-34J-31D01*
G01*
X613D01*
X599Y685D01*
G75*
G02*
X592Y699I15J15D01*
G01*
X550D01*
G37*
X780D02*
G36*
X780Y699D02*
G75*
G02*
X782Y698I-10J-26D01*
G01*
X848D01*
G75*
G02*
X849Y699I17J-22D01*
G01*
X780D01*
G37*
X892Y677D02*
G36*
X892Y677D02*
G75*
G02*
X892Y671I-28J0D01*
G01*
X1173D01*
Y699D01*
X881D01*
G75*
G02*
X892Y677I-16J-22D01*
G01*
G37*
X1224Y699D02*
G36*
X1224Y699D02*
Y671D01*
X1637D01*
X1766D01*
G75*
G02*
X1794Y699I28J0D01*
G01*
G75*
G02*
X1821Y671I0J-28D01*
G01*
X2276D01*
Y699D01*
X1794D01*
X1665D01*
G75*
G02*
X1637Y671I-28J0D01*
G01*
G75*
G02*
X1610Y699I0J28D01*
G01*
X1224D01*
G37*
X302Y747D02*
G36*
X302Y747D02*
Y699D01*
X423D01*
G75*
G02*
X457Y714I34J-31D01*
G01*
X457D01*
G75*
G02*
X449Y733I19J20D01*
G01*
Y733D01*
G75*
G02*
X453Y747I28J0D01*
G01*
X302D01*
G37*
X501D02*
G36*
X501Y747D02*
G75*
G02*
X504Y733I-24J-13D01*
G01*
Y733D01*
G75*
G02*
X496Y714I-28J0D01*
G01*
X517D01*
G75*
G02*
X550Y699I0J-46D01*
G01*
X592D01*
G75*
G02*
X592Y701I22J2D01*
G01*
Y747D01*
X501D01*
G37*
X773Y724D02*
G36*
X773Y724D02*
G75*
G02*
X767Y701I-46J0D01*
G01*
G75*
G02*
X780Y699I3J-27D01*
G01*
X849D01*
G75*
G02*
X881I16J-22D01*
G01*
X1173D01*
Y747D01*
X767D01*
G75*
G02*
X773Y724I-40J-23D01*
G01*
G37*
X1224Y747D02*
G36*
X1224Y747D02*
Y699D01*
X1610D01*
G75*
G02*
X1665I28J0D01*
G01*
X1794D01*
X2276D01*
Y747D01*
X2225D01*
G75*
G02*
X2188I-19J20D01*
G01*
X1976D01*
G75*
G02*
X1948I-14J24D01*
G01*
X1224D01*
G37*
X302Y784D02*
G36*
X302Y784D02*
Y747D01*
X453D01*
G75*
G02*
X501I24J-13D01*
G01*
X592D01*
Y752D01*
G75*
G02*
X599Y767I22J0D01*
G01*
X615Y784D01*
X302D01*
G37*
X667Y774D02*
G36*
X667Y774D02*
X662Y769D01*
G75*
G02*
X668Y770I5J-45D01*
G01*
X728D01*
G75*
G02*
X767Y747I0J-46D01*
G01*
X1173D01*
Y784D01*
X1101D01*
G75*
G02*
X1056Y763I-28J1D01*
G01*
X985D01*
G75*
G02*
X938Y783I-19J20D01*
G01*
G75*
G02*
X938Y784I28J0D01*
G01*
X672D01*
G75*
G02*
X667Y774I-21J6D01*
G01*
G37*
X1224Y784D02*
G36*
X1224Y784D02*
Y747D01*
X1948D01*
G75*
G02*
X1934Y771I14J24D01*
G01*
Y771D01*
G75*
G02*
X1936Y781I28J0D01*
G01*
Y784D01*
X1224D01*
G37*
X1988D02*
G36*
X1988Y784D02*
Y781D01*
G75*
G02*
X1989Y771I-26J-10D01*
G01*
Y771D01*
G75*
G02*
X1976Y747I-28J0D01*
G01*
X2188D01*
G75*
G02*
X2179Y767I19J20D01*
G01*
G75*
G02*
X2185Y784I28J0D01*
G01*
X1988D01*
G37*
X2234Y767D02*
G36*
X2234Y767D02*
G75*
G02*
X2225Y747I-28J0D01*
G01*
X2276D01*
Y784D01*
X2228D01*
G75*
G02*
X2234Y767I-22J-17D01*
G01*
G37*
X302Y862D02*
G36*
X302Y862D02*
Y784D01*
X615D01*
X628Y797D01*
G75*
G02*
X624Y812I23J15D01*
G01*
G75*
G02*
X664Y836I28J0D01*
G01*
G75*
G02*
X657Y862I46J26D01*
G01*
X597D01*
G75*
G02*
X552Y823I-45J6D01*
G01*
X492D01*
G75*
G02*
X446Y862I0J46D01*
G01*
X302D01*
G37*
X673Y789D02*
G36*
X673Y789D02*
G75*
G02*
X672Y784I-22J0D01*
G01*
X938D01*
G75*
G02*
X981Y806I28J-1D01*
G01*
X1056D01*
G75*
G02*
X1101Y784I17J-22D01*
G01*
X1173Y784D01*
Y787D01*
G75*
G02*
X1171Y797I26J10D01*
G01*
Y797D01*
G75*
G02*
X1226I28J0D01*
G01*
Y797D01*
G75*
G02*
X1224Y787I-28J0D01*
G01*
Y784D01*
X1936D01*
Y857D01*
G75*
G02*
X1935Y862I26J10D01*
G01*
X1385D01*
G75*
G02*
X1385Y859I-27J-3D01*
G01*
G75*
G02*
X1330I-28J0D01*
G01*
G75*
G02*
X1330Y862I28J0D01*
G01*
X940D01*
Y862D01*
G75*
G02*
X888Y810I-53J0D01*
G01*
G75*
G02*
X835Y862I0J53D01*
G01*
Y862D01*
X762D01*
G75*
G02*
X678Y820I-53J0D01*
G01*
G75*
G02*
X679Y812I-26J-9D01*
G01*
G75*
G02*
X673Y795I-28J0D01*
G01*
Y789D01*
G37*
X1988Y857D02*
G36*
X1988Y857D02*
Y784D01*
X2185D01*
G75*
G02*
X2228I22J-17D01*
G01*
X2276D01*
Y862D01*
X1989D01*
G75*
G02*
X1988Y857I-27J5D01*
G01*
G37*
X302Y901D02*
G36*
X302Y901D02*
Y862D01*
X446D01*
G75*
G02*
X446Y868I45J6D01*
G01*
G75*
G02*
X468Y908I46J0D01*
G01*
G75*
G02*
X447Y938I23J39D01*
G01*
X343D01*
G75*
G02*
X352Y917I-18J-21D01*
G01*
G75*
G02*
X302Y901I-28J0D01*
G01*
G37*
Y938D02*
G36*
X302Y938D02*
Y934D01*
G75*
G02*
X306Y938I22J-16D01*
G01*
X302D01*
G37*
X596D02*
G36*
X596Y938D02*
G75*
G02*
X575Y908I-45J9D01*
G01*
G75*
G02*
X597Y868I-23J-39D01*
G01*
G75*
G02*
X597Y862I-46J0D01*
G01*
X657D01*
G75*
G02*
X710Y915I53J0D01*
G01*
G75*
G02*
X762Y862I0J-53D01*
G01*
Y862D01*
X835D01*
Y862D01*
G75*
G02*
X888Y915I53J0D01*
G01*
G75*
G02*
X940Y862I0J-53D01*
G01*
Y862D01*
X1330D01*
G75*
G02*
X1385I27J-3D01*
G01*
X1935D01*
G75*
G02*
X1934Y867I27J5D01*
G01*
Y867D01*
G75*
G02*
X1989I28J0D01*
G01*
Y867D01*
G75*
G02*
X1989Y862I-28J0D01*
G01*
X2276D01*
Y938D01*
X2088D01*
G75*
G02*
X2093Y922I-22J-16D01*
G01*
G75*
G02*
X2038I-28J0D01*
G01*
G75*
G02*
X2043Y938I28J0D01*
G01*
X1223D01*
G75*
G02*
X1170I-27J7D01*
G01*
X1117D01*
G75*
G02*
X1062I-28J0D01*
G01*
X596D01*
G37*
X302Y987D02*
G36*
X302Y987D02*
Y938D01*
X306D01*
G75*
G02*
X343I18J-21D01*
G01*
X447D01*
G75*
G02*
X446Y947I45J9D01*
G01*
G75*
G02*
X468Y987I46J0D01*
G01*
X302D01*
G37*
X597Y947D02*
G36*
X597Y947D02*
G75*
G02*
X596Y938I-46J0D01*
G01*
X1062D01*
G75*
G02*
X1117I28J0D01*
G01*
X1170D01*
G75*
G02*
X1169Y945I27J7D01*
G01*
G75*
G02*
X1224I28J0D01*
G01*
G75*
G02*
X1223Y938I-28J0D01*
G01*
X2043D01*
G75*
G02*
X2088I22J-16D01*
G01*
X2276D01*
Y955D01*
G75*
G02*
X2281Y968I22J0D01*
G01*
Y987D01*
X1505D01*
G75*
G02*
X1511Y969I-21J-18D01*
G01*
G75*
G02*
X1456I-28J0D01*
G01*
G75*
G02*
X1463Y987I28J0D01*
G01*
X575D01*
G75*
G02*
X597Y947I-23J-39D01*
G01*
G37*
X302Y1048D02*
G36*
X302Y1048D02*
Y987D01*
X468D01*
G75*
G02*
X446Y1026I23J39D01*
G01*
G75*
G02*
X451Y1048I46J0D01*
G01*
X302D01*
G37*
X597Y1026D02*
G36*
X597Y1026D02*
G75*
G02*
X575Y987I-46J0D01*
G01*
X1463D01*
G75*
G02*
X1505I21J-18D01*
G01*
X2281D01*
Y1006D01*
X2178D01*
Y1048D01*
X1781D01*
G75*
G02*
X1726I-28J0D01*
G01*
X1309D01*
G75*
G02*
X1286I-11J25D01*
G01*
X592D01*
G75*
G02*
X597Y1026I-40J-22D01*
G01*
G37*
X302Y1073D02*
G36*
X302Y1073D02*
Y1048D01*
X451D01*
G75*
G02*
X460Y1059I40J-22D01*
G01*
X446D01*
Y1073D01*
X302D01*
G37*
X583Y1059D02*
G36*
X583Y1059D02*
G75*
G02*
X592Y1048I-32J-33D01*
G01*
X1286D01*
G75*
G02*
X1270Y1073I11J25D01*
G01*
X915D01*
G75*
G02*
X888Y1066I-27J45D01*
G01*
G75*
G02*
X861Y1073I0J53D01*
G01*
X737D01*
G75*
G02*
X710Y1066I-27J45D01*
G01*
G75*
G02*
X683Y1073I0J53D01*
G01*
X597D01*
Y1059D01*
X583D01*
G37*
X1325Y1073D02*
G36*
X1325Y1073D02*
G75*
G02*
X1309Y1048I-28J0D01*
G01*
X1726D01*
G75*
G02*
X1742Y1073I28J0D01*
G01*
X1442D01*
G75*
G02*
X1395I-23J15D01*
G01*
X1325D01*
G37*
X1765D02*
G36*
X1765Y1073D02*
G75*
G02*
X1781Y1048I-11J-25D01*
G01*
X2178D01*
Y1073D01*
X1765D01*
G37*
X302Y1116D02*
G36*
X302Y1116D02*
Y1073D01*
X446D01*
Y1118D01*
X348D01*
G75*
G02*
X302Y1116I-24J14D01*
G01*
G37*
X597Y1118D02*
G36*
X597Y1118D02*
Y1073D01*
X683D01*
G75*
G02*
X657Y1118I27J45D01*
G01*
Y1118D01*
X597D01*
G37*
X762Y1118D02*
G36*
X762Y1118D02*
G75*
G02*
X737Y1073I-53J0D01*
G01*
X861D01*
G75*
G02*
X835Y1118I27J45D01*
G01*
Y1118D01*
X762D01*
Y1118D01*
G37*
X940D02*
G36*
X940Y1118D02*
G75*
G02*
X915Y1073I-53J0D01*
G01*
X1270D01*
G75*
G02*
X1325I28J0D01*
G01*
X1395D01*
G75*
G02*
X1391Y1088I23J15D01*
G01*
G75*
G02*
X1446I28J0D01*
G01*
G75*
G02*
X1442Y1073I-28J0D01*
G01*
X1742D01*
G75*
G02*
X1765I11J-25D01*
G01*
X2178D01*
Y1118D01*
X1655D01*
G75*
G02*
X1618I-18J21D01*
G01*
X1203D01*
G75*
G02*
X1188Y1112I-15J16D01*
G01*
X1150D01*
G75*
G02*
X1110Y1118I-17J22D01*
G01*
X940D01*
Y1118D01*
G37*
X302Y1166D02*
G36*
X302Y1166D02*
Y1148D01*
G75*
G02*
X352Y1132I22J-16D01*
G01*
G75*
G02*
X348Y1118I-28J0D01*
G01*
X446D01*
Y1150D01*
X597D01*
Y1118D01*
X657D01*
Y1118D01*
G75*
G02*
X688Y1166I53J0D01*
G01*
X302D01*
G37*
X762Y1118D02*
G36*
X762Y1118D02*
Y1118D01*
X835D01*
Y1118D01*
G75*
G02*
X866Y1166I53J0D01*
G01*
X732D01*
G75*
G02*
X762Y1118I-22J-48D01*
G01*
G37*
X940D02*
G36*
X940Y1118D02*
Y1118D01*
X1110D01*
G75*
G02*
X1105Y1134I23J16D01*
G01*
G75*
G02*
X1150Y1156I28J0D01*
G01*
X1179D01*
X1189Y1166D01*
X1046D01*
G75*
G02*
X991I-28J0D01*
G01*
X910D01*
G75*
G02*
X940Y1118I-22J-48D01*
G01*
G37*
X1203Y1119D02*
G36*
X1203Y1119D02*
G75*
G02*
X1203Y1118I-15J15D01*
G01*
X1618D01*
G75*
G02*
X1609Y1136I18J21D01*
G01*
X1578Y1166D01*
X1251D01*
X1203Y1119D01*
G37*
X1639Y1166D02*
G36*
X1639Y1166D02*
X1639Y1166D01*
G75*
G02*
X1664Y1139I-3J-27D01*
G01*
G75*
G02*
X1655Y1118I-28J0D01*
G01*
X2178D01*
Y1166D01*
X2146D01*
G75*
G02*
X2092I-27J5D01*
G01*
X1705D01*
G75*
G02*
X1688I-9J26D01*
G01*
X1639D01*
G37*
X302Y1216D02*
G36*
X302Y1216D02*
Y1166D01*
X688D01*
G75*
G02*
X710Y1171I22J-48D01*
G01*
G75*
G02*
X732Y1166I0J-53D01*
G01*
X866D01*
G75*
G02*
X888Y1171I22J-48D01*
G01*
G75*
G02*
X910Y1166I0J-53D01*
G01*
X991D01*
G75*
G02*
X1046I28J0D01*
G01*
X1189D01*
X1235Y1212D01*
G75*
G02*
X1236Y1216I27J-3D01*
G01*
X302D01*
G37*
X1266Y1182D02*
G36*
X1266Y1182D02*
X1251Y1166D01*
X1578D01*
X1562Y1182D01*
G75*
G02*
X1519Y1205I-16J23D01*
G01*
G75*
G02*
X1521Y1216I28J0D01*
G01*
X1485D01*
G75*
G02*
X1431I-27J5D01*
G01*
X1387D01*
X1387Y1216D01*
Y1216D01*
G75*
G02*
X1332I-28J0D01*
G01*
Y1216D01*
X1332Y1216D01*
X1289D01*
G75*
G02*
X1290Y1209I-27J-7D01*
G01*
G75*
G02*
X1266Y1182I-28J0D01*
G01*
G37*
X1590Y1216D02*
G36*
X1590Y1216D02*
X1639Y1166D01*
X1688D01*
G75*
G02*
X1669Y1192I9J26D01*
G01*
G75*
G02*
X1674Y1209I28J0D01*
G01*
Y1216D01*
X1590D01*
G37*
X1718D02*
G36*
X1718Y1216D02*
Y1209D01*
G75*
G02*
X1724Y1192I-22J-17D01*
G01*
G75*
G02*
X1705Y1166I-28J0D01*
G01*
X2092D01*
G75*
G02*
X2092Y1171I27J5D01*
G01*
G75*
G02*
X2116Y1199I28J0D01*
G01*
X2133Y1216D01*
X1718D01*
G37*
X2147Y1168D02*
G36*
X2147Y1168D02*
G75*
G02*
X2146Y1166I-27J3D01*
G01*
X2178D01*
Y1199D01*
X2147Y1168D01*
G37*
X302Y1325D02*
G36*
X302Y1325D02*
Y1216D01*
X1236D01*
G75*
G02*
X1289I27J-7D01*
G01*
X1332D01*
X1332Y1216D01*
Y1217D01*
G75*
G02*
X1387I28J0D01*
G01*
Y1216D01*
X1387Y1216D01*
X1431D01*
G75*
G02*
X1430Y1221I27J5D01*
G01*
G75*
G02*
X1485I28J0D01*
G01*
G75*
G02*
X1485Y1216I-28J0D01*
G01*
X1521D01*
G75*
G02*
X1563Y1227I25J-11D01*
G01*
X1570D01*
G75*
G02*
X1585Y1220I0J-22D01*
G01*
X1590Y1216D01*
X1674D01*
Y1247D01*
G75*
G02*
X1669Y1264I22J17D01*
G01*
G75*
G02*
X1724I28J0D01*
G01*
G75*
G02*
X1718Y1247I-28J0D01*
G01*
Y1216D01*
X2133D01*
X2149Y1231D01*
Y1327D01*
X2055D01*
G75*
G02*
X1972I-42J19D01*
G01*
X1955D01*
G75*
G02*
X1872I-42J19D01*
G01*
X1855D01*
G75*
G02*
X1772I-42J19D01*
G01*
X1147D01*
G75*
G02*
X1092I-28J0D01*
G01*
X348D01*
G75*
G02*
X302Y1325I-23J15D01*
G01*
G37*
Y1489D02*
G36*
X302Y1489D02*
Y1358D01*
G75*
G02*
X352Y1342I22J-16D01*
G01*
G75*
G02*
X348Y1327I-28J0D01*
G01*
X1092D01*
G75*
G02*
X1147I28J0D01*
G01*
X1772D01*
G75*
G02*
X1768Y1346I42J19D01*
G01*
Y1406D01*
G75*
G02*
X1859I46J0D01*
G01*
Y1346D01*
G75*
G02*
X1855Y1327I-46J0D01*
G01*
X1872D01*
G75*
G02*
X1868Y1346I42J19D01*
G01*
Y1406D01*
G75*
G02*
X1959I46J0D01*
G01*
Y1346D01*
G75*
G02*
X1955Y1327I-46J0D01*
G01*
X1972D01*
G75*
G02*
X1968Y1346I42J19D01*
G01*
Y1406D01*
G75*
G02*
X2059I46J0D01*
G01*
Y1346D01*
G75*
G02*
X2055Y1327I-46J0D01*
G01*
X2149D01*
Y1489D01*
X547D01*
G75*
G02*
X492I-28J0D01*
G01*
X302D01*
G37*
Y1520D02*
G36*
X302Y1520D02*
Y1489D01*
X492D01*
G75*
G02*
X547I28J0D01*
G01*
X2149D01*
Y1583D01*
X1751D01*
X1753Y1582D01*
G75*
G02*
X1777Y1554I-3J-27D01*
G01*
G75*
G02*
X1722Y1551I-28J0D01*
G01*
X1690Y1583D01*
X302D01*
Y1553D01*
G75*
G02*
X352Y1536I22J-16D01*
G01*
G75*
G02*
X302Y1520I-28J0D01*
G01*
G37*
Y1637D02*
G36*
X302Y1637D02*
Y1583D01*
X1690D01*
X1688Y1585D01*
G75*
G02*
X1652Y1612I-8J26D01*
G01*
G75*
G02*
X1668Y1637I28J0D01*
G01*
X493D01*
G75*
G02*
X438I-28J0D01*
G01*
X302D01*
G37*
X1692D02*
G36*
X1692Y1637D02*
G75*
G02*
X1698Y1633I-12J-25D01*
G01*
G75*
G02*
X1707Y1627I-6J-21D01*
G01*
X1751Y1583D01*
X2149D01*
Y1637D01*
X1692D01*
G37*
X302Y1677D02*
G36*
X302Y1677D02*
Y1637D01*
X438D01*
G75*
G02*
X493I28J0D01*
G01*
X1668D01*
G75*
G02*
X1692I12J-25D01*
G01*
X2149D01*
Y1677D01*
X1644D01*
G75*
G02*
X1589I-28J0D01*
G01*
X302D01*
G37*
Y1692D02*
G36*
X302Y1692D02*
Y1677D01*
X1589D01*
G75*
G02*
X1644I28J0D01*
G01*
X2149D01*
Y1677D01*
G75*
G02*
X2145Y1689I18J12D01*
G01*
Y1689D01*
Y1724D01*
X1984D01*
G75*
G02*
X1929I-28J0D01*
G01*
X1849D01*
G75*
G02*
X1804I-22J152D01*
G01*
X859D01*
X844Y1709D01*
G75*
G02*
X829Y1702I-15J15D01*
G01*
X717D01*
G75*
G02*
X673Y1724I-17J22D01*
G01*
Y1724D01*
X347D01*
G75*
G02*
X352Y1709I-23J-15D01*
G01*
G75*
G02*
X302Y1692I-28J0D01*
G01*
G37*
Y1784D02*
G36*
X302Y1784D02*
Y1725D01*
G75*
G02*
X347Y1724I22J-16D01*
G01*
X673D01*
G75*
G02*
X717Y1746I28J0D01*
G01*
X820D01*
X841Y1767D01*
G75*
G02*
X850Y1784I27J-3D01*
G01*
X454D01*
G75*
G02*
X399I-28J0D01*
G01*
X302D01*
G37*
X872Y1737D02*
G36*
X872Y1737D02*
X859Y1724D01*
X1804D01*
G75*
G02*
X1703Y1784I22J152D01*
G01*
X1701D01*
G75*
G02*
X1646I-28J1D01*
G01*
X1481D01*
G75*
G02*
X1482Y1777I-27J-7D01*
G01*
G75*
G02*
X1426I-28J0D01*
G01*
G75*
G02*
X1428Y1784I28J0D01*
G01*
X1188D01*
G75*
G02*
X1188Y1781I-27J-3D01*
G01*
G75*
G02*
X1133I-28J0D01*
G01*
G75*
G02*
X1133Y1784I28J0D01*
G01*
X888D01*
G75*
G02*
X896Y1764I-19J-20D01*
G01*
G75*
G02*
X872Y1737I-28J0D01*
G01*
G37*
X1849Y1724D02*
G36*
X1849Y1724D02*
X1929D01*
G75*
G02*
X1984I28J0D01*
G01*
X2145D01*
Y1750D01*
G75*
G02*
X2139Y1767I22J17D01*
G01*
G75*
G02*
X2145Y1784I28J0D01*
G01*
X1949D01*
G75*
G02*
X1849Y1724I-123J92D01*
G01*
G37*
X302Y1831D02*
G36*
X302Y1831D02*
Y1784D01*
X399D01*
G75*
G02*
X454I28J0D01*
G01*
X850D01*
G75*
G02*
X888I19J-20D01*
G01*
X1133D01*
G75*
G02*
X1188I27J-3D01*
G01*
X1428D01*
G75*
G02*
X1481I27J-7D01*
G01*
X1646D01*
G75*
G02*
X1646Y1785I28J1D01*
G01*
G75*
G02*
X1688Y1809I28J0D01*
G01*
G75*
G02*
X1679Y1831I138J67D01*
G01*
X1027D01*
G75*
G02*
X972I-28J0D01*
G01*
X302D01*
G37*
X1701Y1785D02*
G36*
X1701Y1785D02*
G75*
G02*
X1701Y1784I-28J0D01*
G01*
X1703D01*
G75*
G02*
X1701Y1787I123J92D01*
G01*
G75*
G02*
X1701Y1785I-26J-2D01*
G01*
Y1785D01*
G37*
X1973Y1831D02*
G36*
X1973Y1831D02*
G75*
G02*
X1949Y1784I-147J45D01*
G01*
X2145D01*
G75*
G02*
X2184Y1788I21J-17D01*
G01*
G75*
G02*
X2214Y1814I49J-27D01*
G01*
G75*
G02*
X2211Y1826I25J12D01*
G01*
G75*
G02*
X2212Y1831I28J0D01*
G01*
X2090D01*
G75*
G02*
X2090Y1827I-27J-4D01*
G01*
G75*
G02*
X2035I-28J0D01*
G01*
G75*
G02*
X2035Y1831I28J0D01*
G01*
X1973D01*
G37*
X2291D02*
G36*
X2291Y1831D02*
X2318Y1804D01*
G75*
G02*
X2324Y1792I-15J-15D01*
G01*
G75*
G02*
X2356Y1795I18J-21D01*
G01*
Y1831D01*
X2291D01*
G37*
X302Y1886D02*
G36*
X302Y1886D02*
Y1831D01*
X972D01*
G75*
G02*
X1027I28J0D01*
G01*
X1679D01*
G75*
G02*
X1673Y1876I147J45D01*
G01*
G75*
G02*
X1673Y1886I154J0D01*
G01*
X1486D01*
G75*
G02*
X1458I-14J24D01*
G01*
X1313D01*
G75*
G02*
X1284I-14J24D01*
G01*
X1117D01*
G75*
G02*
X1071I-23J16D01*
G01*
X884D01*
G75*
G02*
X855I-14J24D01*
G01*
X385D01*
G75*
G02*
X330I-28J0D01*
G01*
X302D01*
G37*
X1980Y1876D02*
G36*
X1980Y1876D02*
G75*
G02*
X1973Y1831I-154J0D01*
G01*
X2035D01*
G75*
G02*
X2090I27J-4D01*
G01*
X2212D01*
G75*
G02*
X2255Y1848I27J-5D01*
G01*
X2264D01*
G75*
G02*
X2280Y1842I0J-22D01*
G01*
X2291Y1831D01*
X2356D01*
Y1886D01*
X1979D01*
G75*
G02*
X1980Y1876I-153J-10D01*
G01*
G37*
X302Y1941D02*
G36*
X302Y1941D02*
Y1886D01*
X330D01*
G75*
G02*
X385I28J0D01*
G01*
X855D01*
G75*
G02*
X842Y1909I14J24D01*
G01*
G75*
G02*
X897I28J0D01*
G01*
G75*
G02*
X884Y1886I-28J0D01*
G01*
X1071D01*
G75*
G02*
X1066Y1902I23J16D01*
G01*
G75*
G02*
X1121I28J0D01*
G01*
G75*
G02*
X1117Y1886I-28J0D01*
G01*
X1284D01*
G75*
G02*
X1271Y1909I14J24D01*
G01*
G75*
G02*
X1326I28J0D01*
G01*
G75*
G02*
X1313Y1886I-28J0D01*
G01*
X1458D01*
G75*
G02*
X1444Y1909I14J24D01*
G01*
G75*
G02*
X1499I28J0D01*
G01*
G75*
G02*
X1486Y1886I-28J0D01*
G01*
X1673D01*
G75*
G02*
X1687Y1941I153J-10D01*
G01*
X1627D01*
G75*
G02*
X1640Y1918I-15J-23D01*
G01*
G75*
G02*
X1585I-28J0D01*
G01*
G75*
G02*
X1598Y1941I28J0D01*
G01*
X637D01*
G75*
G02*
X582I-28J0D01*
G01*
X495D01*
G75*
G02*
X440I-28J0D01*
G01*
X373D01*
G75*
G02*
X358I-8J27D01*
G01*
X302D01*
G37*
X1979D02*
G36*
X1979Y1941D02*
X1965D01*
G75*
G02*
X1979Y1886I-139J-65D01*
G01*
X2356D01*
Y1923D01*
G75*
G02*
X2311Y1941I-18J21D01*
G01*
X2222D01*
G75*
G02*
X2167I-27J3D01*
G01*
X2032D01*
G75*
G02*
X1979I-27J7D01*
G01*
G37*
X302Y1967D02*
G36*
X302Y1967D02*
Y1941D01*
X358D01*
G75*
G02*
X338Y1967I8J27D01*
G01*
X302D01*
G37*
X393D02*
G36*
X393Y1967D02*
G75*
G02*
X373Y1941I-28J0D01*
G01*
X440D01*
G75*
G02*
X460Y1967I28J0D01*
G01*
X393D01*
G37*
X475D02*
G36*
X475Y1967D02*
G75*
G02*
X495Y1941I-8J-27D01*
G01*
X582D01*
G75*
G02*
X602Y1967I28J0D01*
G01*
X475D01*
G37*
X617D02*
G36*
X617Y1967D02*
G75*
G02*
X637Y1941I-8J-27D01*
G01*
X1598D01*
G75*
G02*
X1627I15J-23D01*
G01*
X1687D01*
G75*
G02*
X1703Y1967I139J-65D01*
G01*
X617D01*
G37*
X1950D02*
G36*
X1950Y1967D02*
G75*
G02*
X1965Y1941I-123J-91D01*
G01*
X1979D01*
G75*
G02*
X1978Y1948I27J7D01*
G01*
G75*
G02*
X1986Y1967I28J0D01*
G01*
X1950D01*
G37*
X2033Y1948D02*
G36*
X2033Y1948D02*
G75*
G02*
X2032Y1941I-28J0D01*
G01*
X2167D01*
G75*
G02*
X2167Y1944I27J3D01*
G01*
G75*
G02*
X2180Y1967I28J0D01*
G01*
X2025D01*
G75*
G02*
X2033Y1948I-19J-20D01*
G01*
G37*
X2222Y1944D02*
G36*
X2222Y1944D02*
G75*
G02*
X2222Y1941I-28J0D01*
G01*
X2311D01*
G75*
G02*
X2310Y1944I27J3D01*
G01*
G75*
G02*
X2324Y1967I28J0D01*
G01*
X2209D01*
G75*
G02*
X2222Y1944I-14J-24D01*
G01*
G37*
X2352Y1967D02*
G36*
X2352Y1967D02*
G75*
G02*
X2356Y1965I-14J-24D01*
G01*
Y1967D01*
X2352D01*
G37*
X302Y2024D02*
G36*
X302Y2024D02*
Y1967D01*
X338D01*
G75*
G02*
X393I28J0D01*
G01*
X460D01*
G75*
G02*
X475I8J-27D01*
G01*
X602D01*
G75*
G02*
X617I8J-27D01*
G01*
X1703D01*
G75*
G02*
X1784Y2024I123J-91D01*
G01*
X1701D01*
G75*
G02*
X1676I-12J25D01*
G01*
X1499D01*
G75*
G02*
X1445I-27J4D01*
G01*
X1287D01*
G75*
G02*
X1232I-27J4D01*
G01*
X1119D01*
G75*
G02*
X1069I-25J12D01*
G01*
X897D01*
G75*
G02*
X842I-27J4D01*
G01*
X625D01*
G75*
G02*
X570I-28J0D01*
G01*
X377D01*
G75*
G02*
X322I-28J0D01*
G01*
X302D01*
G37*
X1868D02*
G36*
X1868Y2024D02*
G75*
G02*
X1950Y1967I-42J-148D01*
G01*
X1986D01*
G75*
G02*
X2025I19J-20D01*
G01*
X2180D01*
G75*
G02*
X2209I14J-24D01*
G01*
X2324D01*
G75*
G02*
X2352I14J-24D01*
G01*
X2356D01*
Y2024D01*
X2164D01*
G75*
G02*
X2140I-12J25D01*
G01*
X1973D01*
G75*
G02*
X1959I-7J27D01*
G01*
X1868D01*
G37*
X302Y2048D02*
G36*
X302Y2048D02*
Y2024D01*
X322D01*
G75*
G02*
X337Y2048I28J0D01*
G01*
X302D01*
G37*
X362D02*
G36*
X362Y2048D02*
G75*
G02*
X377Y2024I-12J-25D01*
G01*
X570D01*
G75*
G02*
X585Y2048I28J0D01*
G01*
X362D01*
G37*
X610D02*
G36*
X610Y2048D02*
G75*
G02*
X625Y2024I-12J-25D01*
G01*
X842D01*
G75*
G02*
X842Y2028I27J4D01*
G01*
G75*
G02*
X851Y2048I28J0D01*
G01*
X610D01*
G37*
X897Y2028D02*
G36*
X897Y2028D02*
G75*
G02*
X897Y2024I-28J0D01*
G01*
X1069D01*
G75*
G02*
X1066Y2035I25J12D01*
G01*
G75*
G02*
X1070Y2048I28J0D01*
G01*
X888D01*
G75*
G02*
X897Y2028I-18J-21D01*
G01*
G37*
X1121Y2035D02*
G36*
X1121Y2035D02*
G75*
G02*
X1119Y2024I-28J0D01*
G01*
X1232D01*
G75*
G02*
X1232Y2028I27J4D01*
G01*
G75*
G02*
X1241Y2048I28J0D01*
G01*
X1118D01*
G75*
G02*
X1121Y2035I-24J-13D01*
G01*
G37*
X1287Y2028D02*
G36*
X1287Y2028D02*
G75*
G02*
X1287Y2024I-28J0D01*
G01*
X1445D01*
G75*
G02*
X1444Y2028I27J4D01*
G01*
G75*
G02*
X1454Y2048I28J0D01*
G01*
X1278D01*
G75*
G02*
X1287Y2028I-18J-21D01*
G01*
G37*
X1499D02*
G36*
X1499Y2028D02*
G75*
G02*
X1499Y2024I-28J0D01*
G01*
X1676D01*
G75*
G02*
X1661Y2048I12J25D01*
G01*
X1490D01*
G75*
G02*
X1499Y2028I-18J-21D01*
G01*
G37*
X1716Y2048D02*
G36*
X1716Y2048D02*
G75*
G02*
X1701Y2024I-28J0D01*
G01*
X1784D01*
G75*
G02*
X1868I42J-148D01*
G01*
X1959D01*
G75*
G02*
X1938Y2048I7J27D01*
G01*
X1716D01*
G37*
X1993D02*
G36*
X1993Y2048D02*
G75*
G02*
X1973Y2024I-27J2D01*
G01*
X2140D01*
G75*
G02*
X2124Y2048I12J25D01*
G01*
X1993D01*
G37*
X2180D02*
G36*
X2180Y2048D02*
G75*
G02*
X2164Y2024I-28J0D01*
G01*
X2356D01*
Y2032D01*
G75*
G02*
X2309Y2048I-20J19D01*
G01*
X2180D01*
G37*
X302Y2083D02*
G36*
X302Y2083D02*
Y2048D01*
X337D01*
G75*
G02*
X362I12J-25D01*
G01*
X585D01*
G75*
G02*
X610I12J-25D01*
G01*
X851D01*
G75*
G02*
X888I18J-21D01*
G01*
X1070D01*
G75*
G02*
X1118I24J-13D01*
G01*
X1241D01*
G75*
G02*
X1278I18J-21D01*
G01*
X1454D01*
G75*
G02*
X1490I18J-21D01*
G01*
X1661D01*
G75*
G02*
X1716I28J0D01*
G01*
X1938D01*
G75*
G02*
X1938Y2050I27J2D01*
G01*
G75*
G02*
X1994I28J0D01*
G01*
G75*
G02*
X1993Y2048I-28J0D01*
G01*
X2124D01*
G75*
G02*
X2180I28J0D01*
G01*
X2309D01*
G75*
G02*
X2308Y2051I27J3D01*
G01*
G75*
G02*
X2356Y2070I28J0D01*
G01*
Y2083D01*
X302D01*
G37*
X593Y147D02*
Y196D01*
G75*
G02*
X497Y77I-152J25D01*
G01*
X1883D01*
G75*
G02*
X1882Y78I14J16D01*
G01*
X1832Y128D01*
G75*
G02*
X1778Y135I-27J7D01*
G01*
G75*
G02*
X1786Y155I28J0D01*
G01*
X1488D01*
G75*
G02*
X1496Y135I-19J-20D01*
G01*
G75*
G02*
X1441I-28J0D01*
G01*
G75*
G02*
X1450Y155I28J0D01*
G01*
X1223D01*
X1213Y144D01*
G75*
G02*
X1197Y138I-15J15D01*
G01*
X1070D01*
G75*
G02*
X1055Y144I0J22D01*
G01*
X1050Y150D01*
X944D01*
G75*
G02*
X954Y128I-17J-22D01*
G01*
G75*
G02*
X899I-28J0D01*
G01*
G75*
G02*
X910Y150I28J0D01*
G01*
X901D01*
X859Y108D01*
G75*
G02*
X844Y101I-15J15D01*
G01*
X638D01*
G75*
G02*
X627Y104I0J22D01*
G01*
G75*
G02*
X572Y107I-27J3D01*
G01*
G75*
G02*
X597Y135I28J0D01*
G01*
G75*
G02*
X593Y147I18J12D01*
G01*
G36*
X593Y147D02*
Y196D01*
G75*
G02*
X497Y77I-152J25D01*
G01*
X1883D01*
G75*
G02*
X1882Y78I14J16D01*
G01*
X1832Y128D01*
G75*
G02*
X1778Y135I-27J7D01*
G01*
G75*
G02*
X1786Y155I28J0D01*
G01*
X1488D01*
G75*
G02*
X1496Y135I-19J-20D01*
G01*
G75*
G02*
X1441I-28J0D01*
G01*
G75*
G02*
X1450Y155I28J0D01*
G01*
X1223D01*
X1213Y144D01*
G75*
G02*
X1197Y138I-15J15D01*
G01*
X1070D01*
G75*
G02*
X1055Y144I0J22D01*
G01*
X1050Y150D01*
X944D01*
G75*
G02*
X954Y128I-17J-22D01*
G01*
G75*
G02*
X899I-28J0D01*
G01*
G75*
G02*
X910Y150I28J0D01*
G01*
X901D01*
X859Y108D01*
G75*
G02*
X844Y101I-15J15D01*
G01*
X638D01*
G75*
G02*
X627Y104I0J22D01*
G01*
G75*
G02*
X572Y107I-27J3D01*
G01*
G75*
G02*
X597Y135I28J0D01*
G01*
G75*
G02*
X593Y147I18J12D01*
G01*
G37*
X668Y678D02*
G75*
G02*
X667Y678I0J46D01*
G01*
X676Y670D01*
X728D01*
G75*
G02*
X743Y667I0J-46D01*
G01*
G75*
G02*
X742Y673I27J6D01*
G01*
G75*
G02*
X744Y681I28J0D01*
G01*
G75*
G02*
X728Y678I-16J43D01*
G01*
X668D01*
G36*
X668Y678D02*
G75*
G02*
X667Y678I0J46D01*
G01*
X676Y670D01*
X728D01*
G75*
G02*
X743Y667I0J-46D01*
G01*
G75*
G02*
X742Y673I27J6D01*
G01*
G75*
G02*
X744Y681I28J0D01*
G01*
G75*
G02*
X728Y678I-16J43D01*
G01*
X668D01*
G37*
X1898Y133D02*
G75*
G02*
X1887Y134I0J51D01*
G01*
X1906Y115D01*
X2054D01*
G75*
G02*
X2064Y112I0J-22D01*
G01*
X2084D01*
G75*
G02*
X2020Y177I72J136D01*
G01*
G75*
G02*
X1969Y133I-51J7D01*
G01*
X1898D01*
G36*
X1898Y133D02*
G75*
G02*
X1887Y134I0J51D01*
G01*
X1906Y115D01*
X2054D01*
G75*
G02*
X2064Y112I0J-22D01*
G01*
X2084D01*
G75*
G02*
X2020Y177I72J136D01*
G01*
G75*
G02*
X1969Y133I-51J7D01*
G01*
X1898D01*
G37*
X2259Y77D02*
X2319D01*
G75*
G02*
X2301Y103I9J26D01*
G01*
G75*
G02*
X2356I28J0D01*
G01*
G75*
G02*
X2337Y77I-28J0D01*
G01*
X2360D01*
Y385D01*
G75*
G02*
X2339Y372I-23J15D01*
G01*
G75*
G02*
X2343Y359I-17J-13D01*
G01*
Y170D01*
G75*
G02*
X2337Y155I-22J0D01*
G01*
X2259Y77D01*
G36*
X2259Y77D02*
X2319D01*
G75*
G02*
X2301Y103I9J26D01*
G01*
G75*
G02*
X2356I28J0D01*
G01*
G75*
G02*
X2337Y77I-28J0D01*
G01*
X2360D01*
Y385D01*
G75*
G02*
X2339Y372I-23J15D01*
G01*
G75*
G02*
X2343Y359I-17J-13D01*
G01*
Y170D01*
G75*
G02*
X2337Y155I-22J0D01*
G01*
X2259Y77D01*
G37*
X2319Y627D02*
Y421D01*
G75*
G02*
X2360Y415I18J-21D01*
G01*
Y879D01*
G75*
G02*
X2319Y877I-21J18D01*
G01*
Y678D01*
G75*
G02*
X2358Y653I11J-25D01*
G01*
G75*
G02*
X2319Y627I-28J0D01*
G01*
G36*
X2319Y627D02*
Y421D01*
G75*
G02*
X2360Y415I18J-21D01*
G01*
Y879D01*
G75*
G02*
X2319Y877I-21J18D01*
G01*
Y678D01*
G75*
G02*
X2358Y653I11J-25D01*
G01*
G75*
G02*
X2319Y627I-28J0D01*
G01*
G37*
Y946D02*
Y916D01*
G75*
G02*
X2360Y914I20J-19D01*
G01*
Y1115D01*
G75*
G02*
X2324Y1110I-21J18D01*
G01*
Y960D01*
G75*
G02*
X2319Y946I-22J0D01*
G01*
G36*
X2319Y946D02*
Y916D01*
G75*
G02*
X2360Y914I20J-19D01*
G01*
Y1115D01*
G75*
G02*
X2324Y1110I-21J18D01*
G01*
Y960D01*
G75*
G02*
X2319Y946I-22J0D01*
G01*
G37*
X2324Y1347D02*
Y1156D01*
G75*
G02*
X2360Y1151I15J-23D01*
G01*
Y1351D01*
G75*
G02*
X2324Y1347I-20J19D01*
G01*
G36*
X2324Y1347D02*
Y1156D01*
G75*
G02*
X2360Y1151I15J-23D01*
G01*
Y1351D01*
G75*
G02*
X2324Y1347I-20J19D01*
G01*
G37*
Y1540D02*
Y1393D01*
G75*
G02*
X2360Y1389I16J-23D01*
G01*
Y1542D01*
G75*
G02*
X2324Y1540I-19J20D01*
G01*
G36*
X2324Y1540D02*
Y1393D01*
G75*
G02*
X2360Y1389I16J-23D01*
G01*
Y1542D01*
G75*
G02*
X2324Y1540I-19J20D01*
G01*
G37*
Y1751D02*
Y1584D01*
G75*
G02*
X2360Y1582I17J-22D01*
G01*
Y1751D01*
G75*
G02*
X2324Y1751I-18J21D01*
G01*
G36*
X2324Y1751D02*
Y1584D01*
G75*
G02*
X2360Y1582I17J-22D01*
G01*
Y1751D01*
G75*
G02*
X2324Y1751I-18J21D01*
G01*
G37*
D02*
D95*
X317Y504D02*
X300Y487D01*
X317Y512D02*
X300Y529D01*
X320Y664D02*
X303Y647D01*
X320Y672D02*
X303Y689D01*
X320Y913D02*
X303Y896D01*
X320Y921D02*
X303Y938D01*
X320Y1128D02*
X303Y1111D01*
X320Y1136D02*
X303Y1153D01*
X320Y1337D02*
X303Y1321D01*
X320Y1346D02*
X303Y1362D01*
X320Y1532D02*
X303Y1516D01*
X320Y1541D02*
X303Y1557D01*
X320Y1704D02*
X303Y1688D01*
X320Y1713D02*
X303Y1730D01*
X321Y508D02*
Y107D01*
X600D01*
X324Y917D02*
Y668D01*
Y1342D02*
Y1132D01*
Y1709D02*
Y1536D01*
X325Y512D02*
X342Y529D01*
X328Y664D02*
X345Y647D01*
X328Y672D02*
X345Y689D01*
X328Y913D02*
X345Y896D01*
X328Y921D02*
X345Y938D01*
X328Y1128D02*
X345Y1111D01*
X328Y1136D02*
X345Y1153D01*
X328Y1337D02*
X345Y1321D01*
X328Y1346D02*
X345Y1362D01*
X328Y1532D02*
X345Y1516D01*
X328Y1541D02*
X345Y1557D01*
X328Y1704D02*
X345Y1688D01*
X328Y1713D02*
X345Y1730D01*
X344Y2024D02*
X320D01*
X348Y127D02*
X331Y111D01*
X348Y314D02*
X331Y330D01*
X350Y2018D02*
Y1994D01*
Y2030D02*
Y2053D01*
X352Y1886D02*
X328D01*
X356Y2024D02*
X379D01*
X358Y1880D02*
Y1856D01*
Y1892D02*
Y1915D01*
X360Y1967D02*
X336D01*
X364Y1886D02*
X387D01*
X366Y1962D02*
Y1938D01*
Y1973D02*
Y1997D01*
X371Y1967D02*
X395D01*
X377Y411D02*
Y409D01*
X380D01*
Y458D01*
X405Y482D01*
Y486D01*
X421Y1784D02*
X397D01*
X427Y1778D02*
Y1754D01*
Y1790D02*
Y1814D01*
X433Y1784D02*
X456D01*
X460Y1637D02*
X436D01*
X461Y442D02*
X442Y423D01*
X461Y494D02*
X442Y513D01*
X462Y1941D02*
X438D01*
X466Y1631D02*
Y1607D01*
Y1637D02*
X427D01*
X466Y1642D02*
Y1666D01*
X468Y1105D02*
X444D01*
X468Y1935D02*
Y1911D01*
Y1941D02*
X610D01*
X468Y1947D02*
Y1970D01*
X471Y733D02*
X447D01*
X471Y1637D02*
X495D01*
X474Y1941D02*
X497D01*
X477Y739D02*
Y763D01*
X483Y733D02*
X506D01*
X487Y668D02*
X483Y664D01*
X407D01*
X368Y625D01*
Y499D01*
X347Y478D01*
Y388D01*
X355Y380D01*
X523D01*
X615Y288D01*
Y147D01*
X638Y123D01*
X844D01*
X892Y171D01*
X487Y668D02*
X467D01*
X513Y442D02*
X532Y423D01*
X513Y494D02*
X532Y513D01*
X513Y1489D02*
X490D01*
X519Y1484D02*
Y1460D01*
Y1495D02*
Y1519D01*
X522Y1129D02*
Y1152D01*
X525Y1489D02*
X549D01*
X535Y127D02*
X551Y111D01*
X576Y1105D02*
X599D01*
X592Y2024D02*
X568D01*
X596Y103D02*
X579Y86D01*
X596Y111D02*
X579Y128D01*
X598Y2018D02*
Y1994D01*
Y2024D02*
X350D01*
X598Y2030D02*
Y2053D01*
X604Y1941D02*
X580D01*
X604Y2024D02*
X627D01*
X604Y103D02*
X621Y86D01*
X610Y1935D02*
Y1911D01*
Y1947D02*
Y1970D01*
X616Y1941D02*
X639D01*
X644Y424D02*
X620D01*
X695Y621D02*
X698Y624D01*
Y400D02*
Y376D01*
Y448D02*
Y472D01*
Y524D02*
X833D01*
X698Y624D02*
X691D01*
X614Y701D01*
Y752D01*
X651Y789D01*
Y812D01*
X700Y1724D02*
X829D01*
X869Y1764D01*
X752Y424D02*
X775D01*
X787Y281D02*
Y305D01*
X816Y216D02*
X840D01*
X857Y862D02*
X833D01*
X857Y1118D02*
X833D01*
X858Y198D02*
X842Y215D01*
X864Y1909D02*
X840D01*
X864Y2028D02*
X840D01*
X865Y677D02*
X770D01*
Y673D01*
X867Y198D02*
X883Y215D01*
X870Y1904D02*
Y1880D01*
Y1915D02*
Y1939D01*
Y2022D02*
Y1998D01*
Y2033D02*
Y2057D01*
X875Y1909D02*
X899D01*
X875Y2028D02*
X899D01*
X888Y831D02*
Y808D01*
Y893D02*
Y917D01*
Y1087D02*
Y1064D01*
Y1118D02*
X874D01*
X784Y1029D01*
X888Y1149D02*
Y1173D01*
X919Y862D02*
X942D01*
X919Y1118D02*
X942D01*
X921Y128D02*
X897D01*
X927Y122D02*
Y98D01*
Y128D02*
X1469D01*
Y135D01*
X933Y128D02*
X956D01*
X994Y1831D02*
X970D01*
X999Y1825D02*
Y1801D01*
Y1837D02*
Y1860D01*
X1005Y1831D02*
X1029D01*
X1012Y1166D02*
X989D01*
X1018Y1160D02*
Y1137D01*
Y1172D02*
Y1196D01*
X1024Y1166D02*
X1048D01*
X1043Y427D02*
X1019D01*
X1049Y421D02*
Y398D01*
Y427D02*
X1048D01*
X1040Y419D01*
X1049Y433D02*
Y457D01*
X1055Y427D02*
X1078D01*
X1073Y784D02*
X967D01*
X966Y783D01*
X1084Y938D02*
X1060D01*
X1088Y1902D02*
X1064D01*
X1088Y2035D02*
X1064D01*
X1090Y932D02*
Y908D01*
Y944D02*
Y967D01*
X1094Y1896D02*
Y1872D01*
Y1902D02*
Y2035D01*
Y1907D02*
Y1931D01*
Y2030D02*
Y2006D01*
Y2041D02*
Y2065D01*
X1095Y938D02*
X1119D01*
X1100Y1902D02*
X1123D01*
X1100Y2035D02*
X1123D01*
X1114Y1327D02*
X1090D01*
X1119Y1321D02*
Y1297D01*
Y1327D02*
X1096D01*
X888Y1118D01*
X1119Y1333D02*
Y1356D01*
X1125Y1327D02*
X1149D01*
X1138Y189D02*
X1115D01*
X1144Y195D02*
Y219D01*
X1150Y189D02*
X1174D01*
X1155Y1781D02*
X1131D01*
X1161Y1775D02*
Y1751D01*
Y1787D02*
Y1810D01*
X1167Y1781D02*
X1190D01*
X1190Y945D02*
X1167D01*
X1196Y939D02*
Y915D01*
Y951D02*
Y974D01*
X1202Y945D02*
X1226D01*
X1253Y2028D02*
X1230D01*
X1259Y2022D02*
Y1998D01*
Y2033D02*
Y2057D01*
X1263Y1209D02*
X1188Y1134D01*
X1133D01*
X1265Y2028D02*
X1289D01*
X1292Y1073D02*
X1268D01*
X1293Y1909D02*
X1269D01*
X1297Y1067D02*
Y1043D01*
Y1073D02*
Y1046D01*
X1196Y945D01*
X1297Y1073D02*
Y919D01*
X1358Y859D01*
X1297Y1079D02*
Y1102D01*
X1299Y1904D02*
Y1880D01*
Y1909D02*
X870D01*
X1299Y1915D02*
Y1939D01*
X1303Y1073D02*
X1327D01*
X1305Y1909D02*
X1328D01*
X1317Y525D02*
X1293D01*
X1323Y519D02*
Y495D01*
Y531D02*
Y554D01*
X1329Y525D02*
X1352D01*
X1352Y859D02*
X1328D01*
X1354Y1216D02*
X1330D01*
X1354Y1217D02*
X1330D01*
X1358Y853D02*
Y829D01*
Y865D02*
Y889D01*
X1360Y1210D02*
Y1186D01*
Y1211D02*
Y1187D01*
Y1217D02*
Y1216D01*
Y1221D02*
Y1245D01*
Y1222D02*
Y1246D01*
X1364Y859D02*
X1387D01*
X1366Y1216D02*
X1389D01*
X1366Y1217D02*
X1389D01*
X1400Y582D02*
X1520D01*
X1560Y622D01*
X1413Y1088D02*
X1389D01*
X1419Y1082D02*
Y1058D01*
Y1094D02*
Y1117D01*
X1425Y1088D02*
X1448D01*
X1448Y1777D02*
X1425D01*
X1452Y1221D02*
X1428D01*
X1454Y1771D02*
Y1747D01*
Y1777D02*
X1165D01*
X1161Y1781D01*
X1454Y1782D02*
Y1806D01*
X1458Y1216D02*
Y1192D01*
Y1221D02*
X1446D01*
X1297Y1073D01*
X1458Y1227D02*
Y1251D01*
X1460Y1777D02*
X1484D01*
X1463Y135D02*
X1439D01*
X1464Y1221D02*
X1487D01*
X1466Y1909D02*
X1442D01*
X1466Y2028D02*
X1442D01*
X1469Y129D02*
Y105D01*
X1472Y1904D02*
Y1880D01*
Y1915D02*
Y1939D01*
Y2022D02*
Y1998D01*
Y2028D02*
Y1909D01*
Y2033D02*
Y2057D01*
X1475Y135D02*
X1498D01*
X1478Y969D02*
X1454D01*
X1478Y1909D02*
X1501D01*
X1478Y2028D02*
X1501D01*
X1484Y963D02*
Y939D01*
Y969D02*
X1503D01*
X1484Y974D02*
Y998D01*
X1485Y623D02*
X1402D01*
X1490Y969D02*
X1513D01*
X1518Y526D02*
X1502Y509D01*
X1518Y534D02*
X1502Y551D01*
X1523Y530D02*
X1328D01*
X1323Y525D01*
X1523Y530D02*
X1557D01*
X1659Y428D01*
X1527Y526D02*
X1543Y509D01*
X1527Y534D02*
X1543Y551D01*
X1546Y1205D02*
X1570D01*
X1636Y1139D01*
X1607Y1918D02*
X1583D01*
X1610Y1677D02*
X1587D01*
X1613Y1912D02*
Y1888D01*
Y1918D02*
Y1901D01*
Y1923D02*
Y1947D01*
X1616Y1671D02*
Y1647D01*
Y1677D02*
Y1714D01*
X1640Y1738D01*
X1616Y1683D02*
Y1707D01*
X1619Y1918D02*
X1642D01*
X1622Y1677D02*
X1646D01*
X1631Y699D02*
X1608D01*
X1637Y693D02*
Y669D01*
Y705D02*
Y728D01*
X1643Y699D02*
X1667D01*
X1653Y428D02*
X1629D01*
X1659Y422D02*
Y399D01*
Y434D02*
Y458D01*
X1665Y428D02*
X1688D01*
X1668Y1785D02*
X1644D01*
X1674Y1779D02*
Y1756D01*
Y1791D02*
Y1815D01*
X1680Y1612D02*
X1692D01*
X1749Y1554D01*
X1683Y2048D02*
X1659D01*
X1688Y2042D02*
Y2019D01*
Y2054D02*
Y2078D01*
X1694Y1876D02*
X1671D01*
X1694Y2048D02*
X1718D01*
X1696Y1264D02*
Y1192D01*
X1748Y1048D02*
X1724D01*
X1753Y1042D02*
Y1018D01*
Y1048D02*
X1323D01*
X1297Y1073D01*
X1753Y1054D02*
Y1077D01*
X1759Y1048D02*
X1783D01*
X1788Y671D02*
X1764D01*
X1789Y1376D02*
X1766D01*
X1794Y665D02*
Y642D01*
Y677D02*
Y701D01*
X1800Y135D02*
X1776D01*
X1800Y671D02*
X1823D01*
X1806Y129D02*
Y105D01*
Y135D02*
X1784D01*
X1813Y1322D02*
Y1298D01*
Y1430D02*
Y1454D01*
X1822Y227D02*
X1799D01*
X1826Y1744D02*
Y1720D01*
Y2008D02*
Y2031D01*
X1828Y222D02*
Y198D01*
Y233D02*
Y257D01*
X1834Y227D02*
X1858D01*
X1837Y1376D02*
X1861D01*
X1869Y184D02*
X1845D01*
X1870Y1901D02*
Y1888D01*
X2338D01*
Y1944D01*
X1933Y155D02*
Y131D01*
X1951Y1724D02*
X1927D01*
X1955Y527D02*
X1932D01*
X1957Y1718D02*
Y1695D01*
Y1730D02*
Y1754D01*
X1958Y1876D02*
X1982D01*
X1960Y2050D02*
X1936D01*
X1961Y521D02*
Y497D01*
Y532D02*
Y556D01*
X1963Y1724D02*
X1986D01*
X1966Y2044D02*
Y2021D01*
Y2050D02*
X1917D01*
X1902Y2035D01*
X1966Y2050D02*
X1690D01*
X1688Y2048D01*
X1966Y2056D02*
Y2080D01*
X1967Y527D02*
X1991D01*
X1972Y2050D02*
X1995D01*
X1999Y1948D02*
X1976D01*
X2005Y1942D02*
Y1918D01*
Y1954D02*
Y1977D01*
X2011Y1948D02*
X2035D01*
X2057Y1827D02*
X2033D01*
X2060Y922D02*
X2036D01*
X2062Y1821D02*
Y1797D01*
Y1827D02*
Y1864D01*
Y1833D02*
Y1856D01*
X2063Y155D02*
X2046Y138D01*
X2063Y341D02*
X2046Y358D01*
X2065Y916D02*
Y892D01*
Y928D02*
Y951D01*
X2068Y1827D02*
X2092D01*
X2071Y922D02*
X2095D01*
X2146Y2048D02*
X2122D01*
X2152Y2042D02*
Y2019D01*
Y2054D02*
Y2078D01*
X2158Y2048D02*
X2182D01*
X2167Y1767D02*
Y1689D01*
X2170Y1685D01*
Y1222D01*
X2119Y1171D01*
X2188Y1944D02*
X2165D01*
X2194Y1938D02*
Y1914D01*
Y1944D02*
X2186D01*
X2194Y1950D02*
Y1973D01*
X2197Y482D02*
X2174D01*
X2200Y1944D02*
X2224D01*
X2201Y767D02*
X2177D01*
X2203Y476D02*
Y453D01*
Y488D02*
Y512D01*
X2207Y761D02*
Y737D01*
Y773D02*
Y796D01*
X2209Y482D02*
X2233D01*
X2212Y767D02*
X2236D01*
X2239Y1826D02*
X2240Y1827D01*
X2264D01*
X2303Y1788D01*
Y960D01*
X2298Y955D01*
Y383D01*
X2321Y359D01*
Y170D01*
X2242Y91D01*
X2057D01*
X2054Y94D01*
X1897D01*
X1814Y176D01*
X1214D01*
X1197Y159D01*
X1070D01*
X1058Y171D01*
X892D01*
X2249Y341D02*
X2266Y358D01*
X2322Y103D02*
X2299D01*
X2328Y109D02*
Y133D01*
X2330Y647D02*
Y623D01*
Y658D02*
Y682D01*
X2332Y2047D02*
X2315Y2030D01*
X2332Y2055D02*
X2315Y2072D01*
X2332Y1944D02*
X2308D01*
X2334Y103D02*
X2358D01*
X2337Y116D02*
X2328Y107D01*
Y103D01*
X2338Y1938D02*
Y1914D01*
Y1944D02*
X2194D01*
X2338Y1950D02*
Y1973D01*
X2339Y891D02*
Y867D01*
Y897D02*
Y653D01*
X2330D01*
X2339Y903D02*
Y926D01*
Y1127D02*
Y1103D01*
Y1139D02*
Y1162D01*
X2340Y1364D02*
Y1341D01*
Y1370D02*
Y1133D01*
X2339D01*
X2340Y1376D02*
Y1400D01*
X2340Y2047D02*
X2357Y2030D01*
X2340Y2055D02*
X2357Y2072D01*
X2341Y1556D02*
Y1532D01*
Y1568D02*
Y1592D01*
X2341Y395D02*
X2358Y379D01*
X2341Y404D02*
X2358Y420D01*
X2342Y1766D02*
Y1742D01*
Y1772D02*
Y1562D01*
X2341D01*
X2342Y1778D02*
Y1801D01*
D02*
D96*
X1198Y607D02*
Y797D01*
X1358Y859D02*
X891D01*
X888Y862D01*
X1962Y867D02*
Y771D01*
D02*
D97*
X321Y508D03*
X324Y668D03*
Y917D03*
Y1132D03*
Y1342D03*
Y1536D03*
Y1709D03*
X350Y2024D03*
X358Y1886D03*
X366Y1967D03*
X377Y411D03*
X405Y486D03*
X427Y1637D02*
Y1199D01*
X522Y1105D01*
X427Y1784D03*
Y1637D01*
X466D03*
X468Y1941D03*
X477Y733D03*
X487Y468D02*
X654D01*
X698Y424D01*
X519Y1489D03*
X522Y1105D02*
X595D01*
X741Y958D01*
X792D01*
X888Y862D01*
X535Y299D03*
X598Y2024D03*
X600Y107D03*
X610Y1941D03*
X651Y812D03*
X700Y1724D03*
X770Y673D03*
X787Y216D02*
Y335D01*
X698Y424D01*
X833Y524D03*
X862Y194D03*
X865Y677D03*
X869Y1764D03*
X870Y1909D03*
Y2028D03*
X888Y862D02*
Y794D01*
X1028Y653D01*
X1071D01*
X1196Y529D01*
X927Y128D03*
X966Y783D03*
X999Y1831D03*
X1018Y1166D03*
X1049Y427D03*
X1073Y784D03*
X1090Y938D03*
X1094Y1902D03*
Y2035D03*
X1119Y1327D03*
X1133Y1134D03*
X1144Y189D03*
X1161Y1781D03*
X1189Y230D03*
Y356D01*
X1191D01*
D03*
X1196Y529D02*
X953D01*
X835Y411D01*
X711D01*
X698Y424D01*
X1196Y945D03*
X1198Y607D03*
Y797D03*
X1259Y2028D03*
X1263Y1209D03*
X1297Y1073D03*
X1299Y1909D03*
X1323Y525D03*
X1200D01*
X1196Y529D01*
X1358Y859D03*
X1360Y1216D03*
Y1217D03*
X1400Y582D03*
X1402Y623D03*
X1419Y1088D03*
X1454Y1777D03*
X1458Y1221D03*
X1469Y135D03*
X1472Y1909D03*
Y2028D03*
X1484Y969D03*
X1485Y623D03*
X1523Y530D03*
X1546Y1205D03*
X1560Y622D03*
X1613Y1918D03*
X1616Y1677D03*
X1636Y1139D03*
X1637Y699D03*
X1659Y428D03*
X1411D01*
X1323Y517D01*
Y525D01*
X1674Y1785D03*
X1680Y1612D03*
X1688Y2048D03*
X1696Y1192D03*
Y1264D03*
X1749Y1554D03*
X1753Y1048D03*
X1794Y671D03*
X1806Y135D03*
X1828Y227D03*
Y259D01*
X1659Y428D01*
X1933Y184D02*
Y175D01*
X1880D01*
X1828Y227D01*
X1957Y1724D03*
X1961Y527D03*
X1962Y771D03*
Y867D03*
X1966Y2050D03*
X2005Y1948D03*
X2062Y1827D03*
X2065Y922D03*
X1880D01*
X1753Y1048D01*
X2119Y1171D03*
X2152Y2048D03*
X2167Y1767D03*
X2194Y1944D03*
X2203Y482D03*
X2207Y767D03*
X2239Y1826D03*
X2328Y103D03*
X2330Y653D03*
X2336Y2051D03*
X2337Y400D03*
X2338Y1944D03*
X2339Y897D03*
Y1133D03*
X2340Y1370D03*
X2341Y1562D03*
X2342Y1772D03*
D02*
D98*
X441Y220D03*
X1826Y1876D03*
X2156Y248D03*
D02*
D99*
X1813Y1376D03*
X1913D03*
X2013D03*
D02*
D100*
X487Y468D03*
Y568D03*
Y668D03*
X522Y868D03*
Y947D03*
Y1026D03*
X698Y424D03*
Y524D03*
Y624D03*
Y724D03*
D02*
D101*
X710Y862D03*
Y1118D03*
X888Y862D03*
Y1118D03*
D02*
D102*
X687Y216D03*
X787D03*
D02*
D103*
X2233Y1762D03*
D02*
D104*
Y1062D03*
Y1162D03*
Y1262D03*
Y1362D03*
Y1462D03*
Y1562D03*
Y1662D03*
D02*
D105*
X522Y1105D03*
D02*
D106*
X1933Y184D03*
Y284D03*
D02*
D139*
X288Y67D02*
X2370D01*
Y2567D01*
X288D01*
Y67D01*
X0Y0D02*
M02*
