  0
SECTION
  2
HEADER
  9
$EXTMIN
 10
424.64
 20
497.48
  9
$EXTMAX
 10
529.66
 20
523.16
  9
$LIMMIN
 10
424.64
 20
497.48
  9
$LIMMAX
 10
529.66
 20
523.16
  0
ENDSEC
  0
SECTION
  2
TABLES
  0
TABLE
  2
LAYER
 70
    18
  0
LAYER
  2
0
 70
    64
 62
     7
  6
CONTINUOUS
  0
LAYER
  2
_BOARD
 70
    64
 62
    254
  6
CONTINUOUS
  0
LAYER
  2
_DRILL
 70
    64
 62
    251
  6
CONTINUOUS
  0
ENDTAB
  0
ENDSEC
  0
SECTION
  2
BLOCKS
  0
BLOCK
  8
0
  2
_HOLE
 70
    64
 10
0.00
 20
0.00
  0
CIRCLE
  8
0
 10
0.00
 20
0.00
 40
0.500
  0
ENDBLK
  8
0
  0
ENDSEC
  0
SECTION
  2
ENTITIES
  0
POLYLINE
  8
_BOARD
 66
     1
 62
     3
 10
0.00
 20
0.00
 70
     1
 40
0.00
 41
0.00
  0
VERTEX
  8
_BOARD
 10
424.70
 20
523.10
 40
0.00
 41
0.00
  0
VERTEX
  8
_BOARD
 10
529.60
 20
523.10
  0
VERTEX
  8
_BOARD
 10
529.60
 20
523.10
 40
0.00
 41
0.00
  0
VERTEX
  8
_BOARD
 10
529.60
 20
497.60
  0
VERTEX
  8
_BOARD
 10
529.60
 20
497.60
 40
0.00
 41
0.00
  0
VERTEX
  8
_BOARD
 10
424.70
 20
497.60
  0
VERTEX
  8
_BOARD
 10
424.70
 20
497.60
 40
0.00
 41
0.00
  0
VERTEX
  8
_BOARD
 10
424.70
 20
523.10
 40
0.00
 41
0.00
  0
VERTEX
  8
_BOARD
 10
424.70
 20
523.10
  0
SEQEND
  8
_BOARD
  0
INSERT
  8
_DRILL
  2
_HOLE
 10
427.90
 20
511.00
 41
2.20
 42
2.20
  0
INSERT
  8
_DRILL
  2
_HOLE
 10
435.30
 20
510.40
 41
2.20
 42
2.20
  0
INSERT
  8
_DRILL
  2
_HOLE
 10
442.90
 20
510.80
 41
2.20
 42
2.20
  0
INSERT
  8
_DRILL
  2
_HOLE
 10
450.10
 20
510.00
 41
2.20
 42
2.20
  0
INSERT
  8
_DRILL
  2
_HOLE
 10
457.30
 20
510.80
 41
2.20
 42
2.20
  0
INSERT
  8
_DRILL
  2
_HOLE
 10
464.90
 20
510.20
 41
2.20
 42
2.20
  0
INSERT
  8
_DRILL
  2
_HOLE
 10
472.70
 20
511.00
 41
2.20
 42
2.20
  0
INSERT
  8
_DRILL
  2
_HOLE
 10
480.30
 20
510.00
 41
2.20
 42
2.20
  0
INSERT
  8
_DRILL
  2
_HOLE
 10
488.10
 20
510.80
 41
2.20
 42
2.20
  0
INSERT
  8
_DRILL
  2
_HOLE
 10
495.30
 20
510.20
 41
2.20
 42
2.20
  0
INSERT
  8
_DRILL
  2
_HOLE
 10
501.30
 20
501.00
 41
2.20
 42
2.20
  0
INSERT
  8
_DRILL
  2
_HOLE
 10
493.58
 20
501.60
 41
2.20
 42
2.20
  0
INSERT
  8
_DRILL
  2
_HOLE
 10
486.24
 20
500.80
 41
2.20
 42
2.20
  0
INSERT
  8
_DRILL
  2
_HOLE
 10
478.30
 20
501.40
 41
2.20
 42
2.20
  0
INSERT
  8
_DRILL
  2
_HOLE
 10
471.08
 20
500.80
 41
2.20
 42
2.20
  0
INSERT
  8
_DRILL
  2
_HOLE
 10
463.24
 20
501.60
 41
2.20
 42
2.20
  0
INSERT
  8
_DRILL
  2
_HOLE
 10
456.08
 20
500.80
 41
2.20
 42
2.20
  0
INSERT
  8
_DRILL
  2
_HOLE
 10
448.50
 20
501.60
 41
2.20
 42
2.20
  0
INSERT
  8
_DRILL
  2
_HOLE
 10
441.08
 20
500.80
 41
2.20
 42
2.20
  0
INSERT
  8
_DRILL
  2
_HOLE
 10
433.24
 20
501.80
 41
2.20
 42
2.20
  0
INSERT
  8
_DRILL
  2
_HOLE
 10
508.92
 20
520.03
 41
1.50
 42
1.50
  0
INSERT
  8
_DRILL
  2
_HOLE
 10
493.68
 20
520.03
 41
1.50
 42
1.50
  0
INSERT
  8
_DRILL
  2
_HOLE
 10
508.92
 20
514.53
 41
1.50
 42
1.50
  0
INSERT
  8
_DRILL
  2
_HOLE
 10
493.68
 20
514.53
 41
1.50
 42
1.50
  0
INSERT
  8
_DRILL
  2
_HOLE
 10
486.94
 20
519.84
 41
0.90
 42
0.90
  0
INSERT
  8
_DRILL
  2
_HOLE
 10
486.94
 20
517.30
 41
0.90
 42
0.90
  0
INSERT
  8
_DRILL
  2
_HOLE
 10
484.40
 20
519.84
 41
0.90
 42
0.90
  0
INSERT
  8
_DRILL
  2
_HOLE
 10
484.40
 20
517.30
 41
0.90
 42
0.90
  0
INSERT
  8
_DRILL
  2
_HOLE
 10
481.86
 20
519.84
 41
0.90
 42
0.90
  0
INSERT
  8
_DRILL
  2
_HOLE
 10
481.86
 20
517.30
 41
0.90
 42
0.90
  0
INSERT
  8
_DRILL
  2
_HOLE
 10
479.32
 20
519.84
 41
0.90
 42
0.90
  0
INSERT
  8
_DRILL
  2
_HOLE
 10
479.32
 20
517.30
 41
0.90
 42
0.90
  0
INSERT
  8
_DRILL
  2
_HOLE
 10
476.78
 20
519.84
 41
0.90
 42
0.90
  0
INSERT
  8
_DRILL
  2
_HOLE
 10
476.78
 20
517.30
 41
0.90
 42
0.90
  0
INSERT
  8
_DRILL
  2
_HOLE
 10
474.24
 20
519.84
 41
0.90
 42
0.90
  0
INSERT
  8
_DRILL
  2
_HOLE
 10
474.24
 20
517.30
 41
0.90
 42
0.90
  0
INSERT
  8
_DRILL
  2
_HOLE
 10
471.70
 20
519.84
 41
0.90
 42
0.90
  0
INSERT
  8
_DRILL
  2
_HOLE
 10
471.70
 20
517.30
 41
0.90
 42
0.90
  0
INSERT
  8
_DRILL
  2
_HOLE
 10
469.16
 20
519.84
 41
0.90
 42
0.90
  0
INSERT
  8
_DRILL
  2
_HOLE
 10
469.16
 20
517.30
 41
0.90
 42
0.90
  0
INSERT
  8
_DRILL
  2
_HOLE
 10
466.62
 20
519.84
 41
0.90
 42
0.90
  0
INSERT
  8
_DRILL
  2
_HOLE
 10
466.62
 20
517.30
 41
0.90
 42
0.90
  0
INSERT
  8
_DRILL
  2
_HOLE
 10
464.08
 20
519.84
 41
0.90
 42
0.90
  0
INSERT
  8
_DRILL
  2
_HOLE
 10
464.08
 20
517.30
 41
0.90
 42
0.90
  0
INSERT
  8
_DRILL
  2
_HOLE
 10
461.54
 20
519.84
 41
0.90
 42
0.90
  0
INSERT
  8
_DRILL
  2
_HOLE
 10
461.54
 20
517.30
 41
0.90
 42
0.90
  0
INSERT
  8
_DRILL
  2
_HOLE
 10
459.00
 20
519.84
 41
0.90
 42
0.90
  0
INSERT
  8
_DRILL
  2
_HOLE
 10
459.00
 20
517.30
 41
0.90
 42
0.90
  0
INSERT
  8
_DRILL
  2
_HOLE
 10
456.46
 20
519.84
 41
0.90
 42
0.90
  0
INSERT
  8
_DRILL
  2
_HOLE
 10
456.46
 20
517.30
 41
0.90
 42
0.90
  0
INSERT
  8
_DRILL
  2
_HOLE
 10
453.92
 20
519.84
 41
0.90
 42
0.90
  0
INSERT
  8
_DRILL
  2
_HOLE
 10
453.92
 20
517.30
 41
0.90
 42
0.90
  0
INSERT
  8
_DRILL
  2
_HOLE
 10
451.38
 20
519.84
 41
0.90
 42
0.90
  0
INSERT
  8
_DRILL
  2
_HOLE
 10
451.38
 20
517.30
 41
0.90
 42
0.90
  0
INSERT
  8
_DRILL
  2
_HOLE
 10
448.84
 20
519.84
 41
0.90
 42
0.90
  0
INSERT
  8
_DRILL
  2
_HOLE
 10
448.84
 20
517.30
 41
0.90
 42
0.90
  0
INSERT
  8
_DRILL
  2
_HOLE
 10
446.30
 20
519.84
 41
0.90
 42
0.90
  0
INSERT
  8
_DRILL
  2
_HOLE
 10
446.30
 20
517.30
 41
0.90
 42
0.90
  0
INSERT
  8
_DRILL
  2
_HOLE
 10
523.70
 20
505.60
 41
5.00
 42
5.00
  0
INSERT
  8
_DRILL
  2
_HOLE
 10
510.90
 20
505.60
 41
5.00
 42
5.00
  0
INSERT
  8
_DRILL
  2
_HOLE
 10
523.16
 20
514.76
 41
1.19
 42
1.19
  0
INSERT
  8
_DRILL
  2
_HOLE
 10
523.16
 20
519.84
 41
1.19
 42
1.19
  0
INSERT
  8
_DRILL
  2
_HOLE
 10
429.60
 20
519.40
 41
2.20
 42
2.20
  0
ENDSEC
  0
EOF
